<?xml version="1.0" encoding="UTF-8"?>
<!-- Generator: Adobe Illustrator 25.1.0, SVG Export Plug-In . SVG Version: 6.00 Build 0)  -->
<svg xmlns="http://www.w3.org/2000/svg" xmlns:xlink="http://www.w3.org/1999/xlink" version="1.1" id="Capa_1" x="0px" y="0px" viewBox="0 0 500 500" style="enable-background:new 0 0 500 500;" xml:space="preserve" width="512" height="512">
<g>
	<path style="fill:#EA8060;" d="M190.24,222.902c0,0,66.991-52.327,74.709-60.228c7.717-7.901-69.335-34.972-69.335-34.972   l10.766-27.011c0,0,91.652,49.789,95.738,59.611s-98.896,88.066-98.896,88.066L190.24,222.902z"/>
	<path style="fill:#EA8060;" d="M118.991,205.919c0,0-85.071-59.691-82.108-64.261l78.09-65.072l-14.291-23.081   c0,0-102.629,74.62-100.654,88.815c1.975,14.195,102.71,87.491,102.71,87.491L118.991,205.919z"/>
	<path style="fill:#F7C67C;" d="M312.381,359.05c0,0-43.401,119.208-105.132,91.955l70.636-131.894L312.381,359.05z"/>
	<path style="fill:#EA8060;" d="M185.639,281.378c0,0,12.033,72.839,44.309,84.814l-76.747,47.754c0,0-24.144-55.523-37.04-121.582   L185.639,281.378z"/>
	<path style="fill:#251426;" d="M450.869,407.045l29.369,25.354l6.561-8.111l-11.047-4.696c0,0,15.404,6.576,24.247-19.982   c0,0-31.564,21.499-38.044-8.294L450.869,407.045z"/>
	<path style="fill:#251426;" d="M391.849,429.674l29.369,25.354l6.561-8.111l-11.046-4.696c0,0,15.404,6.576,24.247-19.982   c0,0-31.564,21.499-38.044-8.294L391.849,429.674z"/>
	<path style="fill:#EA8060;" d="M106.907,60.127c0,0,49.379-50.573,101.683-22.017c39.132,21.365,24.069,160.04-41.734,152.497   C120.212,185.259,72.239,95.895,106.907,60.127z"/>
	<path style="fill:#251626;" d="M189.645,124.944c-0.089,0-0.178-0.006-0.27-0.019c-4.601-0.642-19.569-4.305-20.204-4.461   c-0.573-0.14-0.923-0.718-0.783-1.291c0.142-0.574,0.728-0.918,1.292-0.782c0.149,0.035,14.502,3.547,19.512,4.346   c-0.138-3.285-7.523-18.257-15.005-31.605c-0.289-0.513-0.105-1.164,0.409-1.454c0.518-0.288,1.166-0.104,1.454,0.411   c6.44,11.487,16.942,31.202,14.915,34.172C190.663,124.704,190.191,124.944,189.645,124.944z"/>
	<path style="fill:#251626;" d="M168.588,161.37c-0.637,0-1.246-0.211-1.797-0.63c-4.698-3.564-4.35-24.37-4.296-26.731   c0.013-0.59,0.505-1.055,1.093-1.043c0.589,0.015,1.056,0.503,1.043,1.093c-0.197,8.494,0.565,22.789,3.452,24.981   c0.259,0.196,0.489,0.238,0.796,0.146c4.783-1.458,13.027-16.562,15.8-22.259c0.258-0.527,0.898-0.751,1.427-0.492   c0.531,0.256,0.751,0.897,0.493,1.426c-1.062,2.182-10.562,21.375-17.099,23.369C169.193,161.325,168.887,161.37,168.588,161.37z"/>
	<path style="fill:#251626;" d="M148.117,101.07c-0.005,0-0.01,0-0.016,0c-4.809-0.027-7.613-13.854-8.359-18.09   c-0.101-0.582,0.287-1.134,0.868-1.237c0.581-0.115,1.133,0.286,1.237,0.866c1.385,7.875,4.235,16.313,6.267,16.326   c0.001,0,0.002,0,0.004,0c1.911,0,3.486-8.48,3.703-16.101c0.017-0.588,0.519-1.043,1.098-1.036   c0.59,0.017,1.054,0.509,1.037,1.099C153.835,87.162,153.054,101.07,148.117,101.07z"/>
	<path style="fill:#251626;" d="M198.449,100.397c-0.005,0-0.01,0-0.016,0c-4.676-0.027-9.933-13.736-11.432-17.936   c-0.199-0.555,0.091-1.166,0.646-1.364c0.549-0.198,1.167,0.09,1.364,0.646c2.834,7.933,7.247,16.505,9.434,16.518   c0.001,0,0.002,0,0.004,0c1.91,0,3.485-8.482,3.703-16.103c0.017-0.588,0.547-1.057,1.098-1.036   c0.59,0.017,1.054,0.509,1.037,1.099C204.167,86.486,203.387,100.397,198.449,100.397z"/>
	
		<ellipse transform="matrix(0.466 -0.8848 0.8848 0.466 45.962 262.9385)" style="fill:#EA8060;" cx="240.812" cy="93.392" rx="12.371" ry="12.371"/>
	<path style="fill:#251626;" d="M239.116,103.354c-0.447,0-0.863-0.284-1.012-0.73c-1.739-5.218-1.647-9.116,0.275-11.589   c2.205-2.838,5.921-2.607,6.072-2.592c0.588,0.044,1.03,0.555,0.988,1.143c-0.043,0.588-0.525,1.049-1.138,0.989   c-0.026,0-2.756-0.148-4.246,1.785c-1.426,1.85-1.401,5.166,0.074,9.589c0.187,0.559-0.116,1.164-0.675,1.352   C239.341,103.337,239.227,103.354,239.116,103.354z"/>
	
		<ellipse transform="matrix(0.905 -0.4254 0.4254 0.905 -38.0817 67.3031)" style="fill:#E45442;" cx="131.637" cy="118.909" rx="12.646" ry="12.646"/>
	<path style="fill:#E45442;" d="M220.873,119.825c-0.506,6.966-6.563,12.202-13.528,11.696c-6.966-0.506-12.202-6.563-11.697-13.529   c0.506-6.966,6.563-12.202,13.529-11.696C216.142,106.802,221.379,112.859,220.873,119.825z"/>
	<path style="fill:#EA8060;" d="M174.591,170.732l-9.277,52.17h24.925c0,0-14.441,37.658-32.62,38.544   c-18.179,0.886-38.629-55.526-38.629-55.526l31.51,10.173l2.388-45.361H174.591z"/>
	<polygon style="fill:#F7C67C;" points="207.249,415.21 263.618,281.378 424.573,401.932 397.33,451.005 265.852,319.111    245.038,427.205  "/>
	<polygon style="fill:#F7C67C;" points="240.927,412.363 327.289,273.692 476.083,382.889 455.895,427.205 339.148,313.107    268.43,434.487  "/>
	<path style="fill:#E9546A;" d="M144.283,211.532c0,0,8.917,38.524,21.031,41.371c14.303,3.362,7.74-31.463,7.74-31.463   l17.186,1.462c0,0,74.067,47.222,8.901,76.713c-65.166,29.492-97.583-7.828-98.459-47.542   c-0.876-39.714,18.309-46.154,18.309-46.154L144.283,211.532z"/>
	<path style="fill:#F7C67C;" d="M283.162,296.016c0,0-30.901,149.495-65.052,154.989c-34.151,5.494-64.91-37.06-64.91-37.06   l110.418-132.568L283.162,296.016z"/>
	<path style="fill:#251626;" d="M207.25,452.074c-0.388,0-0.761-0.211-0.951-0.58c-0.269-0.523-0.063-1.168,0.462-1.437   c0.705-0.363,70.473-37.217,66.764-117.753c-0.02-0.438,0.229-0.845,0.629-1.024c0.399-0.177,0.869-0.098,1.181,0.209   l34.946,33.938c0.423,0.411,0.434,1.087,0.023,1.51c-0.41,0.421-1.086,0.432-1.51,0.021l-33.038-32.085   c2.133,80.077-67.309,116.719-68.019,117.082C207.581,452.036,207.414,452.074,207.25,452.074z"/>
	<path style="fill:#251626;" d="M274.426,333.438c-0.852,0-2.208-1.047-10.455-19.903c-0.237-0.54,0.01-1.17,0.551-1.406   c0.539-0.236,1.171,0.013,1.406,0.551c2.876,6.576,6.164,13.644,7.953,16.954c0.477-4.277,1.257-13.222,1.77-19.508   c0.049-0.586,0.574-1.024,1.151-0.976c0.588,0.048,1.026,0.563,0.978,1.151c-0.17,2.077-1.673,20.355-2.152,22.22   c-0.114,0.44-0.59,0.874-1.045,0.909C274.531,333.434,274.48,333.438,274.426,333.438z"/>
	<path style="fill:#251626;" d="M378.254,432.938c-0.236,0-0.473-0.077-0.671-0.238c-0.459-0.371-0.53-1.043-0.158-1.502   l32.561-40.241c0.371-0.457,1.045-0.532,1.502-0.159c0.459,0.371,0.53,1.043,0.158,1.502l-32.561,40.241   C378.875,432.803,378.566,432.938,378.254,432.938z"/>
	<path style="fill:#251626;" d="M440.979,407.736c-0.167,0-0.337-0.039-0.495-0.123c-0.523-0.273-0.724-0.92-0.45-1.441   l18.783-35.757c0.276-0.521,0.919-0.72,1.442-0.448c0.523,0.273,0.724,0.92,0.45,1.441l-18.783,35.757   C441.734,407.528,441.363,407.736,440.979,407.736z"/>
	<path style="fill:#251626;" d="M339.147,314.176c-0.438,0-0.841-0.271-0.999-0.692l-6.407-17.091   c-0.207-0.553,0.073-1.168,0.626-1.374c0.548-0.217,1.167,0.071,1.374,0.624l4.339,11.577v-11.202c0-0.59,0.478-1.068,1.068-1.068   c0.59,0,1.068,0.478,1.068,1.068v17.091c0,0.517-0.369,0.96-0.877,1.051C339.274,314.169,339.211,314.176,339.147,314.176z"/>
	<path style="fill:#251626;" d="M329.07,331.469c-0.222,0-0.447-0.069-0.639-0.213l-26.954-20.188   c-0.472-0.355-0.568-1.024-0.215-1.495c0.353-0.469,1.021-0.569,1.495-0.215l26.954,20.188c0.472,0.355,0.568,1.024,0.215,1.495   C329.716,331.321,329.396,331.469,329.07,331.469z"/>
	<path style="fill:#251626;" d="M99.767,443.427c-0.166,0-0.334-0.038-0.49-0.119c-0.595-0.309-14.63-7.742-19.168-23.761   c-3.277-11.569-0.696-24.508,7.672-38.454c14.353-23.926,43.596-34.564,67.093-43.113c9.014-3.281,17.059-6.207,22.839-9.375   c-2.693-0.113-4.533-0.82-5.512-2.125c-1.364-1.819-0.9-4.455,1.31-7.427c3.17-4.267,9.189-8.104,12.754-6.799   c1.429,0.523,3.077,2.029,2.809,6.226c-0.17,2.667-1.424,5.001-3.543,7.126c4.149-0.876,9.754-2.503,17.32-5.318   c14.131-5.258,23.429-13.996,27.636-25.974c10.305-29.338-13.052-68.928-13.29-69.324c-0.302-0.507-0.138-1.162,0.368-1.464   c0.506-0.307,1.162-0.138,1.465,0.367c0.06,0.102,6.104,10.276,10.756,24.013c4.314,12.739,8.287,31.254,2.715,47.117   c-4.427,12.603-14.153,21.777-28.906,27.267c-9.018,3.356-16.173,5.379-21.427,6.065c-6.078,4.179-15.639,7.656-26.564,11.631   c-23.18,8.434-52.028,18.929-65.992,42.203c-8.046,13.412-10.554,25.775-7.455,36.75c4.271,15.123,17.966,22.399,18.104,22.472   c0.522,0.271,0.727,0.916,0.455,1.439C100.525,443.216,100.152,443.427,99.767,443.427z M184.635,314.117   c-2.545,0-6.842,2.753-9.412,6.209c-1.548,2.086-2.041,3.906-1.315,4.874c0.452,0.601,2.05,1.75,7.52,1.099   c3.325-2.382,5.323-4.96,5.514-7.956c0.101-1.589-0.062-3.587-1.413-4.084C185.264,314.163,184.964,314.117,184.635,314.117z"/>
	<path style="fill:#251626;" d="M146.842,498.788c-0.243,0-0.486-0.081-0.685-0.248l-55.242-46.227   c-0.222-0.186-0.359-0.455-0.38-0.743c-0.021-0.288,0.076-0.574,0.269-0.788l27.392-30.637c0.191-0.215,0.46-0.342,0.747-0.355   c0.317-0.027,0.567,0.09,0.777,0.284l54.063,50.396c0.212,0.198,0.334,0.471,0.34,0.761c0.005,0.288-0.106,0.567-0.309,0.772   l-26.213,26.468C147.393,498.682,147.117,498.788,146.842,498.788z M93.131,451.383l53.643,44.888l24.747-24.987l-52.46-48.903   L93.131,451.383z"/>
	<path style="fill:#F7C67C;" d="M228.441,96.537c0,0-8.345-67.166-56.536-59.573c-127.406,20.074-56.353,115.592-56.353,115.592   s-46.916,6.471-59.572-40.564C46.641,77.285,50.979,6.072,138.885,1.35C205.386-2.222,256.896,64.442,228.441,96.537z"/>
	<path style="fill:#EA8060;" d="M106.67,110.214c-0.042,7.326-6.016,13.23-13.341,13.187c-7.326-0.043-13.23-6.016-13.187-13.342   c0.043-7.326,6.016-13.23,13.342-13.187C100.808,96.915,106.712,102.888,106.67,110.214z"/>
	<path style="fill:#251626;" d="M98.103,117.778c-0.013,0-0.027,0-0.041,0c-0.589-0.023-1.049-0.517-1.027-1.108   c0.122-3.331-0.68-5.69-2.384-7.01c-2.986-2.313-7.85-0.899-7.896-0.882c-0.574,0.165-1.16-0.157-1.328-0.719   c-0.169-0.565,0.152-1.16,0.717-1.329c0.242-0.071,5.971-1.735,9.815,1.241c2.28,1.766,3.36,4.72,3.21,8.778   C99.148,117.325,98.675,117.778,98.103,117.778z"/>
	<path style="fill:#251626;" d="M191.269,229.858c-41.73,0.002-69.099-32.295-80.093-48.304   c-16.141-23.502-28.573-58.727-20.409-68.92c0.368-0.459,1.04-0.532,1.5-0.167c0.461,0.369,0.535,1.041,0.166,1.502   c-6.117,7.635,1.665,38.948,20.503,66.377c10.776,15.69,37.604,47.355,78.399,47.359c8.254,0,17.072-1.295,26.452-4.282   c23.097-7.352,37.988-19.984,44.26-37.548c13.721-38.418-18.244-88.259-18.568-88.758c-0.322-0.494-0.182-1.155,0.313-1.477   c0.493-0.321,1.155-0.181,1.477,0.313c0.331,0.507,32.862,51.236,18.79,90.639c-6.509,18.226-21.859,31.302-45.623,38.867   C208.801,228.526,199.737,229.856,191.269,229.858z"/>
	<path style="fill:#251626;" d="M98.114,95.827c-0.187,0-0.377-0.048-0.548-0.152c-0.659-0.394-16.164-9.813-17.249-21.108   c-0.423-4.409,1.401-8.476,5.42-12.084c4.559-4.092,8.321-5.695,11.225-6.119c0.182-6.87,2.444-15.494,6.624-21.256   c4.126-5.687,9.526-8.023,15.62-6.784c3.875,0.797,6.838,1.817,9.102,2.911c5.283-15.3,16.536-19.633,24.887-17.12   c5.957,1.787,9.851,4.252,12.188,6.868c0.916-1.31,1.968-2.563,3.13-3.668c5.64-5.354,12.72-6.474,19.939-3.147   c8.616,3.969,12.729,10.664,13.994,16.48c0.471-0.094,0.955-0.175,1.451-0.244c6.142-0.876,14.062,0.254,17.896,5.99   c2.63,3.935,3.402,8.659,3.037,13.001c3.289,0.386,6.227,2.488,8.384,6.042c7.517,12.376-6.353,27.452-6.947,28.089   c-0.399,0.43-1.076,0.455-1.509,0.05c-0.431-0.403-0.454-1.078-0.051-1.508c0.133-0.144,13.357-14.532,6.682-25.521   c-2.211-3.639-4.778-4.801-6.829-5.035c-0.385,2.234-1.059,4.302-1.915,6.031c-1.362,2.751-3.042,4.323-4.73,4.43   c-0.775,0.052-1.922-0.196-2.879-1.643c-1.122-1.698-1.173-3.821-0.14-5.827c1.426-2.765,4.482-4.757,7.758-5.116   c0.357-3.818-0.198-8.154-2.637-11.804c-3.286-4.918-10.324-5.84-15.823-5.064c-0.479,0.067-0.949,0.148-1.407,0.242   c0.078,0.736,0.109,1.449,0.098,2.129c-0.062,3.633-1.296,6.305-3.301,7.147c-0.851,0.363-2.597,0.665-4.706-1.333   c-1.858-1.76-1.836-3.422-1.49-4.507c0.677-2.119,3.292-3.959,6.986-5.043c-1.125-5.274-4.881-11.393-12.815-15.047   c-10.012-4.611-16.62,1.191-19.669,5.06c-0.419,0.534-0.805,1.07-1.158,1.604c1.349,2.159,1.747,4.34,1.465,6.263   c-0.423,2.88-2.381,4.97-4.654,4.97c-0.862,0-1.555-0.492-1.897-1.351c-0.762-1.91,0.276-5.917,2.544-9.804   c-1.996-2.476-5.657-4.901-11.609-6.689c-12.141-3.633-19.838,8.711-22.368,16.109c3.757,2.282,4.924,4.68,5.285,5.952   c0.529,1.858,0.099,3.673-1.15,4.853c-1.269,1.197-3.143,1.522-5.015,0.872c-2.618-0.913-3.238-5.035-1.672-10.655   c-2.112-1.055-4.983-2.071-8.887-2.872c-5.284-1.093-9.814,0.913-13.461,5.944c-4.079,5.625-6.039,13.675-6.222,19.89   c1.893,0.083,3.259,0.667,4.072,1.143c2.493,1.456,3.866,4.138,3.338,6.524c-0.431,1.95-2.056,3.241-4.347,3.456   c-1.466,0.131-2.784-0.642-3.674-2.202c-0.892-1.564-1.389-3.894-1.505-6.634c-2.952,0.542-6.356,2.432-9.814,5.535   c-3.487,3.13-5.075,6.59-4.722,10.288c0.979,10.221,16.07,19.392,16.223,19.483c0.506,0.302,0.67,0.959,0.366,1.464   C98.83,95.642,98.477,95.827,98.114,95.827z M99.102,58.383c0.1,2.457,0.52,4.478,1.235,5.729c0.697,1.22,1.362,1.16,1.621,1.135   c1.36-0.127,2.234-0.761,2.461-1.789c0.277-1.258-0.433-3.112-2.331-4.219C101.201,58.721,100.197,58.439,99.102,58.383z    M222.345,51.59c-2.353,0.429-4.537,1.929-5.548,3.89c-0.481,0.932-0.866,2.327,0.022,3.67c0.475,0.717,0.838,0.709,0.964,0.69   c0.689-0.044,1.87-1.064,2.949-3.247C221.379,55.29,221.97,53.555,222.345,51.59z M129.583,34.384   c-1.079,4.232-0.677,7.149,0.455,7.542c1.121,0.392,2.159,0.242,2.846-0.407c0.668-0.632,0.874-1.62,0.562-2.715   C133.231,38.045,132.435,36.249,129.583,34.384z M200.697,33.294c-2.793,0.87-4.84,2.198-5.272,3.554   c-0.086,0.271-0.35,1.097,0.924,2.305c0.642,0.609,1.579,1.26,2.41,0.916c0.955-0.4,1.943-2.169,1.994-5.214   C200.76,34.351,200.743,33.83,200.697,33.294z M165.476,24.895c-1.822,3.481-2.265,6.457-1.809,7.037   c0.9-0.065,2.129-1.241,2.418-3.208C166.259,27.544,166.089,26.236,165.476,24.895z"/>
	<path style="fill:#251626;" d="M166.1,259.144c-20.177,0-25.057-36.297-25.257-37.857c-0.075-0.584,0.339-1.12,0.924-1.195   c0.595-0.077,1.119,0.34,1.195,0.924c0.046,0.363,4.835,35.988,23.159,35.993c0.166,0,0.332-0.004,0.5-0.01   c4.834-0.167,8.581-1.831,11.134-4.943c5.688-6.93,3.829-18.831,3.809-18.952c-0.095-0.582,0.3-1.13,0.882-1.224   c0.598-0.106,1.132,0.298,1.226,0.882c0.085,0.526,2.027,12.981-4.267,20.649c-2.959,3.606-7.236,5.531-12.709,5.723   C166.495,259.14,166.296,259.144,166.1,259.144z"/>
	<path style="fill:#251626;" d="M163.849,303.289c-0.193,0-0.387-0.004-0.582-0.01c-5.548-0.211-10.715-2.884-14.343-6.388   c-3.164,2.428-7.224,3.89-11.667,2.747c-6.841-1.764-11.268-7.863-13.038-13.769c-2.737,1.224-5.797,1.691-8.514,0.404   c-9.124-4.323-4.796-21.365-4.607-22.088c0.148-0.573,0.734-0.924,1.302-0.763c0.57,0.148,0.912,0.732,0.764,1.301   c-0.042,0.161-4.078,16.05,3.454,19.619c2.198,1.045,4.764,0.555,7.082-0.572c-0.384-1.965-0.459-3.846-0.216-5.468   c0.553-3.691,2.696-5.871,5.77-5.675c2.447,0.108,3.359,1.232,3.691,2.156c0.877,2.43-1.399,5.646-3.822,7.846   c-0.862,0.782-1.871,1.549-2.97,2.217c1.507,5.383,5.504,11.139,11.637,12.722c3.618,0.934,6.981-0.244,9.661-2.24   c-2.146-2.517-3.506-5.304-3.722-7.852c-0.313-3.698,1.813-6.301,5.833-7.143c3.358-0.701,4.938,0.494,5.672,1.625   c1.546,2.375,0.621,6.707-2.303,10.778c-0.681,0.947-1.479,1.879-2.377,2.747c3.176,3.037,7.703,5.468,12.793,5.66   c7.074,0.271,10.775-5.007,12.042-7.287c0.04-0.073,0.079-0.146,0.118-0.217c-2.927-2.073-4.438-4.734-4.605-6.974   c-0.196-2.626,1.429-4.544,4.14-4.882c1.47-0.184,2.716,0.363,3.51,1.537c1.372,2.031,1.206,5.796-0.298,9.491   c2.548,1.345,6.027,2.24,10.477,2.138c6.031-0.148,8.719-2.801,9.911-5.001c0.117-0.215,0.222-0.43,0.318-0.649   c-3.28-0.478-5.198-2.048-6.081-2.991c-1.894-2.023-2.58-4.793-1.708-6.895c0.68-1.639,2.178-2.613,4.11-2.674   c1.979-0.089,3.83,1.055,5.07,3.068c1.304,2.113,1.766,4.866,1.376,7.479c1.472-0.081,3.188-0.4,5.178-1.078   c4.139-1.408,6.69-3.552,7.584-6.369c1.603-5.049-2.486-10.761-2.527-10.818c-0.347-0.478-0.241-1.145,0.236-1.491   c0.479-0.346,1.147-0.242,1.491,0.236c0.196,0.269,4.76,6.653,2.835,12.72c-1.111,3.499-4.116,6.106-8.931,7.746   c-2.468,0.838-4.591,1.182-6.399,1.21c-0.186,0.528-0.411,1.039-0.675,1.525c-2.066,3.81-6.234,5.983-11.737,6.119   c-4.778,0.123-8.605-0.847-11.45-2.332c-0.025,0.046-0.051,0.094-0.077,0.14C174.278,300.255,169.414,303.289,163.849,303.289z    M151.409,282.262c-0.478,0-0.968,0.069-1.408,0.161c-2.97,0.621-4.364,2.261-4.143,4.874c0.169,1.998,1.337,4.399,3.233,6.634   c0.795-0.77,1.502-1.6,2.107-2.442c2.3-3.203,3.267-6.799,2.246-8.367C153.02,282.469,152.233,282.262,151.409,282.262z    M175.602,283.883c-0.093,0-0.191,0.006-0.294,0.019c-1.578,0.198-2.386,1.122-2.275,2.605c0.12,1.608,1.244,3.539,3.387,5.149   c1.193-3.105,1.195-5.911,0.364-7.141C176.493,284.085,176.121,283.883,175.602,283.883z M195.441,278.873   c-0.031,0-0.062,0-0.093,0.002c-1.088,0.034-1.849,0.503-2.204,1.356c-0.548,1.32-0.016,3.218,1.294,4.617   c0.721,0.77,2.32,2.052,5.152,2.38c0.434-2.421-0.127-4.791-1.057-6.301C198.056,280.154,197.026,278.873,195.441,278.873z    M128.979,274.756c-2.313,0-3.117,2.086-3.384,3.862c-0.178,1.193-0.151,2.561,0.074,4.011c0.733-0.494,1.415-1.034,2.018-1.581   c2.567-2.332,3.59-4.594,3.249-5.539c-0.203-0.563-1.079-0.718-1.779-0.751C129.097,274.756,129.038,274.756,128.979,274.756z"/>
	<polygon style="fill:#3D9C91;" points="107.433,455.055 122.916,434.487 161.891,471.092 145.34,487.376  "/>
	<path style="fill:#251626;" d="M107.433,445.197c-0.252,0-0.505-0.088-0.707-0.269c-0.442-0.39-0.484-1.064-0.093-1.506l6.14-6.941   c0.392-0.442,1.07-0.486,1.507-0.092c0.442,0.39,0.484,1.064,0.093,1.506l-6.14,6.941   C108.022,445.076,107.728,445.197,107.433,445.197z"/>
	<path style="fill:#251626;" d="M415.258,345.668c8.651,2.114,10.133,7.354,10.192,7.577c0.151,0.569-0.19,1.154-0.759,1.306   c-0.566,0.145-1.149-0.184-1.303-0.75c-0.053-0.18-1.312-4.269-8.638-6.059c-0.573-0.14-0.924-0.718-0.784-1.291   C414.107,345.879,414.684,345.528,415.258,345.668z"/>
	<path style="fill:#251626;" d="M430.848,355.475c8.649,2.114,10.132,7.352,10.191,7.575c0.151,0.569-0.19,1.154-0.759,1.307   c-0.568,0.145-1.149-0.184-1.303-0.75c-0.057-0.196-1.329-4.271-8.636-6.057c-0.573-0.14-0.924-0.718-0.784-1.291   C429.697,355.685,430.275,355.335,430.848,355.475z"/>
	<path style="fill:#251626;" d="M415.959,358.348c8.649,2.114,10.131,7.354,10.191,7.577c0.151,0.569-0.19,1.154-0.759,1.307   c-0.566,0.145-1.148-0.186-1.304-0.75c-0.057-0.198-1.326-4.272-8.634-6.058c-0.573-0.14-0.924-0.717-0.784-1.291   C414.808,358.558,415.386,358.208,415.959,358.348z"/>
	<path style="fill:#251626;" d="M397.738,343.643c8.649,2.114,10.132,7.352,10.191,7.575c0.151,0.569-0.19,1.154-0.759,1.307   c-0.565,0.143-1.148-0.186-1.303-0.75c-0.051-0.176-1.308-4.266-8.636-6.057c-0.573-0.14-0.924-0.717-0.784-1.291   C396.587,343.853,397.164,343.503,397.738,343.643z"/>
	<path style="fill:#251626;" d="M384.016,329.986c8.649,2.114,10.132,7.352,10.191,7.575c0.151,0.569-0.19,1.154-0.759,1.307   c-0.566,0.147-1.148-0.186-1.303-0.75c-0.057-0.19-1.32-4.269-8.636-6.057c-0.573-0.14-0.924-0.717-0.784-1.291   C382.865,330.196,383.442,329.846,384.016,329.986z"/>
	<path style="fill:#251626;" d="M399.512,331.517c8.649,2.114,10.132,7.352,10.191,7.575c0.151,0.569-0.19,1.154-0.759,1.307   c-0.566,0.145-1.148-0.186-1.302-0.75c-0.052-0.176-1.308-4.266-8.636-6.057c-0.573-0.14-0.924-0.717-0.784-1.291   C398.361,331.727,398.938,331.377,399.512,331.517z"/>
	<path style="fill:#251626;" d="M350.152,355.775c8.651,2.114,10.133,7.354,10.193,7.577c0.151,0.569-0.19,1.154-0.759,1.306   c-0.566,0.145-1.149-0.184-1.303-0.75c-0.053-0.18-1.312-4.269-8.638-6.059c-0.573-0.14-0.924-0.718-0.784-1.291   C349.002,355.986,349.579,355.635,350.152,355.775z"/>
	<path style="fill:#251626;" d="M365.743,365.582c8.649,2.114,10.132,7.352,10.191,7.575c0.151,0.569-0.19,1.154-0.759,1.307   c-0.568,0.145-1.149-0.184-1.302-0.75c-0.057-0.197-1.329-4.271-8.636-6.057c-0.573-0.14-0.924-0.717-0.784-1.291   C364.592,365.793,365.17,365.442,365.743,365.582z"/>
	<path style="fill:#251626;" d="M350.854,368.455c8.649,2.114,10.131,7.354,10.191,7.577c0.151,0.569-0.19,1.154-0.759,1.307   c-0.566,0.145-1.148-0.186-1.304-0.75c-0.057-0.198-1.326-4.272-8.634-6.058c-0.573-0.14-0.924-0.717-0.784-1.291   C349.703,368.665,350.28,368.315,350.854,368.455z"/>
	<path style="fill:#251626;" d="M332.632,353.75c8.649,2.114,10.132,7.352,10.191,7.575c0.151,0.569-0.19,1.154-0.759,1.307   c-0.565,0.143-1.148-0.186-1.302-0.75c-0.051-0.176-1.308-4.266-8.636-6.057c-0.573-0.14-0.924-0.718-0.784-1.291   C331.482,353.96,332.059,353.61,332.632,353.75z"/>
	<path style="fill:#251626;" d="M318.91,340.093c8.649,2.114,10.132,7.352,10.191,7.575c0.151,0.569-0.19,1.154-0.76,1.307   c-0.566,0.147-1.148-0.186-1.302-0.75c-0.057-0.19-1.32-4.269-8.636-6.057c-0.573-0.14-0.924-0.717-0.784-1.291   C317.76,340.303,318.337,339.953,318.91,340.093z"/>
	<path style="fill:#251626;" d="M334.407,341.624c8.649,2.114,10.132,7.352,10.191,7.575c0.151,0.569-0.19,1.154-0.759,1.307   c-0.566,0.145-1.148-0.186-1.302-0.75c-0.051-0.176-1.308-4.266-8.636-6.057c-0.573-0.14-0.924-0.718-0.784-1.291   C333.256,341.834,333.833,341.484,334.407,341.624z"/>
	<path style="fill:#251626;" d="M172.316,191.918c-17.041,0-28.012-8.695-28.49-9.083c-0.459-0.369-0.531-1.041-0.161-1.499   c0.369-0.461,1.039-0.532,1.502-0.163c0.117,0.094,11.854,9.36,29.371,8.559c0.582-0.088,1.089,0.428,1.116,1.016   c0.027,0.59-0.429,1.089-1.018,1.116C173.852,191.901,173.077,191.918,172.316,191.918z"/>
</g>















</svg>
