<?xml version="1.0" encoding="UTF-8"?>
<!-- Generator: Adobe Illustrator 25.3.1, SVG Export Plug-In . SVG Version: 6.00 Build 0)  -->
<svg xmlns="http://www.w3.org/2000/svg" xmlns:xlink="http://www.w3.org/1999/xlink" version="1.1" id="Capa_1" x="0px" y="0px" viewBox="0 0 511.912 511.912" style="enable-background:new 0 0 511.912 511.912;" xml:space="preserve" width="512" height="512">
<g>
	<g>
		<path style="fill:#FFFFFF;" d="M255.956,511.912c-71.781,0.038-141.532-31.36-189.24-84.949    C25.845,381.053,3.38,320.825,3.38,259.424c0-80.32,36.918-154.047,101.289-202.272c32.742-24.531,71.86-40.811,113.211-47.126    c13.878-4.946,28.275-8.622,35.575-9.737C254.714,0.096,256.006,0,257.303,0c6.867,0,14.074,2.646,21.935,8.073    c21.064,1.862,41.631,6.313,61.187,13.253c66.905,23.74,121.042,74.935,148.536,140.456    c12.804,30.521,19.571,64.284,19.571,97.642c0,64.234-24.13,125.432-67.947,172.319    C393.486,482.142,325.272,511.875,255.956,511.912z"/>
	</g>
	<g>
		<g>
			<g>
				<path style="fill:#7657AA;" d="M494.627,259.424c0,62.905-24.364,120.162-64.173,162.759      c-7.238,7.745-14.96,15.006-23.142,21.737l-177.705-60.463l-97.564,79.78C63.33,421.376,17.482,345.748,17.482,259.424      c0-78.164,37.595-147.546,95.682-191.065c63.13-47.298,148.391-60.193,222.677-33.835      c62.823,22.291,114.516,71.214,140.304,132.677C488.369,196.335,494.627,227.836,494.627,259.424z"/>
			</g>
			<g>
				<g>
					<g>
						<path style="fill:#411C36;" d="M179.833,98.368c0,0-16.217,14.584-4.317,22.984c11.9,8.4,42.352-3.15,58.102-8.75        c15.751-5.6,85.053-30.101,90.653-40.251c5.6-10.15-14.467-17.617-14.467-17.617l-60.785,1.517L204.567,74.8L179.833,98.368z"/>
					</g>
				</g>
				<g>
					<g>
						<path style="fill:#FFA073;" d="M203.94,53.55c-11.74,9.588-18.067,25.407-16.177,40.447c1.035,8.238,4.326,16.024,8.099,23.42        c3.793,7.433,8.244,15.72,5.701,23.668c-2.283,7.136-9.417,11.348-14.414,16.93c-6.436,7.187-9.433,17.325-7.94,26.856        c1.239,7.909,5.305,16.262,1.807,23.463c-2.8,5.763-9.385,8.364-14.863,11.686c-5.385,3.266-10.165,7.736-13.034,13.343        c-2.869,5.606-3.667,12.415-1.383,18.284c40.416-0.897,80.719-5.722,120.112-14.806c1.458-29.262,3.881-58.628,1.019-87.786        c-2.861-29.158-12.641-58.786-33.568-79.291C230.375,61.022,216.429,53.243,203.94,53.55z"/>
					</g>
				</g>
				<g>
					<g>
						<g>
							<g>
								<path style="fill:#D26A49;" d="M351.38,287.552c-7.266,51.353-14.751,98.539-14.751,98.539s-71.396,39.646-143.723,13.983          l22.674-110.959l20.728-101.391c0,0,4.935-4.743,16.012-9.816c5.237-2.385,10.906-7.22,18.994-9.304l-1.063-2.814          l-6.416-16.78l0.905-1.261l31.311-43.539c0,0,14.915,44.801,17.246,47.597c0.521,0.63,2.989,1.206,6.608,1.727          c12.201,1.81,37.316,3.208,43.814,5.73C368.241,161.02,359.961,227.152,351.38,287.552z"/>
							</g>
						</g>
						<g>
							<g>
								<path style="fill:#411C36;" d="M301.184,464.764l-36.163,33.071c-2.974,0.115-5.97,0.161-8.967,0.161          c-12.517,0-24.803-0.968-36.789-2.835c-0.461-0.069-0.899-0.138-1.36-0.231c-15.398-2.443-30.311-6.385-44.557-11.664          l-7.297-17.283l14.719-70.563l3.734-16.343c0,0,3.919,1.775,11.894,3.873c0.876,0.231,1.798,0.461,2.766,0.692          c12.286,2.95,32.478,6.154,60.922,5.624c12.54-0.207,26.693-1.152,42.482-3.181l1.936,13.07L301.184,464.764z"/>
							</g>
						</g>
						<g>
							<g>
								<g>
									<path style="fill:#FFE3BF;" d="M219.727,447.216l-0.461,47.945c-0.461-0.069-0.899-0.138-1.36-0.231l0.438-47.392           l-19.8-15.19c-0.3-0.231-0.346-0.646-0.115-0.945c0.231-0.3,0.646-0.369,0.945-0.138l20.077,15.398           C219.612,446.801,219.727,447.008,219.727,447.216z"/>
								</g>
							</g>
							<g>
								<g>
									<path style="fill:#411C36;" d="M217.896,365.312c-0.014,0-0.027-0.002-0.04-0.002c-0.378-0.022-0.666-0.347-0.644-0.725           l0.574-9.821c0.02-0.378,0.356-0.635,0.725-0.644c0.378,0.022,0.666,0.347,0.644,0.725l-0.574,9.821           C218.56,365.031,218.256,365.312,217.896,365.312z"/>
								</g>
							</g>
						</g>
					</g>
					<g>
						<g>
							<path style="fill:#411C36;" d="M296.352,121.237c-0.302,17.931-10.473,35.396-25.937,44.471         c-0.055,0.028-0.11,0.055-0.165,0.082l-6.416-16.78l0.905-1.261C275.515,139.059,285.111,129.599,296.352,121.237z"/>
						</g>
					</g>
					<g>
						<g>
							<g>
								<path style="fill:#D26A49;" d="M291.595,85.406c-2.402-23.78-22.48-42.34-46.893-42.34          c-26.032,0-47.135,21.103-47.135,47.135c0,7.702,1.885,14.951,5.161,21.372l0.789,1.496c0,0,26.951,48.185,43.401,48.185          c16.451,0,49.002-20.651,52.852-32.551C302.079,121.569,296.464,100.858,291.595,85.406z"/>
							</g>
						</g>
						<g>
							<g>
								<g>
									<g>
										<path style="fill:#D26A49;" d="M234.255,129.107c0.166,0.979,0.522,2.164,1.496,2.354c1.233,0.24,2.026-1.327,3.204-1.761            c1.08-0.398,2.392,0.207,3.393-0.362c1.194-0.679,1.096-2.493,2.026-3.503c0.915-0.994,2.604-0.98,3.463-2.024            c1.198-1.456-0.067-3.585-1.299-5.012c-2.481-2.873-4.969-5.75-7.67-8.421c-2.527-2.499-5.915-6.154-9.328-7.398            c-5.261-1.916,0.987,10.646,1.573,12.362C232.634,119.805,233.467,124.469,234.255,129.107z"/>
									</g>
								</g>
								<g>
									<g>
										<path style="fill:#411C36;" d="M235.902,131.748c-0.059,0-0.119-0.002-0.183-0.009c-0.819-0.09-1.402-0.759-1.729-1.99            c-0.394-1.486-0.77-2.98-1.146-4.477c-1.621-6.436-3.296-13.092-6.361-19.026c-0.173-0.338-0.041-0.75,0.295-0.925            c0.338-0.173,0.748-0.04,0.925,0.295c3.138,6.076,4.833,12.81,6.472,19.323c0.374,1.49,0.75,2.978,1.139,4.459            c0.234,0.876,0.484,0.97,0.556,0.977c0.193,0.052,0.428-0.203,0.678-0.421c0.171-0.146,0.344-0.295,0.524-0.414            c0.923-0.624,2.03-0.583,3.039-0.551c0.957,0.029,1.783,0.059,2.283-0.43c0.313-0.306,0.452-0.781,0.617-1.331            c0.144-0.484,0.292-0.986,0.585-1.452c0.558-0.891,1.475-1.384,2.285-1.816c0.239-0.128,0.475-0.254,0.702-0.392            c0.79-0.475,1.47-1.301,1.243-1.963c-0.124-0.358,0.068-0.747,0.425-0.871c0.358-0.119,0.747,0.067,0.871,0.425            c0.491,1.42-0.567,2.823-1.832,3.584c-0.246,0.149-0.504,0.286-0.761,0.425c-0.723,0.387-1.407,0.752-1.772,1.335            c-0.193,0.311-0.311,0.7-0.432,1.114c-0.191,0.639-0.407,1.364-0.972,1.92c-0.919,0.9-2.181,0.853-3.289,0.822            c-0.853-0.032-1.67-0.056-2.228,0.32c-0.137,0.09-0.266,0.203-0.394,0.315            C237.047,131.332,236.566,131.748,235.902,131.748z"/>
									</g>
								</g>
							</g>
							<g>
								<g>
									<g>
										<path style="fill:#411C36;" d="M234.297,83.874c-0.124,0-0.248-0.034-0.358-0.104c-0.324-0.198-0.423-0.619-0.225-0.941            c2.161-3.523,6.071-5.812,10.202-5.972c0.371-0.032,0.698,0.279,0.711,0.657c0.016,0.378-0.279,0.698-0.657,0.711            c-3.624,0.142-7.192,2.229-9.089,5.319C234.751,83.757,234.526,83.874,234.297,83.874z"/>
									</g>
								</g>
								<g>
									<g>
										<path style="fill:#411C36;" d="M200.657,101.38c-0.049,0-0.101-0.007-0.153-0.018c-0.367-0.083-0.599-0.453-0.516-0.822            c0.412-1.812,2.116-3.266,4.673-3.991c1.306-0.372,2.497-0.518,3.624-0.468c0.378,0.018,0.671,0.338,0.653,0.716            c-0.018,0.378-0.317,0.659-0.716,0.653c-0.979-0.034-2.028,0.09-3.188,0.419c-0.975,0.277-3.286,1.119-3.71,2.978            C201.254,101.164,200.97,101.38,200.657,101.38z"/>
									</g>
								</g>
							</g>
							<g>
								<g>
									<path style="fill:#411C36;" d="M242.724,134.855c-0.342,0-0.637-0.254-0.68-0.601c-0.047-0.376,0.218-0.718,0.594-0.765           c3.858-0.488,7.383-2.929,9.2-6.37c0.176-0.333,0.592-0.464,0.925-0.286c0.335,0.176,0.464,0.59,0.286,0.925           c-2.019,3.831-5.943,6.548-10.24,7.091C242.781,134.853,242.751,134.855,242.724,134.855z"/>
								</g>
							</g>
							<g>
								<g>
									<g>
										<circle style="fill:#411C36;" cx="256.369" cy="98.601" r="20.067"/>
									</g>
								</g>
								<g>
									<g>
										
											<ellipse transform="matrix(0.866 -0.5 0.5 0.866 -31.3723 123.753)" style="fill:#411C36;" cx="215.243" cy="120.419" rx="16.392" ry="20.067"/>
									</g>
								</g>
								<g>
									<g>
										<path style="fill:#411C36;" d="M225.9,113.801c-0.142,0-0.281-0.045-0.405-0.133c-0.304-0.223-0.372-0.653-0.149-0.959            c3.403-4.657,8.61-7.921,14.285-8.952c0.372-0.054,0.729,0.182,0.797,0.554c0.067,0.371-0.18,0.729-0.554,0.797            c-5.33,0.968-10.224,4.034-13.42,8.412C226.319,113.702,226.112,113.801,225.9,113.801z"/>
									</g>
								</g>
							</g>
						</g>
					</g>
				</g>
				<g>
					<g>
						<path style="fill:#411C36;" d="M351.38,287.552c-45.239-2.358-90.643-1.837-135.8,1.563l20.728-101.391        c0,0,4.935-4.743,16.012-9.816c-3.702,7.65-6.388,15.765-7.979,24.1c-1.7,8.856-1.261,19.795,6.388,24.566        c4.853,3.016,11.323,2.385,16.423-0.247c5.1-2.632,9.075-6.937,12.777-11.323c15.738-18.507,28.624-39.344,38.741-61.443        c0.411,0,0.822,0,1.234-0.028c12.201,1.81,37.316,3.208,43.814,5.73C368.241,161.02,359.961,227.152,351.38,287.552z"/>
					</g>
				</g>
				<g>
					<g>
						<path style="fill:#FFE3BF;" d="M407.312,443.92c-22.175,18.187-47.691,32.478-75.49,41.791        c-0.415,0.138-0.83,0.277-1.268,0.392c-4.172,1.383-8.367,2.628-12.632,3.757c-16.965,4.564-34.668,7.307-52.901,7.976        l-4.08-89.851l-0.853-18.717l-3.227-71.249l-0.023-0.553l-42.459,7.468l-0.3,1.176l-14.914,57.534L194.74,400.7        c0,0-21.391,82.567-21.391,82.567c-14.35-5.318-28.254-12.045-41.306-20.031l36.396-125.971l0.185-0.645        c0,0-0.231,0.023-0.669,0c-3.872-0.069-23.949-1.821-31.533-30.819c-5.486-21.045,7.768-38.102,24.503-54.422        c8.875-8.667,18.74-17.104,27.315-25.84c20.699-21.091,44.349-37.111,51.495-41.791c1.129-0.738,1.844-1.176,2.075-1.337        c0.069-0.023,0.092-0.046,0.092-0.046l0.253-0.784l2.789-8.321l0.645-0.115l25.724-4.541v16.343l-27.038,32.04l-6.638,7.883        l-3.181,3.78l-7.053,8.344l-1.152,1.36l-0.207,0.253c0.761-0.092,1.498-0.184,2.282-0.253        c13.346-1.406,28.352-0.807,30.565-0.715c0.185,0.023,0.277,0.023,0.277,0.023l0.023-0.046l0.715-1.452l13.392-26.784        l3.896-7.768l12.309-24.618l27.13-24.019l1.337-1.176l1.936,1.729l7.86,8.067c0,0,18.832-2.213,36.881-0.277        c9.358,1.014,18.532,3.158,24.733,7.284c8.667,5.786,8.644,25.517,6.27,44.649c-2.628,20.999-8.137,41.214-8.137,41.214        L407.312,443.92z"/>
					</g>
				</g>
				<g>
					<g>
						<g>
							<g>
								<g>
									<g>
										<path style="fill:#411C36;" d="M171.432,268.226c-0.131,0-0.261-0.036-0.376-0.11c-0.317-0.209-0.405-0.632-0.198-0.95            c0.198-0.302,20.207-30.18,54.943-30.18c34.254,0,38.949-0.193,47.244-5.265c8.288-5.065,24.307-16.198,24.466-16.311            c0.309-0.218,0.736-0.142,0.955,0.171c0.216,0.311,0.14,0.738-0.171,0.954c-0.162,0.113-16.212,11.269-24.534,16.356            c-8.615,5.265-13.364,5.468-47.96,5.468c-33.981,0-53.601,29.263-53.795,29.558            C171.873,268.118,171.655,268.226,171.432,268.226z"/>
									</g>
								</g>
								<g>
									<g>
										<g>
											<path style="fill:#411C36;" d="M274.574,312.397c-2.924,0-5.958-0.099-9.15-0.304             c-18.742-1.209-40.12-17.391-54.268-28.099c-2.341-1.774-4.457-3.374-6.289-4.698             c-12.327-8.901-31.726-12.446-31.922-12.48c-0.371-0.068-0.619-0.423-0.554-0.797c0.068-0.369,0.385-0.626,0.797-0.554             c0.196,0.036,19.899,3.633,32.48,12.718c1.841,1.33,3.964,2.935,6.316,4.716c14.015,10.609,35.197,26.643,53.529,27.825             c20.874,1.339,35.179-1.981,54.614-7.212c17.715-4.768,36.388-11.327,52.908-26.904c0.277-0.259,0.709-0.243,0.97,0.029             c0.259,0.275,0.245,0.709-0.029,0.97c-16.741,15.782-35.604,22.413-53.493,27.228             C303.88,309.307,290.991,312.397,274.574,312.397z"/>
										</g>
									</g>
									<g>
										<g>
											<path style="fill:#411C36;" d="M359.275,288.809c-0.362,0-0.664-0.284-0.684-0.65c-0.02-0.378,0.27-0.7,0.648-0.72             c5.648-0.299,11.35-0.948,16.943-1.927c0.394-0.061,0.729,0.187,0.794,0.556c0.065,0.374-0.184,0.729-0.556,0.795             c-5.65,0.988-11.406,1.643-17.11,1.945C359.3,288.807,359.287,288.809,359.275,288.809z"/>
										</g>
									</g>
								</g>
							</g>
							<g>
								<g>
									<path style="fill:#411C36;" d="M168.632,337.296c-0.302,0-0.578-0.2-0.662-0.506c-0.099-0.365,0.117-0.743,0.482-0.842           c0.385-0.104,38.711-10.535,53.286-12.615c14.508-2.073,59.929-12.027,60.386-12.126c0.387-0.079,0.734,0.153,0.815,0.522           c0.081,0.369-0.151,0.734-0.522,0.815c-0.457,0.101-45.928,10.067-60.485,12.144c-14.492,2.069-52.735,12.477-53.12,12.583           C168.751,337.287,168.691,337.296,168.632,337.296z"/>
								</g>
							</g>
						</g>
						<g>
							<g>
								<path style="fill:#411C36;" d="M245.589,173.146c-0.046-0.254-0.23-0.461-0.484-0.53c-0.346-0.092-0.668,0.092-0.807,0.392          l-4.564,10.741l-0.761,1.798v0.023l-4.287,10.096l-0.023,0.046l-5.532,13.001c-0.115,0.253-0.046,0.553,0.161,0.738          c0.115,0.138,0.299,0.207,0.484,0.207c0.092,0,0.185-0.023,0.277-0.069l1.959-0.876l9.912-4.426l1.199-0.53          c0.23-0.092,0.369-0.323,0.392-0.576c0-0.023,0-0.046,0-0.046l1.521-21.483v-0.023l0.576-8.321          C245.613,173.238,245.613,173.192,245.589,173.146z M242.178,202.673l-9.843,4.403l-1.245,0.553l2.19-5.163v-0.023          l0.023-0.046l7.791-18.302v-0.023l0.715-1.66l0.346-0.83l1.821-4.264l-0.369,5.163L242.178,202.673z"/>
							</g>
						</g>
					</g>
					<g>
						<g>
							<path style="fill:#411C36;" d="M233.968,231.592c-0.124,0-0.248-0.034-0.36-0.104c-0.322-0.198-0.421-0.619-0.223-0.943         c5.468-8.885,8.743-27.341,8.774-27.525c0.065-0.372,0.425-0.624,0.792-0.558c0.374,0.065,0.623,0.421,0.558,0.792         c-0.135,0.768-3.354,18.902-8.959,28.012C234.423,231.475,234.197,231.592,233.968,231.592z"/>
						</g>
					</g>
				</g>
				<g>
					<g>
						<path style="fill:#FFA073;" d="M406.352,213.525c-6.388-0.247-12.804-0.356-19.22-0.329        c-0.411-9.24-1.261-18.041-2.797-27.445c-0.356,9.295-1.864,18.562-4.442,27.5c-29.584,0.466-59.304,3.619-88.011,10.062        c-4.798-5.703-9.623-11.46-13.023-18.068c-3.372-6.635-5.264-14.284-3.729-21.578c2.632-12.612,14.339-20.975,21.605-31.64        c2.714-4.003,4.88-8.582,5.017-13.434c0.137-4.826-2.139-9.953-6.416-12.173c-4.113-2.139-9.048-1.344-13.599-2.029        c-6.635-1.015-12.612-5.402-15.847-11.296c-3.208-5.867-3.729-13.105-1.7-19.521c1.782-5.621,5.456-11.269,3.784-16.944        c-1.535-5.292-7.43-8.253-12.941-8.554c-5.511-0.274-10.912,1.453-16.314,2.495c-7.183,1.371-14.805,1.508-21.633-1.097        c-6.827-2.605-12.749-8.253-14.312-15.409c14.175-10.83,33.066-21.907,50.778-24.155c17.712-2.248,37.343,4.003,47.158,18.891        c3.921,5.977,6.169,13.078,10.885,18.479c11.324,13.051,34.025,13.243,42.497,28.323c5.511,9.843,3.564,24.1,12.749,30.625        c7.403,5.292,17.931,2.193,26.486,5.319c11.214,4.085,15.875,17.383,17.41,29.227        C413.014,178.403,411.507,196.526,406.352,213.525z"/>
					</g>
				</g>
				<g>
					<g>
						<path style="fill:#FF6A6C;" d="M185.433,94.168c0,0,10.967-10.267,43.401-22.401s80.97-17.034,80.97-17.034        s-6.3-3.967-13.301-11.2c-7-7.234-27.068-31.501-40.835-29.401c-13.767,2.1-64.636,16.567-66.969,30.801        s0,31.501-1.167,37.568s-7.7,15.867-7.7,15.867L185.433,94.168z"/>
					</g>
				</g>
			</g>
			<g>
				<g>
					<path style="fill:#FFE3BF;" d="M375.542,140.227c-0.101,0-0.204-0.03-0.292-0.09c-0.178-0.121-0.262-0.341-0.21-0.55       l4.71-19.058l-23.679-16.807c-0.186-0.132-0.263-0.369-0.191-0.586c0.072-0.215,0.242-0.366,0.505-0.352l27.557,0.783       l6.226-25.193c0.057-0.229,0.261-0.391,0.497-0.392c0.002,0,0.003,0,0.005,0c0.235,0,0.44,0.157,0.499,0.384l6.771,25.599       l26.517,0.753c0.222,0.006,0.416,0.154,0.48,0.367c0.064,0.213-0.015,0.443-0.197,0.572l-22.209,15.658l4.645,17.56       c0.056,0.211-0.026,0.433-0.205,0.557c-0.177,0.125-0.416,0.122-0.593-0.003l-14.719-10.448l-15.819,11.153       C375.751,140.196,375.646,140.227,375.542,140.227z M380.656,121.172l-4.279,17.318l14.387-10.145L380.656,121.172z        M392.554,128.349l13.257,9.411l-4.181-15.809L392.554,128.349z M380.922,120.093l10.737,7.622l9.688-6.83l-4.208-15.91       l-12.393-0.352L380.922,120.093z M398.215,105.006l4.033,15.243l20.627-14.542L398.215,105.006z M358.059,103.865       l21.958,15.585l3.672-14.857L358.059,103.865z M384.999,103.596l11.864,0.337l-6.177-23.351L384.999,103.596z"/>
				</g>
				<g>
					<path style="fill:#FFE3BF;" d="M76.547,291.836c-0.204,0-0.391-0.12-0.473-0.309l-7.89-17.976l-29.017,1.121       c-0.186,0.002-0.433-0.132-0.507-0.348c-0.075-0.215,0-0.454,0.185-0.587l22.318-16.186l-10.429-23.762       c-0.095-0.215-0.032-0.468,0.155-0.614c0.186-0.146,0.446-0.146,0.634-0.002l20.976,16.156l21.474-15.574       c0.18-0.132,0.424-0.131,0.604-0.001c0.181,0.129,0.259,0.36,0.193,0.572l-8.051,25.954l14.391,11.084       c0.172,0.132,0.243,0.359,0.177,0.566c-0.066,0.207-0.255,0.351-0.472,0.359l-18.037,0.697l-5.734,18.484       c-0.064,0.206-0.248,0.351-0.464,0.364C76.566,291.836,76.556,291.836,76.547,291.836z M69.293,273.509l7.17,16.335       l5.216-16.813L69.293,273.509z M61.586,258.52L40.83,273.574l26.907-1.039L61.586,258.52z M62.442,257.9l6.404,14.591       l13.158-0.508l3.512-11.321l-13.038-10.042L62.442,257.9z M86.389,261.335l-3.29,10.606l16.246-0.628L86.389,261.335z        M73.351,249.988l12.492,9.622l7.477-24.105L73.351,249.988z M52.49,235.226l9.527,21.706l9.608-6.969L52.49,235.226z"/>
				</g>
				<g>
					<g>
						<polygon style="fill:#FFC151;" points="440.948,302.096 428.975,241.565 472.876,258.194       "/>
					</g>
					<g>
						<polygon style="fill:#FF6A6C;" points="155.55,125.752 95.402,184.914 81.409,122.269       "/>
					</g>
					<g>
						<polygon style="fill:#7657AA;" points="301.184,378.151 361.434,406.343 318.985,433.899       "/>
					</g>
				</g>
				<g>
					<path style="fill:#FFE3BF;" d="M420.576,188.753c-0.015,0-0.028-0.001-0.043-0.001c-0.476-0.024-0.844-0.43-0.822-0.906       c0.12-2.435,1.292-4.84,3.14-6.432c1.844-1.592,4.387-2.397,6.822-2.162c1.113,0.109,2.167,0.421,3.185,0.721       c0.823,0.243,1.6,0.472,2.392,0.598c3.303,0.52,4.28-1.265,5.709-4.475c0.781-1.754,1.587-3.568,3.101-4.826       c1.624-1.353,3.839-1.973,6.085-1.68c1.363,0.172,2.426,0.769,3.455,1.346c0.745,0.418,1.45,0.814,2.236,1.03       c1.352,0.369,2.856,0.123,4.02-0.664c1.322-0.895,2.204-2.542,2.145-4.008c-0.019-0.476,0.352-0.879,0.83-0.898       c0.413,0,0.88,0.351,0.898,0.83c0.082,2.063-1.084,4.276-2.904,5.508c-1.577,1.069-3.611,1.405-5.447,0.899       c-0.99-0.271-1.821-0.737-2.624-1.189c-0.924-0.519-1.798-1.009-2.825-1.14c-1.738-0.212-3.524,0.264-4.763,1.295       c-1.203,1.001-1.927,2.628-2.627,4.201c-1.301,2.924-2.767,6.248-7.56,5.479c-0.904-0.144-1.771-0.4-2.61-0.647       c-0.985-0.291-1.915-0.565-2.865-0.659c-1.961-0.19-4.028,0.46-5.524,1.749c-1.495,1.29-2.446,3.236-2.541,5.208       C421.416,188.393,421.035,188.753,420.576,188.753z"/>
				</g>
				<g>
					<path style="fill:#FFE3BF;" d="M427.299,372.674c-1.864,0-3.831-0.937-5.067-2.458c-1.199-1.479-1.709-3.479-1.366-5.35       c0.186-1.011,0.579-1.878,0.958-2.718c0.438-0.965,0.85-1.877,0.891-2.912c0.071-1.755-0.564-3.488-1.699-4.636       c-1.101-1.112-2.784-1.693-4.411-2.255c-3.026-1.044-6.455-2.228-6.11-7.059c0.065-0.914,0.246-1.802,0.421-2.66       c0.205-1.005,0.398-1.953,0.41-2.907c0.023-1.975-0.807-3.976-2.219-5.354c-1.414-1.378-3.402-2.153-5.408-2.082       c-0.464,0.014-0.879-0.356-0.896-0.832c-0.018-0.476,0.354-0.878,0.832-0.896c2.423-0.074,4.931,0.871,6.678,2.572       c1.746,1.701,2.77,4.173,2.741,6.612c-0.013,1.117-0.231,2.193-0.443,3.232c-0.171,0.841-0.333,1.635-0.39,2.438       c-0.239,3.345,1.628,4.156,4.949,5.301c1.815,0.627,3.692,1.275,5.076,2.675c1.488,1.503,2.289,3.661,2.198,5.92       c-0.055,1.371-0.557,2.481-1.044,3.556c-0.352,0.778-0.686,1.514-0.833,2.317c-0.253,1.381,0.124,2.858,1.009,3.949       c1.006,1.24,2.729,1.975,4.177,1.791c0.472-0.071,0.907,0.275,0.966,0.748c0.06,0.474-0.275,0.907-0.748,0.966       C427.749,372.66,427.524,372.674,427.299,372.674z"/>
				</g>
				<g>
					<path style="fill:#FFE3BF;" d="M132.687,370.631c-0.672,0-1.347-0.098-1.987-0.301c-1.814-0.576-3.34-1.965-4.082-3.717       c-0.401-0.946-0.55-1.887-0.695-2.797c-0.166-1.047-0.324-2.035-0.858-2.922c-0.906-1.505-2.39-2.603-3.968-2.937       c-1.532-0.325-3.257,0.117-4.925,0.542c-3.101,0.791-6.614,1.689-8.984-2.534c-0.448-0.799-0.785-1.64-1.111-2.454       c-0.382-0.952-0.743-1.851-1.257-2.653c-1.067-1.663-2.859-2.877-4.798-3.25c-1.945-0.375-4.056,0.088-5.663,1.234       c-0.39,0.277-0.929,0.185-1.206-0.203c-0.277-0.389-0.186-0.928,0.203-1.206c1.985-1.414,4.601-1.983,6.991-1.524       c2.395,0.462,4.611,1.961,5.927,4.015c0.603,0.94,1.011,1.958,1.406,2.944c0.319,0.797,0.621,1.55,1.015,2.251       c1.636,2.922,3.639,2.574,7.048,1.705c1.863-0.475,3.79-0.966,5.71-0.558c2.069,0.438,3.925,1.798,5.092,3.736       c0.708,1.175,0.899,2.378,1.084,3.543c0.134,0.844,0.261,1.642,0.579,2.393c0.548,1.293,1.675,2.319,3.013,2.744       c1.524,0.482,3.361,0.153,4.475-0.801c0.361-0.311,0.907-0.271,1.218,0.095c0.311,0.362,0.269,0.908-0.095,1.218       C135.733,370.126,134.214,370.631,132.687,370.631z"/>
				</g>
			</g>
		</g>
	</g>
</g>















</svg>
