<?xml version="1.0" encoding="UTF-8"?>
<!-- Generator: Adobe Illustrator 25.3.1, SVG Export Plug-In . SVG Version: 6.00 Build 0)  -->
<svg xmlns="http://www.w3.org/2000/svg" xmlns:xlink="http://www.w3.org/1999/xlink" version="1.1" id="Capa_1" x="0px" y="0px" viewBox="0 0 511.929 511.929" style="enable-background:new 0 0 511.929 511.929;" xml:space="preserve" width="512" height="512">
<g>
	<g>
		<path style="fill:#FFFFFF;" d="M365.232,62.284c0,0,57.555,17.555,103.055,100.29c28.579,51.968,34.745,115.938,18.885,173.244    c-0.113,0.413-0.226,0.827-0.342,1.24l4.134,15.669c3.083,11.675-3.86,23.864-15.477,27.167l-5.863,1.666    c-2.881,5.717-6.08,11.459-9.551,17.126c-0.07,0.12-0.326,0.544-0.386,0.64c-44.569,71.318-123.646,111.74-203.872,112.588    c-42.979,0.454-86.289-10.45-124.799-34.046l-10.72,3.05c-1.992,0.566-4.048,0.853-6.112,0.853    c-9.961,0-18.798-6.701-21.489-16.297l-6.397-22.819c-0.724-0.728-1.455-1.478-2.182-2.228    C40.335,395.488,16.21,336.129,16.21,273.311c0-77.291,37.49-150.044,100.396-195.028c8.073-10.186,16.548-20.164,24.258-30.628    c2.526-3.308,6.481-5.313,10.698-5.313c0.195,0,0.388,0.005,0.583,0.013c0.489,0.022,11.044,0.527,24.917,4.598    c25.282-8.802,51.758-13.262,78.769-13.262c1.375,0,2.756,0.011,4.138,0.035c1.815-9.224,5.98-17.246,12.162-23.208    c14.869-14.339,40.249-13.705,55.29-0.008c9.157,8.338,14.127,20.758,14.171,33.371c0,0,7.714-3.871,15.654,2.461    S365.232,62.284,365.232,62.284z"/>
	</g>
	<g>
		<g>
			<g>
				<path style="fill:#FF6A6C;" d="M449.421,392.237c0.09-0.157,0.179-0.291,0.269-0.448      c23.919-41.811,36.786-89.599,32.604-137.885c-3.474-40.105-17.787-79.201-41.202-111.96      c-23.089-32.304-54.655-58.326-90.822-74.732c-29.231-13.259-61.206-20.088-93.297-20.088      c-124.925,0-226.187,101.284-226.187,226.187c0,20.91,2.868,41.807,8.581,61.924c23.38,82.32,93.965,146.096,178.314,160.859      c29.595,5.18,62.239,4.289,91.433-2.642c0.448-0.112,0.873-0.201,1.321-0.336l42.245-75.469L449.421,392.237z"/>
			</g>
			<g>
				<g>
					<g>
						<g>
							<g>
								<g>
									<path style="fill:#FFE3BF;" d="M212.639,56.967c-2.802-1.993-6.667-1.492-8.868,1.151l-7.76,9.317l-4.553,5.44           l-0.809,0.975l8.555,5.649l14.003,4.148l7.464-0.656l5.768-8.155c2.094-2.96,1.398-7.057-1.557-9.159L212.639,56.967z"/>
								</g>
								<g>
									<path style="fill:#411C36;" d="M196.012,67.435l-4.553,5.44c2.399,2.039,4.756,4.156,7.176,6.175           c0.183,0.163,0.366,0.306,0.57,0.449l16.293,10.784l5.174-7.293C214.563,75.39,205.693,69.912,196.012,67.435z"/>
								</g>
							</g>
							<g>
								<path style="fill:#411C36;" d="M220.375,69.768c-2.007-0.044-3.669,1.48-3.711,3.404c-0.042,1.924,1.55,3.52,3.558,3.564          c2.007,0.044,3.669-1.479,3.711-3.404C223.975,71.407,222.382,69.812,220.375,69.768z"/>
							</g>
						</g>
						<g>
							<g>
								<path style="fill:#FFC151;" d="M233.943,129.704C233.917,129.829,233.943,129.704,233.943,129.704l-12.101,14.606          l-4.659,1.3l1.522,2.457l-14.404,17.224l-3.852,1.162l0.7,2.611l-1.989,2.371l-9.324,11.113l-3.107,3.725l-3.153,3.742          l-14.419,17.24l-3.122,3.741L151.6,228.223l-0.015,0.016l-3.137,3.757l-2.872,3.435          c-14.446-3.37-26.576-8.396-36.739-14.178c-4.953-2.804-9.401-5.77-13.436-8.863l-0.016-0.015          c-16.213-12.292-25.468-25.86-30.028-34.067c0,0,2.143-1.476,1.689-2.373c-0.614-1.213-4.706-3.622-4.706-3.622          c-0.465-1.019-0.677-1.599-0.677-1.599l13.394-16.899l5.004-0.228l-2.185-3.344l14.187-17.897l4.108-0.462l-1.288-3.111          l14.188-17.897l3.827-0.439l-1.008-3.134l14.217-17.929l4.107-0.563l-1.302-2.993l14.203-17.913l3.672-0.668l-0.868-2.888          l6.785-8.562l0,0l15.155,9.564l58.02,56.1L233.943,129.704z"/>
							</g>
							<g>
								<path style="fill:#FFE3BF;" d="M152.701,55.776l-0.022,0.039c3.921,6.341,11.121,17.997,12.229,19.412          c10.496,13.436,23.374,25.059,37.384,35.098c6.934,4.958,14.166,9.526,21.593,13.761c2.659,1.528,6.39,4.231,10.047,5.623          c-0.027-2.542-0.769-31.828-24.609-51.735C184.406,57.15,152.701,55.776,152.701,55.776z"/>
							</g>
							<g>
								<g>
									<path style="fill:#FFE3BF;" d="M225.609,98.324c-28.112-8.374-55.73-18.554-82.494-30.418l2.804-3.556           c24.845,10.973,50.416,20.469,76.443,28.393C223.579,94.597,224.656,96.473,225.609,98.324z"/>
								</g>
							</g>
							<g>
								<g>
									<path style="fill:#FFE3BF;" d="M233.764,126.421c-36.8-9.333-72.947-21.752-107.656-37.046l2.804-3.556           c33.66,14.751,68.674,26.818,104.285,35.956C233.481,123.578,233.645,125.154,233.764,126.421z"/>
								</g>
							</g>
							<g>
								<g>
									<path style="fill:#FFE3BF;" d="M233.764,126.421c-36.8-9.333-72.947-21.752-107.656-37.046l2.804-3.556           c33.66,14.751,68.674,26.818,104.285,35.956C233.481,123.578,233.645,125.154,233.764,126.421z"/>
								</g>
							</g>
							<g>
								<g>
									<path style="fill:#FFE3BF;" d="M218.705,148.067c-37.449-9.272-74.267-21.771-109.633-37.19l2.819-3.572           c35.459,15.415,72.382,27.831,109.951,37.005L218.705,148.067z"/>
								</g>
							</g>
							<g>
								<g>
									<path style="fill:#FFE3BF;" d="M218.705,148.067c-37.449-9.272-74.267-21.771-109.633-37.19l2.819-3.572           c35.459,15.415,72.382,27.831,109.951,37.005L218.705,148.067z"/>
								</g>
							</g>
							<g>
								<g>
									<path style="fill:#FFE3BF;" d="M201.15,169.065c-37.243-9.173-73.867-21.494-109.085-36.718l2.819-3.572           c35.311,15.22,72.041,27.49,109.417,36.517L201.15,169.065z"/>
								</g>
							</g>
							<g>
								<g>
									<path style="fill:#FFE3BF;" d="M201.15,169.065c-37.243-9.173-73.867-21.494-109.085-36.718l2.819-3.572           c35.311,15.22,72.041,27.49,109.417,36.517L201.15,169.065z"/>
								</g>
							</g>
							<g>
								<g>
									<path style="fill:#FFE3BF;" d="M183.576,190.016c-37.049-8.996-73.48-21.17-108.518-36.2l2.819-3.572           c35.146,15.01,71.698,27.117,108.852,36.03L183.576,190.016z"/>
								</g>
							</g>
							<g>
								<g>
									<path style="fill:#FFE3BF;" d="M183.576,190.016c-37.049-8.996-73.48-21.17-108.518-36.2l2.819-3.572           c35.146,15.01,71.698,27.117,108.852,36.03L183.576,190.016z"/>
								</g>
							</g>
							<g>
								<g>
									<path style="fill:#FFE3BF;" d="M166.035,210.998c-34.283-8.251-68.068-19.225-100.677-32.689           c-1.452-2.604-2.445-4.67-3.017-5.995c34.521,14.557,70.388,26.276,106.816,34.942L166.035,210.998z"/>
								</g>
							</g>
							<g>
								<g>
									<path style="fill:#FFE3BF;" d="M166.035,210.998c-34.283-8.251-68.068-19.225-100.677-32.689           c-1.452-2.604-2.445-4.67-3.017-5.995c34.521,14.557,70.388,26.276,106.816,34.942L166.035,210.998z"/>
								</g>
							</g>
							<g>
								<g>
									<path style="fill:#FFE3BF;" d="M148.449,231.996c-13.289-3.173-26.502-6.754-39.61-10.743           c-4.953-2.804-9.401-5.77-13.436-8.863c18.495,6.09,37.28,11.375,56.183,15.848L148.449,231.996z"/>
								</g>
							</g>
						</g>
					</g>
				</g>
				<g>
					<g>
						<g>
							<path style="fill:#FFFFFF;" d="M221.989,110.578c-0.854-0.474-1.553-1.199-2.177-1.961c-1.95-2.381-3.281-5.196-4.363-8.05         c-0.771-2.036-1.411-4.385-0.42-6.206c0.186-0.341,0.446-0.666,0.819-0.777c0.534-0.159,1.116,0.16,1.589,0.506         c2.361,1.73,3.893,4.372,5.198,6.988C223.576,102.962,227.684,113.74,221.989,110.578z"/>
						</g>
						<g>
							<path style="fill:#FFFFFF;" d="M228.098,114.472c-0.916-1.041-2.45-1.19-3.426-0.331c-0.976,0.859-1.024,2.399-0.108,3.44         c0.916,1.041,2.451,1.19,3.427,0.331C228.966,117.054,229.014,115.513,228.098,114.472z"/>
						</g>
					</g>
					<g>
						<path style="fill:#FFFFFF;" d="M82.611,171.153c-1.85,2.116-3.851,4.23-6.483,5.416c-1.886,0.85-4.671,0.896-5.572-0.887        c-0.544-1.074-0.132-2.338,0.344-3.433c2.156-4.964,5.509-9.409,9.391-13.335c1.902-1.923,4.122-3.822,6.894-4.217        c4.123-0.588,4.974,3.315,3.626,6.089C89.024,164.462,85.329,168.046,82.611,171.153z"/>
					</g>
				</g>
				<g>
					<path style="fill:#FFE3BF;" d="M233.414,72.41c-1.928-7.132-0.72-15.616,4.884-20.431c6.357-5.461,16.387-4.469,23.46,0.027       c7.072,4.497,11.872,11.725,16.459,18.739c-2.346-8.588-4.71-17.302-4.703-26.205c0.008-8.903,2.677-18.172,9.085-24.353       c9.754-9.409,26.901-8.868,36.922,0.257c10.021,9.125,12.472,25.067,6.851,37.4c7.33-3.187,16.235-1.271,22.573,3.598       c6.339,4.869,10.338,12.288,12.472,19.99c1.624,5.863,2.263,12.082,1.098,18.053c-2.655,13.616-14.953,24.287-28.606,26.744       c-13.653,2.457-28.036-2.574-38.527-11.65c7.345,8.791,12.093,22.354,4.92,31.286c-2.209,2.751-5.312,4.676-8.586,5.989       c-14.118,5.662-31.744-0.685-39.716-13.64c-7.972-12.955-6.034-30.954,3.884-42.488c-1.409,1.638-12.116,4.838-14.291,3.944       c-5.831-2.397-0.038-4.926,2.355-8.07C240.363,85.143,235.412,79.803,233.414,72.41z"/>
				</g>
			</g>
			<g>
				<g>
					<g>
						<path style="fill:#7657AA;" d="M41.896,230.477l64.877,231.37c1.329,4.74,6.257,7.497,10.992,6.151l355.19-101.025        c4.659-1.325,7.4-6.136,6.164-10.819l-59.357-224.932c-1.252-4.742-6.107-7.575-10.851-6.331l-360.71,94.586        C43.395,220.738,40.555,225.693,41.896,230.477z"/>
					</g>
					<g>
						<path style="fill:#FFE3BF;" d="M118.277,465.148c-1.52,0-3.024-0.389-4.389-1.153c-2.108-1.18-3.628-3.109-4.28-5.435        L46.053,231.906c-0.658-2.348-0.353-4.806,0.86-6.92c1.212-2.115,3.178-3.62,5.536-4.237l353.36-92.659        c4.806-1.264,9.739,1.622,11.006,6.422l58.147,220.348c1.245,4.717-1.56,9.64-6.251,10.973l-347.953,98.966        C119.939,465.032,119.106,465.148,118.277,465.148z M46.647,231.739l63.555,226.657c0.608,2.165,2.023,3.964,3.987,5.061        c1.965,1.102,4.236,1.364,6.399,0.75l347.953-98.966c4.371-1.244,6.984-5.829,5.824-10.223l-58.147-220.348        c-1.18-4.472-5.779-7.154-10.254-5.983l-353.36,92.659c-2.197,0.575-4.027,1.977-5.157,3.947        C46.318,227.262,46.034,229.553,46.647,231.739z"/>
					</g>
					<g>
						<g>
							<path style="fill:#411C36;" d="M323.627,311.981c0,16.337-3.554,31.834-9.896,45.802         c-17.423,38.201-55.945,64.779-100.685,64.779c-54.267,0-99.402-39.065-108.78-90.617         c-1.185-6.466-1.801-13.153-1.801-19.964c0-22.63,6.811-43.68,18.459-61.201c19.816-29.761,53.674-49.38,92.122-49.38         c50.244,0,92.665,33.513,106.114,79.413C322.073,290.684,323.627,301.147,323.627,311.981z"/>
						</g>
						<g style="opacity:0.21;">
							<path style="fill:#FFE3BF;" d="M323.627,311.981c0,16.337-3.554,31.834-9.896,45.802l-99.427-46.443l-110.038,20.606         c-1.185-6.466-1.801-13.153-1.801-19.964c0-22.63,6.811-43.68,18.459-61.201l93.06,56.463l105.177-26.43         C322.073,290.684,323.627,301.147,323.627,311.981z"/>
						</g>
						<g>
							<circle style="fill:#FFE3BF;" cx="214.3" cy="311.346" r="25.518"/>
						</g>
						<g>
							<path style="fill:#7657AA;" d="M225.956,311.346c0,6.438-5.219,11.656-11.656,11.656c-6.438,0-11.656-5.219-11.656-11.656         c0-6.438,5.219-11.656,11.656-11.656C220.737,299.69,225.956,304.909,225.956,311.346z"/>
						</g>
					</g>
					<g>
						<g>
							<path style="fill:#FFE3BF;" d="M75.999,238.573c0,3.944-3.197,7.141-7.141,7.141c-3.944,0-7.141-3.197-7.141-7.141         c0-3.944,3.197-7.141,7.141-7.141C72.802,231.432,75.999,234.629,75.999,238.573z"/>
						</g>
						<g>
							<path style="fill:#FFE3BF;" d="M412.457,144.902c0,3.944-3.197,7.141-7.141,7.141c-3.944,0-7.141-3.197-7.141-7.141         c0-3.944,3.197-7.141,7.141-7.141C409.26,137.762,412.457,140.959,412.457,144.902z"/>
						</g>
						<g>
							<circle style="fill:#FFE3BF;" cx="456.982" cy="351.566" r="7.141"/>
						</g>
						<g>
							<path style="fill:#FFE3BF;" d="M130.185,446.077c0,3.944-3.197,7.141-7.141,7.141c-3.944,0-7.141-3.197-7.141-7.141         c0-3.944,3.197-7.141,7.141-7.141C126.988,438.936,130.185,442.133,130.185,446.077z"/>
						</g>
					</g>
					<g>
						<g>
							
								<ellipse transform="matrix(0.2287 -0.9735 0.9735 0.2287 86.5655 502.811)" style="fill:#411C36;" cx="360.581" cy="196.778" rx="25.413" ry="25.413"/>
						</g>
						<g>
							<path style="fill:#FFE3BF;" d="M296.944,312.896c-0.485,0-0.946-0.288-1.142-0.766c-0.258-0.631,0.042-1.351,0.673-1.61         l69.739-28.62c10.418-4.275,15.827-15.631,12.581-26.414l-18.767-62.342c-0.196-0.653,0.174-1.341,0.826-1.538         c0.655-0.2,1.341,0.175,1.538,0.826l18.767,62.342c3.613,12.007-2.408,24.649-14.007,29.409l-69.739,28.62         C297.259,312.866,297.101,312.896,296.944,312.896z"/>
						</g>
						<g>
							<path style="fill:#FFE3BF;" d="M333.061,297.992L333.061,297.992c2.556,6.39-0.552,13.641-6.942,16.197l-57.738,23.095         l-8.821-23.523l57.34-22.726C323.283,288.505,330.511,291.616,333.061,297.992z"/>
						</g>
					</g>
				</g>
				<g>
					<g>
						<g>
							<path style="fill:#FFA073;" d="M311.647,414.265c0,0-10.821-8.879-16.925-10.266c-6.104-1.387-23.306-2.497-36.624-14.982         c-13.318-12.486-46.335-44.67-44.393-47.445c1.942-2.775,12.094-3.108,20.418,1.609c0,0-31.726-37.692-26.576-44.935         c3.835-5.394,7.823-3.564,16.701,3.373c8.879,6.936,30.52,26.358,30.52,26.358s-33.093-38.005-32.201-45.861         c0.576-5.075,6.923-7.255,14.691-0.874c7.769,6.382,33.324,35.637,33.324,35.637s-29.965-33.017-24.693-38.844         c5.272-5.827,9.434-3.052,15.538,2.775c6.104,5.827,24.416,28.855,24.416,28.855s-16.092-18.589-12.485-22.474         c3.607-3.884,6.381-4.994,13.318,1.387c6.936,6.381,68.532,76.578,68.532,76.578L311.647,414.265z"/>
						</g>
						<g>
							<g>
								<path style="fill:#411C36;" d="M254.121,368.919c-0.128,0-0.255-0.056-0.341-0.165c-0.29-0.365-29.099-36.703-33.858-43.108          c-8.019-10.795-16.606-24.599-11.976-29.057c5-4.816,10.301-0.235,14.168,3.113l0.659,0.569          c2.948,2.527,19.751,16.637,27.514,23.152c-3.718-4.431-9.968-12.022-15.658-19.601          c-8.149-10.854-15.161-21.436-11.34-25.351c1.329-1.36,3.014-1.981,4.947-1.917c8.239,0.369,19.104,13.592,19.562,14.154          l19.961,21.808c0.162,0.177,0.15,0.452-0.027,0.614c-0.176,0.165-0.452,0.15-0.614-0.027l-19.977-21.827          c-0.127-0.154-11.093-13.502-18.944-13.854c-1.719-0.078-3.122,0.464-4.285,1.656c-3.374,3.455,3.876,14.182,11.411,24.22          c8.754,11.662,18.84,23.352,18.941,23.469c0.148,0.171,0.139,0.427-0.02,0.589c-0.159,0.161-0.416,0.174-0.589,0.028          c-0.276-0.231-27.608-23.16-31.449-26.452l-0.662-0.572c-3.817-3.302-8.564-7.41-12.996-3.146          c-3.21,3.092,1.19,13.266,12.071,27.914c4.75,6.395,33.55,42.721,33.84,43.088c0.149,0.187,0.118,0.461-0.07,0.61          C254.311,368.89,254.216,368.919,254.121,368.919z"/>
							</g>
							<g>
								<path style="fill:#411C36;" d="M294.029,318.562c-0.121,0-0.241-0.05-0.327-0.149c-0.322-0.367-32.215-36.792-35.633-40.211          c-2.32-2.318-5.078-3.52-7.394-3.229c-1.786,0.23-3.27,1.334-4.41,3.28c-2.604,4.449,8.702,19.676,13.277,25.167          c0.154,0.185,0.129,0.458-0.056,0.612s-0.46,0.128-0.612-0.056c-0.688-0.826-16.804-20.279-13.36-26.162          c1.283-2.192,2.981-3.437,5.049-3.704c2.573-0.32,5.611,0.969,8.12,3.477c3.438,3.438,34.359,38.751,35.673,40.253          c0.158,0.18,0.14,0.455-0.041,0.613C294.233,318.526,294.13,318.562,294.029,318.562z"/>
							</g>
							<g>
								<path style="fill:#411C36;" d="M306.006,310.192c-0.119,0-0.237-0.049-0.323-0.144c-0.178-0.197-17.78-19.717-20.872-22.537          c-2.281-2.08-6.654-4.981-10.301-1.043c-3.228,3.482,2.742,11.57,2.803,11.652c0.144,0.193,0.105,0.465-0.088,0.609          c-0.189,0.142-0.464,0.103-0.609-0.088c-0.266-0.356-6.462-8.753-2.744-12.764c3.08-3.328,7.174-2.974,11.524,0.991          c3.125,2.85,20.207,21.792,20.932,22.597c0.161,0.179,0.147,0.454-0.031,0.614          C306.214,310.154,306.109,310.192,306.006,310.192z"/>
							</g>
							<g>
								<path style="fill:#411C36;" d="M225.345,357.648c-0.148,0-0.293-0.077-0.374-0.214c-0.122-0.206-0.055-0.473,0.152-0.595          c1.486-0.881,1.657-3.073,1.351-4.682c-0.51-2.683-1.96-5.001-3.976-6.359c-2.202-1.483-5.027-1.724-7.202-0.62          c-0.211,0.111-0.475,0.024-0.584-0.19c-0.109-0.214-0.023-0.475,0.19-0.584c2.451-1.247,5.623-0.983,8.081,0.673          c2.209,1.488,3.792,4.009,4.345,6.918c0.375,1.976,0.109,4.483-1.763,5.593          C225.498,357.628,225.421,357.648,225.345,357.648z"/>
							</g>
							<g>
								<path style="fill:#411C36;" d="M213.054,308.737c-0.032,0-0.065-0.001-0.097-0.003c-0.726-0.047-1.213-0.601-1.614-1.116          c-1.205-1.559-2.57-3.325-2.983-5.456v0.001c-0.394-2.021,0.247-3.921,1.713-5.084c1.477-1.171,3.481-1.369,5.358-0.525          c1.062,0.475,2.072,1.272,3.091,2.436c0.838,0.958,1.565,2.019,2.16,3.151c0.097,0.188,0.276,0.534,0.17,0.914          c-0.079,0.287-0.287,0.471-0.426,0.593c-1.904,1.674-3.948,3.22-6.076,4.596          C213.964,308.494,213.547,308.737,213.054,308.737z M213.103,296.908c-0.912,0-1.778,0.288-2.489,0.852          c-1.207,0.958-1.73,2.542-1.401,4.236c0,0,0,0,0,0.001c0.375,1.927,1.674,3.606,2.819,5.089          c0.296,0.382,0.616,0.757,0.981,0.78c0.299,0.042,0.564-0.157,0.865-0.353c2.092-1.352,4.103-2.873,5.974-4.518          c0.041-0.037,0.151-0.134,0.162-0.172c0.006-0.021-0.001-0.082-0.103-0.279c-0.562-1.072-1.25-2.075-2.043-2.982          c-0.935-1.067-1.848-1.792-2.793-2.215C214.42,297.054,213.749,296.908,213.103,296.908z"/>
							</g>
							<g>
								<path style="fill:#411C36;" d="M229.145,290.842c-0.031,0-0.063-0.001-0.096-0.003c-0.728-0.047-1.214-0.601-1.613-1.117          c-1.205-1.56-2.572-3.327-2.984-5.456v0.001c-0.393-2.021,0.248-3.921,1.714-5.084c1.477-1.173,3.477-1.37,5.357-0.525          c1.065,0.477,2.075,1.274,3.091,2.436c0.843,0.965,1.57,2.025,2.16,3.154c0.097,0.185,0.277,0.527,0.171,0.911          c-0.08,0.292-0.298,0.482-0.428,0.595c-1.903,1.674-3.947,3.219-6.073,4.593          C230.054,290.598,229.635,290.842,229.145,290.842z M229.194,279.012c-0.911,0-1.777,0.287-2.488,0.851          c-1.207,0.958-1.731,2.542-1.402,4.236c0,0.001,0,0.001,0,0.001c0.374,1.925,1.674,3.605,2.82,5.089          c0.283,0.366,0.615,0.758,0.981,0.781c0.245,0.008,0.561-0.158,0.866-0.354c2.091-1.351,4.101-2.871,5.972-4.517          c0.038-0.033,0.151-0.134,0.162-0.172c0.006-0.021,0-0.082-0.102-0.278c-0.559-1.067-1.246-2.071-2.044-2.984          c-0.931-1.065-1.845-1.789-2.793-2.216C230.512,279.157,229.842,279.012,229.194,279.012z"/>
							</g>
							<g>
								<path style="fill:#411C36;" d="M252.036,288.761c-0.031,0-0.063-0.001-0.096-0.003c-0.728-0.047-1.214-0.601-1.613-1.117          c-1.205-1.558-2.57-3.324-2.984-5.456v0.001c-0.393-2.021,0.248-3.921,1.714-5.084c1.477-1.173,3.477-1.37,5.357-0.525          c1.065,0.478,2.076,1.275,3.091,2.436c0.842,0.964,1.569,2.024,2.16,3.152c0.097,0.186,0.276,0.531,0.171,0.912          c-0.08,0.292-0.298,0.482-0.428,0.595c-1.904,1.674-3.948,3.219-6.073,4.593          C252.945,288.518,252.525,288.761,252.036,288.761z M252.085,276.932c-0.911,0-1.777,0.287-2.488,0.851          c-1.207,0.958-1.731,2.542-1.402,4.236c0,0.001,0,0.001,0,0.001c0.375,1.928,1.674,3.608,2.82,5.089          c0.296,0.383,0.615,0.758,0.981,0.781c0.248,0.016,0.561-0.158,0.866-0.354c2.09-1.351,4.099-2.871,5.972-4.517          c0.038-0.033,0.151-0.134,0.162-0.172c0.006-0.021,0-0.083-0.102-0.28c-0.559-1.066-1.246-2.07-2.044-2.982          c-0.931-1.065-1.845-1.789-2.793-2.215C253.402,277.076,252.732,276.932,252.085,276.932z"/>
							</g>
							<g>
								<path style="fill:#411C36;" d="M279.134,297.732c-0.031,0-0.063-0.001-0.096-0.003c-0.728-0.047-1.214-0.601-1.613-1.117          c-1.205-1.558-2.57-3.324-2.984-5.456v0.001c-0.393-2.021,0.248-3.921,1.714-5.084c1.479-1.171,3.482-1.364,5.357-0.524          c1.065,0.476,2.076,1.273,3.091,2.435c0.843,0.965,1.57,2.025,2.16,3.154c0.09,0.17,0.277,0.525,0.171,0.911          c-0.08,0.292-0.298,0.482-0.428,0.595c-1.904,1.674-3.948,3.219-6.073,4.593          C280.043,297.489,279.623,297.732,279.134,297.732z M279.182,285.903c-0.91,0-1.776,0.287-2.487,0.851          c-1.207,0.957-1.731,2.542-1.402,4.236c0,0.001,0,0.001,0,0.001c0.375,1.928,1.674,3.608,2.82,5.089          c0.283,0.366,0.615,0.758,0.981,0.781c0.235,0.012,0.561-0.158,0.866-0.354c2.09-1.351,4.099-2.871,5.972-4.517          c0.038-0.033,0.151-0.134,0.162-0.172c0.004-0.017,0.003-0.077-0.102-0.277c-0.559-1.068-1.246-2.072-2.044-2.986          c-0.931-1.065-1.845-1.789-2.793-2.214C280.5,286.047,279.829,285.903,279.182,285.903z"/>
							</g>
						</g>
					</g>
					<g>
						<path style="fill:#FFE3BF;" d="M449.421,392.237c-10.433,16.791-22.97,32.105-37.276,45.627        c-21.551,20.37-47.935,36.811-75.784,47.313c-6.226,2.348-25.925,7.941-25.925,7.941        c-5.485-10.254-11.283-25.074-7.097-36.022c7.007-18.493,10.343-25.164,10.343-25.164l-11.283-16.433l-0.918-1.321        l1.455-1.523l2.754-2.843l46.5-48.09l2.933-3.045l17.015,17.015c0,0,28.008-14.015,55.388,1.522        c0.403,0.224,0.806,0.47,1.209,0.694c0.627,0.38,1.231,0.739,1.836,1.119C439.189,384.289,445.189,388.677,449.421,392.237z"/>
					</g>
				</g>
			</g>
			<g>
				<g>
					<g>
						<path style="fill:#FFE3BF;" d="M425.691,311.569c-5.327,0-10.146-3.559-11.57-8.912l-11.099-41.683        c-1.668-6.263,2.042-12.817,8.27-14.611c3.134-0.906,6.414-0.521,9.244,1.083c2.829,1.601,4.847,4.214,5.682,7.355        l11.085,41.686c0.85,3.199,0.368,6.516-1.359,9.339c-1.726,2.824-4.459,4.766-7.694,5.466        C427.392,311.48,426.535,311.569,425.691,311.569z M414.645,246.981c-1.014,0-2.033,0.144-3.037,0.432        c-5.673,1.635-9.043,7.59-7.528,13.28l11.099,41.683c1.5,5.636,7.144,9.073,12.839,7.848c2.939-0.638,5.421-2.401,6.99-4.966        c1.568-2.566,2.006-5.58,1.234-8.486l-11.085-41.686c-0.759-2.855-2.593-5.229-5.162-6.683        C418.334,247.46,416.5,246.981,414.645,246.981z"/>
					</g>
					<g>
						<path style="fill:#FFE3BF;" d="M426.791,301.676c-0.244,0-0.465-0.162-0.53-0.408l-12.69-48.146        c-0.078-0.294,0.097-0.593,0.389-0.67c0.295-0.076,0.593,0.098,0.67,0.389l12.69,48.146c0.078,0.294-0.097,0.593-0.389,0.67        C426.883,301.669,426.837,301.676,426.791,301.676z"/>
					</g>
				</g>
				<g>
					
						<rect x="412.235" y="273.135" transform="matrix(0.9747 -0.2235 0.2235 0.9747 -51.422 100.8039)" style="fill:#FFE3BF;" width="14.929" height="8.957"/>
				</g>
			</g>
			<g>
				<g>
					<path style="fill:#FFA073;" d="M385.176,110.035c0,4.535-3.676,8.211-8.211,8.211c-4.535,0-8.211-3.676-8.211-8.211       c0-4.535,3.676-8.211,8.211-8.211C381.5,101.825,385.176,105.5,385.176,110.035z"/>
				</g>
				<g>
					<path style="fill:#7657AA;" d="M57.748,320.908c0,4.535-3.676,8.211-8.211,8.211s-8.211-3.676-8.211-8.211       c0-4.535,3.676-8.211,8.211-8.211S57.748,316.374,57.748,320.908z"/>
				</g>
				<g>
					<path style="fill:#FFC151;" d="M245.216,152.21c0,4.535-3.676,8.211-8.211,8.211c-4.535,0-8.211-3.676-8.211-8.211       c0-4.535,3.676-8.211,8.211-8.211C241.54,143.999,245.216,147.675,245.216,152.21z"/>
				</g>
				<g>
					<path style="fill:#FFE3BF;" d="M250.814,460.868c0,4.535-3.676,8.211-8.211,8.211c-4.535,0-8.211-3.676-8.211-8.211       c0-4.535,3.676-8.211,8.211-8.211C247.138,452.657,250.814,456.333,250.814,460.868z"/>
				</g>
				<g>
					<path style="fill:#FFA073;" d="M471.205,227.602c0,4.535-3.676,8.211-8.211,8.211c-4.535,0-8.211-3.676-8.211-8.211       c0-4.535,3.676-8.211,8.211-8.211C467.528,219.391,471.205,223.067,471.205,227.602z"/>
				</g>
			</g>
		</g>
	</g>
</g>















</svg>
