<?xml version="1.0" encoding="UTF-8"?>
<!-- Generator: Adobe Illustrator 25.3.1, SVG Export Plug-In . SVG Version: 6.00 Build 0)  -->
<svg xmlns="http://www.w3.org/2000/svg" xmlns:xlink="http://www.w3.org/1999/xlink" version="1.1" id="Capa_1" x="0px" y="0px" viewBox="0 0 512 512" style="enable-background:new 0 0 512 512;" xml:space="preserve" width="512" height="512">
<g>
	<g>
		<path style="fill:#FFFFFF;" d="M236.164,491.838c-70.809-0.502-140.234-33.629-185.191-89.574C18.292,361.595,0,308.365,0,256.316    c0-130.219,105.941-236.16,236.16-236.16c61.843,0,119.562,23.358,163.753,66.017c14.706-7.939,29.921-12.372,42.978-12.372    c7.58,0,14.395,1.473,20.257,4.377c54.599,26.977,55.987,60.575,39.927,109.489c-5.843,17.808-17.002,34.894-31.808,46.452    c-1.867,1.457,1.079,23.708,0.991,27.557c-2.356,103.79-76.165,195.906-176.684,222.666    C276.002,489.553,256.029,491.979,236.164,491.838z"/>
	</g>
	<g>
		<g>
			<g>
				<path style="fill:#7657AA;" d="M459.159,256.662c0.027,15.243-1.505,30.485-4.644,45.407      c-19.21,91.34-97.114,162.749-189.554,175c-12.191,1.616-24.518,2.194-36.806,1.712c-9.025-0.354-18.029-1.266-26.939-2.751      c-0.977-0.125-1.929-0.301-2.882-0.476c-43.929-7.693-83.422-28.292-114.421-57.736l-1.955-1.88      c-41.473-40.37-67.234-96.829-67.234-159.276c0-122.715,99.485-222.225,222.226-222.225      c91.388,0,175.906,58.199,207.988,143.895C454.288,203.305,459.111,229.985,459.159,256.662z"/>
			</g>
			<g>
				<polygon style="fill:#FF6A6C;" points="390.093,358.857 378.743,411.291 341.242,373.765     "/>
			</g>
			<g>
				<polygon style="fill:#411C36;" points="297.071,113.284 250.082,67.586 313.241,53.014     "/>
			</g>
			<g>
				<g>
					<path style="fill:#411C36;" d="M442.161,327.705c-5.939,11.202-12.78,22.754-22.729,31.249       c-2.756,2.356-5.688,4.385-8.721,6.039c3.157-9.122,4.11-17.642,2.807-25.36c-1.905-11.552-9.322-21.3-18.92-24.859       c-6.866-2.556-14.885-1.654-21.977,2.456c-7.493,4.36-12.755,11.628-14.033,19.446c-2.556,15.387,9.172,31.925,25.059,35.384       c7.167,1.579,14.96,0.752,22.453-2.155c-8.219,18.895-22.252,32.502-38.466,37.388c-13.081,3.934-26.989,2.105-37.639,0.075       c-21.777-4.135-43.077-11.853-63.651-19.321c-6.215-2.255-12.454-4.511-18.694-6.691c-25.235-8.771-55.08-17.466-85.126-15.637       c-32.251,1.955-60.268,16.639-74.927,39.318c-2.305,3.558-4.185,7.242-5.639,10.901l1.955,1.88       c1.428-3.834,3.383-7.668,5.789-11.402c14.234-22.027,41.523-36.286,72.972-38.215c29.62-1.779,59.14,6.841,84.149,15.512       c6.24,2.18,12.455,4.436,18.669,6.691c20.674,7.518,42.05,15.261,64.026,19.446c10.951,2.055,25.235,3.934,38.817-0.15       c16.965-5.087,31.549-19.246,40.07-38.817c0.351-0.802,0.702-1.604,1.027-2.406c4.06-1.93,7.994-4.485,11.628-7.618       c10.274-8.771,17.266-20.549,23.305-31.976c2.481-4.711,4.887-9.472,7.167-14.309c1.128-4.135,2.105-8.294,2.982-12.504       C450.706,310.765,446.596,319.31,442.161,327.705z M407.453,366.622c-7.743,3.483-15.888,4.611-23.255,3.007       c-14.66-3.208-25.485-18.419-23.155-32.552c1.178-7.092,5.989-13.682,12.855-17.667c4.034-2.356,8.395-3.558,12.605-3.558       c2.506,0,4.937,0.426,7.217,1.278c8.771,3.258,15.562,12.229,17.341,22.904C412.39,348.028,411.162,356.974,407.453,366.622z        M211.44,455.457c3.609-15.662-0.2-32.878-10.725-44.029c-7.668-8.094-21.15-14.184-32.652-8.37       c-5.738,2.907-9.698,8.42-11.101,15.537c-1.779,8.846,0.627,18.419,6.24,24.959c11.602,13.557,31.149,15.161,41.724,14.935       c1.027-0.025,2.08-0.075,3.158-0.151c-0.977,3.183-2.305,6.265-3.985,9.197c-1.629,2.857-3.583,5.538-5.764,8.019       c0.952,0.176,1.905,0.351,2.882,0.476c1.88-2.28,3.583-4.686,5.037-7.242c1.955-3.383,3.458-6.992,4.511-10.725       c12.78-1.579,26.337-7.518,29.044-20.348l-2.456-0.526C234.996,448.415,223.042,453.828,211.44,455.457z M208.809,455.758       c-1.328,0.125-2.656,0.2-3.959,0.225c-10.174,0.226-28.818-1.303-39.744-14.058c-5.062-5.889-7.292-14.86-5.688-22.854       c1.253-6.34,4.736-11.226,9.773-13.782c2.707-1.353,5.613-1.98,8.57-1.98c7.818,0,15.862,4.26,21.125,9.848       C209.034,423.907,212.593,440.672,208.809,455.758z"/>
				</g>
			</g>
			<g>
				<g>
					<path style="fill:#FFC151;" d="M138.7,94.993c-4.955-1.893-7.475-8.116-5.92-13.187c1.555-5.071,6.512-8.681,11.764-9.428       c2.985-0.425,6.172,0.007,8.687,1.668c4.481,2.96,5.775,9.571,3.284,14.329c-2.491,4.758-8.122,7.447-13.481,7.085       L138.7,94.993z"/>
				</g>
				<g>
					<path style="fill:#FFE3BF;" d="M84.031,248.356c0,0-61.209,65.687-46.28,83.175c14.929,17.488,167.63,10.663,202.607-9.384       c34.976-20.048,40.948-37.109,54.171-71.232c13.223-34.123,26.232-69.739,26.232-69.739L84.031,248.356z"/>
				</g>
				<g>
					<g>
						<path style="fill:#FFC151;" d="M320.748,181.183c0,0-11.101,10.274-31.975,22.779c-0.376,0.251-0.727,0.476-1.103,0.677        c-27.816,16.514-72.371,36.662-130.709,42.425c0,0-26.011,4.661-56.684,2.857c-0.451,0-0.877-0.05-1.328-0.075        c-4.887-0.301-9.898-0.777-14.91-1.478c0,0-44.806-87.657,16.639-136.924c5.263-4.21,10.5-8.069,15.737-11.552        c1.328-0.902,2.656-1.779,3.985-2.631c17.992-11.502,35.659-19.045,52.198-23.405c1.829-0.501,3.659-0.927,5.463-1.353        c31.249-7.067,57.962-2.832,74.251,6.941C281.105,96.708,302.204,128.709,320.748,181.183z"/>
					</g>
					<g>
						<g>
							<g>
								<path style="fill:#FFE3BF;" d="M90.83,196.294c1.303,19.02,5.313,37.739,9.447,53.627c-0.451,0-0.877-0.05-1.328-0.075          c-4.11-15.837-8.094-34.506-9.372-53.476c-1.654-24.834,1.403-47.262,9.147-66.683c4.436-11.126,10.45-21.2,17.692-29.796          c1.328-0.902,2.656-1.779,3.985-2.631c-8.495,9.197-15.512,20.373-20.499,32.878          C92.208,149.383,89.176,171.636,90.83,196.294z"/>
							</g>
						</g>
						<g>
							<g>
								<path style="fill:#FFE3BF;" d="M288.773,203.962c-0.376,0.251-0.727,0.476-1.103,0.677          c-12.379-39.218-27.966-71.344-47.513-98.007c-5.187-7.067-11.602-15.086-19.847-20.924          c-9.021-6.365-20.699-10.375-33.78-11.552c-4.711-0.426-9.397-0.476-13.933-0.301c1.829-0.501,3.659-0.927,5.463-1.353          c2.832,0.025,5.714,0.15,8.596,0.401c13.281,1.203,25.184,5.288,34.381,11.803c8.395,5.939,14.885,14.033,20.123,21.175          C260.756,132.594,276.368,164.744,288.773,203.962z"/>
							</g>
						</g>
					</g>
				</g>
				<g>
					<polygon style="fill:#FFE3BF;" points="145.899,176.145 139.065,134.926 157.482,172.234 192.604,161.754 164.239,181.146        182.583,212.1 156.831,188.365 148.964,223.042 147.801,190.149 107.351,185.826      "/>
				</g>
			</g>
			<g>
				<g>
					<g>
						<path style="fill:#FF6A6C;" d="M416.181,218.994l3.999,33.488L269.124,440.697l-1.548,1.924l-6.391,7.981        c-3.917,4.846-10.911,5.862-16.01,2.286l-19.725-13.77c-5.034-3.503-6.537-10.304-3.47-15.623l4.885-8.44l1.229-2.134        l125.229-216.516l28.11-6.447L416.181,218.994z"/>
					</g>
					<g>
						<g>
							<path style="fill:#FFE3BF;" d="M435.425,233.47l-15.246,19.012c-21.031-10.006-39.996-24.32-55.333-41.795         c-4.023-4.598-7.835-9.409-11.521-14.284l9.949-17.209L435.425,233.47z"/>
						</g>
						<g>
							<g>
								<g>
									<path style="fill:#7657AA;" d="M490.628,183.667c-2.068,6.299-4.584,11.869-7.388,16.763c0,0-2.048,0.442-2.255,0.794           c-0.228,0.386,0.963,1.425,0.963,1.425c-18.298,29.974-47.31,34.616-47.31,34.616s-4.685-1.239-28.897-14.279           c-19.986-10.773-38.683-33.58-44.584-41.208c-1.353-1.73-2.019-3.834-1.986-6.026c0.116-7.169,1.572-24.593,11.632-42.999           c0,0,1.032,0.166,1.232-0.193c0.207-0.371-0.003-1.994-0.003-1.994c0.315-0.584,0.651-1.125,0.998-1.698           c15.587-25.472,61.718-49.252,84.725-37.857C502.919,113.326,506.095,136.553,490.628,183.667z"/>
								</g>
								<g style="opacity:0.56;">
									<path style="fill:#411C36;" d="M490.628,183.667c-2.068,6.299-4.584,11.869-7.388,16.763c0,0-1.823,0.523-2.034,0.881           c-0.224,0.38,0.742,1.338,0.742,1.338c-18.298,29.974-47.31,34.616-47.31,34.616s-4.685-1.239-28.897-14.279           c-19.986-10.773-38.683-33.58-44.584-41.208c-1.353-1.73-2.019-3.834-1.986-6.026c0.116-7.169,1.572-24.593,11.632-42.999           c0,0,1.105-0.107,1.311-0.476c0.201-0.36-0.082-1.711-0.082-1.711c0.315-0.584,0.651-1.125,0.998-1.698           c15.587-25.472,61.718-49.252,84.725-37.857C502.919,113.326,506.095,136.553,490.628,183.667z"/>
								</g>
							</g>
							<g>
								<g>
									<path style="fill:#FFE3BF;" d="M483.24,200.43c-0.41,0.764-0.862,1.497-1.292,2.219c-3.073-0.409-6.073-1.306-8.947-2.268           c-39.012-12.772-75.121-36.696-102.198-67.629c0.399-0.732,0.798-1.465,1.229-2.187           c26.886,30.923,62.826,54.826,101.7,67.589C476.807,199.146,480.009,200.127,483.24,200.43z"/>
								</g>
							</g>
						</g>
					</g>
					<g>
						<g>
							<path style="fill:#FFE3BF;" d="M269.124,440.697l-1.548,1.924c-15.254-6.188-29.327-15.707-40.71-27.567l1.229-2.134         C239.491,424.96,253.712,434.562,269.124,440.697z"/>
						</g>
					</g>
				</g>
				<g>
					<path style="fill:#FFE3BF;" d="M337.147,325.68c-1.352,0-2.663-0.413-3.783-1.204l0,0c-1.436-1.014-2.39-2.531-2.69-4.273       s0.095-3.49,1.107-4.924l27.324-38.666c1.014-1.433,2.531-2.388,4.273-2.688c1.726-0.304,3.488,0.093,4.924,1.108       c1.433,1.013,2.388,2.53,2.688,4.272s-0.095,3.49-1.107,4.925l-27.324,38.665c-1.014,1.433-2.531,2.388-4.273,2.688       C337.907,325.648,337.526,325.68,337.147,325.68z M364.514,275.081c-0.306,0-0.617,0.026-0.925,0.079       c-1.411,0.243-2.64,1.015-3.459,2.176l-27.324,38.666c-0.821,1.16-1.139,2.576-0.896,3.989c0.243,1.411,1.014,2.64,2.175,3.459       h0.002c1.159,0.821,2.576,1.136,3.987,0.898c1.411-0.243,2.64-1.016,3.459-2.175l27.324-38.668       c0.821-1.161,1.138-2.578,0.896-3.989c-0.243-1.412-1.014-2.641-2.175-3.461C366.671,275.415,365.61,275.081,364.514,275.081z"/>
				</g>
			</g>
			<g>
				<g>
					<polygon style="fill:#FFC151;" points="143.993,396.496 78.451,395.807 114.14,341.699      "/>
				</g>
				<g>
					<polygon style="fill:#FFA073;" points="324.508,259.224 282.193,300.832 261.578,239.941      "/>
				</g>
			</g>
			<g>
				<g>
					<path style="fill:#FFA073;" d="M350.405,159.209c0,5.183-4.201,9.384-9.384,9.384c-5.183,0-9.384-4.201-9.384-9.384       c0-5.182,4.201-9.384,9.384-9.384C346.204,149.825,350.405,154.027,350.405,159.209z"/>
				</g>
				<g>
					<path style="fill:#FF6A6C;" d="M56.092,229.162c0,5.183-4.201,9.384-9.384,9.384c-5.182,0-9.384-4.201-9.384-9.384       c0-5.182,4.201-9.384,9.384-9.384C51.891,219.778,56.092,223.979,56.092,229.162z"/>
				</g>
				<g>
					<path style="fill:#FFC151;" d="M442.112,289.304c0,5.183-4.201,9.384-9.384,9.384c-5.182,0-9.384-4.201-9.384-9.384       s4.201-9.384,9.384-9.384C437.91,279.92,442.112,284.121,442.112,289.304z"/>
				</g>
				<g>
					<circle style="fill:#FFE3BF;" cx="306.045" cy="435.607" r="9.384"/>
				</g>
				<g>
					<circle style="fill:#FFA073;" cx="232.254" cy="350.726" r="9.384"/>
				</g>
			</g>
		</g>
	</g>
</g>















</svg>
