<?xml version="1.0" encoding="UTF-8"?>
<!-- Generator: Adobe Illustrator 25.3.1, SVG Export Plug-In . SVG Version: 6.00 Build 0)  -->
<svg xmlns="http://www.w3.org/2000/svg" xmlns:xlink="http://www.w3.org/1999/xlink" version="1.1" id="Capa_1" x="0px" y="0px" viewBox="0 0 512 512" style="enable-background:new 0 0 512 512;" xml:space="preserve" width="512" height="512">
<g>
	<g>
		<path style="fill:#FFFFFF;" d="M267.548,500.477c-36.49,0.078-72.918-8.221-105.821-24.062c0,0-32.227,6.971-32.227,6.971    c-7.563,1.636-15.256-3.206-17.068-10.713l-8.469-35.053c-51.467-46.39-80.889-112.314-80.889-181.625    c0-11.825,0.856-23.651,2.551-35.334c0,0-4.381,2.349-4.383,2.35c-4.979,2.67-11.476,2.09-15.914-1.517    c-4.514-3.668-6.383-9.687-4.741-15.267c1.572-5.343,2.991-10.761,4.788-16.034c1.378-4.044,4.421-7.284,8.438-8.822l24.03-9.205    c1.344-3.682,2.781-7.339,4.301-10.954l-1.661-1.344c-4.521-3.658-6.402-9.674-4.772-15.257c0.06-0.207,0.125-0.41,0.194-0.612    c0,0-5.676-4.594-5.679-4.597c-9.722-7.869-4.975-24.149,7.465-25.546c0,0,16.011-1.799,16.011-1.799    c4.43-0.503,8.945,1.139,12.028,4.356l0.642,0.671C111.771,51.534,187.219,11.522,267.549,11.522    c61.179,0,118.781,22.27,163.782,63.021l8.109-8.466c2.736-2.856,6.507-4.447,10.416-4.447c0.537,0,1.074,0.029,1.612,0.09    c0,0,16.004,1.799,16.012,1.8c10.993,1.235,16.565,14.638,9.688,23.302c-2.122,2.674-5.261,4.703-7.903,6.843    c0.068,0.201,0.133,0.404,0.193,0.609c1.63,5.583-0.251,11.599-4.772,15.258l-0.885,0.716c3.385,4.545,6.606,9.196,9.644,13.926    l17.911,6.86c4.2,1.608,7.41,5.084,8.678,9.399l4.548,15.457c1.642,5.58-0.228,11.598-4.741,15.267    c-0.749,0.608-1.546,1.132-2.378,1.571c0.879-0.464,11.735,45.949,12.322,50.307c2.406,17.858,2.875,35.924,1.299,53.878    c-9.571,109.079-94.495,200.342-201.995,219.793C295.546,499.156,281.426,500.447,267.548,500.477z"/>
	</g>
	<g>
		<g>
			<g>
				<path style="fill:#FFC151;" d="M498.825,255.996c0,6.096-0.233,12.14-0.7,18.107c-0.207,2.49-0.441,4.981-0.726,7.445      c-1.505,13.749-4.229,27.135-8.094,40.028c-0.467,1.712-1.012,3.424-1.556,5.111c-12.011,37.278-33.309,70.405-61.144,96.684      c-1.297,1.219-2.594,2.413-3.917,3.606c-7.653,6.9-15.772,13.308-24.333,19.119c-1.738,1.193-3.476,2.361-5.24,3.502      c-6.2,3.995-12.581,7.679-19.171,11.077c-1.66,0.856-3.347,1.686-5.059,2.516c-23.451,11.362-49.133,18.86-76.216,21.635      c-2.075,0.234-4.151,0.415-6.252,0.571c-5.811,0.441-11.7,0.675-17.64,0.675c-4.254,0-8.457-0.104-12.634-0.363      c-2.127-0.104-4.254-0.233-6.356-0.415c-118.189-9.65-211.06-108.643-211.06-229.296c0-127.036,102.988-230.049,230.049-230.049      c91.366,0,170.28,53.284,207.428,130.46c0.752,1.556,1.479,3.139,2.179,4.721c8.82,19.404,15.02,40.261,18.107,62.104      c0.493,3.295,0.882,6.615,1.193,9.936v0.026C498.436,240.69,498.825,248.291,498.825,255.996z"/>
			</g>
			<g>
				<polygon style="fill:#FF6A6C;" points="236.484,118.03 187.842,70.723 253.224,55.637     "/>
			</g>
			<g>
				<g>
					<path style="fill:#411C36;" d="M494.337,277.346c-7.731,4.41-17.692-0.545-21.609-2.879       c-10.973-6.537-19.534-16.68-24.748-28.432c0.726-3.424,1.764-6.719,3.113-9.832c2.153-4.903,6.07-11.466,12.556-14.942       c9.079-4.851,21.895-2.153,29.833,6.278c1.583,1.686,2.983,3.58,4.202,5.629c-0.311-3.321-0.7-6.641-1.193-9.936       c-9.546-9.495-24.489-12.322-35.28-6.563c-6.174,3.32-11.311,9.339-14.864,17.459c-0.519,1.167-0.986,2.361-1.401,3.58       c-2.516-8.613-3.295-17.744-2.024-26.72c2.957-20.727,16.732-39.665,35.462-49.86c-0.7-1.582-1.427-3.165-2.179-4.721       c-20.286,10.947-35.202,31.415-38.419,53.829c-1.764,12.348,0.078,24.981,4.825,36.344c-2.257,12.478-0.57,26.175,4.955,38.549       c6.641,14.89,18.496,28.017,34.243,37.952c1.271,0.778,2.542,1.556,3.813,2.335c0.726,0.441,1.427,0.856,2.127,1.271       c0.545-1.686,1.09-3.399,1.556-5.111c-0.337-0.207-0.675-0.415-1.012-0.622c-1.245-0.752-2.49-1.505-3.71-2.257       c-14.89-9.391-26.045-21.739-32.297-35.695c-3.969-8.924-5.811-18.574-5.422-27.835c5.655,9.728,13.593,18.029,23.192,23.736       c9.961,5.915,19.741,7.004,26.849,2.957c0.156-0.104,0.337-0.182,0.493-0.311c0.285-2.464,0.519-4.955,0.726-7.445       C497.087,275.374,495.842,276.489,494.337,277.346z M367.38,454.837c-4.229-3.943-8.613-8.042-14.008-10.766       c-10.999-5.551-25.241-4.592-37.2,2.516c-9.832,5.837-18.029,15.331-24.359,28.224l-1.167,2.387       c-1.349,2.802-2.698,5.603-4.228,8.197c2.101-0.156,4.177-0.337,6.252-0.571c0.934-1.79,1.816-3.606,2.672-5.37l1.115-2.361       c5.889-11.985,13.412-20.727,22.362-26.045c10.454-6.2,22.803-7.108,32.219-2.361c4.721,2.387,8.664,6.07,12.815,9.936       c1.634,1.53,3.294,3.087,5.033,4.566c1.712-0.83,3.398-1.66,5.059-2.516C371.712,458.884,369.585,456.886,367.38,454.837z        M261.124,443.604c-6.174,0.493-12.141,4.306-14.865,9.494c-4.254,8.146-2.62,17.485,0.156,24.904       c-0.986,0.078-1.972,0.104-2.905,0.052c-6.823-0.363-12.997-4.488-15.02-10.065c-1.219-3.372-1.193-7.471,0.078-12.919       c1.401-5.967,5.059-16.525,14.112-20.416l-2.05-4.773c-11.155,4.799-15.513,17.095-17.121,23.996       c-0.934,4.073-1.946,10.169,0.104,15.876c2.776,7.601,10.636,13.023,19.612,13.463c1.764,0.104,3.528,0,5.318-0.259       c0.389,0.778,0.804,1.556,1.245,2.334c2.101,0.182,4.228,0.311,6.356,0.415c-0.882-1.271-1.686-2.62-2.413-3.995       c3.995-1.297,7.964-3.424,11.674-6.304c8.665-6.667,13.983-18.496,7.86-26.746       C270.566,445.057,266.156,443.215,261.124,443.604z M262.239,471.31c-3.424,2.646-7.056,4.566-10.662,5.655       c-2.542-6.459-4.254-14.683-0.726-21.454c1.92-3.684,6.226-6.382,10.688-6.719c0.259-0.026,0.571-0.052,0.908-0.052       c1.945,0,4.773,0.519,6.641,3.035C273.264,457.379,268.776,466.277,262.239,471.31z M409.275,417.767       c-7.523,1.323-12.244,7.938-14.164,13.645c-1.894,5.603-1.92,11.44-1.972,17.095l-0.026,1.09       c1.764-1.141,3.502-2.309,5.24-3.502c0.052-4.462,0.311-8.976,1.66-13.023c1.375-4.125,4.877-9.261,10.169-10.195       c4.332-0.752,8.353,1.323,12.504,4.099c1.323-1.193,2.62-2.387,3.917-3.606C421.364,419.738,415.864,416.625,409.275,417.767z"/>
				</g>
			</g>
			<g>
				<g>
					<path style="fill:#7657AA;" d="M439.653,401.709l-37.667,8.172l-2.75,0.596l-185.923,40.261l-2.853,0.623l-61.17,13.256       l-14.948-6.823L89.626,276.163l13.359-22.891l1.53-1.245c0,0,109.291-63.582,307.977-60.262       C412.492,191.765,438.978,316.284,439.653,401.709z"/>
				</g>
				<g>
					<polygon style="fill:#411C36;" points="149.29,464.617 127.681,469.286 80,271.898 102.984,253.272      "/>
				</g>
				<g>
					<g>
						<g>
							<path style="fill:#411C36;" d="M225.053,326.22c0,20.468-16.603,37.096-37.096,37.096c-1.894,0-3.762-0.156-5.604-0.415         c-0.026,0-0.026,0-0.052,0c0,0,19.944-20.982,19.944-39.53c0-18.574-19.892-33.832-19.944-33.832c0.026,0,0.026,0,0.052,0         c1.842-0.259,3.71-0.415,5.604-0.415C208.45,289.124,225.053,305.726,225.053,326.22z"/>
						</g>
						<g>
							<path style="fill:#FFC151;" d="M213.794,326.22c0,18.548-13.645,33.957-31.441,36.681c-0.026,0-0.026,0-0.052,0         c-17.77-2.724-31.415-18.133-31.415-36.681c0-18.574,13.645-33.958,31.415-36.681c0.026,0,0.026,0,0.052,0         C200.149,292.263,213.794,307.646,213.794,326.22z"/>
						</g>
						<g>
							<path style="fill:#411C36;" d="M398.601,287.801c0,20.494-16.629,37.096-37.096,37.096c-2.023,0-4.021-0.156-5.967-0.467         c0,0,5.967-13.605,5.967-32.075c0-18.47-5.967-41.184-5.967-41.184c1.934-0.378,3.943-0.467,5.967-0.467         C381.973,250.705,398.601,267.307,398.601,287.801z"/>
						</g>
						<g>
							<ellipse style="fill:#FFC151;" cx="355.538" cy="287.801" rx="31.13" ry="36.629"/>
						</g>
						<g>
							<polygon style="fill:#411C36;" points="237.604,297.33 246.343,338.578 314.509,319.352 304.371,279.851        "/>
						</g>
					</g>
					<g>
						<path style="fill:#FFE3BF;" d="M138.953,255.345l9.273,23.844c0,0,44.377-16.558,116.571-32.455        c72.195-15.896,116.571-17.221,116.571-17.221l-4.636-28.48C376.732,201.033,238.303,208.981,138.953,255.345z"/>
					</g>
					<g>
						<circle style="fill:#411C36;" cx="120.739" cy="263.624" r="6.292"/>
					</g>
					<g>
						<path style="fill:#411C36;" d="M407.53,207.326c0,3.475-2.817,6.292-6.292,6.292c-3.475,0-6.292-2.817-6.292-6.292        c0-3.475,2.817-6.292,6.292-6.292C404.713,201.033,407.53,203.851,407.53,207.326z"/>
					</g>
					<g>
						<path style="fill:#411C36;" d="M431.374,387.15c0,3.475-2.817,6.292-6.292,6.292c-3.475,0-6.292-2.817-6.292-6.292        c0-3.475,2.817-6.292,6.292-6.292C428.557,380.857,431.374,383.675,431.374,387.15z"/>
					</g>
					<g>
						<circle style="fill:#411C36;" cx="161.472" cy="445.435" r="6.292"/>
					</g>
					<g>
						<g>
							<polygon style="fill:#411C36;" points="401.986,409.881 399.236,410.477 378.146,379.996 222.16,415.406 213.313,450.738          210.46,451.361 220.006,413.227 220.784,413.045 379.287,377.09        "/>
						</g>
					</g>
				</g>
			</g>
			<g>
				<g>
					<path style="fill:#411C36;" d="M80.882,197.808c2.139-1.521,5.362-3.487,7.18-4.574c0.842-0.504,1.889-0.471,2.706,0.073       l19.184,12.789l-27.46-76.14c-0.429-1.19,0.082-2.515,1.198-3.109l15.576-8.285c1.358-0.723,3.042-0.083,3.579,1.359       l12.663,34.033l16.241-6.411l-13.054-48.545c-0.35-1.3,0.375-2.648,1.652-3.074l16.98-5.66       c1.382-0.461,2.868,0.331,3.256,1.736l27.675,100.118c0.373,1.349-0.414,2.746-1.762,3.126l-12.084,3.408       c-1.229,0.347-2.526-0.272-3.029-1.446l-10.66-24.874l-18.805,5.129l7.31,38.175c0.224,1.169-0.394,2.338-1.486,2.812       l-19.208,8.336c-0.952,0.413-2.059,0.207-2.798-0.521l-25.145-24.764C79.521,200.443,79.657,198.68,80.882,197.808z"/>
				</g>
				<g>
					<path style="fill:#411C36;" d="M159.435,95.539l16.404,91.451c0.198,1.102,1.264,1.826,2.362,1.602l17.144-3.499       c1.016-0.207,1.703-1.159,1.581-2.188l-11.06-93.393c-0.14-1.187-1.287-1.985-2.449-1.704l-22.488,5.441       C159.904,93.497,159.249,94.501,159.435,95.539z"/>
				</g>
				<g>
					<path style="fill:#411C36;" d="M156.148,65.976l4.214,16.154c0.251,0.96,1.225,1.542,2.189,1.306l15.667-3.83       c0.999-0.244,1.596-1.269,1.316-2.258l-4.565-16.153c-0.267-0.945-1.236-1.506-2.188-1.268l-15.316,3.829       C156.485,64,155.893,64.998,156.148,65.976z"/>
				</g>
				<g>
					<g>
						<path style="fill:#411C36;" d="M193.951,88.28l11.414,92.942c0.177,1.442,1.524,2.442,2.956,2.195l17.273-2.99        c1.309-0.227,2.223-1.424,2.096-2.747l-3.398-35.49c-0.126-1.321,0.785-2.517,2.092-2.746l12.429-2.175        c1.322-0.231,2.236-1.45,2.088-2.784l-4.306-38.75c-0.084-0.753-0.499-1.43-1.133-1.845l-22.62-14.82        c-0.727-0.477-1.648-0.548-2.44-0.19l-14.976,6.775C194.413,86.113,193.815,87.176,193.951,88.28z"/>
					</g>
					<g>
						<polygon style="fill:#FFC151;" points="211.246,100.529 215.093,127.882 219.794,127.028 215.52,99.247       "/>
					</g>
				</g>
				<g>
					<path style="fill:#411C36;" d="M229.373,148.475l9.964,29.507c0.313,0.927,1.26,1.481,2.222,1.3l26.216-4.939       c0.927-0.175,1.599-0.984,1.599-1.928v-32.993l17.096-1.282l2.407,31.286c0.086,1.117,1.088,1.935,2.199,1.796l20.234-2.529       c0.956-0.119,1.684-0.915,1.717-1.878l3.713-106.86c0.04-1.16-0.929-2.101-2.087-2.026l-22.564,1.456       c-1.006,0.065-1.799,0.882-1.834,1.889l-1.648,47.376l-17.523-0.427l-6.959-45.029c-0.168-1.089-1.199-1.825-2.283-1.632       l-20.163,3.601c-1.012,0.181-1.712,1.111-1.606,2.133l9.215,88.795l-5.266-13.165c-0.398-0.995-1.521-1.486-2.522-1.104       l-10.966,4.193C229.547,146.391,229.036,147.477,229.373,148.475z"/>
				</g>
				<g>
					<g>
						<path style="fill:#411C36;" d="M383.381,74.987l-14.131,94.942c-0.161,1.079,0.541,2.094,1.583,2.29l14.631,2.744        c1.072,0.201,2.096-0.54,2.277-1.648l4.702-28.692l17.599,2.367c0.951,0.128,1.836-0.525,2.026-1.495l7.927-40.468        c0.079-0.404,0.028-0.824-0.147-1.196l-13.108-27.859c-0.284-0.604-0.859-1.007-1.508-1.056l-19.909-1.521        C384.371,73.322,383.526,74.015,383.381,74.987z"/>
					</g>
					<g>
						<polygon style="fill:#FFC151;" points="395.457,98.605 392.719,126.092 397.489,126.375 399.913,98.372       "/>
					</g>
				</g>
				<g>
					<g>
						<path style="fill:#411C36;" d="M326.077,73.058l-4.389,76.998c-0.096,1.68,1.19,3.118,2.87,3.21l40.723,2.242        c1.59,0.088,2.979-1.066,3.184-2.646l9.581-73.859c0.185-1.427-0.639-2.785-1.998-3.259        c-6.718-2.34-27.063-8.512-47.412-5.532C327.221,70.42,326.159,71.63,326.077,73.058z"/>
					</g>
					<g>
						<polygon style="fill:#FFC151;" points="347.054,98.605 344.316,126.092 349.086,126.375 351.51,98.372       "/>
					</g>
				</g>
			</g>
			<g>
				<g>
					<polygon style="fill:#FF6A6C;" points="451.085,76.055 467.095,77.855 443.645,96.836 456.839,98.319 421.003,127.318        439.333,105.809 424.212,104.11      "/>
				</g>
				<g>
					<polygon style="fill:#FF6A6C;" points="487.423,144.505 491.971,159.962 465.383,145.703 469.131,158.44 428.508,136.648        455.44,145.207 451.145,130.609      "/>
				</g>
			</g>
			<g>
				<g>
					<polygon style="fill:#FF6A6C;" points="56.54,126.392 40.529,128.192 63.98,147.174 50.786,148.657 86.622,177.655        68.291,156.147 83.412,154.447      "/>
				</g>
				<g>
					<polygon style="fill:#FF6A6C;" points="20.201,194.843 15.653,210.299 42.242,196.041 38.494,208.778 79.117,186.985        52.184,195.545 56.479,180.947      "/>
				</g>
			</g>
			<g>
				<g>
					<polygon style="fill:#FFE3BF;" points="95.486,349.086 46.843,301.779 112.225,286.694      "/>
				</g>
				<g>
					<polygon style="fill:#411C36;" points="445.008,382.58 396.365,335.273 461.747,320.187      "/>
				</g>
			</g>
		</g>
	</g>
</g>















</svg>
