<?xml version="1.0" encoding="UTF-8"?>
<!-- Generator: Adobe Illustrator 25.3.1, SVG Export Plug-In . SVG Version: 6.00 Build 0)  -->
<svg xmlns="http://www.w3.org/2000/svg" xmlns:xlink="http://www.w3.org/1999/xlink" version="1.1" id="Capa_1" x="0px" y="0px" viewBox="0 0 511.9 511.9" style="enable-background:new 0 0 511.9 511.9;" xml:space="preserve" width="512" height="512">
<g>
	<g>
		<path style="fill:#FFFFFF;" d="M256.213,511.898c-87.937,0.354-173.207-46.715-218.802-122.081    c-41.208-68.114-48.804-155.309-19.165-229.269C53.131,73.498,136.488,10.583,229.85,1.21    c113.904-11.435,225.806,59.251,265.808,165.996c35.11,93.691,10.914,201.914-60.192,272.083    C388.363,485.77,322.614,511.63,256.213,511.898z"/>
	</g>
	<g>
		<g>
			<g>
				<g>
					<path style="fill:#FF6A6C;" d="M498.028,256.523c0.014,26.612-4.369,53.453-12.853,78.188c0,0-89.711,9.931-144.449,38.933       c-54.817,29.044-150.41,115.522-150.41,115.522c-17.219-4.793-33.941-11.512-49.769-20.162       C73.423,432.39,25.907,362.982,16.235,287.09C7.199,216.189,31.576,141.744,80.798,89.92       c53.475-56.303,134.444-84.171,211.216-72.647c0.271,0.025,0.567,0.074,0.839,0.123C375.893,30.016,448.091,86.922,480,164.595       C491.981,193.758,498.011,225.135,498.028,256.523z"/>
				</g>
				<g>
					<g>
						<g>
							<path style="fill:#FFC151;" d="M141.041,427.921c1.751,2.832-0.748,6.284-2.396,8.067         c-6.342,6.888-13.664,12.987-21.141,18.783c-0.228-0.126-0.439-0.271-0.631-0.432c7.566-5.813,14.941-11.928,21.265-18.799         c1.505-1.679,3.841-4.797,2.333-7.237c-1.076-1.675-3.405-1.986-5.525-2.082c-14.506-0.654-29.938,0.715-46.702,4.082         c-0.21-0.179-0.403-0.341-0.577-0.555c16.996-3.488,32.605-4.89,47.287-4.234         C137.268,425.63,139.828,425.962,141.041,427.921z"/>
						</g>
						<g>
							<path style="fill:#FFC151;" d="M179.679,351.266c-10.239,7.032-21.885,11.942-33.185,16.728         c-2.048,0.888-4.12,1.752-6.143,2.64c-24.919,10.758-48.907,23.448-71.778,38.128c-0.148-0.173-0.278-0.357-0.426-0.554         c22.946-14.68,46.915-27.409,71.883-38.216l6.217-2.616c11.226-4.786,22.847-9.696,33.061-16.679         c1.974-1.381,3.997-3.059,2.887-5.847c-0.765-1.949-2.936-3.134-5.206-2.862c-35.307,3.726-68.96,17.049-101.553,29.953         c-8.537,3.38-16.993,6.724-25.777,10.006c-0.148-0.197-0.216-0.407-0.34-0.604c8.808-3.306,17.259-6.663,25.845-10.068         c32.617-12.879,66.345-26.252,101.775-30.002c2.566-0.296,5.009,1.086,5.921,3.306         C184.268,348.108,181.159,350.254,179.679,351.266z"/>
						</g>
						<g>
							<path style="fill:#FFC151;" d="M47.236,297.405c-8.315,6.736-16.851,13.693-24.944,20.898         c-0.074-0.247-0.123-0.493-0.197-0.74c8.019-7.131,16.457-14.014,24.673-20.701c24.969-20.33,50.727-41.351,65.679-69.922         l0.567-1.086c-33.579,7.945-66.641,18.381-98.69,31.162v-0.765c32.247-12.854,65.456-23.316,99.258-31.236l0.715-0.173         l-0.321,0.641C99.098,255.092,72.748,276.582,47.236,297.405z"/>
						</g>
						<g>
							<path style="fill:#FFC151;" d="M159.102,279.493l-0.419,0.296c-16.605,12.188-34.073,23.76-50.974,34.961         c-23.044,15.272-46.446,30.726-68.355,48.342c-0.123-0.222-0.222-0.419-0.321-0.641         c21.909-17.592,45.262-32.996,68.281-48.269c16.753-11.103,34.098-22.575,50.53-34.665         c-7.698-4.638-17.838-1.16-26.794,2.887L25.672,329.899c-0.099-0.222-0.148-0.444-0.222-0.666l105.303-47.47         c9.302-4.194,19.861-7.772,27.905-2.517L159.102,279.493z"/>
						</g>
					</g>
					<g>
						<g>
							<path style="fill:#FFE3BF;" d="M463.266,268.292c10.93,4.614,22.23,9.376,33.505,13.447c0,0.123,0,0.247-0.025,0.37         c0,0.123,0,0.247-0.025,0.345c-11.349-4.046-22.699-8.882-33.727-13.521c-29.656-12.534-60.3-25.487-92.498-25.314h-1.258         c33.111,37.823,70.391,72.143,110.805,102.021l-0.419,0.567c-40.685-30.051-78.163-64.618-111.372-102.687l-0.543-0.567         l0.765-0.024C401.609,242.237,432.943,255.462,463.266,268.292z"/>
						</g>
						<g>
							<path style="fill:#FFE3BF;" d="M497.783,268.785c0,0.296-0.025,0.543-0.049,0.839l-87.366-67.85         c-8.068-6.242-16.185-13.915-15.322-23.488l0.049-0.518l0.469,0.247c18.504,8.956,36.91,18.973,54.749,28.67         c15.223,8.314,30.668,16.728,46.459,24.574v0.025c0.025,0.271,0.074,0.518,0.074,0.79         c-15.914-7.92-31.507-16.407-46.878-24.771c-17.666-9.623-35.899-19.566-54.28-28.448         c-0.493,8.981,7.328,16.358,15.124,22.378L497.783,268.785z"/>
						</g>
						<g>
							<path style="fill:#FFE3BF;" d="M487.075,184.158c-16.901-15.445-32.913-31.976-45.743-51.048         c-0.987-1.431-1.283-3.133-0.888-4.663c0.173-0.79,0.543-1.505,1.061-2.122c2.443-2.911,5.773-1.16,7.352-0.321         c6.415,3.331,12.41,7.451,18.159,11.818c0.296,0.493,0.592,1.012,0.864,1.53c-1.283-0.962-2.566-1.924-3.849-2.887         c-4.959-3.627-10.066-7.007-15.47-9.844c-2.122-1.11-4.589-2.147-6.538,0.173c-0.444,0.543-0.765,1.209-0.913,1.924         c-0.321,1.308-0.025,2.763,0.814,4.022c12.534,18.652,28.201,34.912,44.756,50.135         C486.828,183.319,486.976,183.714,487.075,184.158z"/>
						</g>
					</g>
					<g>
						<g>
							<path style="fill:#FFE3BF;" d="M316.39,97.458c-42.733,27.066-88.476,49.567-135.971,66.789l-0.716,0.296l0.222-0.715         c11.325-31.161,34.961-55.587,57.857-79.248c8.685-8.956,17.666-18.258,25.882-27.781l0.099-0.099         c1.85-2.196,1.332-4.762,0.025-6.341c-1.382-1.604-3.8-2.541-6.292-1.061l-100.837,60.621         c-8.709,5.231-18.801,10.091-27.436,5.773l-0.444-0.197l0.395-0.345c15.05-14.039,31.013-27.609,46.483-40.71         c22.205-18.776,44.929-38.045,65.432-59.313h0.025c0.321-0.049,0.641-0.074,0.987-0.074         c-20.651,21.515-43.597,40.957-65.95,59.905c-15.371,13.002-31.236,26.424-46.138,40.364         c8.191,3.676,17.888-0.938,26.301-6.02L257.126,48.73c2.837-1.727,5.675-0.641,7.18,1.184c1.554,1.776,2.122,4.737,0,7.229         l-0.123,0.124c-8.167,9.548-17.197,18.801-25.882,27.781c-22.403,23.143-45.521,47.075-57.018,77.151l-0.444,1.16         c47.223-17.222,92.695-39.6,135.157-66.518L316.39,97.458z"/>
						</g>
					</g>
				</g>
				<g>
					<g>
						<g>
							<path style="fill:#FFE3BF;" d="M485.175,334.71c-1.184,3.504-2.467,6.958-3.8,10.387c-0.197,0.469-0.37,0.913-0.567,1.382         c-5.675,14.187-12.657,27.658-20.824,40.364c0,0.025,0,0.025,0,0.049c-0.197,0.321-0.419,0.666-0.617,0.987         c-6.119,9.425-12.879,18.43-20.256,26.893c-0.123,0.197-0.296,0.419-0.518,0.617c-10.831,12.46-22.921,23.784-36.096,33.777         c-0.395,0.321-0.79,0.617-1.184,0.913c-10.634,7.994-21.959,15.124-33.851,21.292         c-33.308,17.271-71.131,27.041-111.249,27.041c-22.847,0-44.978-3.158-65.925-9.104c-0.222-0.074-0.444-0.123-0.666-0.197         l19.368-94.299c0,0-0.469,0.32-1.357,0.913c-9.474,6.267-65.901,41.796-84.331,13.57         c-19.442-29.78-30.668-50.184-31.458-51.59v-0.025l-0.025-0.049c0,0,0,0,0.025,0v-0.025         c1.554-1.9,66.419-81.247,93.188-83.739l5.058,6.908c0,0,60.127-57.66,111.94-76.115c0.469-0.173,0.913-0.321,1.357-0.469         c0.247-0.074,0.469-0.173,0.715-0.247l62.989-14.508c0,0,3.01,1.53,8.019,4.268c0.345,0.173,0.716,0.37,1.086,0.592         c21.539,11.744,74.783,42.758,87.267,68.22C470.396,276.606,478.366,306.065,485.175,334.71z"/>
						</g>
					</g>
					<g>
						<g>
							<g>
								<g>
									<g>
										<g>
											<path style="fill:#411C36;" d="M376.196,194.298c-7.994,14.236-15.741,28.744-23.266,42.782             c-17.147,32.05-34.838,65.037-55.785,96.026c-3.232,4.786-6.538,9.524-9.943,14.212             c-0.123,0.148-0.296,0.246-0.493,0.246c-0.074,0-0.148-0.025-0.197-0.025c-0.271-0.099-0.419-0.345-0.419-0.617             c0.197-5.601,0.444-11.176,0.765-16.777c2.221-42.042,7.328-84.183,15.174-125.485c0.469-0.173,0.913-0.321,1.357-0.469             c-7.92,41.45-13.077,83.739-15.322,125.978c-0.271,4.935-0.493,9.869-0.666,14.779c2.961-4.12,5.872-8.29,8.709-12.484             c20.922-30.939,38.563-63.902,55.735-95.952c7.525-14.063,15.272-28.571,23.266-42.807             C375.456,193.879,375.826,194.076,376.196,194.298z"/>
										</g>
									</g>
								</g>
								<g>
									<g>
										<g>
											<path style="fill:#FFC151;" d="M305.15,347.98c0,9.857-7.991,17.848-17.848,17.848c-9.857,0-17.848-7.991-17.848-17.848             c0-9.857,7.991-17.848,17.848-17.848C297.159,330.131,305.15,338.122,305.15,347.98z"/>
										</g>
									</g>
								</g>
							</g>
							<g>
								<g>
									<g>
										<g>
											<path style="fill:#411C36;" d="M402.497,449.167c-0.395,0.321-0.79,0.617-1.184,0.913l-6.489-95.557             c-0.025-0.321,0.247-0.617,0.567-0.641c0.345-0.049,0.641,0.222,0.666,0.567L402.497,449.167z"/>
										</g>
									</g>
								</g>
								<g>
									<g>
										<g>
											<path style="fill:#411C36;" d="M224.065,319.339l-33.777,169.97c-0.222-0.074-0.654-0.185-0.876-0.26l18.221-93.324l0,0             l15.223-76.633c0.074-0.346,0.395-0.543,0.74-0.494C223.917,318.673,224.139,318.994,224.065,319.339z"/>
										</g>
									</g>
								</g>
							</g>
						</g>
						<g>
							<g>
								<path style="fill:#411C36;" d="M190.711,322.663c-0.337,0-0.612-0.27-0.617-0.607l-0.629-42.519          c-0.005-0.342,0.267-0.622,0.607-0.626c0.005,0,0.007,0,0.01,0c0.338,0,0.612,0.27,0.617,0.607l0.629,42.519          c0.005,0.342-0.267,0.621-0.607,0.626C190.716,322.663,190.713,322.663,190.711,322.663z"/>
							</g>
						</g>
					</g>
					<g>
						<g>
							<g>
								<path style="fill:#7657AA;" d="M373.709,105.033c0,0,66.144,10.394,64.884,18.898c-1.26,8.504-78.742,0.945-78.742,0.945          L373.709,105.033z"/>
							</g>
						</g>
						<g>
							<g>
								<g>
									<path style="fill:#FFA073;" d="M367.092,189.438c0,0-5.675,20.158-27.091,28.67s-33.061-3.454-33.061-3.454l-0.666-12.978           l11.24-28.054l30.826-32.345l11.497-7.895L367.092,189.438z"/>
								</g>
							</g>
							<g>
								<g>
									<path style="fill:#411C36;" d="M355.299,151.886c-7.081,23.168-26.03,42.289-49.025,49.789l-1.554-30.495l43.621-29.903           c2.171,1.012,4.17,2.443,5.773,4.244c0.74,0.839,1.431,1.826,1.628,2.936C355.965,149.616,355.644,150.776,355.299,151.886           z"/>
								</g>
							</g>
						</g>
						<g>
							<g>
								<g>
									<path style="fill:#FFA073;" d="M373.04,95.26c1.485,16.142-3.555,31.066-12.795,42.484           c-0.444,10.461-1.209,20.034-2.591,23.044c0,0.025-0.025,0.049-0.049,0.074c-3.652,7.575-41.549,22.896-51.615,25.734           c-10.066,2.837-33.382,6.933-45.965-8.191c-2.93-3.507-4.674-10.208-5.614-18.467c-0.113-0.992,0.351-1.976,1.191-2.515           c0.897-0.575,1.739-1.246,2.548-1.94c4.49-3.898,7.945-8.956,10.659-14.261c-4.759,1.43-9.628,2.548-14.525,3.333           c-0.405,0.065-0.78-0.245-0.787-0.655c-0.035-2.095-0.032-4.227-0.01-6.379c-1.48-0.518-2.763-0.938-3.109-1.086           c-3.232-1.258-6.464-2.615-9.474-4.367c-6.119-3.578-0.839-7.476,2.862-10.313c0.493-0.395,0.987-0.74,1.406-1.086           c2.788-2.344,5.428-4.861,7.797-7.599c0.395-0.469,1.012-1.258,1.727-2.023c0.345-4.712,0.716-8.981,1.086-12.509           c0.099-2.689,0.37-5.329,0.839-7.92c0.148-1.357,0.247-2.122,0.247-2.122l0.148,0.025           c0.888-4.219,2.245-8.241,3.972-12.065c10.155-22.287,33.833-37.113,60.564-34.008           C348.805,45.615,370.528,67.938,373.04,95.26z"/>
								</g>
							</g>
							<g>
								<g>
									<g>
										<path style="fill:#411C36;" d="M270.794,113.485c0,2.928-1.922,5.302-4.292,5.302c-2.37,0-4.292-2.374-4.292-5.302            c0-2.928,1.922-5.302,4.292-5.302C268.872,108.183,270.794,110.556,270.794,113.485z"/>
									</g>
								</g>
							</g>
						</g>
						<g>
							<g>
								<g>
									<path style="fill:#411C36;" d="M373.709,81.095c-8.504-26.773-29.922-37.796-52.285-38.741           c-0.289-0.012-0.575,0.008-0.865,0.001c-1.995-0.205-4.02-0.311-6.069-0.311c-23.784,0-44.263,14.113-53.515,34.418           c0.641,0.123,1.308,0.222,1.974,0.247c4.441,0.222,8.808-1.086,13.052-2.369c6.143-1.875,12.312-3.726,18.455-5.601           c4.268-1.283,9.425-2.393,12.756,0.592c2.492,2.221,2.887,5.921,3.109,9.252c0.74,10.634,1.48,21.292,2.245,31.926           c0.222,3.479,0.79,7.476,3.75,9.326c2.665-2.985,5.329-5.971,7.994-8.956c1.234-1.382,2.541-2.813,4.268-3.405           c2.961-1.036,6.316,0.716,8.167,3.232c1.85,2.517,2.566,5.675,3.331,8.709c3.716,14.568,9.618,28.546,17.458,41.348           l6.411,11.986l5.67-32.757C369.614,139.995,382.213,107.868,373.709,81.095z"/>
								</g>
							</g>
							<g>
								<g>
									<g>
										<path style="fill:#FFA073;" d="M330.715,103.432c5.172-2.17,11.576-2.713,16.903-0.782            c8.227,2.983,10.369,13.929,8.64,21.603c-2.671,11.851-15.045,20.501-27.062,16.38            c-7.675-2.632-13.121-10.336-13.659-18.346C314.974,113.91,323.567,106.432,330.715,103.432z"/>
									</g>
								</g>
								<g>
									<g>
										<path style="fill:#411C36;" d="M324.131,131.226c-0.063,0-0.125-0.01-0.188-0.029c-0.323-0.104-0.504-0.451-0.4-0.776            c3.978-12.491,13.652-22.772,25.877-27.499c0.311-0.128,0.675,0.036,0.797,0.354c0.123,0.318-0.036,0.675-0.354,0.798            c-11.879,4.595-21.28,14.584-25.145,26.723C324.635,131.06,324.394,131.226,324.131,131.226z"/>
									</g>
								</g>
							</g>
						</g>
						<g>
							<g>
								<g>
									<path style="fill:#FFE3BF;" d="M378.738,106.291L255.597,88.65c0,0,0.913-3.726,2.566-9.178c0,0,5.781-3.892,7.037-7.488           c1.255-3.596,0.439-13.509,0.439-13.509c4.342-10.165,9.77-19.689,15.79-22.427c26.128-11.966,91.017,12.928,98.888,23.932           C388.187,71.009,378.738,106.291,378.738,106.291z"/>
								</g>
							</g>
							<g>
								<g>
									<path style="fill:#411C36;" d="M267.933,72.86c-0.74,2.319-2.072,4.54-4.145,5.847c-1.653,1.061-3.8,1.406-5.625,0.765           c1.752-5.798,4.318-13.57,7.476-20.997C270.277,60.153,269.265,68.591,267.933,72.86z"/>
								</g>
							</g>
						</g>
					</g>
					<g>
						<g>
							<path style="fill:#411C36;" d="M91.82,357.631c0,0,0,0,0.025,0v0.049L91.82,357.631z"/>
						</g>
					</g>
					<g>
						<g>
							<path style="fill:#411C36;" d="M185.033,273.868c0,0-12.583,19.837-44.411,50.702         c-31.038,30.101-47.964,32.938-48.778,33.061v-0.025C93.399,355.707,158.263,276.36,185.033,273.868z"/>
						</g>
					</g>
					<g>
						<g>
							<g>
								<path style="fill:#411C36;" d="M104.082,209.62c-1.653-3.084-4.663-5.65-8.882-7.698          c-12.904-6.193-29.508-3.873-41.302,5.798c-4.564,3.726-8.339,8.438-11.201,13.768c-1.258-1.826-2.369-3.75-3.306-5.749          c-4.022-8.611-5.083-19.047-3.207-31.088c2.393-15.223,8.981-28.818,18.529-38.317c9.647-9.573,22.378-14.952,34.788-14.853          c1.431,0.025,2.862,0.123,4.293,0.271l0.123-1.234c-1.382-0.148-2.788-0.247-4.219-0.247          c-12.805-0.197-25.931,5.33-35.849,15.199c-9.746,9.671-16.432,23.513-18.875,39.007          c-1.924,12.262-0.839,22.945,3.281,31.778c1.061,2.27,2.344,4.441,3.824,6.464c-3.578,7.13-5.477,15.321-5.428,23.784          c0.099,9.82,3.133,17.937,8.537,22.847c5.65,5.107,13.397,6.662,20.898,8.142c7.574,1.505,15.42,3.084,20.75,8.389          c7.303,7.254,7.106,18.702,6.341,24.87c-2.072,16.432-10.807,31.581-24.006,41.598c-3.207,2.443-6.736,4.614-10.116,6.711          c-3.01,1.85-6.119,3.775-9.055,5.872c-2.665,1.949-4.812,3.766-6.761,5.839c0.197,0.395,0.406,0.753,0.629,1.123          c1.974-2.097,4.134-3.976,6.873-5.95c2.862-2.097,5.971-3.997,8.956-5.847c3.429-2.097,6.958-4.268,10.214-6.76          c13.447-10.215,22.378-25.684,24.475-42.437c0.814-6.39,1.012-18.258-6.662-25.906c-5.625-5.576-13.644-7.155-21.391-8.709          c-7.328-1.456-14.927-2.961-20.306-7.846c-6.958-6.316-8.093-16.457-8.142-21.959c-0.049-8.019,1.727-15.815,5.009-22.649          c4.638,5.921,10.905,10.511,18.036,13.077c9.943,3.553,21.095,2.985,30.619-1.579c5.379-2.566,9.474-6.119,11.843-10.264          C106.253,220.131,106.5,214.061,104.082,209.62z M102.33,224.473c-2.245,3.923-6.168,7.303-11.3,9.746          c-9.228,4.416-20.059,4.984-29.681,1.53c-7.106-2.541-13.323-7.18-17.838-13.151c2.813-5.403,6.588-10.165,11.152-13.915          c11.448-9.376,27.51-11.646,39.994-5.65c3.997,1.924,6.81,4.342,8.339,7.18C105.217,214.283,104.97,219.859,102.33,224.473z          "/>
							</g>
						</g>
						<g>
							<g>
								<g>
									<path style="fill:#FFA073;" d="M105.669,352.179c0,0,18.478-64.044,27.717-90.501           c9.239-26.457,25.617-66.354,25.617-66.354l14.699-58.794l52.075,28.557l-23.518,42.416l-19.626,69.945           c0,0-12.914,20.908-36.786,44.169C124.58,342.341,105.669,352.179,105.669,352.179z"/>
								</g>
							</g>
							<g>
								<g>
									<g>
										<polygon style="fill:#7657AA;" points="220.003,170.232 88.346,138.42 90.236,127.081 224.728,140.939           "/>
									</g>
								</g>
								<g>
									<g>
										<path style="fill:#FFA073;" d="M200.16,214.013c0,0,12.618-14.093,18.741-19.213c5.801-4.852,27.875-25.828,30.552-30.71            c2.677-4.882,4.725-12.914,0.157-12.126c-4.567,0.788-43.308,21.26-43.308,21.26l-6.299,41.419L200.16,214.013z"/>
									</g>
								</g>
								<g>
									<g>
										<path style="fill:#411C36;" d="M183.215,183.53c-0.186,0-0.369-0.082-0.489-0.241c-0.207-0.27-0.157-0.658,0.113-0.865            c8.522-6.549,17.743-12.245,27.402-16.926c0.304-0.15,0.677-0.022,0.824,0.284c0.15,0.308,0.022,0.677-0.284,0.824            c-9.587,4.645-18.736,10.298-27.19,16.796C183.48,183.489,183.348,183.53,183.215,183.53z"/>
									</g>
								</g>
								<g>
									<g>
										<circle style="fill:#411C36;" cx="226.198" cy="153.853" r="22.153"/>
									</g>
								</g>
								<g>
									<g>
										<g>
											<path style="fill:#FFA073;" d="M173.23,135.742c0,0,16.063-13.544,25.985-6.457c0,0,10.709-7.087,16.851,2.362             c0,0,8.189-4.252,12.756,1.417c0,0,2.52,4.095,0.788,11.024c-1.733,6.929-12.284,28.662-19.371,26.773             c-7.087-1.89-8.504-5.354-8.504-5.354s-6.143,4.22-8.663,0.282c-2.52-3.937-2.361-9.574-2.361-9.574             s-8.347,2.205-9.292-4.725c-0.945-6.929,2.854-14.03,2.854-14.03L173.23,135.742z"/>
										</g>
									</g>
									<g>
										<g>
											<path style="fill:#411C36;" d="M190.711,156.834c-0.142,0-0.282-0.048-0.397-0.147c-0.26-0.219-0.294-0.607-0.072-0.867             c2.93-3.467,5.359-7.5,7.214-11.992l0.521-1.234c1.024-2.414,2.082-4.911,2.303-7.441c0.25-2.853-0.489-4.91-2.198-6.115             c-3.619-2.549-10.604-0.865-14.418,0.887c-3.523,1.617-6.901,3.735-10.042,6.296c-0.265,0.217-0.656,0.176-0.867-0.087             c-0.217-0.265-0.176-0.653,0.087-0.867c3.224-2.629,6.691-4.802,10.307-6.464c4.879-2.245,11.859-3.443,15.644-0.771             c2.094,1.475,3.007,3.906,2.715,7.228c-0.239,2.725-1.337,5.313-2.397,7.816l-0.513,1.224             c-1.906,4.607-4.4,8.751-7.416,12.315C191.06,156.759,190.887,156.834,190.711,156.834z"/>
										</g>
									</g>
									<g>
										<g>
											<path style="fill:#411C36;" d="M197.935,167.678c-1.214,0-2.463-0.333-3.73-0.995l0,0c-0.026,0-5.93-2.021-3.619-10.936             c0.084-0.33,0.427-0.523,0.752-0.443c0.33,0.087,0.528,0.422,0.443,0.752c-2.021,7.792,2.696,9.428,2.899,9.493             c1.865,0.966,3.496,1.145,5.089,0.576c4.761-1.696,8.267-9.898,11.083-16.488c0.855-2,1.662-3.889,2.455-5.506             c4.214-8.577,2.246-12.139,2.226-12.172c-5.13-8.503-15.558-2.407-16.001-2.142c-0.291,0.166-0.328,0.012-0.501-0.283             c-0.173-0.291-0.424-0.602-0.13-0.778c0.118-0.07,11.936-6.975,17.692,2.573c0.101,0.174,2.325,4.178-2.178,13.346             c-0.781,1.585-1.581,3.462-2.431,5.448c-3.062,7.166-6.532,15.285-11.804,17.163             C199.448,167.548,198.698,167.678,197.935,167.678z"/>
										</g>
									</g>
									<g>
										<g>
											<path style="fill:#411C36;" d="M210.9,171.476c-0.957,0-1.971-0.156-3.05-0.499c-0.2-0.058-5.248-1.569-5.937-5.684             c-0.056-0.335,0.171-0.653,0.508-0.711c0.335-0.043,0.655,0.173,0.711,0.508c0.559,3.359,5.031,4.694,5.074,4.706             c7.797,2.462,11.905-6.05,15.536-13.568c0.523-1.079,1.031-2.135,1.54-3.127c4.306-8.45,6.315-14.693,3.026-19.697             c-3.284-4.995-11.329-1.342-11.408-1.306c-0.308,0.149-0.297-0.034-0.446-0.339c-0.147-0.308-0.357-0.588-0.051-0.737             c0.089-0.041,9.063-4.186,12.937,1.703c4.007,6.103,0.735,13.688-2.959,20.935c-0.504,0.988-1.01,2.034-1.528,3.106             C221.643,163.409,217.745,171.476,210.9,171.476z"/>
										</g>
									</g>
								</g>
							</g>
						</g>
					</g>
				</g>
			</g>
			<g>
				<g>
					<polygon style="fill:#FFC151;" points="168.812,78.647 191.485,45.043 179.582,83.615 211.321,99.654 178.4,94.401        170.682,128.447 168.365,94.548 139.695,113.737 160.813,89.783 135.193,59.76      "/>
				</g>
				<g>
					<polygon style="fill:#FFC151;" points="437.782,192.482 430.34,164.125 445.622,189 469.484,179.405 450.92,194.789        465.74,215.231 446.211,200.313 442.959,225.051 440.018,202.144 411.475,201.741      "/>
				</g>
				<g>
					<polygon style="fill:#FFC151;" points="156.907,401.093 145.762,358.629 168.647,395.878 204.379,381.51 176.581,404.547        198.772,435.156 169.529,412.818 164.658,449.862 160.254,415.56 117.514,414.956      "/>
				</g>
			</g>
		</g>
	</g>
</g>















</svg>
