<?xml version="1.0" encoding="UTF-8"?>
<!-- Generator: Adobe Illustrator 25.3.1, SVG Export Plug-In . SVG Version: 6.00 Build 0)  -->
<svg xmlns="http://www.w3.org/2000/svg" xmlns:xlink="http://www.w3.org/1999/xlink" version="1.1" id="Capa_1" x="0px" y="0px" viewBox="0 0 511.978 511.978" style="enable-background:new 0 0 511.978 511.978;" xml:space="preserve" width="512" height="512">
<g>
	<g>
		<path style="fill:#FFFFFF;" d="M255.936,511.976c-107.717-0.354-206.184-71.499-241.951-173.514    C-16.663,251.048,4.006,141.99,72.79,77.071C123.636,25.045,195.785-3.547,268.543,0.353    C381.198,6.391,480.941,90.26,505.787,200.33c16.935,75.024-2.408,157.185-51.13,217.147    c-44.765,55.092-113.437,90.185-184.288,94.123C265.543,511.867,260.73,511.992,255.936,511.976z"/>
	</g>
	<g>
		<g>
			<g>
				<path style="fill:#7657AA;" d="M496.641,255.997c0.332,29.737-4.853,59.684-16.121,88.338c-0.197,0.468-0.369,0.911-0.566,1.378      c-5.66,14.15-12.624,27.587-20.77,40.26c0,0.025,0,0.025,0,0.049c-0.197,0.32-0.418,0.664-0.615,0.984      c-6.103,9.401-12.846,18.383-20.204,26.824c-0.123,0.197-0.295,0.418-0.517,0.615c-19.81,22.788-43.878,41.811-70.948,55.838      c0,0-61.637-27.758-101.651-27.758c-41.786,0-124.677,25.395-124.677,25.395C77.729,433.635,30.491,370.099,18.562,299.154      c-0.074-0.246-0.123-0.492-0.148-0.738c-2.141-11.911-3.371-24.166-3.642-36.618c-0.025-0.271-0.049-0.517-0.025-0.788      c-0.049-1.673-0.074-3.347-0.074-5.02c0-7.998,0.394-15.897,1.157-23.698c0.025-0.221,0.025-0.443,0.074-0.689      c1.083-10.828,2.879-21.459,5.365-31.844c0.049-0.221,0.098-0.443,0.172-0.664c1.501-6.324,3.273-12.551,5.316-18.654      c0.049-0.221,0.123-0.443,0.221-0.664c3.814-11.566,8.515-22.714,13.978-33.419c0.123-0.221,0.221-0.443,0.345-0.664      c1.329-2.559,2.682-5.119,4.134-7.629c0.098-0.221,0.221-0.468,0.369-0.689c10.139-17.94,22.517-34.452,36.766-49.169      c0.148-0.197,0.32-0.369,0.517-0.541c24.709-21.621,48.195-40.958,78.851-53.94c40.648-17.213,86.059-22.92,129.71-16.368      c0.271,0.025,0.566,0.074,0.837,0.123c41.614,6.324,79.708,23.255,111.478,47.987c0.172,0.098,0.345,0.246,0.517,0.394      c0.049,0.049,0.098,0.074,0.148,0.123l0.025,0.025c0.517,0.394,1.034,0.787,1.55,1.206c0,0,0.025,0.025,0.025,0.025      c8.903,7.043,17.737,14.751,25.298,23.255c0.197,0.221,0.394,0.443,0.591,0.664      C472.927,137.072,495.973,196.109,496.641,255.997z"/>
			</g>
			<g>
				<g>
					<g>
						<path style="fill:#FF6A6C;" d="M53.604,296.428c-0.714,3.199-4.848,3.913-7.235,4.036c-9.204,0.492-18.555-0.246-27.808-1.304        c-0.074-0.246-0.123-0.492-0.148-0.738c9.327,1.107,18.727,1.87,27.907,1.378c2.215-0.148,6.005-0.739,6.62-3.495        c0.394-1.919-1.034-3.74-2.461-5.266c-9.77-10.434-21.582-20.081-35.708-29.235c-0.025-0.271-0.049-0.517-0.025-0.788        c14.372,9.228,26.332,18.973,36.224,29.531C52.521,292.22,54.096,294.213,53.604,296.428z"/>
					</g>
					<g>
						<path style="fill:#FF6A6C;" d="M140.596,271.277c-1.575,3.396-5.192,2.609-6.94,2.239        c-11.935-2.584-23.329-7.629-34.379-12.476c-2.018-0.886-4.036-1.772-6.054-2.633c-24.953-10.779-50.965-19.564-77.395-26.11        c0.025-0.221,0.025-0.443,0.074-0.689c26.479,6.571,52.54,15.356,77.592,26.135l6.054,2.683        c11.025,4.823,22.37,9.844,34.28,12.427c2.313,0.492,4.897,0.812,6.128-1.87c0.886-1.87,0.271-4.208-1.452-5.66        c-26.504-22.788-58.791-37.898-90.019-52.54c-8.982-4.233-18.137-8.515-27.217-13.018c0.049-0.221,0.098-0.443,0.172-0.664        c9.105,4.528,18.309,8.81,27.341,13.043c31.253,14.667,63.589,29.801,90.192,52.663        C140.916,266.454,141.581,269.112,140.596,271.277z"/>
					</g>
					<g>
						<path style="fill:#FF6A6C;" d="M171.088,209.823l0.123,0.492l-0.517-0.098c-7.038-1.304-14.076-2.707-21.114-4.233        c-12.231-2.584-24.412-5.439-36.372-8.219c-0.664-0.172-1.304-0.32-1.969-0.468c-27.611-6.472-55.911-13.092-84.482-16.857        c0.049-0.221,0.123-0.443,0.221-0.664c28.571,3.765,56.822,10.41,84.409,16.857c0.517,0.123,1.009,0.246,1.526,0.345        c12.378,2.904,25.052,5.857,37.75,8.539c6.546,1.403,13.117,2.707,19.663,3.913c-0.861-3.913-3.248-7.087-6.448-9.696        c-3.814-3.15-8.81-5.537-13.707-7.555l-41.269-17.054l-65.755-27.168c-0.96-0.394-1.673-0.935-2.19-1.6        c0.123-0.221,0.221-0.443,0.345-0.664c0.468,0.664,1.157,1.255,2.092,1.649l65.509,27.045l41.54,17.152        c5.045,2.067,10.213,4.553,14.15,7.875C167.913,202.194,170.325,205.59,171.088,209.823z"/>
					</g>
					<g>
						<path style="fill:#FF6A6C;" d="M180.119,141.312l-0.689,0.221c-0.172,0.049-0.345,0.098-0.517,0.148        c-13.363,3.913-27.07,5.365-40.9,5.389c-6.521,0-13.067-0.295-19.638-0.787c-1.698-0.148-3.421-0.271-5.119-0.418        c-10.188-0.96-20.352-2.289-30.417-3.618c-12.181-1.624-24.781-3.298-37.11-4.184h-0.295c0.098-0.221,0.221-0.468,0.369-0.689        c12.329,0.886,24.929,2.559,37.11,4.184c10.139,1.329,20.376,2.682,30.614,3.642c1.624,0.123,3.224,0.271,4.823,0.394        c6.767,0.517,13.56,0.812,20.302,0.787c13.092-0.074,26.061-1.427,38.71-4.971l1.157-0.345        c-11.172-7.383-22.566-14.421-34.157-21.139c-6.029-3.47-12.108-6.866-18.235-10.163        C111.854,102.061,97.31,94.85,82.57,88.206c0.148-0.197,0.32-0.369,0.517-0.541c14.298,6.448,28.349,13.412,42.155,20.844        c6.743,3.593,13.412,7.333,20.032,11.197c11.517,6.669,22.862,13.707,33.985,21.065c0.074,0.049,0.172,0.098,0.246,0.148        L180.119,141.312z"/>
					</g>
				</g>
				<g>
					<g>
						<path style="fill:#FFE3BF;" d="M416.216,338.115c6.571,25.126,13.338,50.817,22.148,75.722        c-0.123,0.197-0.295,0.418-0.517,0.615c-8.884-25.052-15.651-50.891-22.296-76.165c-5.045-19.146-10.237-38.931-16.267-58.102        c-6.767,5.709-6.767,16.291-5.832,25.938l11,115.244c0.32,3.248-1.821,5.291-4.085,5.882        c-2.264,0.615-5.119-0.123-6.423-3.101L393.896,424c-5.02-11.296-9.425-23.255-13.707-34.772        c-11.049-29.728-22.468-60.415-44.321-83.375l-0.837-0.886c-4.75,49.242-4.184,99.125,1.698,148.244l-0.689,0.098        c-5.931-49.439-6.472-99.617-1.624-149.13l0.049-0.763l0.541,0.517c22.862,23.28,34.526,54.656,45.822,85.048        c4.257,11.517,8.712,23.428,13.683,34.748l0.074,0.148c1.132,2.559,3.642,3.199,5.586,2.732        c2.018-0.566,3.888-2.313,3.617-5.143l-11.025-115.293c-0.96-9.991-0.96-20.991,6.497-26.823l0.394-0.32l0.148,0.492        C405.881,298.839,411.122,318.797,416.216,338.115z"/>
					</g>
					<g>
						<path style="fill:#FFE3BF;" d="M480.52,344.341c-0.197,0.468-0.369,0.911-0.566,1.378c-0.812-6.743-1.501-13.461-2.043-20.204        l-0.468-6.644c-0.025-0.099-0.025-0.246-0.025-0.369c0,0,0,0,0-0.025c-0.886-11.861-1.796-24.092-5.02-35.658        c-0.64-2.289-1.575-4.75-4.528-4.577c-0.714,0.049-1.403,0.271-2.018,0.64c-1.132,0.664-1.993,1.846-2.313,3.297        c-7.703,33.96-5.98,69.447-4.356,103.8c0,0.025,0,0.025,0,0.049c-0.197,0.32-0.418,0.665-0.615,0.985        c0-0.222-0.025-0.419-0.025-0.64c-1.673-34.502-3.445-70.16,4.331-104.366c0.345-1.673,1.378-3.027,2.732-3.79        c0.689-0.394,1.452-0.615,2.239-0.664c3.741-0.221,4.725,3.347,5.193,5.069c3.322,11.763,4.208,24.191,5.094,36.224        c0.098,1.747,0.246,3.519,0.394,5.242v0.148c0.049,0.418,0.074,0.788,0.098,1.206        C479.117,331.741,479.757,338.041,480.52,344.341z"/>
					</g>
				</g>
				<g>
					<g>
						<path style="fill:#FFE3BF;" d="M291.646,17.362c0.271,0.025,0.566,0.074,0.837,0.123c0.394,0.738,0.984,1.427,1.747,1.944        c29.014,19.515,62.851,30.737,95.556,41.614c4.897,1.624,9.868,3.273,14.839,4.946l0.025,0.025        c0.517,0.393,1.034,0.787,1.55,1.206c-5.562-1.87-11.123-3.716-16.611-5.537c-32.779-10.877-66.666-22.099-95.753-41.688        C292.827,19.331,292.089,18.396,291.646,17.362z"/>
					</g>
					<g>
						<path style="fill:#FFE3BF;" d="M329.248,84.446c-19.687-2.215-40.014-4.528-60.07-5.808        c2.904,8.367,12.747,12.181,22.074,14.79l111.454,31.352c3.15,0.861,4.282,3.618,4.011,5.931        c-0.246,2.313-1.969,4.725-5.192,4.873h-0.172c-12.354,0.591-25.076,0.369-37.381,0.221        c-31.696-0.443-64.451-0.861-93.76,11.222l-1.132,0.468c44.222,22.197,90.955,39.67,138.893,51.925l-0.172,0.689        c-48.233-12.329-95.237-29.924-139.656-52.319l-0.689-0.32l0.664-0.32c29.974-12.92,63.442-12.477,95.852-12.034        c12.28,0.172,25.003,0.32,37.356-0.221h0.148c2.83-0.148,4.307-2.264,4.577-4.257c0.197-2.067-0.763-4.43-3.494-5.217        L291.055,94.093c-9.647-2.707-19.933-6.669-22.665-15.75l-0.172-0.468l0.517,0.049c20.229,1.304,40.728,3.593,60.563,5.832        c33.517,3.79,67.994,7.678,102.225,6.743c0.197,0.221,0.394,0.443,0.591,0.664C397.661,92.149,362.938,88.261,329.248,84.446z        "/>
					</g>
				</g>
			</g>
			<g>
				<g>
					<g>
						<path style="fill:#411C36;" d="M313.262,63.502c23.078,15.28,35.339,45.299,29.557,72.367        c-1.791,8.384-5.127,16.398-6.6,24.843c-1.474,8.445-0.802,17.847,4.599,24.504c4.086,5.036,10.251,7.799,15.695,11.322        c8.607,5.571,15.818,13.529,19.636,23.044c3.817,9.516,4.034,20.607-0.271,29.912c-4.593,9.926-13.916,17.128-24.161,20.96        c-10.244,3.832-21.389,4.601-32.322,4.292c-12.732-0.36-25.545-2.162-37.407-6.801c-11.862-4.639-22.764-12.261-30.017-22.731        c-11.159-16.108-12.624-37.052-10.697-56.553c4.802-48.598,29.039-95.002,66.179-126.71L313.262,63.502z"/>
					</g>
					<g>
						<path style="fill:#411C36;" d="M309.559,60.786c-20.886-10.897-46.647-7.1-68.346,2.072        c-6.669,2.819-13.257,6.197-18.377,11.315c-11.347,11.343-14.866,30.448-29.348,37.356        c-12.079,5.761-25.624,4.775-38.564,6.39c-11.885,1.483-24.093,5.346-32.701,14.06c-7.521,7.613-11.492,18.203-12.718,28.834        c-1.999,17.324-0.037,40.043,14.182,52.118c9.326,7.92,22.233,9.87,34.44,10.7c21.558,1.467,43.285,0.428,64.604-3.09        c13.665-2.255,27.947-5.95,37.63-15.852c9.047-9.25,12.612-22.393,15.841-34.922c9.417-36.54,18.834-73.081,28.252-109.621        L309.559,60.786z"/>
					</g>
				</g>
				<g>
					<path style="fill:#FFA073;" d="M339.959,375.944c-2.918,20.202-5.657,35.353-5.657,35.353       c-81.369,28.081-173.064,5.746-173.064,5.746s0.382-14.186,0.18-32.211c-0.247-19.596-1.212-43.681-4.198-58.923       c-5.724-29.225-31.515-109.472-31.515-109.472l78.518-34.366c0.247-0.045,0.472-0.09,0.718-0.135       c19.371-3.434,42.873-1.145,64.287,2.895c33.064,6.262,61.077,16.723,61.077,16.723s8.013,52.727,14.882,81.953       C349.386,301.264,344.448,344.654,339.959,375.944z"/>
				</g>
				<g>
					<path style="fill:#411C36;" d="M366.9,470.29c-33.222,17.226-70.948,26.971-110.962,26.971       c-41.786,0-81.086-10.631-115.367-29.334c2.928-9.499,6.374-18.85,10.287-27.98c2.781-6.521,5.808-12.944,9.056-19.269       c0.738-1.427,1.132-2.658,1.329-3.864c0,0,0-0.025,0-0.049c0.197-1.255,0.172-2.436,0.074-3.765       c-0.074-1.28-0.197-2.658-0.221-4.307c0.098,0.049,0.172,0.123,0.271,0.172c5.832,3.642,12.944,4.528,19.835,5.242       c23.6,2.387,47.323,3.593,71.071,3.593c1.673,0,3.322,0,4.996-0.025h0.369c13.19-0.148,26.553-0.861,39.497-3.15       c13.092-2.288,25.741-6.201,37.307-12.747c0.172,1.599,0.418,3.051,0.738,4.38c1.009,4.43,2.559,7.899,3.101,13.166       c1.673,2.239,3.322,4.503,4.897,6.792C352.799,439.898,360.797,454.712,366.9,470.29z"/>
				</g>
				<g>
					<g>
						<path style="fill:#FFE3BF;" d="M339.959,375.944c-59.192,8.979-119.596,17.486-178.541,8.889        c-0.247-19.596-1.212-43.681-4.198-58.923c-5.724-29.225-31.515-109.472-31.515-109.472l79.766-35.888        c0.945,0.297-0.53,1.387-0.53,1.387c0.359,14.253,16.957,31.316,31.3,33.089c15.6,1.93,29.968-11.266,32.134-27.634        c0.115-0.873,0.561-1.706,0.853-2.559c33.064,6.262,58.308,15.728,58.308,15.728s13.967,52.955,20.835,82.18        C352.57,300.497,344.448,344.654,339.959,375.944z"/>
					</g>
					<g>
						<polygon style="fill:#FFC151;" points="254.547,282.074 257.995,242.822 266.045,281.224 300.586,279.91 270.121,290.952         279.597,323.535 261.658,295.804 246.321,325.625 252.992,295.31 217.065,281.853       "/>
					</g>
					<g>
						<g>
							<path style="fill:#FFA073;" d="M279.869,146.54l-3.434,13.827l-8.597,34.59c0,0-0.157,1.235-1.01,3.143         c-1.908,4.4-7.52,12.346-23.367,16.341c-22.626,5.724-38.518-32.503-38.518-32.503l18.765-49.158L279.869,146.54z"/>
						</g>
						<g>
							<path style="fill:#411C36;" d="M276.435,160.367l-8.597,34.59c0,0-0.157,1.235-1.01,3.143c-1.84,0-3.704-0.224-5.499-0.561         c-5.41-0.988-10.662-2.851-15.488-5.522c-8.866-4.916-17.127-13.288-19.282-23.502c-0.898-4.265-0.269-8.979-0.179-13.289         c0.09-5.005,0.898-10.662,4.961-14.096c3.547-3.008,8.642-3.345,13.244-2.761c9.293,1.19,18.092,5.724,24.669,12.413         C272.058,153.633,274.46,156.865,276.435,160.367z"/>
						</g>
					</g>
					<g>
						<g>
							<g>
								<g>
									<g>
										<path style="fill:#FFA073;" d="M217.913,96.771c-2.298-0.416-4.677-0.481-6.963-0.004            c-7.335,1.529-12.698,8.821-13.047,16.306c-0.349,7.485,3.731,14.76,9.645,19.361c4.082,3.176,9.187,5.255,14.35,4.96            c5.164-0.295,10.293-3.243,12.444-7.947c1.84-4.022,1.172-8.22,0.451-12.405c-0.426-2.477-0.561-5.088-1.446-7.46            C230.904,103.033,224.739,98.006,217.913,96.771z"/>
									</g>
									<g>
										<path style="fill:#411C36;" d="M222.277,133.336c-0.004,0-0.006-0.002-0.01-0.002c-0.31-0.005-0.556-0.26-0.552-0.57            c0.102-6.059-0.538-11.134-1.956-15.515c-1.739-5.364-4.685-9.769-8.522-12.737c-1.005-0.779-4.499-3.194-7.308-1.591            c-0.269,0.151-0.612,0.058-0.765-0.209c-0.153-0.269-0.06-0.613,0.21-0.767c2.299-1.315,5.496-0.685,8.551,1.677            c4.016,3.107,7.093,7.7,8.902,13.28c1.458,4.501,2.115,9.697,2.011,15.88            C222.833,133.091,222.582,133.336,222.277,133.336z"/>
									</g>
								</g>
								<g>
									<g>
										<g>
											<path style="fill:#FFA073;" d="M334.729,121.556L334.729,121.556c0,0-21.616,67.093-46.554,67.677             c-24.938,0.561-57.014-9.181-63.322-29.809c-4.444-14.545,0.786-41.167,4.265-55.623             c1.459-6.061,2.604-9.989,2.604-9.989l0.067,0.022c6.06-22.783,26.824-39.574,51.515-39.574             c11.201,0,21.594,3.457,30.168,9.338c13.962,9.629,23.12,25.724,23.12,43.951             C336.592,112.398,335.941,117.09,334.729,121.556z"/>
										</g>
										<g>
											<g>
												<g>
													<path style="fill:#411C36;" d="M272.605,120.071c0,3.112-2.523,5.635-5.635,5.635c-3.113,0-5.636-2.523-5.636-5.635               c0-3.113,2.523-5.636,5.636-5.636C270.081,114.436,272.605,116.959,272.605,120.071z"/>
												</g>
												<g>
													<path style="fill:#411C36;" d="M314.585,133.969c0,3.113-2.523,5.636-5.636,5.636c-3.112,0-5.635-2.523-5.635-5.636               c0-3.112,2.523-5.635,5.635-5.635C312.062,128.333,314.585,130.857,314.585,133.969z"/>
												</g>
												<g>
													<path style="fill:#411C36;" d="M294.544,149.964c-0.017,0-0.032,0-0.049-0.002c-0.601-0.017-1.013-0.404-1.345-0.714               c-0.106-0.099-0.211-0.199-0.324-0.284c-0.752-0.555-1.756-0.252-2.919,0.103c-1.017,0.31-2.07,0.625-3.13,0.416               c-1.181-0.243-2.002-1.069-2.796-1.867c-0.652-0.656-1.269-1.276-2.033-1.526c-0.491-0.161-1.043-0.166-1.628-0.173               c-0.758-0.01-1.543-0.017-2.29-0.363c-1.029-0.476-1.8-1.577-2.014-2.877c-0.195-1.182,0.042-2.336,0.3-3.309               c0.079-0.296,0.387-0.471,0.686-0.399c0.299,0.079,0.477,0.387,0.398,0.687c-0.227,0.858-0.437,1.865-0.276,2.838               c0.154,0.937,0.681,1.718,1.377,2.04c0.529,0.245,1.162,0.252,1.831,0.26c0.644,0.007,1.31,0.014,1.965,0.228               c1.02,0.334,1.763,1.079,2.481,1.802c0.708,0.711,1.376,1.384,2.224,1.557c0.781,0.166,1.695-0.118,2.577-0.389               c1.27-0.387,2.708-0.827,3.917,0.072c0.145,0.108,0.284,0.236,0.421,0.363c0.223,0.209,0.435,0.406,0.613,0.413               c0.002,0,0.006,0,0.008,0c0.312,0,0.562-0.591,0.673-1.182c1.47-7.847,2.527-15.856,3.142-23.806               c0.024-0.308,0.332-0.488,0.603-0.517c0.309,0.024,0.541,0.293,0.517,0.603c-0.62,7.991-1.682,16.041-3.159,23.926               C296.064,149.202,295.421,149.964,294.544,149.964z"/>
												</g>
												<g>
													<g>
														<path style="fill:#411C36;" d="M260.29,100.126c-0.848,0.289-1.846,0.942-1.627,1.811                c0.14,0.556,0.729,0.857,1.26,1.073c4.552,1.848,9.466,2.583,14.325,3.303c0.799,0.118,1.706,0.209,2.33-0.303                c0.503-0.413,0.674-1.135,0.558-1.775c-0.116-0.64-0.477-1.21-0.886-1.715                C272.691,98.123,265.128,98.48,260.29,100.126z"/>
													</g>
													<g>
														<path style="fill:#411C36;" d="M325.794,120.128c0.595,0.67,1.139,1.732,0.52,2.379                c-0.397,0.414-1.057,0.385-1.626,0.31c-4.87-0.644-9.505-2.434-14.085-4.21c-0.753-0.292-1.587-0.661-1.876-1.416                c-0.233-0.607-0.025-1.32,0.393-1.819c0.417-0.499,1.012-0.816,1.618-1.053                C316.004,112.258,322.402,116.306,325.794,120.128z"/>
													</g>
												</g>
											</g>
											<g>
												<path style="fill:#411C36;" d="M289.75,156.162c0,0-0.001,0-0.002,0c-5.994-0.022-12.004-2.656-16.079-7.051              c-0.211-0.228-0.198-0.584,0.029-0.793c0.226-0.214,0.582-0.197,0.793,0.029c3.868,4.172,9.572,6.674,15.262,6.691              c0.309,0.002,0.56,0.255,0.559,0.565C290.31,155.909,290.058,156.162,289.75,156.162z"/>
											</g>
										</g>
									</g>
									<g>
										<path style="fill:#411C36;" d="M313.472,63.599c-0.314,2.963-2.424,5.455-4.557,7.609            c-19.035,19.237-45.724,28.642-72.189,34.276c-2.155,4.153-4.4,8.417-7.924,11.515c0.112-4.4,0.39-9.524,0.48-13.923            c1.459-6.061,0.339-8.7,0.339-8.7l1.146-3.247c6.06-22.783,27.844-36.868,52.536-36.868            C294.505,54.261,304.897,57.718,313.472,63.599z"/>
									</g>
								</g>
							</g>
							<g>
								<path style="fill:#FFE3BF;" d="M201.634,174.316c-13.582,0-24.632-11.05-24.632-24.633s11.05-24.633,24.632-24.633          s24.632,11.05,24.632,24.633S215.216,174.316,201.634,174.316z M201.634,126.174c-12.963,0-23.509,10.545-23.509,23.508          c0,12.963,10.547,23.508,23.509,23.508s23.509-10.545,23.509-23.508C225.144,136.72,214.597,126.174,201.634,126.174z"/>
							</g>
						</g>
						<g>
							<g>
								<path style="fill:#FFE3BF;" d="M212.811,88.359c0,0,69.346-16.62,127.516-0.86c0,0,1.146-31.521-14.328-46.135          c-15.474-14.614-79.089-18.339-92.843-6.018C219.401,47.669,212.811,88.359,212.811,88.359z"/>
							</g>
							<g>
								<path style="fill:#FF6A6C;" d="M243.758,83.201c0,0,63.429-6.184,82.055,8.716c18.626,14.901,17.962,38.183,17.962,38.183          s42.399-2.77,37.814-22.256c-4.585-19.486-30.757-23.497-44.225-26.076C323.898,79.19,275.661,76.611,243.758,83.201z"/>
							</g>
						</g>
					</g>
					<g>
						<path style="fill:#FFA073;" d="M125.706,216.439l9.736-4.575c0,0,14.66,8.871,25.226,45.224        C171.611,294.736,176.228,335,176.228,335s48.045,2.374,67.53,11.544c0,0,57.884-17.766,69.346-22.351        c11.462-4.585,23.02-14.041,33.335-8.883c0,0,1.051-16.334-2.388-35.246c-3.439-18.912-16.514-79.502-16.514-79.502        s36,10.156,51.474,42.823c15.474,32.667,14.328,135.826,10.889,153.019c-3.439,17.193-6.304,37.825-30.375,33.24        c-24.07-4.585-83.1-20.632-83.1-20.632s-114.621,56.738-140.411,21.205C110.225,394.684,83.303,241.072,125.706,216.439z"/>
					</g>
					<g>
						<path style="fill:#411C36;" d="M178.806,366.782c-0.293,0-0.54-0.228-0.56-0.524c-2.42-35.868-7.24-67.316-14.732-96.145        l-0.046-0.175c-5.526-21.264-11.241-43.251-28.388-57.644c-0.238-0.199-0.269-0.553-0.07-0.791        c0.201-0.238,0.555-0.269,0.791-0.07c17.422,14.624,23.183,36.788,28.753,58.22l0.046,0.175        c7.51,28.899,12.341,60.417,14.765,96.352c0.02,0.31-0.213,0.577-0.523,0.598        C178.832,366.779,178.818,366.782,178.806,366.782z"/>
					</g>
					<g>
						<g>
							<path style="fill:#411C36;" d="M166.962,370.603c-0.242,0-0.464-0.159-0.537-0.401c-0.09-0.296,0.078-0.608,0.375-0.699         c0.471-0.139,47.256-14.22,70.288-21.773c9.775-3.206,21.848-6.864,33.524-10.404c16.073-4.871,31.255-9.471,37.891-12.127         c2.472-0.988,5.276-2.35,8.247-3.79c10.627-5.157,23.851-11.574,31.307-4.895c8.471,7.592,13.983,15.433,17.346,24.679         c3.041,8.366,4.597,19.492,4.613,19.603c0.042,0.308-0.173,0.591-0.479,0.632c-0.294,0.05-0.589-0.168-0.633-0.478         c-0.014-0.111-1.556-11.12-4.555-19.372c-3.343-9.19-8.598-16.661-17.041-24.227c-6.894-6.179-19.742,0.058-30.068,5.068         c-2.987,1.449-5.81,2.819-8.32,3.824c-6.68,2.672-21.885,7.279-37.982,12.158c-11.67,3.538-23.737,7.195-33.498,10.396         c-23.047,7.556-69.845,21.641-70.314,21.783C167.07,370.593,167.015,370.603,166.962,370.603z"/>
						</g>
						<g>
							<path style="fill:#411C36;" d="M169.771,442.526c-11.019,0-18.574-1.706-18.697-1.735c-0.302-0.07-0.254-0.08-0.184-0.383         c0,0,0.233-0.371,0.533-0.287c0.197,0.041,19.817,4.064,42.05-1.565c21.87-5.537,49.068-14.681,64.667-21.747         c12.741-5.768,33.357-18.733,48.409-28.202c2.875-1.807,5.565-3.499,7.977-5.001c2.496-1.555,4.999-3.17,7.508-4.79         c12.669-8.178,25.768-16.635,38.606-17.361c15.141-0.851,18.729,0.558,18.874,0.615c0.286,0.12,0.421,0.449,0.302,0.735         s-0.447,0.423-0.734,0.303c-0.029-0.012-3.646-1.36-18.379-0.534c-12.54,0.711-25.514,9.084-38.06,17.183         c-2.514,1.625-5.023,3.242-7.523,4.799c-2.413,1.502-5.1,3.191-7.974,5.001c-15.08,9.483-35.732,22.475-48.543,28.274         c-15.653,7.087-42.929,16.26-64.854,21.809C185.045,441.846,176.719,442.526,169.771,442.526z"/>
						</g>
					</g>
				</g>
			</g>
			<g>
				<g>
					<polygon style="fill:#FFC151;" points="81.456,343.062 76.632,303.759 92.579,339.821 126.255,331.303 98.621,348.53        114.752,378.573 91.318,355.07 82.482,387.59 82.696,356.398 44.568,350.687      "/>
				</g>
				<g>
					<polygon style="fill:#FFC151;" points="404.918,159.721 419.115,122.756 416.261,162.083 449.994,170.374 417.507,172.609        417.642,206.709 407.988,174.953 384.917,199.517 399.752,172.078 368.77,149.132      "/>
				</g>
				<g>
					<polygon style="fill:#FFC151;" points="343.344,423.612 357.54,386.647 354.687,425.974 388.419,434.266 355.932,436.5        356.067,470.6 346.413,438.845 323.342,463.408 338.178,435.969 307.196,413.023      "/>
				</g>
				<g>
					<g>
						<g>
							<path style="fill:#FFE3BF;" d="M144.273,136.451c-0.251,0-0.497-0.118-0.652-0.339l-29.519-42.14         c-0.251-0.36-0.165-0.856,0.196-1.108c0.359-0.248,0.857-0.163,1.107,0.195l29.519,42.14c0.251,0.36,0.165,0.856-0.196,1.108         C144.589,136.402,144.431,136.451,144.273,136.451z"/>
						</g>
						<g>
							<path style="fill:#FFE3BF;" d="M128.255,135.195c-2.686,1.056-5.358,2.365-7.328,4.475c-1.97,2.11-3.128,5.17-2.331,7.944         c1.016,3.537,4.999,5.627,8.67,5.393c3.672-0.235,6.988-2.328,9.673-4.844c2.187-2.05,11.011-10.069,7.984-12.964         C141.441,131.868,131.918,133.755,128.255,135.195z"/>
						</g>
					</g>
					<g>
						<polygon style="fill:#FFE3BF;" points="112.453,91.886 140.389,73.167 148.91,89.641 121.677,104.784       "/>
					</g>
				</g>
				<g>
					<g>
						<g>
							<path style="fill:#FFE3BF;" d="M432.199,316.968c-0.141,0-0.285-0.038-0.413-0.118c-0.375-0.228-0.493-0.719-0.263-1.093         l26.869-43.876c0.229-0.375,0.719-0.493,1.092-0.262c0.375,0.228,0.493,0.719,0.263,1.093l-26.869,43.876         C432.728,316.833,432.467,316.968,432.199,316.968z"/>
						</g>
						<g>
							<path style="fill:#FFE3BF;" d="M426.233,301.301c-2.04-2.042-4.306-3.97-7.026-4.935c-2.721-0.965-5.989-0.806-8.215,1.031         c-2.838,2.342-3.166,6.828-1.487,10.102c1.68,3.274,4.922,5.48,8.3,6.938c2.752,1.188,13.625,6.082,15.072,2.152         C434.543,312.066,429.016,304.085,426.233,301.301z"/>
						</g>
					</g>
					<g>
						<polygon style="fill:#FFE3BF;" points="459.581,269.03 487.954,287.688 476.246,302.072 451.86,282.546       "/>
					</g>
				</g>
			</g>
		</g>
	</g>
</g>















</svg>
