<?xml version="1.0" encoding="UTF-8"?>
<!-- Generator: Adobe Illustrator 25.3.1, SVG Export Plug-In . SVG Version: 6.00 Build 0)  -->
<svg xmlns="http://www.w3.org/2000/svg" xmlns:xlink="http://www.w3.org/1999/xlink" version="1.1" id="Capa_1" x="0px" y="0px" viewBox="0 0 512 512" style="enable-background:new 0 0 512 512;" xml:space="preserve" width="512" height="512">
<g>
	<g>
		<path style="fill:#FFFFFF;" d="M255.436,511.997c-81.269-0.411-160.138-42.978-204.016-112.023    C-6.445,308.918,5.307,185.237,78.144,105.985c29.815-32.44,68.478-56.279,110.861-68.332C198.353,15.121,220.486,0,245.429,0    c22.607,0,43.378,12.738,53.898,32.387c0.995,1.859,16.414,3.58,19.055,4.289c97.987,26.285,172.176,116.959,178.461,218.669    c6.679,108.077-61.978,208.963-164.088,243.905c-17.759,6.077-36.231,10.073-54.926,11.784    C270.36,511.718,262.888,512.035,255.436,511.997z"/>
	</g>
	<g>
		<g>
			<g>
				<path style="fill:#FF6A6C;" d="M483.267,270.253c0.02,24.875-3.974,49.752-12.045,73.385c-0.116,0.418-0.279,0.79-0.418,1.186      c-0.558,1.65-1.162,3.301-1.767,4.951L346.39,400.418l16.184,71.023c-31.916,17.039-68.388,26.709-107.138,26.709      s-75.199-9.647-107.138-26.709l4.77-58.145l-67.937-38.43L47.39,363.373c-36.688-82.197-19.385-182.528,41.52-248.549      c29.458-31.932,68.781-55.068,110.853-65.612c29.327-7.35,60.114-8.814,90.006-4.277c0.767,0.116,1.511,0.232,2.278,0.349      c30.265,4.882,58.532,15.737,83.567,31.311c0.186,0.116,0.349,0.209,0.488,0.325c40.345,25.198,72.361,63.116,90.347,107.164      C477.603,211.402,483.243,240.826,483.267,270.253z"/>
			</g>
			<g>
				<g>
					<g>
						<g>
							<path style="fill:#FFC151;" d="M64.64,255.151c0.883,1.72,1.697,3.696,0.79,5.393c-1.302,2.441-4.835,2.069-6.811,1.627         c-10.088-2.255-19.921-6.346-29.475-10.414c0-0.209,0.023-0.418,0.07-0.628c9.577,4.091,19.456,8.252,29.521,10.484         c1.837,0.395,5.068,0.767,6.183-1.325c0.767-1.464,0.023-3.278-0.79-4.858c-6.857-13.157-16.481-26.104-29.219-39.285         c0.023-0.232,0.093-0.442,0.163-0.674C47.973,228.79,57.713,241.854,64.64,255.151z"/>
						</g>
						<g>
							<path style="fill:#FFC151;" d="M142.046,254.662c1.209,1.79,1.139,4.114-0.163,5.649c-2.046,2.394-4.812,0.93-6.137,0.232         c-9.135-4.835-17.248-11.53-25.128-17.992c-1.441-1.186-2.882-2.371-4.323-3.533c-18.759-15.226-38.983-28.894-60.112-40.656         c-1.697-0.93-3.394-1.86-5.137-2.766c0.047-0.209,0.116-0.395,0.209-0.581c1.767,0.93,3.51,1.883,5.23,2.836         c21.13,11.785,41.377,25.477,60.182,40.703l4.324,3.557c7.857,6.439,15.947,13.11,25.035,17.922         c1.767,0.93,3.812,1.79,5.416-0.116c1.139-1.325,1.186-3.347,0.116-4.928c-16.364-24.594-39.168-44.259-61.228-63.297         c-9.066-7.834-18.636-16.009-27.516-24.4c0.093-0.186,0.2-0.464,0.27-0.65c8.903,8.415,18.506,16.751,27.618,24.608         C102.784,210.31,125.635,229.998,142.046,254.662z"/>
						</g>
						<g>
							<path style="fill:#FFC151;" d="M89.266,131.522c-0.837,1.534-0.837,3.719,1.046,5.207l76.988,60.391         c6.671,5.23,13.389,11.646,12.622,19.596l-0.023,0.418l-0.395-0.186c-15.365-7.531-30.637-15.946-45.421-24.082         C109.792,179.454,85.268,165.883,59,155.655c0.093-0.186,0.164-0.357,0.28-0.52c26.267,10.228,50.791,23.831,75.082,37.22         c14.645,8.066,29.8,16.411,45.026,23.873c0.442-7.462-6.02-13.599-12.459-18.643l-76.965-60.415         c-2.162-1.674-2.162-4.184-1.209-5.928c0.953-1.72,3.069-3.045,5.625-2.115l0.139,0.046         c9.833,3.533,19.712,7.787,29.266,11.878c24.617,10.553,50.047,21.432,76.849,21.432h1.023         c-24.245-27.964-51.21-53.673-80.313-76.547c0.163-0.116,0.325-0.256,0.511-0.349c29.243,22.99,56.323,48.838,80.638,76.989         l0.418,0.465l-0.627,0.023c-27.546,0.442-53.557-10.693-78.732-21.479c-9.531-4.091-19.41-8.322-29.219-11.855l-0.139-0.046         C91.94,128.873,90.104,130.035,89.266,131.522z"/>
						</g>
					</g>
					<g>
						<g>
							<path style="fill:#FFE3BF;" d="M404.415,97.819c-0.07-0.07-0.139-0.163-0.209-0.232c1.209,1.046,2.394,2.092,3.603,3.185         c0.047,0.046,0.047,0.07,0.093,0.093c0.232,0.256,0.442,0.488,0.674,0.744c6.857,7.648,14.017,15.063,21.479,22.176         c0,0.046,0,0.046,0.023,0.046c1.023,1.232,2.046,2.441,3.045,3.719c-8.694-8.159-17.039-16.69-24.989-25.523L404.415,97.819z         "/>
						</g>
						<g>
							<path style="fill:#FFE3BF;" d="M457.461,199.866l-0.116,0.139l-0.186-0.07c-27.36-13.808-52.302-32.45-76.291-51.07         c-2.394-1.86-4.789-3.719-7.16-5.556c-0.302-0.232-0.581-0.465-0.883-0.697c-0.395-0.302-0.767-0.604-1.162-0.907         c-1.976-1.534-3.975-3.092-5.997-4.649c-2.348-1.836-4.719-3.673-7.113-5.509c-8.089-6.207-16.341-12.413-24.663-18.317         c-0.604-0.418-1.209-0.86-1.813-1.278c-1.139,5.23,1.302,10.344,4.858,15.016c1.395,1.86,2.975,3.673,4.556,5.37l0.604,0.651         l5.904,6.369l8.02,8.647l2.394,2.58l17.062,18.41l0.651,0.697l21.107,22.78l10.763,11.599         c1.883,1.999,1.488,4.486,0.279,6.044c-0.86,1.093-2.255,1.906-3.859,1.813c-0.674-0.023-1.371-0.209-2.069-0.604         l-0.116-0.07c-9.159-5.021-18.224-10.786-27.011-16.318c-22.664-14.296-46.095-29.033-72.525-33.241l-1.023-0.163         c22.083,35.496,48.048,68.69,77.174,98.653l-0.418,0.418c-29.336-30.149-55.417-63.553-77.593-99.281l-0.325-0.535         l0.604,0.07c27.29,3.905,51.233,18.968,74.385,33.589c8.787,5.532,17.899,11.251,27.034,16.295l0.116,0.07         c0.535,0.302,1.069,0.465,1.581,0.511c1.488,0.139,2.789-0.581,3.58-1.557c1.069-1.395,1.395-3.533-0.232-5.3l-9.554-10.298         l-22.06-23.78l-0.418-0.465l-17.643-19.015l-2.278-2.464l-8.252-8.903l-6.323-6.811c-0.163-0.163-0.302-0.325-0.465-0.488         c-1.302-1.441-2.603-2.929-3.812-4.486c-3.882-5.021-6.648-10.6-5.137-16.365l0.116-0.418l0.325,0.256         c0.604,0.418,1.186,0.837,1.79,1.255c8.415,5.974,16.713,12.227,24.896,18.503c2.464,1.883,4.882,3.766,7.299,5.625         c2.046,1.604,4.091,3.185,6.114,4.765c0.325,0.256,0.674,0.511,1,0.767c0.163,0.116,0.325,0.256,0.488,0.372         c2.441,1.906,4.882,3.812,7.346,5.718c23.989,18.619,48.908,37.239,76.221,51.07c3.022-3.138-0.651-8.74-1.86-10.414         c-9.019-12.46-19.201-24.477-29.01-36.077c-12.25-14.505-24.78-29.336-35.426-45.328c-0.767-1.162-1.534-2.325-2.278-3.487         c-4.812-7.508-9.205-15.295-12.924-23.455c-0.651-1.302-0.651-2.743-0.116-3.952c0.186,0.116,0.349,0.209,0.488,0.325         c-0.418,1.023-0.372,2.255,0.139,3.394c3.696,8.043,7.996,15.737,12.762,23.152c0.697,1.116,1.418,2.208,2.162,3.301         c10.67,16.132,23.269,31.056,35.589,45.677c9.856,11.623,20.037,23.64,29.08,36.123         C457.135,190.358,461.087,196.449,457.461,199.866z"/>
						</g>
					</g>
				</g>
				<g>
					<g>
						<path style="fill:#411C36;" d="M471.21,343.636c-0.116,0.418-0.256,0.79-0.418,1.186        c-12.46,12.274-23.687,28.15-34.287,48.327l-0.093,0.186c-2.906,5.509-5.904,11.227-10.274,15.342        c-1.302,1.232-3.162,1.581-4.835,0.883c-1.743-0.697-2.859-2.278-2.952-4.114c-0.442-10.693,1.79-21.455,4.277-31.497        c5.835-23.478,13.761-46.607,23.524-68.736l2.301-5.091c4.161-9.275,8.485-18.829,10.739-28.871        c0.442-1.929,0.744-4.138-1.511-5.184c-1.581-0.767-3.557-0.279-4.789,1.162c-19.457,22.246-32.474,49.396-45.073,75.664        c-6.579,13.738-13.366,27.964-21.037,41.33c-1.093,1.906-5.021,8.02-9.647,6.137l-0.186-0.07v-0.209        c1.534-34.054,9.763-67.807,17.713-100.42c3.952-16.248,8.043-33.055,11.251-49.722c-7.322,1.534-11.553,9.391-14.738,16.923        l-38.169,90.076c-1.046,2.534-3.464,3.185-5.393,2.72c-1.906-0.465-3.742-2.162-3.51-4.858v-0.163        c0.837-10.414,2.371-21.06,3.812-31.358c3.742-26.5,7.578-53.906,0.558-79.778l-0.256-0.976        c-23.315,34.705-42.957,71.991-58.323,110.857l-0.558-0.209c15.458-39.122,35.24-76.617,58.741-111.485l0.349-0.511        l0.186,0.581c7.625,26.476,3.696,54.487-0.116,81.614c-1.464,10.274-2.952,20.921-3.812,31.311v0.139        c-0.186,2.394,1.418,3.859,3.068,4.277c1.697,0.395,3.812-0.163,4.742-2.371l38.145-90.122        c3.301-7.787,7.741-15.97,15.598-17.295l0.418-0.093l-0.07,0.418c-3.254,16.806-7.392,33.752-11.367,50.163        c-7.95,32.52-16.109,66.156-17.667,100.094c4.091,1.464,7.694-4.161,8.74-5.974c7.648-13.343,14.436-27.546,21.014-41.26        c12.599-26.314,25.616-53.511,45.143-75.803c1.395-1.627,3.673-2.185,5.486-1.325c2.859,1.348,2.162,4.393,1.836,5.858        c-2.278,10.088-6.625,19.666-10.786,28.964c-0.767,1.697-1.534,3.394-2.278,5.091c-9.786,22.106-17.69,45.189-23.501,68.667        c-2.487,9.995-4.742,20.688-4.254,31.311c0.07,1.604,1.046,2.975,2.557,3.58c1.464,0.628,3.091,0.325,4.23-0.744        c4.301-4.045,7.253-9.717,10.135-15.179l0.093-0.209C446.826,372.205,458.356,356.049,471.21,343.636z"/>
					</g>
				</g>
			</g>
			<g>
				<g>
					<g>
						<g>
							<path style="fill:#7657AA;" d="M359.484,113.928c-0.651,2.487-2.208,4.789-2.185,7.369c0,2.627,1.697,5.044,1.743,7.694         c0.07,4.021-3.58,7.09-7.206,8.833c-8.229,3.905-17.713,4.045-26.802,3.557c-2.046-0.116-4.091-0.256-6.114-0.418         c-7.578-0.604-15.133-1.604-22.618-2.999c-8.856-1.65-17.736-3.858-25.733-8.02c-5.067-2.626-9.763-6.067-13.552-10.321         c-2.952-3.324-4.44-5.974-3.138-8.694c0.511-1.116,1.488-2.231,2.999-3.394c9.763-7.601,21.734-13.11,33.473-16.853         c6.834-2.185,13.901-3.743,21.014-4.649c8.763-1.116,17.806-1.232,26.244,1.325c8.438,2.557,16.272,8.043,20.223,15.923         C359.484,106.582,360.414,110.394,359.484,113.928z"/>
						</g>
						<g>
							<path style="fill:#411C36;" d="M338.796,103.653c-0.86,3.347-4.858,5.486-4.951,8.95c-0.046,1.72,0.93,3.301,1.674,4.858         c2.534,5.416,2.092,12.367-1.883,16.83c-2.603,2.952-6.416,4.579-10.228,5.649c-1.488,0.418-2.975,0.744-4.486,1.023         c-7.578-0.604-15.133-1.604-22.618-2.999c-8.856-1.65-17.736-3.858-25.733-8.02c-5.067-2.626-9.763-6.067-13.552-10.321         c-2.952-3.324-4.44-5.974-3.138-8.694c1.279-0.86,2.627-1.65,3.789-2.418c8.949-5.811,18.689-10.507,28.987-13.459         c13.691-3.952,28.406-4.742,42.26-1.395c2.557,0.604,5.137,1.395,7.183,3.068C338.122,98.377,339.47,101.12,338.796,103.653z         "/>
						</g>
					</g>
					<g>
						<g>
							<g>
								<path style="fill:#7657AA;" d="M439.016,356.886l-242.146,6.741c-0.233-2.51-0.093-6.625-0.395-9.112          c-3.394-29.382,0.348-58.113-3.068-87.519c-2.906-24.989-5.811-50.024-10.298-74.803          c-2.139-11.785-3.65-28.452-10.158-40.307c26.197-22.176,52.395-34.775,52.395-34.775l68.062-6.718          c0,0,1.72,1.023,4.812,2.696c0.325,0.163,0.674,0.349,1.023,0.535c7.044,3.766,19.944,10.228,35.705,16.155          c24.129,9.112,53.014,37.981,65.287,69.64C412.507,231.056,439.016,356.886,439.016,356.886z"/>
							</g>
							<g>
								<g>
									<path style="fill:#411C36;" d="M226.487,225.876c-0.227,0-0.445-0.134-0.536-0.359c-2.917-7.024-4.166-12.488-4.052-17.718           c0.148-6.735,2.931-12.851,7.443-16.363c1.51-1.176,3.217-2.079,4.865-2.956c1.989-1.053,3.866-2.05,5.457-3.485           c3.346-3.015,4.919-7.811,4.004-12.222c-0.574-2.781-2-5.217-3.507-7.795c-1.076-1.841-2.188-3.741-2.956-5.773           c-2-5.291-1.539-11.393,1.235-16.322c2.772-4.931,7.745-8.492,13.307-9.532c0.325-0.07,0.62,0.152,0.679,0.465           c0.059,0.316-0.15,0.62-0.465,0.679c-5.226,0.976-9.902,4.324-12.508,8.955c-2.606,4.635-3.04,10.37-1.162,15.343           c0.736,1.939,1.823,3.798,2.874,5.596c1.489,2.547,3.028,5.18,3.643,8.147c0.994,4.808-0.72,10.036-4.368,13.321           c-1.696,1.532-3.725,2.608-5.689,3.648c-1.605,0.854-3.264,1.734-4.697,2.847c-4.24,3.298-6.856,9.082-6.994,15.473           c-0.111,5.058,1.112,10.376,3.961,17.246c0.125,0.295-0.016,0.636-0.313,0.758           C226.637,225.862,226.562,225.876,226.487,225.876z"/>
								</g>
								<g>
									<path style="fill:#411C36;" d="M299.51,218.573c-0.229,0-0.447-0.136-0.538-0.363c-1.612-3.977-0.465-8.177,0.642-12.238           c0.736-2.692,1.496-5.478,1.451-8.174c-0.068-3.95-1.941-7.789-5.008-10.272c-1.242-1.006-2.704-1.821-4.116-2.606           c-2.17-1.208-4.415-2.458-6.013-4.461c-1.889-2.365-2.79-5.764-2.611-9.827c0.082-1.864,0.359-3.725,0.629-5.525           c0.216-1.441,0.438-2.933,0.554-4.399c0.456-5.725-0.64-11.48-3.171-16.637c-1.38-2.819-4.456-7.739-9.541-9.033           c-0.311-0.079-0.499-0.395-0.42-0.706c0.077-0.313,0.402-0.493,0.706-0.42c5.539,1.407,8.831,6.649,10.299,9.645           c2.622,5.348,3.759,11.309,3.285,17.241c-0.12,1.507-0.345,3.019-0.563,4.479c-0.263,1.771-0.538,3.603-0.615,5.405           c-0.118,2.636,0.195,6.345,2.356,9.051c1.457,1.825,3.503,2.965,5.671,4.172c1.455,0.81,2.962,1.648,4.281,2.717           c3.332,2.697,5.366,6.867,5.439,11.157c0.048,2.863-0.733,5.727-1.491,8.499c-1.105,4.054-2.15,7.882-0.688,11.496           c0.12,0.297-0.023,0.636-0.32,0.756C299.658,218.559,299.583,218.573,299.51,218.573z"/>
								</g>
							</g>
						</g>
						<g>
							<path style="fill:#411C36;" d="M364.625,360.245c-0.309,0-0.565-0.243-0.581-0.554c-0.011-0.261-1.253-26.521-7.117-64.034         c-5.859-37.508-16.492-72.376-16.599-72.723c-0.093-0.306,0.079-0.631,0.386-0.726c0.306-0.082,0.633,0.079,0.726,0.386         c0.107,0.347,10.762,35.292,16.635,72.882c5.873,37.583,7.117,63.9,7.13,64.161c0.014,0.322-0.234,0.592-0.554,0.608         C364.643,360.245,364.634,360.245,364.625,360.245z"/>
						</g>
					</g>
					<g>
						<g>
							<g>
								<path style="fill:#FFC151;" d="M299.241,113.624c-4.254,13.668-9.298,27.151-14.342,40.354          c-0.883,2.278-1.743,4.556-2.627,6.834c-9.856,25.616-20.014,52.07-25.221,79.569c-0.535,2.72-1,5.439-1.418,8.182          c-0.046,0.279-0.279,0.488-0.558,0.488c-0.279,0-0.534-0.186-0.581-0.465c-0.511-2.766-1.023-5.532-1.511-8.322          c-3.603-20.27-6.625-40.749-9.019-61.275c-0.395-3.464-0.791-6.927-1.162-10.391c-0.977-9.135-1.837-18.271-2.557-27.406          c-0.511-6.416-0.976-12.831-1.371-19.247c0-0.325,0.232-0.604,0.558-0.628c0.372,0,0.581,0.232,0.604,0.558          c0.372,5.997,0.79,12.018,1.278,18.015c2.65,33.543,6.95,67.179,12.855,100.304c0.279,1.627,0.558,3.231,0.86,4.858          c0.279-1.604,0.558-3.208,0.86-4.812c5.23-27.639,15.435-54.138,25.291-79.848c1.116-2.882,2.232-5.765,3.347-8.694          c4.812-12.645,9.6-25.57,13.691-38.61C298.544,113.252,298.893,113.438,299.241,113.624z"/>
							</g>
						</g>
						<g>
							<g>
								<circle style="fill:#FFC151;" cx="254.629" cy="256.395" r="16.222"/>
							</g>
						</g>
					</g>
					<g>
						<g>
							<path style="fill:#D26A49;" d="M293.802,114.553c0,0-7.09,18.898-34.171,16.783l-2.696-9.531c0,0-12.785,7.578-16.946,2.441         l38.796-36.332l8.299-7.787L293.802,114.553z"/>
						</g>
						<g>
							<path style="fill:#411C36;" d="M284.179,101.745c-0.233,7.043-3.045,13.97-7.741,19.224         c-3.487,3.859-7.903,6.741-12.645,8.763c-1.139,0.488-2.557,1.069-4.161,1.604c-1.186-0.07-2.371-0.209-3.626-0.372         c0,0-11.855-1.581-16.016-6.718l38.796-36.332C282.9,90.959,284.365,96.585,284.179,101.745z"/>
						</g>
					</g>
					<g>
						<g>
							<g>
								<path style="fill:#D26A49;" d="M292.547,63.786c-0.325,5.881-1.767,11.46-4.045,16.574          c0.163,7.81-0.232,16.481-2.232,22.711c-4.533,14.249-42.911,30.661-59.136,24.547          c-13.575-5.137-23.245-39.424-26.058-50.535c-1.813-4.998-2.836-10.344-2.836-15.946c0-0.628,0.023-1.255,0.046-1.883          c0.976-25.198,21.711-45.305,47.142-45.305c26.058,0,47.188,21.13,47.188,47.188          C292.617,62.019,292.593,62.902,292.547,63.786z"/>
							</g>
							<g>
								<path style="fill:#411C36;" d="M292.617,61.136c0,0.883-0.023,1.767-0.07,2.65c-1.488,0.837-3.254,1.278-4.974,1.371          c-2.162,0.116-4.719-0.023-5.974,1.743c-0.977,1.371-2.021,5.344-3.253,6.506c-2.208-3.859-5.423-10.275-6.121-14.668          c-0.651-4.045,2.144-8.505-1.063-11.039c-2.626-2.092-6.346-1.953-9.647-1.325c-10.949,2.022-20.712,7.95-31.126,11.902          c-4.742,1.813-9.647,3.208-14.645,4.184c-4.719,0.93-9.856,1.418-14.156-0.721c-1.278-0.628-2.371-1.488-3.301-2.487          c0.976-25.198,21.711-45.305,47.142-45.305C271.487,13.948,292.617,35.078,292.617,61.136z"/>
							</g>
							<g>
								<g>
									<path style="fill:#D26A49;" d="M288.124,61.296c9.749-4.183,16.049,6.924,14.461,15.499           c-1.233,6.657-8.06,13.939-15.367,12.732c-3.104-0.513-5.719-2.809-7.192-5.59c-2.631-4.969-2.603-11.029,0.309-15.874           C281.96,65.358,284.867,62.693,288.124,61.296z"/>
								</g>
								<g>
									<path style="fill:#411C36;" d="M288.73,85.957c-0.259,0-0.495-0.173-0.563-0.436c-1.927-7.432-0.018-15.672,4.983-21.504           c0.209-0.243,0.574-0.272,0.819-0.061c0.243,0.209,0.27,0.574,0.061,0.819c-4.756,5.546-6.572,13.384-4.738,20.455           c0.079,0.311-0.107,0.627-0.418,0.708C288.828,85.95,288.778,85.957,288.73,85.957z"/>
								</g>
							</g>
							<g>
								<g>
									<path style="fill:#411C36;" d="M220.393,87.931c1.098,1.881,0.463,4.295-1.417,5.393c-1.881,1.098-4.295,0.463-5.393-1.417           c-1.098-1.881-0.463-4.295,1.417-5.393C216.88,85.416,219.295,86.05,220.393,87.931z"/>
								</g>
								<g>
									<path style="fill:#411C36;" d="M255.291,79.612c1.098,1.881,0.463,4.295-1.417,5.393c-1.881,1.098-4.295,0.463-5.393-1.417           c-1.098-1.881-0.463-4.295,1.417-5.393C251.779,77.097,254.193,77.732,255.291,79.612z"/>
								</g>
								<g>
									<path style="fill:#411C36;" d="M208.39,81.103c-0.213-0.727,0.279-1.456,0.757-2.044c0.728-0.896,1.498-1.776,2.442-2.442           c1.331-0.939,3.518-1.674,4.764-0.24c0.816,0.938,0.688,2.029-0.008,2.988C215.246,80.878,209.301,84.212,208.39,81.103z"/>
								</g>
								<g>
									<path style="fill:#411C36;" d="M254.646,71.786c-0.225,0.723-1.038,1.059-1.761,1.284c-1.102,0.344-2.23,0.651-3.385,0.683           c-1.629,0.046-3.856-0.552-4.102-2.435c-0.16-1.233,0.549-2.071,1.66-2.484C248.81,68.181,255.607,68.692,254.646,71.786z"/>
								</g>
								<g>
									<g>
										<path style="fill:#411C36;" d="M239.204,104.673c-0.844,0-1.809-0.186-2.903-0.558c-1.04-0.35-1.986-0.67-2.769-0.397            c-0.148,0.054-0.293,0.127-0.438,0.197c-0.356,0.177-0.763,0.379-1.251,0.379c-0.005,0-0.009,0-0.014,0            c-0.76-0.009-1.476-0.533-1.827-1.339c-0.275-0.633-0.295-1.312-0.311-1.909c-0.177-6.472-0.361-13.166-2.601-19.379            c-0.109-0.302,0.048-0.636,0.35-0.745c0.306-0.102,0.633,0.048,0.745,0.35c2.302,6.39,2.497,13.484,2.67,19.743            c0.014,0.515,0.03,1.049,0.216,1.478c0.132,0.304,0.431,0.636,0.772,0.64c0.002,0,0.002,0,0.005,0            c0.213,0,0.454-0.12,0.733-0.257c0.184-0.093,0.37-0.184,0.563-0.252c1.165-0.418,2.356-0.009,3.405,0.35            c2.113,0.713,3.521,0.701,4.447,0.009c0.379-0.286,0.681-0.695,0.999-1.13c0.409-0.554,0.831-1.126,1.466-1.521            c0.813-0.504,1.78-0.579,2.556-0.638c0.686-0.054,1.464-0.114,2.036-0.465c0.44-0.272,0.785-0.86,0.595-1.301            c-0.127-0.293,0.009-0.636,0.304-0.763c0.295-0.123,0.633,0.009,0.763,0.304c0.447,1.035-0.184,2.211-1.051,2.749            c-0.815,0.499-1.78,0.574-2.556,0.633c-0.686,0.054-1.462,0.114-2.034,0.468c-0.447,0.277-0.785,0.738-1.144,1.224            c-0.354,0.481-0.72,0.981-1.235,1.369C241.016,104.419,240.192,104.673,239.204,104.673z"/>
									</g>
									<g>
										<path style="fill:#411C36;" d="M240.096,108.818c-0.779,0-1.562-0.077-2.331-0.238c-0.313-0.068-0.515-0.375-0.449-0.69            c0.068-0.311,0.365-0.502,0.69-0.449c3.31,0.695,7.021-0.381,9.443-2.74c0.234-0.227,0.602-0.216,0.822,0.009            c0.225,0.232,0.22,0.599-0.009,0.822C246.089,107.647,243.104,108.818,240.096,108.818z"/>
									</g>
								</g>
							</g>
						</g>
						<g>
							<path style="fill:#FFE3BF;" d="M302.48,70.846c0.697-4.091,1.062-8.238,1.09-12.388c0.011-1.685-0.039-3.403-0.596-4.992         c-1.734-4.944-7.811-7.28-12.233-8.604c-2.633-0.788-5.298-1.477-7.997-1.997c-29.683-5.716-61.231-1.103-88.078,12.767         c-1.793,0.926-2.736,2.935-2.414,4.927c0.619,3.824,1.61,7.594,2.955,11.228c0.906,2.449,3.679,3.59,6.113,2.645         c22.579-8.764,47.253-11.285,71.514-10.621C283.114,64.091,293.915,65.156,302.48,70.846z"/>
						</g>
					</g>
				</g>
				<g>
					<g>
						<g>
							<path style="fill:#FFE3BF;" d="M469.025,349.773c-15.761,42.423-43.841,78.895-79.871,105.046l-33.172,7.861l-199.356,1.053         l-34.91-8.913c-4.091-2.952-8.066-6.067-11.948-9.298C91.08,429.992,74.924,411.536,62,390.824         c-5.462-8.763-10.367-17.922-14.621-27.453l8.438-13.599H469.025z"/>
						</g>
						<g>
							<path style="fill:#411C36;" d="M389.154,454.818c-8.438,6.114-17.318,11.692-26.569,16.62H148.286         c-9.252-4.928-18.131-10.484-26.569-16.62H389.154z"/>
						</g>
					</g>
					<g>
						<g>
							<g>
								<path style="fill:#411C36;" d="M261.166,406.166c0,24.687-45.979,44.701-102.675,44.701          c-17.643,0-34.217-1.929-48.722-5.346C91.08,429.992,74.924,411.536,62,390.824c14.366-17.155,52.139-29.382,96.491-29.382          C215.187,361.442,261.166,381.456,261.166,406.166z"/>
							</g>
							<g>
								<ellipse style="fill:#FFE3BF;" cx="156.627" cy="403.187" rx="35.426" ry="15.431"/>
							</g>
						</g>
						<g>
							<g>
								<ellipse style="fill:#411C36;" cx="309.033" cy="424.355" rx="15.629" ry="11.277"/>
							</g>
							<g>
								<path style="fill:#411C36;" d="M308.439,423.947c-0.286,0-0.536-0.211-0.577-0.502l-4.679-33.547l-51.748-2.352          c-0.32-0.016-0.568-0.286-0.554-0.608c0.016-0.32,0.327-0.552,0.608-0.554l52.229,2.374          c0.279,0.014,0.511,0.222,0.549,0.502l4.747,34.026c0.043,0.318-0.179,0.611-0.497,0.656          C308.491,423.944,308.464,423.947,308.439,423.947z"/>
							</g>
						</g>
						<g>
							<g>
								<g>
									<path style="fill:#411C36;" d="M380.846,434.63c-8.392,0-15.221-4.254-15.221-9.482c0-5.23,6.828-9.484,15.221-9.484           c8.392,0,15.221,4.254,15.221,9.484C396.067,430.375,389.239,434.63,380.846,434.63z M380.846,416.826           c-7.752,0-14.058,3.734-14.058,8.322s6.306,8.32,14.058,8.32s14.058-3.732,14.058-8.32S388.599,416.826,380.846,416.826z"/>
								</g>
								<g>
									<path style="fill:#411C36;" d="M380.846,409.902c-8.392,0-15.221-4.254-15.221-9.484c0-5.23,6.828-9.484,15.221-9.484           c8.392,0,15.221,4.254,15.221,9.484C396.067,405.648,389.239,409.902,380.846,409.902z M380.846,392.096           c-7.752,0-14.058,3.734-14.058,8.322c0,4.588,6.306,8.322,14.058,8.322s14.058-3.734,14.058-8.322           C394.905,395.83,388.599,392.096,380.846,392.096z"/>
								</g>
							</g>
							<g>
								<path style="fill:#411C36;" d="M384.803,367.763h-85.068c-2.722,0-4.935-2.213-4.935-4.933c0-2.722,2.213-4.935,4.935-4.935          h85.068c2.72,0,4.933,2.213,4.933,4.935C389.736,365.55,387.523,367.763,384.803,367.763z M299.735,359.057          c-2.079,0-3.773,1.693-3.773,3.773c0,2.079,1.693,3.771,3.773,3.771h85.068c2.079,0,3.771-1.691,3.771-3.771          c0-2.079-1.691-3.773-3.771-3.773H299.735z"/>
							</g>
						</g>
					</g>
				</g>
				<g>
					<g>
						<path style="fill:#D26A49;" d="M112.486,355.707c0,0-5.638,58.163-2.374,60.833c3.264,2.671,8.902-17.212,8.902-17.212        s-1.781,36.203,2.671,37.391c4.451,1.187,7.716-39.171,7.716-39.171s0.593,35.61,4.451,37.094        c3.858,1.484,9.496-39.468,9.496-39.468s0.297,37.39,3.858,37.984c3.561,0.594,9.793-44.215,9.793-44.215        s12.463,17.805,15.728,16.618c3.264-1.187-9.793-55.195-9.793-55.195L112.486,355.707z"/>
					</g>
					<g>
						<path style="fill:#7657AA;" d="M202.913,129.935c0,0-85.975,42.183-100.219,137.044c-8.725,58.108,4.748,94.663,4.748,94.663        l60.537-6.528c0,0-13.65-68.846,7.122-100.895c20.772-32.049,39.764-42.732,39.764-42.732L202.913,129.935z"/>
					</g>
				</g>
			</g>
			<g>
				<polygon style="fill:#FFC151;" points="373.938,125.793 394.859,94.788 383.876,130.378 413.16,145.177 382.785,140.33       375.664,171.744 373.526,140.465 347.073,158.171 366.558,136.069 342.918,108.367     "/>
			</g>
			<g>
				<polygon style="fill:#FFC151;" points="392.33,328.34 387.774,291.215 402.838,325.279 434.647,317.232 408.545,333.505       423.782,361.884 401.646,339.683 393.3,370.401 393.502,340.937 357.487,335.543     "/>
			</g>
			<g>
				<polygon style="fill:#FFC151;" points="79.357,294.874 74.801,257.75 89.864,291.813 121.674,283.767 95.572,300.039       110.809,328.418 88.673,306.217 80.327,336.935 80.529,307.471 44.514,302.077     "/>
			</g>
			<g>
				<g>
					<g>
						<g>
							<path style="fill:#FFE3BF;" d="M128.414,170.182c-0.261,0-0.518-0.125-0.681-0.354L96.893,125.8         c-0.263-0.377-0.17-0.894,0.204-1.158c0.375-0.257,0.89-0.173,1.158,0.204l30.841,44.028c0.263,0.377,0.17,0.894-0.204,1.158         C128.746,170.132,128.58,170.182,128.414,170.182z"/>
						</g>
						<g>
							<path style="fill:#FFE3BF;" d="M111.68,168.871c-2.806,1.104-5.598,2.471-7.656,4.675c-2.058,2.204-3.268,5.402-2.435,8.3         c1.062,3.695,5.222,5.879,9.059,5.634c3.837-0.245,7.301-2.432,10.106-5.061c2.285-2.142,11.252-10.881,8.089-13.906         C125.204,165.033,115.506,167.365,111.68,168.871z"/>
						</g>
					</g>
					<g>
						<polygon style="fill:#FFE3BF;" points="94.756,123.9 124.356,104.064 133.258,121.276 104.871,137.191       "/>
					</g>
				</g>
				<g>
					<g>
						<g>
							<path style="fill:#FFE3BF;" d="M423.33,268.975c-0.052,0-0.104-0.007-0.159-0.018c-0.345-0.089-0.554-0.438-0.468-0.785         l10.231-40.493c0.089-0.343,0.431-0.536,0.785-0.468c0.345,0.089,0.554,0.438,0.468,0.785l-10.231,40.493         C423.882,268.78,423.619,268.975,423.33,268.975z"/>
						</g>
						<g>
							<path style="fill:#FFE3BF;" d="M415.116,258.244c-2.074-1.09-4.296-2.037-6.637-2.128c-2.341-0.091-4.836,0.821-6.118,2.782         c-1.634,2.5-0.806,6.056,1.287,8.188c2.092,2.132,5.138,3.059,8.108,3.373c2.42,0.256,12.016,1.278,12.189-2.119         C424.143,264.435,417.945,259.731,415.116,258.244z"/>
						</g>
					</g>
					<g>
						<polygon style="fill:#FFE3BF;" points="433.42,225.119 459.666,232.791 454.064,246.767 430.396,237.872       "/>
					</g>
				</g>
			</g>
		</g>
	</g>
</g>















</svg>
