<?xml version="1.0" encoding="UTF-8"?>
<!-- Generator: Adobe Illustrator 25.3.1, SVG Export Plug-In . SVG Version: 6.00 Build 0)  -->
<svg xmlns="http://www.w3.org/2000/svg" xmlns:xlink="http://www.w3.org/1999/xlink" version="1.1" id="Capa_1" x="0px" y="0px" viewBox="0 0 511.999 511.999" style="enable-background:new 0 0 511.999 511.999;" xml:space="preserve" width="512" height="512">
<g>
	<g>
		<path style="fill:#FFFFFF;" d="M409.281,511.999c7.344,0,13.298-5.954,13.298-13.299v-82.026    c75.451-86.25,70.6-224.812-12.874-304.053c-11.367-10.79-30.649-30.648-69.073-46.231c2.412-28.017-12.389-51.844-39-62.075    c-23.67-9.1-53.221-3.759-70.345,15.528c-8.502,9.575-13.458,25.047-15.147,34.052c-70.423,8.948-113.776,59.462-113.776,59.462    c-27.619,27.219-47.742,61.332-58.062,98.72c-17.98,65.138-6.425,136.817,34.025,191.366c2.398,3.234,13.898,13.916,13.898,16.876    c0,0.009,0,78.376,0,78.376c0,5.432,3.315,10.322,8.356,12.346L409.281,511.999z"/>
	</g>
	<g>
		<g>
			<g>
				<path style="fill:#7657AA;" d="M465.175,271.01c0,7.431-0.382,14.778-1.168,22.018c0,0.212-0.021,0.424-0.064,0.616      c-11.275,104.337-99.602,185.53-206.933,185.53c-99.517,0-182.728-69.834-203.281-163.172c-0.064-0.191-0.106-0.403-0.127-0.616      c-3.121-14.289-4.756-29.152-4.756-44.376c0-114.975,93.19-208.165,208.165-208.165c48.134,0,92.447,16.328,127.714,43.781      c0.149,0.085,0.297,0.213,0.446,0.34c5.308,4.119,10.404,8.536,15.288,13.164c0.127,0.127,0.276,0.255,0.403,0.403      c6.9,6.603,13.355,13.674,19.3,21.169c0.127,0.127,0.234,0.276,0.34,0.425c2.803,3.546,5.499,7.198,8.068,10.956      c0.106,0.149,0.212,0.297,0.297,0.446c6.285,9.13,11.827,18.791,16.562,28.898c0.085,0.17,0.17,0.318,0.233,0.488      c2.357,5.032,4.523,10.171,6.455,15.415c0.085,0.17,0.148,0.361,0.212,0.552c4.225,11.381,7.453,23.228,9.618,35.458v0.021      c0.042,0.17,0.064,0.318,0.106,0.51c0.998,5.669,1.741,11.423,2.251,17.241c0.043,0.297,0.085,0.552,0.085,0.849      c0,0.021,0,0.021,0,0.021C464.92,258.928,465.175,264.937,465.175,271.01z"/>
			</g>
			<g>
				<g>
					<g>
						<path style="fill:#FFC151;" d="M385.171,106.966c-24.057,14.99-46.945,31.934-68.305,50.555l-0.361-0.403        c21.339-18.6,44.185-35.522,68.22-50.491C384.873,106.712,385.022,106.839,385.171,106.966z"/>
					</g>
					<g>
						<path style="fill:#FFC151;" d="M420.502,142.128l-53.91,44.78c-1.911,1.592-4.14,1.104-5.52-0.085        c-1.338-1.168-2.123-3.312-0.807-5.414l0.064-0.127c5.053-8.09,10.744-16.094,16.243-23.844        c8.514-11.996,17.199-24.247,23.887-37.305c0.127,0.127,0.276,0.255,0.403,0.403c-6.71,13.037-15.372,25.246-23.866,37.221        c-5.499,7.729-11.168,15.733-16.222,23.823l-0.064,0.127c-1.147,1.826-0.467,3.695,0.722,4.714        c1.189,1.061,3.142,1.465,4.82,0.085l53.91-44.801C420.289,141.83,420.396,141.979,420.502,142.128z"/>
					</g>
					<g>
						<path style="fill:#FFC151;" d="M412.773,206.611c-11.105,8.387-22.592,17.05-34.397,24.694        c-1.699,1.104-7.453,4.395-10.404,0.934l-0.127-0.149l0.085-0.148c15.542-27.008,36.35-50.937,56.479-74.081        c1.38-1.592,2.76-3.185,4.162-4.777c0.106,0.149,0.212,0.297,0.297,0.446c-1.359,1.55-2.697,3.121-4.055,4.671        c-20.065,23.08-40.83,46.945-56.33,73.826c2.739,2.909,8.026-0.149,9.597-1.168c11.805-7.622,23.271-16.307,34.376-24.672        c10.701-8.09,21.572-16.328,32.974-23.759c0.085,0.17,0.17,0.318,0.233,0.488        C434.303,190.326,423.453,198.543,412.773,206.611z"/>
					</g>
					<g>
						<path style="fill:#FFC151;" d="M462.054,234.872c-14.927,4.777-30.405,12.825-47.094,24.524l-0.149,0.106        c-4.671,3.27-9.491,6.646-14.757,8.153c-1.571,0.446-3.227-0.064-4.31-1.316c-1.104-1.295-1.359-3.058-0.658-4.565        c4.119-8.875,10.447-16.667,16.668-23.759c12.421-14.162,25.967-27.496,40.363-39.684c0.085,0.17,0.148,0.361,0.212,0.552        c-14.311,12.124-27.793,25.394-40.172,39.471c-6.2,7.07-12.506,14.842-16.583,23.632c-0.616,1.338-0.403,2.866,0.573,3.992        c0.956,1.104,2.378,1.55,3.758,1.168c5.181-1.486,9.979-4.841,14.608-8.09l0.149-0.106        c16.753-11.72,32.273-19.81,47.285-24.587C461.99,234.532,462.011,234.681,462.054,234.872z"/>
					</g>
					<g>
						<path style="fill:#FFC151;" d="M437.424,298.782c-0.425,1.465,0.042,2.973,1.189,3.949c1.126,0.955,2.612,1.146,3.971,0.51        l21.424-10.213c0,0.212-0.021,0.424-0.064,0.616l-21.148,10.064c-1.508,0.722-3.249,0.51-4.522-0.573        c-1.317-1.104-1.847-2.824-1.359-4.502c3.482-12.294,11.274-23.313,18.791-33.951c2.909-4.119,5.86-8.281,8.599-12.57        c0.043,0.297,0.085,0.552,0.085,0.849c0,0.021,0,0.021,0,0.021c-2.654,4.098-5.478,8.09-8.238,11.997        C448.635,275.596,440.885,286.573,437.424,298.782z"/>
					</g>
				</g>
				<g>
					<g>
						<path style="fill:#FF6A6C;" d="M125.241,212.811c-0.764,1.401-0.764,3.397,0.956,4.756l70.322,55.162        c6.094,4.777,12.23,10.637,11.529,17.899l-0.021,0.382l-0.361-0.17c-14.035-6.879-27.985-14.566-41.489-21.997        c-26.774-14.778-54.483-30.023-84.017-39.514c-2.272,3.27,1.826,7.792,3.164,9.13c9.937,9.937,20.829,19.322,31.361,28.388        c20.171,17.411,41.043,35.395,56.033,57.922c1.104,1.635,1.04,3.758-0.149,5.16c-1.868,2.187-4.395,0.849-5.605,0.212        c-8.344-4.416-15.755-10.531-22.952-16.434c-1.316-1.083-2.633-2.166-3.949-3.227c-17.135-13.907-35.607-26.392-54.907-37.136        c-8.217-4.565-17.114-9.109-26.583-11.232c-1.444-0.318-2.888,0.212-3.779,1.401c-0.892,1.146-1.019,2.654-0.34,3.907        c2.527,4.756,6.816,8.727,10.956,12.57l0.149,0.127c16.583,15.394,28.494,30.257,36.414,45.438        c0.807,1.571,1.55,3.376,0.722,4.926c-1.189,2.23-4.416,1.89-6.221,1.486c-9.618-2.145-19.003-6.136-28.091-10.022        c-4.82-2.06-9.703-4.141-14.65-5.945c-0.064-0.191-0.106-0.403-0.127-0.616c5.054,1.826,10.043,3.971,14.99,6.073        c9.066,3.864,18.43,7.877,27.985,10.001c1.677,0.361,4.629,0.701,5.648-1.21c0.701-1.338,0.021-2.994-0.722-4.438        c-7.877-15.139-19.768-29.938-36.308-45.289l-0.149-0.127c-4.162-3.885-8.493-7.877-11.062-12.718        c-0.786-1.444-0.637-3.164,0.382-4.48c1.019-1.359,2.675-1.974,4.331-1.613c9.512,2.165,18.472,6.709,26.732,11.296        c19.3,10.765,37.794,23.271,54.971,37.178l3.949,3.249c7.177,5.881,14.566,11.975,22.868,16.37        c1.614,0.849,3.482,1.635,4.947-0.106c1.04-1.21,1.083-3.058,0.106-4.501c-14.948-22.464-35.777-40.427-55.927-57.816        c-10.531-9.088-21.445-18.473-31.403-28.431c-1.423-1.423-5.86-6.349-3.1-9.958l0.106-0.149l0.191,0.043        c29.641,9.491,57.434,24.821,84.293,39.62c13.377,7.368,27.22,14.99,41.128,21.806c0.403-6.816-5.499-12.421-11.381-17.029        l-70.301-55.184c-1.975-1.529-1.975-3.822-1.104-5.414c0.871-1.571,2.803-2.781,5.138-1.932l0.127,0.042        c8.981,3.227,18.005,7.113,26.732,10.85c22.485,9.64,45.714,19.576,70.195,19.576h0.934        c-25.012-28.855-53.188-55.077-83.784-77.924l0.318-0.425c30.787,22.974,59.112,49.366,84.23,78.433l0.382,0.425l-0.573,0.021        c-25.161,0.403-48.92-9.767-71.915-19.619c-8.706-3.737-17.729-7.601-26.69-10.829l-0.127-0.042        C127.683,210.391,126.006,211.452,125.241,212.811z"/>
					</g>
				</g>
			</g>
			<g>
				<g>
					<g>
						<path style="fill:#FFE3BF;" d="M227.272,62.035c-7.256,2.643-14.876,4.156-22.515,5.294        c-4.913,0.731-10.099,1.411-14.054,4.416c-3.936,2.99-6.071,8.124-5.605,13.044c0.466,4.92,3.446,9.495,7.661,12.077        c2.47,1.513,5.297,2.365,8.151,2.863c5.771,1.008,11.684,0.627,17.523,0.16c6.062-0.485,12.124-1.061,18.121-2.072        c4.678-0.789,9.388-1.871,13.527-4.189c6.991-3.915,11.852-11.402,12.584-19.381c0.217-2.371,0.078-4.832-0.878-7.013        c-1.437-3.279-4.587-5.566-7.969-6.744c-3.381-1.177-7.014-1.382-10.593-1.505c-3.044-0.105-6.049-0.088-9.071,0.323        C231.594,59.656,229.694,61.153,227.272,62.035z"/>
					</g>
					<g>
						<g>
							<path style="fill:#411C36;" d="M230.722,65.777c-2.954,6.344-5.7,13.304-11.49,17.236         c-10.275,6.977-24.835,1.182-36.302,5.953c-6.553,2.727-11.487,9.024-12.567,16.039c-0.653,4.244-0.381,9.417-3.955,11.796         c-1.599,1.064-3.604,1.243-5.511,1.468c-11.497,1.359-23.159,5.961-30.262,15.103c-8.389,10.796-8.835,26.495-2.978,38.849         c5.857,12.354,17.207,21.508,29.768,26.907c12.561,5.398,26.328,7.364,39.971,8.249c15.492,1.005,31.14,0.676,46.4-2.175         c7.359-1.375,14.839-3.444,20.712-8.087c10.819-8.553,13.724-23.631,14.454-37.403c1.256-23.682-1.693-47.374-6.627-70.508         c-2.486-11.658-5.478-23.202-8.709-34.674c-1.576-5.595-3.183-11.185-4.878-16.745c-1.783-5.849-4.143-7.085-8.483-2.242         C242.282,44.45,235.76,54.959,230.722,65.777z"/>
						</g>
						<g>
							<path style="fill:#411C36;" d="M324.602,74.94c-0.843,8.513,0.564,18.561,7.902,22.959c4.282,2.566,9.563,2.54,14.446,3.579         c7.328,1.558,14.585,6.434,16.229,13.743c1.022,4.543-0.242,9.24-0.84,13.858c-0.598,4.618-0.305,9.867,3.034,13.113         c4.059,3.944,10.638,3.21,15.914,5.259c7.791,3.025,11.782,11.749,13.228,19.98c1.599,9.101,0.929,18.909-3.706,26.902         c-3.988,6.877-10.631,11.926-17.869,15.217c-7.237,3.291-15.095,4.962-22.927,6.33c-19.966,3.487-40.633,5.126-60.395,0.626         c-5.921-1.348-11.832-3.298-16.713-6.91c-11.303-8.362-14.792-23.664-15.599-37.7c-0.9-15.653,0.514-31.362,2.856-46.865         c3.203-21.199,8.401-42.724,20.73-60.264c4.987-7.095,11.286-13.564,19.238-17.024c6.124-2.665,18.272-4.582,23.725,0.823         C329.368,54.032,325.274,68.151,324.602,74.94z"/>
						</g>
					</g>
					<g>
						<path style="fill:#411C36;" d="M153.101,264.144c0,0-67.222,28.19-63.969,66.679c3.253,38.49,61.258,99.206,61.258,99.206        l48.79,3.795c0,0-25.479-103.001-16.263-107.88c9.216-4.879,68.848-22.227,68.848-22.227l62.343,18.974l-82.943,117.096        l90.532,1.084c0,0,104.627-108.422,88.364-142.033c-16.263-33.611-105.169-52.585-105.169-52.585L153.101,264.144z"/>
					</g>
					<g>
						<g>
							<path style="fill:#D26A49;" d="M310.512,359.665c0,0-21.888,49.725-25.221,49.079c-3.333-0.647,3.43-23.984,3.43-23.984         s-18.833,31.615-22.741,29.436c-3.907-2.179,10.514-29.135,10.514-29.135s-19.289,26.138-22.626,24.001         c-3.338-2.137,12.485-29.448,12.485-29.448s-21.543,20.185-25.184,19.057c-3.641-1.128,17.789-29.114,17.789-29.114         s-12.862,7.36-15.847,5.879c-2.985-1.481,31.016-32.092,31.016-32.092L310.512,359.665z"/>
						</g>
						<g style="opacity:0.3;">
							<path style="fill:#411C36;" d="M310.512,359.665c0,0-21.888,49.725-25.221,49.079c-3.333-0.647,3.43-23.984,3.43-23.984         s-18.833,31.615-22.741,29.436c-3.907-2.179,10.514-29.135,10.514-29.135s-19.289,26.138-22.626,24.001         c-3.338-2.137,12.485-29.448,12.485-29.448s-21.543,20.185-25.184,19.057c-3.641-1.128,17.789-29.114,17.789-29.114         s-12.862,7.36-15.847,5.879c-2.985-1.481,31.016-32.092,31.016-32.092L310.512,359.665z"/>
						</g>
					</g>
					<g>
						<g>
							<path style="fill:#D26A49;" d="M334.081,134.932l-6.879,99.114l-0.716,8.775c0,0-39.574,30.9-79.692,30.908         c-26.699,0.005-54.209-25.487-54.209-25.487s0.618,10.539,1.828-12.71c0.106-1.932,0.212-4.013,0.34-6.263         c1.635-29.28,4.331-114.38,4.331-114.38c3.482-1.592,19.959-5.966,33.038-9.321c9.279-2.378,16.837-4.246,16.837-4.246         c21.233,0.679,39.832,6.879,54.164,13.78C322.467,124.401,334.081,134.932,334.081,134.932z"/>
						</g>
						<g>
							<path style="fill:#FFC151;" d="M333.63,135.113l-6.879,99.114c-23.42,11.529-50.555,13.971-76.82,14.035         c-18.366,0.042-37.539-1.168-53.506-10.256c-0.934-0.531-1.89-1.125-2.378-2.06c-0.042-0.085-0.085-0.148-0.085-0.233         c0.106-1.932,0.212-4.013,0.34-6.264c1.635-29.28,4.332-114.38,4.332-114.38c3.482-1.593,19.959-5.966,33.038-9.321         c-1.529,17.878-1.359,35.926,0.488,53.761c0.934,9.024,2.357,18.133,6.221,26.35c3.864,8.196,10.489,15.458,19.088,18.281         c3.015,0.998,6.412,1.38,9.3,0.064c2.272-1.04,3.949-3.015,5.351-5.054c13.844-20.171,7.023-49.481,13.438-71.979         c0.867-3.041,3.739-4.968,6.032-7.155c3.036-2.909,6.922-4.268,11.084-4.735C322.015,124.581,333.63,135.113,333.63,135.113z         "/>
						</g>
					</g>
					<g>
						<path style="fill:#411C36;" d="M285.195,128.436l-2.375,14.32c-3.376-0.531-6.519-2.017-9.534-3.631        c-11.211-6.03-20.596-14.141-26.498-25.437c5.924,5.839,13.504,9.809,21.445,12.294        C273.563,127.66,279.632,127.757,285.195,128.436z"/>
					</g>
					<g>
						<path style="fill:#FFE3BF;" d="M284.834,120.485c0,0,5.421,131.19,5.963,135.527c0.542,4.337,1.084,58.006,1.084,58.006        l-27.105,33.611l45.537,21.684c0,0,71.016-49.332,72.642-93.243c1.626-43.911-14.637-112.759-29.274-127.396        c-14.637-14.637-61.801-46.079-61.801-46.079L284.834,120.485z"/>
					</g>
					<g>
						<path style="fill:#FFE3BF;" d="M239.839,102.054c0,0,3.253,41.742-0.542,73.727c-3.795,31.984-28.732,124.685-28.732,124.685        l22.769,42.827l-31.443,33.069c0,0-95.953-60.174-95.953-99.206s27.648-131.19,47.164-145.285        C172.617,117.775,239.839,102.054,239.839,102.054z"/>
					</g>
					<g>
						<g>
							<g>
								<path style="fill:#D26A49;" d="M233.668,60.953c-4.208,1.041-7.465,4.794-8.458,9.013          c-0.993,4.219,0.089,8.765,2.387,12.441c1.911,3.057,4.758,5.656,8.226,6.643c3.468,0.987,7.559,0.116,9.888-2.637          c1.593-1.883,2.228-4.382,2.665-6.809c0.687-3.812,0.993-9.294-1.376-12.669C244.117,62.831,238.749,59.696,233.668,60.953z          "/>
							</g>
							<g>
								<path style="fill:#411C36;" d="M241.281,81.336c-0.202,0.029-0.394-0.106-0.434-0.308          c-0.851-4.344-3.082-8.425-6.281-11.487c-1.487-1.424-3.757-3.039-6.157-2.699c-0.031,0.004-0.057,0.021-0.096,0.015          c-0.207,0.029-0.403-0.113-0.436-0.321c-0.034-0.21,0.11-0.41,0.32-0.443c0.035-0.005,0.07-0.01,0.105-0.015          c2.705-0.384,5.186,1.359,6.8,2.904c3.312,3.172,5.623,7.396,6.505,11.896c0.041,0.209-0.096,0.414-0.305,0.455          C241.294,81.334,241.287,81.335,241.281,81.336z"/>
							</g>
						</g>
						<g>
							<g>
								<path style="fill:#D26A49;" d="M327.111,61.754c0,4.862-4.626,3.213-6.113,7.565C320.51,71.4,322.61,83.9,322.631,83.9          c-0.021,0-0.021,0-0.021,0c-4.65,16.455-14.65,44.312-27.751,46.351c-14.714,2.272-49.047-3.27-53.761-18.982          c-2.697-9.024-1.805-27.305-0.573-41.234c0.212-2.399,0.446-4.671,0.658-6.752c-0.021-0.51-0.085-1.019-0.085-1.529          c0-23.759,19.258-42.996,43.017-42.996c13.738,0,25.946,6.433,33.824,16.455c0.51,0.658,1.019,1.317,1.486,1.996          C324.266,44.152,327.111,52.624,327.111,61.754z"/>
							</g>
							<g>
								<g>
									<path style="fill:#411C36;" d="M272.416,76.678c0,2.34-1.897,4.237-4.237,4.237c-2.34,0-4.237-1.897-4.237-4.237           c0-2.34,1.897-4.237,4.237-4.237C270.519,72.441,272.416,74.338,272.416,76.678z"/>
								</g>
								<g>
									<path style="fill:#411C36;" d="M308.17,83.206c0,2.34-1.897,4.237-4.237,4.237c-2.34,0-4.237-1.897-4.237-4.237           s1.897-4.237,4.237-4.237C306.273,78.969,308.17,80.866,308.17,83.206z"/>
								</g>
								<g>
									<path style="fill:#411C36;" d="M261.489,69.319c-0.31,0-0.617-0.141-0.816-0.411c-0.335-0.45-0.24-1.087,0.212-1.42           c3.448-2.556,8.398-2.747,12.041-0.47c0.476,0.297,0.619,0.924,0.323,1.4c-0.299,0.474-0.922,0.615-1.4,0.323           c-2.9-1.816-7.007-1.656-9.755,0.379C261.911,69.254,261.699,69.319,261.489,69.319z"/>
								</g>
								<g>
									<path style="fill:#411C36;" d="M311.74,78.808c-0.351,0-0.693-0.182-0.881-0.509c-1.405-2.437-4.249-4.028-7.048-3.851           c-0.558-0.006-1.037-0.407-1.063-0.968s0.407-1.037,0.968-1.063c3.478-0.184,7.128,1.788,8.905,4.868           c0.279,0.485,0.113,1.106-0.374,1.387C312.089,78.765,311.914,78.808,311.74,78.808z"/>
								</g>
								<g>
									<path style="fill:#411C36;" d="M285.89,99.763c-1.288,0-2.394-0.762-3.47-1.504c-1.05-0.723-2.089-1.409-3.123-1.361           c-0.223,0.011-0.448,0.048-0.671,0.084c-0.548,0.091-1.173,0.197-1.779-0.069c-1.21-0.526-1.444-2.113-1.048-3.407           c0.344-1.13,0.983-2.154,1.851-2.963c0.206-0.199,0.524-0.182,0.716,0.024c0.193,0.203,0.182,0.526-0.024,0.716           c-0.736,0.688-1.279,1.561-1.574,2.519c-0.255,0.844-0.175,1.894,0.483,2.18c0.333,0.139,0.738,0.076,1.208-0.002           c0.266-0.043,0.532-0.087,0.797-0.095c0.05-0.004,0.1-0.004,0.152-0.004c1.355,0,2.489,0.784,3.591,1.543           c1.11,0.764,2.165,1.478,3.286,1.29c0.502-0.089,0.976-0.361,1.476-0.652c0.561-0.32,1.139-0.654,1.82-0.771           c0.652-0.113,1.277-0.009,1.881,0.091l0.294,0.048c0.552,0.087,1.19,0.145,1.682-0.1c1.139-0.563,0.998-1.788,0.675-3.457           c-0.041-0.219-0.082-0.429-0.117-0.63c-0.584-3.53-1.123-7.701-0.684-11.872c0.16-1.524,0.411-3.054,0.632-4.405           l0.409-2.511c0.045-0.275,0.294-0.463,0.584-0.42c0.277,0.045,0.463,0.307,0.42,0.584l-0.409,2.511           c-0.221,1.338-0.468,2.853-0.628,4.348c-0.426,4.048,0.104,8.134,0.68,11.6c0.03,0.19,0.069,0.392,0.11,0.602           c0.294,1.524,0.697,3.61-1.223,4.558c-0.745,0.372-1.574,0.307-2.288,0.195l-0.305-0.05           c-0.548-0.091-1.061-0.175-1.541-0.093c-0.506,0.087-0.98,0.361-1.485,0.652c-0.556,0.32-1.13,0.652-1.807,0.771           C286.266,99.748,286.076,99.763,285.89,99.763z"/>
								</g>
								<g>
									<path style="fill:#FF6A6C;" d="M296.975,107.031c-3.116,0.364-5.499-1.682-8.168-2.844c-1.767-0.77-3.692-1.176-5.62-1.185           c-2.026-0.01-4.014,0.521-6.028,0.696c-2.307,0.2-3.787,0.549-6.007-0.143c1.442,1.728,1.918,3.195,3.721,4.579           c1.663,1.277,3.691,2.014,5.74,2.385c2.847,0.515,6.116,0.674,8.96,0.083c1.375-0.285,2.702-0.773,3.957-1.4           c0.63-0.315,1.242-0.665,1.836-1.044C295.749,107.913,296.551,107.08,296.975,107.031z"/>
								</g>
								<g>
									<path style="fill:#411C36;" d="M294.184,107.708c-2.349,0-5.875-0.109-10.249-0.574           c-6.871-0.726-13.157-3.497-13.219-3.524c-0.145-0.065-0.21-0.232-0.145-0.377c0.062-0.145,0.23-0.205,0.377-0.145           c0.063,0.027,6.268,2.762,13.047,3.479c8.146,0.866,13.331,0.491,13.378,0.485c0.009,0,0.016,0,0.022,0           c0.147,0,0.275,0.114,0.286,0.263c0.011,0.159-0.107,0.295-0.263,0.308C297.393,107.624,296.24,107.708,294.184,107.708z"/>
								</g>
							</g>
						</g>
						<g>
							<g>
								<path style="fill:#411C36;" d="M284.115,18.758c14.629,0,27.539,7.304,35.31,18.451c-0.191,3.355-1.274,6.625-3.397,9.236          c-3.928,4.82-11.699,6.455-16.667,2.718c-1.529-1.146-2.718-2.675-4.268-3.779c-3.376-2.421-8.302-2.336-11.593,0.17          c-2.102,1.614-3.525,4.055-5.86,5.287c-3.609,1.911-8.068,0.318-11.635-1.678c-1.338-0.764-2.76-1.592-4.289-1.38          c-1.189,0.17-2.187,0.956-2.994,1.847c-2.951,3.355-3.567,8.111-5.436,12.166c-2.314,5.096-8.118,14.03-13.363,15.941          l-1.426-23.841L284.115,18.758z"/>
							</g>
							<g>
								<path style="fill:#411C36;" d="M327.111,61.754c0,4.862-0.828,9.512-2.314,13.865c-0.488,2.081-1.21,4.947-2.166,8.281          c-0.021,0-0.021,0-0.021,0c-0.361-0.213-0.679-0.467-0.977-0.722c-2.421-2.081-3.843-5.202-4.077-8.366          c-0.234-3.185,0.658-6.391,2.251-9.13c1.21-2.038,2.845-4.162,2.463-6.497c-0.403-2.336-2.654-3.779-4.246-5.542          c-2.335-2.612-3.355-6.264-3.1-9.767c0.212-2.781,1.189-6.37,3.015-8.663c0.51,0.658,1.019,1.317,1.486,1.996          C324.266,44.152,327.111,52.624,327.111,61.754z"/>
							</g>
						</g>
						<g>
							<g>
								<path style="fill:#FF6A6C;" d="M230.442,62.48c16.981-2.901,34.025-5.716,51.171-4.144          c17.146,1.571,31.282,5.487,46.228,14.264c1.176-10.441,2.371-20.491-1.66-30.151c-1.593-3.819-3.583-7.488-6.172-10.68          c-3.525-4.346-8.079-7.71-12.905-10.433c-10.247-5.781-22.073-8.834-33.72-7.812c-11.647,1.022-23.048,6.276-30.925,15.15          C234.881,37.209,231.09,50.946,230.442,62.48z"/>
							</g>
							<g>
								<g>
									<path style="fill:#411C36;" d="M304.285,53.897c1.114-4.554-1.482-9.727-5.8-11.554c-1.799-0.761-3.788-0.978-5.742-0.938           c-2.653,0.055-5.344,0.592-7.636,1.929c-2.292,1.337-4.15,3.541-4.708,6.136L304.285,53.897z"/>
								</g>
								<g>
									<path style="fill:#FFE3BF;" d="M279.083,58.123c0.148-2.951,0.573-5.924,1.253-8.79c8.111,0.064,16.498,1.38,24.184,3.971           c-0.255,2.972-0.658,5.903-1.168,8.854L279.083,58.123z"/>
								</g>
							</g>
						</g>
					</g>
					<g>
						<g>
							<path style="fill:#411C36;" d="M193.037,278.046c-0.007,0-0.015,0-0.022,0c-0.292-0.013-0.522-0.26-0.509-0.552l3.976-96.134         c0.011-0.292,0.297-0.498,0.552-0.509c0.292,0.013,0.522,0.26,0.509,0.552l-3.976,96.134         C193.557,277.823,193.321,278.046,193.037,278.046z"/>
						</g>
						<g>
							<path style="fill:#411C36;" d="M233.334,343.823c-0.19,0-0.374-0.104-0.47-0.284c-0.162-0.307-16.147-30.835-21.861-41.193         c-5.686-10.31-32.907-41.156-33.182-41.467c-0.193-0.219-0.173-0.554,0.048-0.749c0.214-0.193,0.552-0.175,0.749,0.048         c1.123,1.271,27.571,31.245,33.316,41.658c5.719,10.364,21.71,40.903,21.87,41.21c0.136,0.26,0.037,0.58-0.223,0.716         C233.5,343.804,233.418,343.823,233.334,343.823z"/>
						</g>
					</g>
					<g>
						<g>
							<path style="fill:#411C36;" d="M321.336,277.685c-0.264,0-0.493-0.195-0.526-0.463l-10.842-86.015         c-0.037-0.292,0.169-0.556,0.459-0.593c0.316-0.063,0.556,0.169,0.593,0.459l10.842,86.015         c0.037,0.292-0.169,0.556-0.459,0.593C321.379,277.685,321.357,277.685,321.336,277.685z"/>
						</g>
						<g>
							<path style="fill:#411C36;" d="M264.775,348.159c-0.117,0-0.234-0.037-0.333-0.117c-0.227-0.184-0.264-0.517-0.08-0.747         l64.872-80.593c0.182-0.225,0.517-0.266,0.747-0.08c0.227,0.184,0.264,0.517,0.08,0.747l-64.872,80.593         C265.085,348.092,264.931,348.159,264.775,348.159z"/>
						</g>
					</g>
					<g>
						<path style="fill:#D26A49;" d="M199.903,370.759c0,0,33.43,42.827,36.502,41.381c3.072-1.446-9.216-22.407-9.216-22.407        s26.021,26.021,29.274,22.949c3.253-3.072-17.347-25.66-17.347-25.66s25.118,20.6,27.828,17.709        c2.71-2.891-19.335-25.479-19.335-25.479s25.84,14.275,29.093,12.288c3.253-1.988-24.395-23.853-24.395-23.853        s14.275,3.975,16.805,1.807c2.53-2.169-37.948-23.491-37.948-23.491L199.903,370.759z"/>
					</g>
				</g>
				<g>
					<g>
						<polygon style="fill:#FF6A6C;" points="394.695,339.423 410.508,360.957 410.508,498.701 134.213,498.694 117.882,487.381         120.483,341.683       "/>
					</g>
					<g>
						<polygon style="fill:#FFFFFF;" points="410.508,327.753 410.508,360.957 134.216,360.957 124.567,339.423 134.216,327.753               "/>
					</g>
					<g>
						<rect x="106.75" y="327.752" style="fill:#7657AA;" width="27.466" height="170.945"/>
					</g>
					<g style="opacity:0.59;">
						<rect x="106.75" y="327.752" style="fill:#411C36;" width="27.466" height="170.945"/>
					</g>
					<g>
						<g>
							<g>
								<rect x="238.75" y="434.746" style="fill:#FFE3BF;" width="62.721" height="18.037"/>
							</g>
							<g>
								<g>
									<rect x="245.719" y="465.184" style="fill:#411C36;" width="12.913" height="12.913"/>
								</g>
								<g>
									<rect x="266.319" y="465.184" style="fill:#411C36;" width="12.913" height="12.913"/>
								</g>
								<g>
									<rect x="285.074" y="465.184" style="fill:#411C36;" width="12.913" height="12.913"/>
								</g>
							</g>
						</g>
						<g>
							<g>
								<path style="fill:#411C36;" d="M293.989,366.784h-49.193c-0.333,0-0.602-0.268-0.602-0.602s0.268-0.602,0.602-0.602h49.193          c0.333,0,0.602,0.268,0.602,0.602S294.323,366.784,293.989,366.784z"/>
							</g>
							<g>
								<path style="fill:#411C36;" d="M293.989,371.704h-49.193c-0.333,0-0.602-0.268-0.602-0.602c0-0.333,0.268-0.602,0.602-0.602          h49.193c0.333,0,0.602,0.268,0.602,0.602C294.591,371.436,294.323,371.704,293.989,371.704z"/>
							</g>
							<g>
								<path style="fill:#411C36;" d="M293.989,376.624h-49.193c-0.333,0-0.602-0.268-0.602-0.602s0.268-0.602,0.602-0.602h49.193          c0.333,0,0.602,0.268,0.602,0.602S294.323,376.624,293.989,376.624z"/>
							</g>
						</g>
						<g>
							<g>
								<g>
									<circle style="fill:#411C36;" cx="183.818" cy="426.137" r="44.273"/>
								</g>
								<g>
									<circle style="fill:#411C36;" cx="358.862" cy="426.137" r="44.273"/>
								</g>
								<g>
									<rect x="238.75" y="381.044" style="fill:#411C36;" width="62.721" height="40.584"/>
								</g>
								<g>
									<g>
										<path style="fill:#FFE3BF;" d="M255.251,407.375c-3.952,0-7.169-3.214-7.169-7.167c0-3.952,3.216-7.167,7.169-7.167            c3.952,0,7.167,3.214,7.167,7.167C262.418,404.161,259.204,407.375,255.251,407.375z M255.251,393.644            c-3.621,0-6.567,2.946-6.567,6.565s2.946,6.565,6.567,6.565c3.619,0,6.565-2.946,6.565-6.565            S258.87,393.644,255.251,393.644z"/>
									</g>
									<g>
										<path style="fill:#FFE3BF;" d="M284.97,407.375c-3.952,0-7.167-3.214-7.167-7.167c0-3.952,3.214-7.167,7.167-7.167            c3.952,0,7.169,3.214,7.169,7.167C292.139,404.161,288.922,407.375,284.97,407.375z M284.97,393.644            c-3.619,0-6.565,2.946-6.565,6.565s2.946,6.565,6.565,6.565c3.621,0,6.567-2.946,6.567-6.565            S288.591,393.644,284.97,393.644z"/>
									</g>
								</g>
							</g>
							<g>
								<g>
									<path style="fill:#411C36;" d="M238.34,499.297c-0.333,0-0.602-0.268-0.602-0.602V360.546c0-0.333,0.268-0.602,0.602-0.602           s0.602,0.268,0.602,0.602v138.149C238.942,499.029,238.673,499.297,238.34,499.297z"/>
								</g>
								<g>
									<path style="fill:#411C36;" d="M301.472,499.297c-0.333,0-0.602-0.268-0.602-0.602V360.546           c0-0.333,0.268-0.602,0.602-0.602c0.333,0,0.602,0.268,0.602,0.602v138.149           C302.074,499.029,301.805,499.297,301.472,499.297z"/>
								</g>
							</g>
						</g>
					</g>
					<g>
						<g>
							<path style="fill:#411C36;" d="M343.695,356.639c-5.078,0-9.21-4.132-9.21-9.21c0-5.078,4.132-9.21,9.21-9.21         s9.21,4.132,9.21,9.21C352.905,352.507,348.773,356.639,343.695,356.639z M343.695,339.423c-4.416,0-8.007,3.591-8.007,8.007         c0,4.416,3.591,8.006,8.007,8.006s8.006-3.591,8.006-8.006C351.701,343.014,348.11,339.423,343.695,339.423z"/>
						</g>
						<g>
							<path style="fill:#411C36;" d="M367.881,356.639c-5.078,0-9.21-4.132-9.21-9.21c0-5.078,4.132-9.21,9.21-9.21         c5.078,0,9.21,4.132,9.21,9.21C377.091,352.507,372.959,356.639,367.881,356.639z M367.881,339.423         c-4.416,0-8.007,3.591-8.007,8.007c0,4.416,3.591,8.006,8.007,8.006c4.416,0,8.006-3.591,8.006-8.006         C375.887,343.014,372.297,339.423,367.881,339.423z"/>
						</g>
					</g>
				</g>
			</g>
			<g>
				<g>
					<polygon style="fill:#FFC151;" points="413.139,273.414 427.251,252.499 419.843,276.506 439.597,286.489 419.107,283.22        414.303,304.41 412.861,283.311 395.017,295.254 408.161,280.345 392.215,261.659      "/>
				</g>
				<g>
					<polygon style="fill:#FFC151;" points="344.41,123.751 358.522,102.837 351.114,126.844 370.868,136.826 350.378,133.557        345.574,154.747 344.132,133.648 326.288,145.591 339.431,130.682 323.486,111.996      "/>
				</g>
				<g>
					<polygon style="fill:#FFC151;" points="97.799,206.847 84.756,177.419 105.685,201.697 129.863,187.11 112.443,207.042        132.093,226.596 108.309,213.855 109.125,241.237 101.917,216.926 70.912,221.499      "/>
				</g>
			</g>
		</g>
	</g>
</g>















</svg>
