<?xml version="1.0" encoding="UTF-8"?>
<!-- Generator: Adobe Illustrator 25.3.1, SVG Export Plug-In . SVG Version: 6.00 Build 0)  -->
<svg xmlns="http://www.w3.org/2000/svg" xmlns:xlink="http://www.w3.org/1999/xlink" version="1.1" id="Capa_1" x="0px" y="0px" viewBox="0 0 512 512" style="enable-background:new 0 0 512 512;" xml:space="preserve" width="512" height="512">
<g>
	<g>
		<path style="fill:#FFFFFF;" d="M256.093,511.998c-45.275-0.179-90.237-11.629-130.11-35.981    C52.545,431.166,5.848,348.311,5.848,262.315c0-109.946,75.864-209.841,181.338-240.599c22.345-6.516,45.688-9.719,68.954-9.719    c9.708,0,19.582,0.593,29.415,1.766c33.248-16.272,75.785-19.692,109.129-1.651c31.57,17.081,38.881,46.218,44.112,79.086    c4.669,4.954,9.086,10.048,13.25,15.271c3.49,4.377,6.84,8.902,9.999,13.505c5.266,2.113,10.056,5.696,14.166,10.624    c7.796,9.313,11.463,21.688,10.218,33.91c0,0,9.494,26.223,11.701,35.021c3.621,14.436,6.02,29.177,7.192,44.014    c5.916,74.838-19.799,158.603-77.106,209.361C382.526,493.372,316.333,512.236,256.093,511.998z"/>
	</g>
	<g>
		<g>
			<g>
				<g>
					<path style="fill:#7657AA;" d="M24.465,299.326c0,0-2.921-24.435-2.921-37.012c0-46.37,13.418-89.596,36.541-126.013       c0.322-0.52,0.619-1.015,0.966-1.51c8.962-13.913,19.36-26.787,30.996-38.447c0.569-0.594,1.139-1.189,1.733-1.708       c13.938-13.79,29.609-25.797,46.617-35.749c0.198-0.099,0.371-0.223,0.594-0.322c0.619-0.396,1.238-0.718,1.832-1.065       c34.288-19.509,73.924-30.649,116.16-30.649c10.769,0,21.489,0.767,32.06,2.228h0.025c17.404,2.451,34.487,6.833,50.826,13.047       c0.025-0.025,0.025,0,0.025,0c0.049,0,0.099,0.025,0.124,0.05c22.43,8.467,43.523,20.35,62.437,35.179h0.025       c0.594,0.446,1.139,0.892,1.708,1.337c2.525,2.005,5.001,4.06,7.427,6.189c3.738,3.218,7.378,6.585,10.893,10.076       c0,0,0,0,0.025,0.025c0.792,0.743,1.56,1.51,2.302,2.302c0.545,0.52,1.065,1.065,1.584,1.609       c5.199,5.348,10.15,10.967,14.829,16.835c4.382,5.496,8.492,11.19,12.279,17.008c0.396,0.545,0.743,1.089,1.089,1.634       c0.248,0.371,0.495,0.743,0.718,1.139c6.363,9.927,11.883,20.3,16.587,30.971c7.749,17.553,13.27,35.947,16.562,54.763       c2.897,16.414,4.11,33.149,3.565,49.935v0.025c-0.074,2.302-0.173,4.58-0.322,6.882l-74.804,36.51l-28.861,66.106       l-83.347-20.986L179.518,484.707c-2.129-0.743-4.258-1.51-6.363-2.327l-56.775-114.997L24.465,299.326z"/>
				</g>
				<g style="opacity:0.29;">
					<g>
						<g>
							<path style="fill:#FFA073;" d="M148.993,248.97c-0.173,0.372-0.322,0.718-0.446,0.991         c-3.491,7.798-7.378,15.473-11.487,23.024c-0.173,0.347-0.371,0.668-0.545,1.015c-2.649,4.827-5.372,9.605-8.17,14.334         c-5.075,8.64-10.324,17.132-15.498,25.524c-17.305,27.95-35.155,56.842-45.033,88.58c-0.198-0.198-0.371-0.446-0.47-0.643         c9.952-31.639,27.728-60.382,44.959-88.259c5.125-8.294,10.299-16.711,15.3-25.277c3.095-5.174,6.09-10.422,8.937-15.72         c0.248-0.421,0.47-0.817,0.668-1.238c3.837-7.105,7.477-14.31,10.745-21.613c0.05-0.124,0.099-0.223,0.149-0.347         c2.03-4.654,2.674-9.111,1.783-12.18c-0.05-0.248-0.124-0.495-0.223-0.718c-0.693-1.683-1.906-2.921-3.639-3.639         c-2.179-0.916-4.803-0.792-7.254,0.297c-1.461,0.668-2.921,1.337-4.357,2.03c-16.81,8.12-31.961,18.964-46.197,31.02         c-1.758,1.461-3.466,2.946-5.174,4.456c-5.768,5.075-11.413,10.324-16.959,15.671c-1.337,1.263-2.674,2.55-4.011,3.862         c-4.011,3.887-7.997,7.799-11.933,11.686c-6.833,6.759-13.79,13.592-20.944,20.276c-0.05-0.223-0.124-0.47-0.173-0.718         c7.031-6.585,13.913-13.344,20.672-20.028c3.738-3.689,7.501-7.378,11.289-11.042c1.807-1.783,3.615-3.516,5.447-5.273         c5.471-5.248,11.066-10.422,16.785-15.423c1.362-1.213,2.723-2.377,4.11-3.54c14.136-12.032,29.189-22.9,45.899-31.095         c1.733-0.842,3.515-1.683,5.298-2.476c2.599-1.139,5.422-1.287,7.724-0.297c1.906,0.792,3.268,2.129,4.011,4.011         c0.124,0.322,0.248,0.668,0.347,1.015C151.642,241.296,150.082,246.223,148.993,248.97z"/>
						</g>
						<g>
							<path style="fill:#FFA073;" d="M205.984,262.81c-0.198,0.718-0.495,1.436-0.916,2.179         c-5.917,10.398-12.255,20.647-18.791,30.773c-6.66,10.323-13.517,20.523-20.276,30.525c-0.025,0.049-0.05,0.124-0.099,0.173         c-23.915,35.65-48.648,72.464-63.7,113.214c-0.173-0.124-0.347-0.272-0.52-0.421c15.052-40.775,39.785-77.564,63.7-113.164         c0.099-0.149,0.198-0.272,0.297-0.421c6.709-10.002,13.542-20.177,20.202-30.476c6.462-10.051,12.775-20.227,18.667-30.525         c0.347-0.619,0.594-1.213,0.767-1.807c1.04-3.441-0.52-6.561-2.847-8.343c-2.723-2.079-7.006-2.649-10.324,0.669         c-1.683,1.683-3.466,3.54-5.62,5.842c-1.164,1.263-2.327,2.525-3.441,3.788c-3.54,3.862-7.006,7.798-10.447,11.834         c-7.204,8.393-14.26,17.157-21.217,26.341c-13.963,18.419-27.555,38.448-40.973,60.407c-1.04,1.708-2.104,3.441-3.144,5.149         c-9.234,15.275-18.815,31.045-32.011,43.449c-0.173-0.149-0.322-0.347-0.396-0.495         c13.096-12.379,22.628-28.075,31.862-43.275c1.04-1.733,2.104-3.441,3.144-5.174c13.468-22.034,27.109-42.137,41.121-60.58         c6.981-9.185,14.037-17.974,21.242-26.366c3.268-3.813,6.561-7.551,9.878-11.215c1.312-1.46,2.624-2.896,3.936-4.308         c2.129-2.302,3.912-4.159,5.595-5.842c3.615-3.639,8.219-2.971,11.165-0.718C205.315,255.903,206.999,259.195,205.984,262.81         z"/>
						</g>
						<g>
							<path style="fill:#FFA073;" d="M255.621,440.615c-7.947,8.962-16.835,17.206-26.317,24.534         c-2.08,1.585-4.283,3.045-6.734,3.045c-1.287,0-2.599-0.396-4.011-1.362c-2.897-1.98-4.407-5.669-3.862-9.407         c2.946-19.756,8.17-39.191,15.572-57.758c1.708-4.308,3.59-8.665,5.372-12.873c6.734-15.746,13.715-32.011,14.384-49.192         c-8.219,0.52-14.805,6.857-19.657,12.354c-2.104,2.401-4.134,4.852-6.09,7.378c-11.042,14.26-19.855,30.377-28.421,46.023         c-5.892,10.745-11.883,21.712-18.667,32.135c-5.348,8.269-11.19,16.191-17.825,23.445c-1.213,1.312-2.55,2.624-4.308,2.921         c-2.798,0.446-5.199-2.03-5.843-4.58c-0.619-2.525,0.025-5.075,0.767-7.724c6.684-23.197,17.454-45.132,28.718-66.349         c2.55-4.803,5.125-9.581,7.699-14.335c10.101-18.692,20.548-37.977,28.57-57.931l0.099-0.272         c1.733-4.283-0.421-7.922-3.317-9.655c-2.03-1.213-4.778-1.634-7.254-0.47c-0.966,0.446-1.906,1.164-2.723,2.154         c-1.906,2.302-3.763,4.629-5.546,7.006c-8.219,10.67-15.547,22.108-22.331,33.917c-9.457,16.389-17.899,33.546-26.193,50.355         c-9.507,19.31-19.31,39.215-30.525,57.783c-0.173-0.124-0.371-0.248-0.52-0.421c11.215-18.518,20.994-38.398,30.476-57.634         c8.368-17.008,16.909-34.313,26.49-50.9c6.759-11.71,14.062-23.074,22.207-33.67c1.758-2.327,3.59-4.605,5.447-6.858         c1.114-1.362,2.426-2.203,3.738-2.649c2.451-0.842,5.05-0.372,7.081,0.842c3.119,1.832,5.447,5.793,3.59,10.447l-0.124,0.247         c-8.021,20.004-18.469,39.339-28.594,58.006c-2.748,5.075-5.521,10.2-8.219,15.349         c-11.066,20.895-21.588,42.434-28.149,65.21c-0.718,2.55-1.337,5.025-0.743,7.402c0.569,2.277,2.723,4.456,5.1,4.085         c1.535-0.273,2.773-1.461,3.912-2.699c6.882-7.501,12.923-15.745,18.419-24.336c6.511-10.125,12.304-20.722,17.998-31.12         c9.185-16.76,18.642-34.065,30.897-49.093c0,0,0-0.025,0.025-0.025c1.188-1.485,2.426-2.971,3.689-4.407         c4.976-5.669,11.834-12.205,20.474-12.601h0.322v0.322c-0.619,17.454-7.65,33.892-14.458,49.786         c-1.807,4.209-3.664,8.566-5.372,12.849c-7.378,18.543-12.601,37.953-15.547,57.634c-0.495,3.466,0.916,6.907,3.615,8.789         c3.788,2.599,6.882,0.693,9.952-1.683c9.482-7.303,18.32-15.523,26.267-24.46L255.621,440.615z"/>
						</g>
					</g>
					<g>
						<g>
							<path style="fill:#FFA073;" d="M331.665,77.851c-1.361,0.976-2.749,1.85-4.058,2.672         c-14.102,8.605-28.975,16.722-43.36,24.582c-39.507,21.603-80.349,43.899-109.556,78.885         c-2.569,3.057-3.57,7.013-2.697,10.557c0.642,2.646,2.132,4.598,4.418,5.831c4.803,2.62,12.124,1.541,17.39-0.308         c13.255-4.701,25.918-11.79,38.145-18.649c18.597-10.403,37.811-21.166,59.183-23.504c1.798-0.206,4.341-0.257,5.6,1.49         c2.03,2.749-1.259,6.268-2.312,7.295c-4.958,4.804-10.455,9.145-15.772,13.332c-4.906,3.905-9.992,7.912-14.642,12.253         c-8.785,8.271-14.667,16.851-17.416,25.507c-0.565,1.773-0.154,3.673,1.105,5.06c1.233,1.362,3.031,1.952,4.829,1.567         c11.405-2.389,22.168-8.169,30.337-16.286l0.437,0.462c-8.246,8.194-19.137,14.051-30.645,16.466         c-0.385,0.077-0.796,0.128-1.182,0.128c-1.618,0-3.134-0.668-4.264-1.901c-1.387-1.567-1.85-3.699-1.233-5.703         c2.8-8.734,8.708-17.416,17.596-25.764c4.649-4.367,9.761-8.4,14.668-12.278c5.317-4.187,10.814-8.528,15.746-13.306         c0.95-0.925,3.956-4.136,2.235-6.473c-1.079-1.464-3.365-1.387-5.009-1.207c-21.243,2.312-40.406,13.049-58.926,23.427         c-12.278,6.858-24.968,13.948-38.274,18.675c-5.369,1.901-12.921,2.98-17.904,0.282c-2.466-1.31-4.059-3.416-4.752-6.242         c-0.899-3.75,0.154-7.912,2.852-11.123c29.283-35.063,70.177-57.411,109.735-79.039         c14.385-7.835,29.232-15.977,43.334-24.582c1.284-0.796,2.672-1.644,4.007-2.62c2.363-1.696,2.389-4.29,1.695-5.985         c-0.693-1.747-2.543-3.647-5.446-3.211c-4.316,0.591-8.785,2.337-12.227,3.827c-39.815,17.159-78.705,38.017-116.286,58.181         c-30.182,16.209-61.418,32.957-92.962,47.701c-9.967,4.675-21.474,9.324-31.981,5.497l-0.154-0.077l-0.051-0.154         c-1.927-6.679,3.159-13.023,7.783-17.827c35.191-36.348,78.68-68.97,140.997-105.754c1.67-1.002,3.339-1.978,5.035-2.98         c10.044-5.882,20.421-11.996,30.131-18.675c2.723-1.901,2.671-4.906,1.464-6.884c-1.207-2.004-3.827-3.442-6.73-1.927         l-0.257,0.128c-10.48,5.42-21.012,11.174-31.184,16.774c-22.785,12.484-46.365,25.405-70.871,35.243         c-8.657,3.468-18.751,7.064-28.975,5.805l-0.282-0.026v-0.308c0.359-7.167,5.035-13.203,9.812-18.777         c2.697-3.134,5.42-6.267,8.194-9.35c0.617-0.385,1.233-0.719,1.85-1.053c-3.288,3.57-6.447,7.167-9.556,10.814         c-4.624,5.42-9.17,11.277-9.633,18.11c9.941,1.13,19.856-2.415,28.359-5.806c24.48-9.838,48.009-22.733,70.794-35.217         c10.172-5.6,20.704-11.354,31.184-16.774l0.257-0.154c3.313-1.695,6.242-0.051,7.578,2.183         c1.361,2.235,1.413,5.625-1.644,7.732c-9.736,6.704-20.113,12.818-30.157,18.726c-1.695,0.976-3.365,1.978-5.035,2.954         C160.717,96.86,117.281,129.431,82.115,165.727c-4.469,4.649-9.376,10.763-7.68,17.056         c10.249,3.648,21.551-0.925,31.338-5.497c31.544-14.744,62.754-31.492,92.936-47.701         c37.606-20.164,76.496-41.048,116.337-58.207c3.468-1.49,8.014-3.288,12.407-3.879c2.697-0.385,5.112,1.053,6.139,3.596         C334.594,73.639,333.849,76.285,331.665,77.851z"/>
						</g>
					</g>
					<g>
						<g>
							<path style="fill:#FFA073;" d="M416.939,308.366c0.026,0.026,0,0.026,0,0.026c-0.18,0.591-0.385,1.156-0.591,1.747         c-0.591-23.94-1.567-50.809-4.341-77.241c-1.31-12.51-3.211-26.895-9.196-39.481c-1.567-3.288-3.391-4.958-5.42-4.958         c-1.901,0-3.648,1.464-5.292,4.47c-8.554,15.695-9.17,34.292-9.761,52.273v0.154c-1.413,43.36-4.007,87.234-7.706,130.465         c-0.205,2.286-1.721,4.084-3.93,4.701c-0.488,0.103-0.95,0.18-1.412,0.18c-1.747,0-3.391-0.848-4.444-2.338         c-2.569-3.75-4.444-8.914-5.703-15.823c-4.393-24.3-5.934-49.396-7.449-73.671c-1.284-20.935-2.62-42.589-5.78-63.678         c-1.13-7.398-2.671-16.054-5.703-23.992c-0.745-1.978-2.62-3.16-4.752-2.954c-2.158,0.18-3.827,1.669-4.238,3.801         c-1.438,7.321-1.747,15.156-1.926,21.886c-1.002,37.298,0.822,75.135,2.594,111.739l1.567,32.315         c0.154,3.39-2.312,5.266-4.675,5.548c-2.363,0.282-5.215-0.925-5.857-4.264l-0.051-0.205         c-2.723-14.025-3.827-28.59-4.906-42.692c-1.747-22.759-3.545-46.288-12.176-67.686c-0.462-1.156-0.976-2.209-1.49-3.134         c-0.976-1.721-2.8-2.62-4.752-2.363c-1.927,0.257-3.416,1.593-3.904,3.442c-9.632,37.272-12.895,75.597-9.709,113.897         l-0.642,0.051c-3.185-38.377,0.077-76.779,9.735-114.102c0.539-2.132,2.235-3.622,4.418-3.905         c2.235-0.308,4.29,0.719,5.394,2.646c0.565,0.976,1.079,2.055,1.541,3.236c8.657,21.474,10.48,45.055,12.227,67.865         c1.079,14.077,2.184,28.641,4.906,42.615l0.026,0.205c0.591,2.954,3.005,4.007,5.163,3.75         c2.158-0.257,4.264-1.875,4.11-4.881l-1.567-32.314c-1.772-36.604-3.596-74.467-2.594-111.765         c0.18-6.781,0.488-14.616,1.927-22.014c0.462-2.415,2.363-4.11,4.829-4.315c2.415-0.231,4.547,1.104,5.394,3.365         c3.057,8.014,4.624,16.697,5.728,24.12c3.185,21.115,4.521,42.795,5.806,63.755c1.49,24.249,3.056,49.319,7.449,73.594         c1.233,6.807,3.057,11.893,5.6,15.541c1.413,2.055,3.57,2.338,5.138,1.901c1.541-0.411,3.262-1.695,3.467-4.11         c3.699-43.206,6.293-87.105,7.706-130.439v-0.129c0.591-18.084,1.207-36.758,9.838-52.581         c1.773-3.237,3.699-4.804,5.857-4.804c2.312,0,4.315,1.798,5.985,5.317c6.062,12.689,7.963,27.151,9.273,39.712         C415.346,258.636,416.373,284.863,416.939,308.366z"/>
						</g>
					</g>
				</g>
				<g>
					<g>
						<g>
							<path style="fill:#411C36;" d="M105.025,113.698c-1.56-5.62-4.332-10.695-7.947-14.681c-2.327-2.55-4.134-3.738-5.298-4.382         c-0.594,0.52-1.164,1.114-1.733,1.708c0.891,0.52,2.946,1.337,5.669,3.887c3.738,3.466,6.041,8.615,7.526,13.963         c3.961,14.161-0.718,30.278-11.661,40.107c-5.768,5.199-13.022,8.615-20.053,11.958c-1.857,0.866-3.738,1.758-5.595,2.674         c-8.046,4.011-17.899,9.853-22.628,19.608c-2.946,6.115-3.466,13.27-1.584,19.731c-9.705,10.67-12.255,27.703-5.57,40.552         c3.961,7.601,10.646,12.923,17.8,14.335c0.693,0.124,1.386,0.248,2.104,0.297c4.63,0.396,9.606-1.263,13.295-4.382         c3.194-2.748,5.125-6.313,5.397-10.076c0.371-4.704-1.584-9.036-3.466-13.196c-1.411-3.144-2.897-6.387-3.317-9.704         c-0.743-5.719,1.857-11.883,6.536-15.35c3.986-2.946,9.507-3.862,14.31-2.525c0.767,0.223,1.51,0.495,2.253,0.817         c0.47,0.223,1.015,0.025,1.238-0.446c0.198-0.445,0-0.99-0.446-1.213c-1.04-0.47-2.055-0.817-3.169-1.089H88.66         c-5.199-1.288-10.893-0.198-15.25,2.971c-5.273,3.887-8.12,10.596-7.279,17.058c0.47,3.59,1.981,6.957,3.466,10.2         c1.882,4.159,3.664,8.095,3.342,12.329c-0.272,3.268-1.981,6.387-4.803,8.813c-3.317,2.822-7.774,4.307-11.933,3.936         c-7.279-0.594-14.359-5.818-18.419-13.641c-6.189-11.859-4.035-27.53,4.605-37.656c0.52,1.337,1.114,2.624,1.807,3.862         c2.599,4.531,7.749,8.64,12.874,7.031c4.679-1.461,6.759-7.105,6.065-11.735c-0.248-1.807-0.99-4.308-2.946-6.115         c-4.407-3.936-11.264-1.56-15.745,2.302c-0.421,0.347-0.842,0.718-1.238,1.114c-1.411-5.793-0.842-12.032,1.758-17.429         c4.481-9.235,13.988-14.879,21.786-18.741c1.832-0.916,3.714-1.783,5.57-2.674c4.729-2.228,9.556-4.531,14.012-7.378         c0-0.025,0.025-0.025,0.025-0.025c1.04-0.644,2.03-1.337,3.02-2.104c0.025,0,0.025-0.025,0.05-0.05         c1.164-0.817,2.302-1.733,3.367-2.699c1.708-1.535,3.293-3.218,4.679-5.025c0.718-0.891,1.362-1.807,1.981-2.748         C105.99,137.96,108.243,125.21,105.025,113.698z M45.633,207.032c4.035-3.466,9.928-5.372,13.295-2.302         c1.584,1.411,2.179,3.491,2.401,4.976c0.594,3.862-1.089,8.566-4.803,9.729c-4.184,1.312-8.492-2.302-10.72-6.189         c-0.842-1.436-1.485-2.946-2.005-4.481C44.37,208.171,44.989,207.602,45.633,207.032z"/>
						</g>
					</g>
					<g>
						<g>
							<g>
								<g>
									<polygon style="fill:#FF6A6C;" points="208.194,168.007 217.412,212.925 216.625,212.944 210.539,213.199 209.608,213.249            107.96,217.237 105.909,196.507 199.166,170.516 200.022,170.294 206.633,168.456          "/>
								</g>
							</g>
						</g>
						<g>
							<g>
								<g>
									<path style="fill:#411C36;" d="M206.354,167.206c0,0,10.641,47.197,10.651,47.242c0.158,0.702,3.269,1.808,3.82,2.058           c3.451,1.567,7.151,2.606,10.902,3.129c8.959,1.249,20.227-0.298,27.46-6.065c4.272-3.406,7.132-8.361,8.685-13.599           c1.924-6.486,2.175-13.604,1.412-20.3c-1.071-9.404-5.375-18.425-13.685-23.361c-7.793-4.629-17.651-5.88-26.405-3.64           C211.408,157.221,206.354,167.206,206.354,167.206z"/>
								</g>
							</g>
						</g>
						<g>
							<g>
								<g>
									<path style="fill:#411C36;" d="M210.539,213.199l-0.931,0.05c-2.897-14.332-6.401-28.684-10.443-42.733l0.856-0.222           C204.115,184.407,207.627,198.795,210.539,213.199z"/>
								</g>
							</g>
						</g>
					</g>
					<g>
						<g>
							<g>
								<g>
									<path style="fill:#D26A49;" d="M80.846,283.436l14.533-84.405l92.311,6.578c0,0-0.911,25.926-12.989,32.373           c-12.078,6.447-31.874,11.671-34.611,16.829c-2.737,5.158-4.154,34.319-4.154,34.319L80.846,283.436z"/>
								</g>
							</g>
							<g>
								<g>
									<path style="fill:#D26A49;" d="M95.379,199.032c0,0,5.196-20.917,23.62-17.99c0,0,4.545-8.673,16.577-5.653           c0,0,10.792-12.422,22.064-2.505c0,0,5.139-5.915,14.018-4.14c8.878,1.776,10.679,7.159,10.994,16.069           c0,0,12.042,1.576,11.478,7.147c-0.564,5.572-10.78,36.306-12.616,38.945c-1.836,2.64-21.621,7.54-21.621,7.54           l-69.262-8.976L95.379,199.032z"/>
								</g>
							</g>
							<g>
								<g>
									<polygon style="fill:#FFE3BF;" points="104.73,197.419 88.304,200.795 89.436,217.223 104.502,216.465 104.039,206.866                     "/>
								</g>
							</g>
							<g>
								<g>
									<path style="fill:#411C36;" d="M109.607,220.366c-2.458-0.479-4.503-1.652-5.206-3.179           c-1.826-3.969,0.475-24.396,0.573-25.265c0.029-0.252,0.258-0.434,0.51-0.405c0.239,0.053,0.434,0.257,0.405,0.51           c-0.828,7.261-2.027,21.785-0.652,24.775c0.867,1.886,4.666,3.192,8.133,2.803c1.574-0.18,5.381-1.166,6.18-5.027           c0.052-0.248,0.229-0.255,0.477-0.207c0.001,0,0.004,0.001,0.005,0.001c0.249,0.052,0.409,0.296,0.358,0.544           c-0.651,3.134-3.17,5.177-6.915,5.603C112.16,220.67,110.832,220.604,109.607,220.366z"/>
								</g>
							</g>
							<g>
								<g>
									<path style="fill:#411C36;" d="M123.279,220.029c-0.085-0.017-0.166-0.057-0.233-0.122           c-3.877-3.765-5.111-9.705-5.805-15.019c-0.571-4.357-1.143-9.423-0.705-14.398c0.733-8.347,3.288-13.165,8.04-15.159           c5.388-2.263,10.915-0.457,11.147-0.378c0.241,0.081,0.37,0.342,0.29,0.584c-0.081,0.241-0.329,0.384-0.583,0.29           c-0.055-0.02-5.433-1.772-10.498,0.353c-4.402,1.847-6.779,6.421-7.478,14.391c-0.431,4.883,0.135,9.888,0.699,14.198           c0.675,5.157,1.861,10.91,5.535,14.479c0.182,0.176,0.187,0.468,0.009,0.651           C123.584,220.013,123.426,220.058,123.279,220.029z"/>
								</g>
							</g>
							<g>
								<g>
									<path style="fill:#411C36;" d="M134.983,214.825c-0.004-0.001-0.008-0.001-0.011-0.002           c-0.187-0.042-0.688-0.152-2.617-4.415c-1.934-4.276-1.129-18.822,0.884-28.971c2.164-10.913,9.328-12.661,14.528-13.026           c5.954-0.425,10.042,3.973,10.213,4.161c0.172,0.187,0.159,0.478-0.029,0.65c-0.188,0.17-0.482,0.159-0.65-0.029           c-0.039-0.043-3.966-4.255-9.47-3.865c-5.312,0.374-11.669,2.107-13.688,12.287c-1.945,9.808-2.783,24.357-0.95,28.413           c1.466,3.238,2.021,3.861,2.108,3.946c0.17,0.097,0.264,0.297,0.22,0.498C135.467,214.716,135.228,214.873,134.983,214.825           z"/>
								</g>
							</g>
							<g>
								<g>
									<path style="fill:#411C36;" d="M151.918,210.458c-0.097-0.019-0.189-0.069-0.258-0.149           c-1.705-1.946-1.978-3.716-2.576-7.596c-0.626-4.058,2.108-16.436,5.52-24.989c3.403-8.534,10.611-11.555,20.318-8.488           c9.539,3.009,8.201,15.505,8.187,15.63c-0.03,0.254-0.258,0.433-0.51,0.405c-0.276-0.063-0.433-0.259-0.405-0.51           c0.014-0.119,1.263-11.868-7.549-14.648c-9.176-2.888-15.986-0.07-19.186,7.952c-3.302,8.28-6.06,20.648-5.465,24.507           c0.587,3.809,0.832,5.387,2.358,7.131c0.168,0.19,0.149,0.481-0.043,0.649C152.197,210.45,152.052,210.484,151.918,210.458           z"/>
								</g>
							</g>
							<g>
								<g>
									<path style="fill:#411C36;" d="M116.211,228.525c-0.044-0.008-0.088-0.024-0.13-0.046c-0.223-0.121-0.307-0.4-0.188-0.623           c0.182-0.34,4.564-8.348,14.12-12.217c8.865-3.589,28.27-6.944,30.813-7.375c0.984-2.933,9.249-26.147,23.395-23.394           c0.013,0.002,0.023,0.005,0.034,0.007c0.348,0.032,9.431,1.136,10.457,6.489c0.048,0.249-0.117,0.491-0.366,0.539           c-0.251,0.048-0.491-0.116-0.539-0.366c-0.898-4.686-9.6-5.743-9.695-5.752c-0.009-0.002-0.019-0.004-0.029-0.006           c-14.017-2.728-22.387,22.774-22.47,23.033c-0.053,0.164-0.192,0.284-0.363,0.313c-0.214,0.035-21.537,3.578-30.893,7.367           c-9.236,3.738-13.61,11.718-13.653,11.798C116.607,228.473,116.405,228.563,116.211,228.525z"/>
								</g>
							</g>
							<g>
								<g>
									<path style="fill:#411C36;" d="M187.807,213.766c-0.001,0-0.002-0.001-0.004-0.001c-2.288-0.468-4.38-1.971-5.74-4.128           c-1.202-1.904-1.825-4.263-1.803-6.825c0.033-3.674,1.5-7.004,3.923-8.908c2.833-2.225,7.08-2.221,9.467,0.006           c0.185,0.173,0.195,0.464,0.022,0.651c-0.172,0.188-0.462,0.197-0.651,0.022c-2.069-1.935-5.778-1.911-8.269,0.045           c-2.204,1.732-3.539,4.794-3.569,8.191c-0.021,2.386,0.553,4.573,1.66,6.326c1.226,1.946,3.102,3.301,5.145,3.717           c0.25,0.051,0.409,0.295,0.36,0.543C188.295,213.654,188.054,213.814,187.807,213.766z"/>
								</g>
							</g>
							<g>
								<g>
									<path style="fill:#411C36;" d="M152.465,206.508c-1.353-0.263-2.655-0.907-2.983-2.102           c-0.063-0.227,0.072-0.462,0.299-0.525c0.227-0.063,0.462,0.07,0.524,0.299c0.291,1.06,1.964,1.579,3.49,1.616           c2.069,0.054,4.042-0.543,5.413-1.64c1.584-1.269,2.283-3.071,2.591-4.357c0.408-1.718,0.477-3.584,0.481-4.932           c-2.644-0.818-5.454-0.51-8.179-0.223c-1.201,0.128-2.44,0.259-3.654,0.295c-0.244,0.014-0.432-0.179-0.44-0.413           c-0.007-0.236,0.178-0.434,0.413-0.44c1.183-0.036,2.408-0.165,3.591-0.29c2.916-0.31,5.93-0.626,8.833,0.357           c0.173,0.058,0.288,0.221,0.29,0.402c0.004,1.406-0.044,3.5-0.505,5.442c-0.338,1.417-1.114,3.405-2.888,4.826           c-1.526,1.221-3.701,1.886-5.968,1.827C153.352,206.638,152.906,206.593,152.465,206.508z"/>
								</g>
							</g>
							<g>
								<g>
									<path style="fill:#411C36;" d="M147.235,202.724c0-1.56-0.198-4.877-0.966-5.595c-0.173-0.173-0.371-0.223-0.52-0.198           c-4.456,0.198-8.838,1.114-13.047,2.649c-0.173,0.049-0.297,0.223-0.297,0.421v0.817c-0.025,0.297-0.025,0.569-0.025,0.866           c0,2.574,0.223,5.372,2.253,7.402c0.99,1.015,2.253,1.658,3.59,1.931c1.683,0.322,3.466,0.025,5.1-0.891           c2.426-1.386,3.961-4.109,3.936-6.932C147.26,203.046,147.26,202.923,147.235,202.724z M146.344,203.195           c0.05,2.525-1.337,4.926-3.491,6.139c-2.55,1.436-5.595,1.089-7.576-0.891c-1.783-1.758-1.956-4.233-1.981-6.684v-0.025           c0.025-0.322,0.025-0.594,0.025-0.891v-0.52c3.986-1.436,8.145-2.253,12.354-2.476c0.347,0.47,0.594,2.748,0.668,4.803           v0.025C146.344,202.873,146.369,203.021,146.344,203.195z"/>
								</g>
							</g>
							<g>
								<g>
									<path style="fill:#411C36;" d="M121.918,217.455c-0.172-0.034-0.343-0.08-0.512-0.143c-0.24-0.089-0.362-0.352-0.274-0.59           c0.087-0.239,0.109-0.443,0.35-0.358c1.066,0.392,2.532,0.039,3.601-0.437c1.258-0.561,2.658-1.296,3.499-2.491           c1.059-1.507,1.434-3.863,1.117-7.002c-0.012-0.124-0.023-0.284-0.036-0.465c-0.036-0.547-0.122-1.828-0.385-2.11           c-0.207-0.22-0.569-0.203-1.142-0.156c-0.125,0.011-0.246,0.021-0.368,0.028c-2.922,0.156-6.046,0.823-9.834,2.096           c-0.239,0.082-0.503-0.05-0.584-0.29c-0.081-0.241,0.05-0.503,0.29-0.584c3.87-1.3,7.072-1.981,10.079-2.142l0.339-0.025           c0.608-0.051,1.368-0.115,1.894,0.445c0.45,0.483,0.552,1.497,0.631,2.675c0.011,0.17,0.021,0.32,0.032,0.435           c0.34,3.366-0.09,5.931-1.28,7.624c-0.968,1.379-2.503,2.191-3.876,2.803C124.374,217.251,123.128,217.69,121.918,217.455z           "/>
								</g>
							</g>
							<g>
								<g>
									<path style="fill:#411C36;" d="M110.594,217.12c-0.288-0.056-0.573-0.128-0.854-0.217c-1.05-0.33-1.839-0.826-2.345-1.476           c-0.544-0.698-0.763-1.553-0.925-2.302c-0.466-2.153-0.433-4.427-0.404-6.432c0.004-0.213,0.152-0.397,0.359-0.442           c3.715-0.836,7.518-1.478,11.302-1.906c0.253-0.025,0.481,0.151,0.509,0.406c0.029,0.252-0.152,0.48-0.406,0.509           c-3.631,0.412-7.279,1.02-10.849,1.81c-0.025,1.864-0.027,3.937,0.39,5.86c0.14,0.649,0.326,1.386,0.749,1.932           c0.389,0.499,1.028,0.891,1.895,1.164c3.178,1.01,6.929-0.328,8.776-3.071c0.142-0.212,0.427-0.27,0.639-0.125           c0.211,0.141,0.267,0.428,0.125,0.638C117.653,216.292,113.927,217.769,110.594,217.12z"/>
								</g>
							</g>
						</g>
						<g>
							<g>
								<path style="fill:#FFE3BF;" d="M139.915,270.765l-3.746,16.133c0,0,4.597,3.86,5.079,4.324          c11.342,10.933,20.519,24.903,26.882,39.256c14.525,32.766,11.437,68.838,9.161,103.7c-0.049,0.446-0.074,0.867-0.099,1.313          c-1.035,15.597-2.318,31.205-4.072,46.738c-3.879-1.173-7.078-2.657-10.337-4.083          c-53.391-23.358-97.526-67.282-121.159-120.559c-8.21-18.507-14.09-38.164-17.158-58.186c0,0,0-0.074,0.001-0.074          c6.752-2.986,13.914-4.892,21.13-6.375c1.784-0.367,19.245-2.308,19.52-3.28c0.489-1.718,6.445-25.17,7.106-25.103          L139.915,270.765z"/>
							</g>
						</g>
					</g>
				</g>
				<g>
					<g>
						<g>
							<polygon style="fill:#D26A49;" points="446.671,270.707 366.483,298.287 361.185,280.561 353.956,256.398 347.222,213.395          424.885,194.654 436.768,191.782        "/>
						</g>
						<g style="opacity:0.45;">
							<path style="fill:#411C36;" d="M415.057,247.114c-4.035,5.57-8.467,10.844-13.616,15.374         c-8.368,7.353-25.871,17.478-40.255,18.073l-7.229-24.163l-6.734-43.003l77.663-18.741c1.114,2.08,2.03,4.283,2.699,6.61         C432.139,217.034,424.687,233.819,415.057,247.114z"/>
						</g>
					</g>
					<g>
						<g>
							<path style="fill:#D26A49;" d="M428.899,114.711c0,0,2.251,10.158,3.913,24.897c1.686,14.843,3.475,34.216,3.962,52.183         c0.62,21.108-0.54,40.271-5.767,47.991c-14.061,20.805-107.118,43.342-127.272,22.163         c-8.963-9.412-17.385-35.05-23.991-60.57c-5.095-19.716-9.095-39.389-11.396-51.513c-0.805-4.021-0.81-4.535-1.416-7.771         c-3.137-16.766-2.873-32.166,2.768-46.976c9.472-24.808,30.703-44.621,58.506-51.08         c44.444-10.323,88.815,17.32,99.133,61.738C428.031,108.759,428.533,111.733,428.899,114.711L428.899,114.711z"/>
						</g>
						<g>
							<g>
								<path style="fill:#D26A49;" d="M469.902,172.549c-2.366,5.103-6.128,9.447-10.522,12.935          c-5.654,4.485-12.521,7.598-19.72,7.996c-12.873,0.713-26.945-9.219-25.016-23.438c0.615-4.588,4.143-7.956,6.449-11.799          c3.84-6.341,6.743-12.518,12.267-17.677c6.018-5.6,14.554-9.697,22.419-7.349c0.083,0.008,0.14,0.022,0.229,0.055          c0.382,0.128,0.764,0.256,1.152,0.41c3.341,1.311,6.196,3.684,8.488,6.432C473.039,148.941,474.771,162.12,469.902,172.549z          "/>
							</g>
							<g>
								<g>
									<path style="fill:#411C36;" d="M457.16,133.682c-12.983,12.611-21.365,30.091-22.57,48.126           c-0.011,0.301-0.227,0.541-0.51,0.607c-0.051,0.012-0.103,0.024-0.186,0.016c-0.358-0.025-0.648-0.338-0.597-0.702           c1.181-18.138,9.539-35.721,22.48-48.512c0.083,0.008,0.14,0.022,0.229,0.055C456.39,133.4,456.772,133.528,457.16,133.682           z"/>
								</g>
							</g>
						</g>
						<g>
							<path style="fill:#411C36;" d="M429.631,114.595c0,0,2.066,11.231,3.728,25.971c-2.821,5.128-7.486,8.733-11.492,13.078         c-0.862,0.959-1.774,1.93-3.005,2.351c-2.926,1.059-5.993-1.644-7.001-4.581c-1.417-4.117-0.317-8.601,0.223-12.928         c0.54-4.327,0.22-9.322-3.115-12.125c-3.84-3.228-9.651-1.987-14.502-3.381c-6.827-1.965-10.966-9.163-12.11-16.19         c-1.124-7.058,0.027-14.238-0.027-21.354c-0.01-2.492-0.178-5.082-1.248-7.355c-2.16-4.513-7.489-6.799-12.468-6.646         c-4.979,0.154-9.696,2.252-14.096,4.549c-10.377,5.392-20.069,11.981-30.507,17.224c-10.444,5.218-21.898,9.125-33.565,8.61         c-6.957-0.308-14.728-2.488-20.749-6.701c9.472-24.808,30.703-44.621,58.506-51.08         c44.444-10.323,88.835,14.035,99.153,58.453c0.693,2.984,1.626,7.46,1.992,10.438L429.631,114.595z"/>
						</g>
						<g>
							<g>
								<path style="fill:#411C36;" d="M438.698,193.512c0.62,21.108-2.464,38.551-7.691,46.271          c-14.061,20.805-107.118,43.342-127.272,22.163c-8.963-9.412-17.385-35.05-23.991-60.57          c6.813,8.556,17.948,13.668,28.951,11.79c5.216-0.886,10.435-3.156,15.624-2.057c3.504,0.731,6.719,3.02,10.297,2.786          c6.091-0.385,9.811-7.592,15.828-8.529c1.619-0.267,3.325-0.04,4.866-0.642c1.669-0.632,2.829-2.175,4.331-3.175          c3.699-2.513,8.627-1.489,13.086-1.196c9.699,0.675,19.586-2.625,26.98-8.951c7.369-6.32,12.123-15.611,12.913-25.282          c0.486-5.724-1.211-11.664-1.352-17.405c-0.059-2.236,0.852-4.355,1.821-6.369c0.969-2.014,3.09-3.618,5.295-3.344          c2.263,0.288,3.898,2.429,4.412,4.64c0.539,2.206,0.206,4.506,0.002,6.776c-0.866,10.394,1.473,21.046,6.618,30.124          C431.62,184.423,436.256,189.769,438.698,193.512z"/>
							</g>
							<g>
								<path style="fill:#D26A49;" d="M320.418,224.318c-2.525,2.117-4.93,4.487-6.417,7.427c-1.564,3.093-2.016,6.629-2.12,10.094          c-0.099,3.311,0.105,6.677,1.158,9.818c1.053,3.141,3.026,6.059,5.863,7.77c3.852,2.323,8.758,2.14,13.082,0.9          c4.324-1.241,8.309-3.432,12.527-4.996c8.096-3.002,16.839-3.63,25.356-5.053c4.416-0.738,8.862-1.721,12.807-3.837          c3.945-2.116,7.381-5.506,8.695-9.786c1.804-5.874-0.774-12.476-5.25-16.686c-4.476-4.21-10.537-6.348-16.584-7.442          C352.838,209.507,333.509,213.344,320.418,224.318z"/>
							</g>
							<g>
								<g>
									<path style="fill:#411C36;" d="M334.379,214.655c-2.304,0.002-4.494-0.924-6.624-1.823c-2.235-0.945-4.37-1.84-6.564-1.746           c-0.39,0.017-0.791,0.06-1.191,0.106c-1.281,0.145-2.738,0.305-3.966-0.471c-1.759-1.11-2.192-3.443-1.289-6.929           c3.326-12.867,6.234-25.48,5.301-38.354c-0.025-0.365,0.248-0.679,0.612-0.706c0.32-0.075,0.679,0.247,0.706,0.609           c0.947,13.075-1.986,25.804-5.339,38.78c-0.743,2.87-0.504,4.714,0.714,5.483c0.837,0.532,1.945,0.404,3.115,0.276           c0.432-0.048,0.862-0.097,1.281-0.114c2.513-0.08,4.862,0.887,7.133,1.85c2.474,1.044,4.814,2.028,7.234,1.63           c2.435-0.406,4.331-2.111,6.338-3.914c1.833-1.646,3.726-3.348,6.126-4.076c1.118-0.341,2.32-0.467,3.481-0.587           c2.097-0.218,4.077-0.426,5.267-1.837c0.637-0.757,0.863-1.688,0.94-2.335c0.3-2.497-1.2-5.157-3.49-6.189           c-0.332-0.15-0.481-0.542-0.331-0.873c0.151-0.331,0.546-0.476,0.873-0.331c2.841,1.281,4.631,4.456,4.259,7.55           c-0.141,1.185-0.571,2.234-1.24,3.029c-1.533,1.818-3.876,2.065-6.14,2.299c-1.101,0.116-2.239,0.235-3.235,0.537           c-2.12,0.646-3.824,2.176-5.628,3.796c-2.06,1.852-4.19,3.767-7.003,4.233           C335.267,214.621,334.821,214.655,334.379,214.655z"/>
								</g>
								<g>
									<path style="fill:#411C36;" d="M333.361,225.846c-1.24,0-2.481-0.06-3.716-0.181c-0.363-0.036-0.629-0.36-0.592-0.723           c0.034-0.363,0.357-0.638,0.72-0.592c9.482,0.94,19.241-1.876,26.779-7.703c0.288-0.22,0.705-0.172,0.926,0.118           c0.222,0.288,0.17,0.704-0.118,0.926C350.541,222.962,341.964,225.846,333.361,225.846z"/>
								</g>
							</g>
							<g>
								<g>
									<path style="fill:#411C36;" d="M304.554,181.021c0.899,3.869-1.509,7.733-5.377,8.632           c-3.868,0.898-7.733-1.509-8.632-5.377c-0.898-3.869,1.509-7.733,5.377-8.632           C299.791,174.744,303.656,177.152,304.554,181.021z"/>
								</g>
								<g>
									<path style="fill:#411C36;" d="M372.848,165.157c0.899,3.869-1.509,7.733-5.377,8.632           c-3.869,0.898-7.733-1.509-8.632-5.378c-0.899-3.868,1.509-7.733,5.377-8.632           C368.085,158.881,371.949,161.289,372.848,165.157z"/>
								</g>
								<g>
									<path style="fill:#411C36;" d="M283.436,170.447c1.807,1.169,4.13,1.109,6.264,0.826c2.941-0.389,5.837-1.124,8.608-2.184           c1.861-0.712,3.704-1.596,5.127-2.992c1.423-1.396,2.38-3.382,2.139-5.36c-0.738-6.054-10.588-8.688-15.387-6.474           C285.35,156.495,275.775,165.49,283.436,170.447z"/>
								</g>
								<g>
									<path style="fill:#411C36;" d="M375.979,149.182c-1.106,1.846-3.219,2.816-5.258,3.503           c-2.812,0.947-5.734,1.564-8.689,1.834c-1.985,0.181-4.029,0.2-5.921-0.425c-1.892-0.625-3.627-1.986-4.283-3.869           c-2.006-5.759,5.675-12.465,10.958-12.593C368.111,137.502,380.671,141.355,375.979,149.182z"/>
								</g>
							</g>
						</g>
						<g>
							<g>
								<path style="fill:#FFE3BF;" d="M425.527,95.881l-71.799-19.833l-92.817,46.239c0,0-13.41-53.296,0.96-71.841          c13.676-17.679,52.627-39.63,93.949-35.268c1.835,0.197,3.682,0.446,5.541,0.746c0.281,0.043,0.562,0.086,0.843,0.129          c43.626,7.514,54.653,37.129,56.666,44.278C420.883,67.481,425.527,95.881,425.527,95.881z"/>
							</g>
							<g>
								<g>
									<path style="fill:#FFC151;" d="M406.374,86.709l-1.274,0.35c-3.218-12.101-6.537-24.64-11.974-36.145           c-6.092-12.925-14.005-22.716-23.558-29.063c-4.041-2.694-8.654-4.929-13.749-6.674c1.835,0.197,3.682,0.446,5.541,0.746           c3.224,1.393,6.201,3.005,8.957,4.832c9.723,6.497,17.806,16.439,24.009,29.608           C399.813,61.966,403.145,74.557,406.374,86.709z"/>
								</g>
							</g>
							<g>
								<path style="fill:#FFC151;" d="M265.596,133.307c0,0,57.571-51.023,159.931-37.426c0,0-24.103-29.182-90.663-25.717          c-66.56,3.464-119.678,31.029-118.605,51.543S265.596,133.307,265.596,133.307z"/>
							</g>
						</g>
					</g>
				</g>
				<g>
					<path style="fill:#FFE3BF;" d="M491.754,278.085c0,0-1.632,26.342-6.562,43.195c-17.213,58.839-47.698,117.51-103.557,146.072       c-2.412,1.233-4.848,2.421-7.303,3.565c-60.289,28.1-131.12,36.021-194.813,13.79c9.284-37.754,36.739-138.095,70.78-159.212       c42.136-26.119,104.509-32.869,104.509-32.869l0.421-16.434l96.078-28.655l7.173,22.329       C458.48,269.865,491.754,278.085,491.754,278.085z"/>
				</g>
			</g>
		</g>
		<g>
			<g>
				<path style="fill:#FFC151;" d="M329.103,436.097c-0.083,0-0.169-0.017-0.249-0.053c-0.259-0.114-0.409-0.389-0.361-0.667      l24.02-144.118c0.056-0.336,0.381-0.549,0.712-0.51c0.337,0.058,0.566,0.377,0.509,0.713l-23.62,141.717l127.879-163.696      c0.208-0.268,0.601-0.314,0.868-0.106c0.27,0.21,0.318,0.6,0.106,0.87L329.59,435.86      C329.471,436.013,329.289,436.097,329.103,436.097z"/>
			</g>
			<g>
				<g>
					<g>
						<g>
							<path style="fill:#FFC151;" d="M310.485,406.212c19.563-6.598,40.771,3.912,47.37,23.475         c6.598,19.563-3.912,40.771-23.475,47.37c-19.563,6.598-40.771-3.912-47.37-23.475         C280.411,434.018,290.922,412.81,310.485,406.212z"/>
						</g>
					</g>
					<g>
						<g>
							<path style="fill:#FFE3BF;" d="M354.124,430.951c-2.872-8.467-8.838-15.3-16.835-19.286         c-4.828-2.376-10.052-3.54-15.275-3.491c-0.223,0-0.421,0-0.644,0.025c-3.243,0.099-6.486,0.693-9.63,1.758         c-8.467,2.847-15.3,8.838-19.261,16.835c-3.961,7.997-4.58,17.057-1.733,25.524c2.872,8.467,8.838,15.3,16.835,19.286         c7.997,3.961,17.082,4.555,25.549,1.708c8.442-2.847,15.3-8.838,19.261-16.835c1.453-2.933,2.557-6.222,3.07-9.482         C356.327,441.671,355.881,436.199,354.124,430.951z M353.019,451.494c-3.08,9.644-10.737,17.372-20.311,20.603         c-15.942,5.379-34.05-3.061-40.196-18.663c-0.197-0.5-0.382-1.005-0.554-1.515c-2.664-7.873-2.03-17.055,1.659-24.559         c3.671-7.467,10.615-13.532,18.543-16.191c15.296-5.13,32.358,2.244,39.16,16.77         C354.744,435.248,355.484,443.778,353.019,451.494z"/>
						</g>
					</g>
				</g>
			</g>
		</g>
		<g>
			<g>
				<path style="fill:#411C36;" d="M247.631,39.692c9.547,8.853,18.405,18.539,26.551,28.653l-43.334,7.833L247.631,39.692z"/>
			</g>
			<g>
				<g>
					<polygon style="fill:#FFC151;" points="246.509,388.905 248.779,347.635 258.535,387.621 294.702,385.059 263.142,397.68        274.193,431.515 254.435,403.056 239.378,434.847 245.333,402.836 207.206,389.958      "/>
				</g>
				<g>
					<polygon style="fill:#FFC151;" points="440.193,222.388 441.947,190.484 449.489,221.395 477.448,219.414 453.05,229.171        461.594,255.327 446.32,233.327 434.68,257.902 439.283,233.157 409.809,223.202      "/>
				</g>
				<g>
					<polygon style="fill:#FFC151;" points="154.128,100.029 137.019,62.404 164.19,93.319 195.054,74.291 172.933,100.098        198.403,124.963 167.708,108.897 169.094,144.046 159.54,112.919 119.785,119.171      "/>
				</g>
				<g>
					<g>
						<polygon style="fill:#FF6A6C;" points="72.596,347.29 134.59,341.832 105.181,392.933       "/>
					</g>
					<g>
						<path style="fill:#FFE3BF;" d="M252.729,294.771l-45.492-39.327l41.921-10.609        C252.061,261.249,253.268,277.998,252.729,294.771z"/>
					</g>
				</g>
			</g>
		</g>
	</g>
</g>















</svg>
