<?xml version="1.0" encoding="UTF-8"?>
<!-- Generator: Adobe Illustrator 25.3.1, SVG Export Plug-In . SVG Version: 6.00 Build 0)  -->
<svg xmlns="http://www.w3.org/2000/svg" xmlns:xlink="http://www.w3.org/1999/xlink" version="1.1" id="Capa_1" x="0px" y="0px" viewBox="0 0 512.243 512.243" style="enable-background:new 0 0 512.243 512.243;" xml:space="preserve" width="512" height="512">
<g>
	<g>
		<path style="fill:#FFFFFF;" d="M248.185,510.869c-49.128-0.571-98.243-14.669-138.92-42.463    C28.138,412.972-13.124,310.41,7.187,214.255c0.019-0.105,0.04-0.209,0.062-0.312c0.45-2.17,0.941-4.351,1.477-6.58    c-1.946-3.417-3.577-7.049-4.879-10.859c0,0-0.39-1.183-0.39-1.184c-15.016-45.553,21.02-95.348,67.123-100.867    c0,0,17.497-16.622,22.368-20.583c24.637-20.033,53.28-35.259,83.649-44.503c19.562-5.955,53.632-6.908,62.348-11.059    c20.451-9.738,41.551-16.954,64.359-16.954c73.691,0,137.261,54.083,149.301,126.376c0.778,4.673,7.368,11.599,9.781,15.876    c9.416,16.685,17.035,35.014,22.284,53.645c10.155,36.037,11.275,72.79,6.219,109.7c-0.048,0.348-0.109,0.691-0.183,1.029    c-0.017,0.083-0.074,0.46-0.09,0.562c-0.124,0.788-0.262,1.574-0.405,2.36c7.513,10.985,9.99,20.609,11.469,25.866    c4.23,15.025,6.853,30.974,9.868,46.249c1.076,5.452,1.224,11.525-1.913,16.112c-5.142,7.519-17.57,7.889-25.784,9.768    c-6.261,1.433-32.017,3.529-35.199,8.206c-0.553,0.812-1.107,1.617-1.662,2.398c0,0-0.322,0.483-0.439,0.651    C403.107,481.901,324.076,511.75,248.185,510.869z"/>
	</g>
	<g>
		<g>
			<g>
				<path style="fill:#7657AA;" d="M480.038,272.053c-1.406,56.475-21.707,116.074-61.535,157.482      c-26.023,27.054-60.375,45.357-96.618,55.134c-41.925,11.31-88.639,13.886-130.731,3.007      c-36.485-9.43-70.451-28.132-98.332-53.434c-16.446-14.925-30.802-32.176-42.287-51.194      C16.003,325.869,7.85,253.578,28.975,190.168c0.122-0.366,0.22-0.683,0.341-1.024C53.859,120.286,112.787,62.116,183.263,41.31      c73.113-21.584,155.149-4.267,213.822,44.242C451.533,130.568,481.788,201.737,480.038,272.053z"/>
			</g>
			<g style="opacity:0.24;">
				<g>
					<g>
						<path style="fill:#FFE3BF;" d="M123.247,248.448c-2.951,6.633-6.194,13.168-9.632,19.606l-0.439,0.804        c-2.463,4.584-5.023,9.144-7.657,13.656c-0.122,0.268-0.268,0.512-0.439,0.756c-1.219,2.121-2.438,4.218-3.682,6.291        c-1.951,3.292-3.926,6.511-5.901,9.754v0.024c-0.878,1.439-1.756,2.878-2.634,4.316c-0.61,1-1.219,1.975-1.829,2.975        c-0.975,1.56-1.926,3.121-2.902,4.682c-5.584,9.022-11.241,18.167-16.655,27.482c-8.071,13.899-15.631,28.189-21.63,43.064        c-0.195-0.219-0.317-0.414-0.439-0.658c6.17-15.143,13.899-29.652,22.166-43.795v-0.024        c5.218-8.925,10.656-17.704,16.021-26.409c1.073-1.731,2.146-3.462,3.219-5.218c0.61-0.975,1.195-1.951,1.804-2.926        c1.853-3.048,3.755-6.121,5.584-9.193l0.049-0.073c0.951-1.536,1.853-3.048,2.78-4.609v-0.024        c1.243-2.073,2.463-4.17,3.682-6.267c0.147-0.244,0.293-0.488,0.439-0.756c2.633-4.511,5.194-9.071,7.632-13.68        c0.146-0.268,0.293-0.537,0.439-0.805c3.365-6.316,6.535-12.729,9.461-19.24c2.268-5.072,2.902-9.949,1.683-13.021        c-0.683-1.683-1.902-2.878-3.585-3.585c-2.146-0.902-4.731-0.805-7.12,0.293c-12.192,5.438-23.458,12.363-34.139,20.167        c-5.121,3.731-10.071,7.681-14.924,11.802c-0.683,0.537-1.366,1.122-2.024,1.707c-12.583,10.73-24.434,22.41-36.114,33.92        c-1.829,1.829-3.682,3.633-5.536,5.438c-0.049-0.219-0.097-0.463-0.122-0.707v-0.024c1.731-1.732,3.487-3.463,5.218-5.17        c11.631-11.486,23.458-23.117,35.968-33.822c0.658-0.585,1.341-1.171,2.024-1.707c4.926-4.17,9.973-8.193,15.167-11.998        c10.705-7.827,21.995-14.753,34.212-20.191c2.56-1.122,5.34-1.268,7.608-0.292c1.877,0.78,3.219,2.097,3.95,3.926        C126.807,239.596,124.393,245.937,123.247,248.448z"/>
					</g>
					<g>
						<path style="fill:#FFE3BF;" d="M178.869,263.226c-4.706,8.291-9.705,16.484-14.851,24.58        c-7.73,12.193-15.777,24.166-23.678,35.895c-3.39,5.047-6.804,10.12-10.193,15.241        c-17.972,27.043-35.529,55.013-48.087,85.079c-0.171-0.171-0.317-0.341-0.463-0.487c12.559-30.14,30.189-58.109,48.209-85.201        c3.341-5.023,6.681-10.022,10.022-14.997c7.974-11.875,16.118-23.995,23.897-36.309c5.072-7.95,9.974-15.972,14.607-24.092        c2.317-4.048,0.634-7.95-2.048-9.998c-2.658-2.049-6.852-2.634-10.144,0.658c-1.634,1.658-3.389,3.463-5.511,5.73        c-1.707,1.854-3.414,3.731-5.096,5.609c-13.656,15.192-26.799,31.603-39.65,49.526c-4.584,6.364-9.12,12.948-13.607,19.728        c-0.853,1.244-1.682,2.511-2.511,3.779c-3.268,4.975-6.511,10.047-9.754,15.241v0.025c-1.415,2.243-2.829,4.511-4.219,6.803        c-1.049,1.683-2.073,3.389-3.097,5.072c-0.634,1.048-1.293,2.121-1.926,3.17c-0.024,0.049-0.049,0.073-0.073,0.122        c-6.169,10.144-12.607,20.386-20.289,29.579c-0.146-0.171-0.268-0.341-0.366-0.512c8.413-10.12,15.363-21.532,22.117-32.701        c0.415-0.683,0.829-1.366,1.268-2.072v-0.024c0.61-0.976,1.219-1.975,1.829-2.975c1.878-3.072,3.756-6.096,5.658-9.096v-0.024        c2.731-4.34,5.462-8.608,8.242-12.802c0.853-1.317,1.731-2.633,2.609-3.95c4.536-6.852,9.144-13.485,13.777-19.947        c12.876-17.947,26.043-34.407,39.748-49.599c1.609-1.805,3.243-3.585,4.877-5.364c2.097-2.268,3.877-4.097,5.511-5.755        c3.56-3.585,8.096-2.926,10.998-0.707C179.576,254.667,181.381,258.861,178.869,263.226z"/>
					</g>
					<g>
						<path style="fill:#FFE3BF;" d="M228.59,435.969c-2.39,2.682-4.853,5.316-7.389,7.852c-5.804,5.828-12.022,11.29-18.508,16.289        c-2.048,1.56-4.219,2.999-6.608,2.999c-1.268,0-2.56-0.366-3.95-1.341c-2.853-1.927-4.341-5.584-3.804-9.242        c0.634-4.267,1.39-8.535,2.243-12.778v-0.024c1.146-5.681,2.488-11.314,4.024-16.899v-0.024        c2.511-9.193,5.535-18.264,9.071-27.092c1.658-4.218,3.511-8.51,5.267-12.656c6.632-15.509,13.509-31.481,14.143-48.404        c-8.071,0.512-14.558,6.754-19.313,12.168c-4.341,4.926-8.34,10.168-12.071,15.582c-3.78,5.487-7.315,11.144-10.681,16.899        c-0.22,0.39-0.439,0.756-0.634,1.121c-0.317,0.537-0.634,1.073-0.927,1.61c-0.464,0.78-0.927,1.561-1.366,2.365        c-0.878,1.536-1.756,3.097-2.609,4.658c-0.61,1.073-1.219,2.17-1.829,3.267c-1.097,2-2.194,3.999-3.292,5.974        c-0.171,0.342-0.366,0.707-0.561,1.049c-4.048,7.389-8.12,14.851-12.509,22.191v0.024c-0.707,1.171-1.414,2.365-2.146,3.536        c-4.219,6.877-8.705,13.607-13.68,19.947c-0.512,0.683-1.049,1.341-1.585,2.024c-1.927,2.366-3.902,4.706-5.974,6.95        c-1.195,1.292-2.512,2.585-4.219,2.853c-2.756,0.463-5.145-1.975-5.779-4.487c-0.585-2.487,0.024-4.999,0.756-7.608        c0.634-2.17,1.292-4.34,1.999-6.486c0.293-0.902,0.585-1.78,0.878-2.658c4.487-13.338,10.242-26.263,16.508-38.87        c0.39-0.829,0.805-1.658,1.219-2.463c2.634-5.243,5.34-10.412,8.071-15.558c2.39-4.462,4.78-8.925,7.169-13.339        c6.389-11.802,12.924-23.873,18.874-36.211c3.292-6.828,6.389-13.729,9.218-20.752l0.097-0.293        c1.707-4.194-0.39-7.779-3.243-9.461c-2.805-1.707-6.95-1.829-9.852,1.634c-1.609,1.951-3.194,3.926-4.731,5.95        c-11.802,15.216-21.8,32.066-30.993,49.355c-5.121,9.608-9.974,19.337-14.753,29.018c-0.488,0.951-0.951,1.902-1.414,2.853        c-0.439,0.878-0.854,1.756-1.293,2.634c-3.414,6.974-6.901,13.997-10.461,21.044v0.024c-0.561,1.122-1.146,2.244-1.732,3.365        c-4.121,8.071-8.388,16.094-12.875,23.922c-0.195-0.122-0.341-0.244-0.488-0.39l-0.025-0.024        c4.585-7.974,8.925-16.167,13.119-24.385c0.61-1.17,1.195-2.341,1.804-3.536c3.439-6.779,6.779-13.582,10.096-20.312        c0.341-0.683,0.683-1.39,1.024-2.073c0.488-1,1-2.024,1.488-3.024c4.901-9.925,9.876-19.922,15.118-29.774        c9.218-17.289,19.264-34.139,31.115-49.38c1.487-1.926,2.999-3.804,4.536-5.657c3.097-3.78,7.584-3.634,10.632-1.805        c3.072,1.829,5.364,5.706,3.536,10.291l-0.122,0.244c-2.902,7.194-6.096,14.314-9.51,21.337        c-5.852,12.168-12.29,24.068-18.606,35.724c-2.463,4.535-4.926,9.095-7.34,13.68c-2.731,5.097-5.414,10.242-8.023,15.411        c-0.415,0.829-0.829,1.658-1.219,2.488c-6.243,12.607-11.973,25.506-16.436,38.796c-0.317,0.878-0.585,1.756-0.853,2.634        c-0.683,2.048-1.317,4.145-1.926,6.218c-0.707,2.512-1.317,4.95-0.732,7.291c0.561,2.243,2.683,4.389,5.048,4.024        c1.512-0.268,2.707-1.463,3.828-2.658c2.049-2.219,3.999-4.511,5.877-6.852c0.536-0.658,1.073-1.317,1.609-2        c5.145-6.56,9.778-13.558,14.168-20.727c0.683-1.146,1.39-2.292,2.072-3.463c4.219-7.096,8.194-14.363,12.095-21.508        c0.244-0.439,0.464-0.853,0.707-1.292c0.902-1.658,1.829-3.317,2.756-4.999c0.585-1.097,1.195-2.17,1.805-3.267        c1.049-1.878,2.097-3.755,3.17-5.633c0.439-0.781,0.878-1.561,1.341-2.341c0.146-0.244,0.268-0.488,0.439-0.732        c0.195-0.366,0.414-0.731,0.634-1.097c3.56-6.121,7.291-12.168,11.339-17.996c3.658-5.316,7.584-10.437,11.851-15.289        c4.901-5.584,11.656-12.022,20.142-12.412h0.317v0.342c-0.585,17.142-7.511,33.334-14.216,48.965        c-1.756,4.145-3.609,8.413-5.292,12.631c-3.877,9.754-7.145,19.727-9.778,29.872c0,0.024,0,0.024,0,0.049        c-1,3.78-1.902,7.56-2.683,11.364l-0.024,0.024c-1.097,5.096-2.024,10.241-2.78,15.387c-0.512,3.414,0.878,6.803,3.536,8.657        c3.731,2.536,6.755,0.683,9.803-1.683c6.389-4.902,12.461-10.242,18.167-15.948c2.634-2.634,5.194-5.316,7.657-8.096        L228.59,435.969z"/>
					</g>
				</g>
				<g>
					<g>
						<path style="fill:#FFE3BF;" d="M221.507,33.296c-1.213,0.606-2.426,1.263-3.639,1.895c-7.833,4.169-15.615,8.44-23.221,12.609        c-22.412,12.28-45.608,24.99-69.714,34.667c-8.288,3.31-17.94,6.772-27.719,5.786c0.227-0.202,0.455-0.404,0.682-0.581        c9.425,0.783,18.749-2.577,26.809-5.786c24.08-9.677,47.225-22.362,69.638-34.642c7.126-3.916,14.453-7.934,21.806-11.851        c1.188-0.632,2.375-1.263,3.563-1.87c0.531-0.076,1.036-0.152,1.567-0.202C221.355,33.321,221.431,33.296,221.507,33.296z"/>
					</g>
					<g>
						<path style="fill:#FFE3BF;" d="M303.399,79.156c-1.339,0.96-2.704,1.819-3.992,2.628        c-13.872,8.465-28.502,16.449-42.652,24.181c-38.862,21.25-79.038,43.183-107.767,77.597        c-2.527,3.007-3.512,6.898-2.653,10.385c0.632,2.603,2.097,4.523,4.346,5.736c4.725,2.577,11.926,1.516,17.106-0.303        c13.038-4.624,25.495-11.598,37.523-18.344c18.294-10.233,37.194-20.821,58.217-23.12c1.769-0.202,4.27-0.252,5.509,1.466        c1.996,2.704-1.238,6.165-2.274,7.176c-4.877,4.725-10.284,8.995-15.514,13.114c-4.826,3.841-9.829,7.782-14.402,12.053        c-8.641,8.136-14.428,16.576-17.131,25.091c-0.556,1.743-0.152,3.613,1.086,4.978c1.213,1.339,2.982,1.92,4.751,1.541        c11.219-2.35,21.806-8.035,29.841-16.02l0.429,0.455c-8.111,8.06-18.824,13.821-30.144,16.197        c-0.379,0.076-0.784,0.126-1.162,0.126c-1.592,0-3.083-0.657-4.194-1.87c-1.365-1.541-1.819-3.638-1.213-5.609        c2.754-8.591,8.566-17.132,17.308-25.344c4.573-4.296,9.602-8.263,14.428-12.078c5.231-4.119,10.638-8.389,15.489-13.089        c0.935-0.91,3.892-4.068,2.198-6.367c-1.061-1.44-3.31-1.364-4.927-1.188c-20.896,2.274-39.746,12.836-57.964,23.044        c-12.078,6.747-24.56,13.72-37.649,18.37c-5.281,1.87-12.71,2.931-17.612,0.278c-2.426-1.289-3.993-3.361-4.675-6.14        c-0.884-3.689,0.152-7.782,2.805-10.941c28.805-34.49,69.031-56.473,107.944-77.749c14.15-7.707,28.755-15.717,42.627-24.181        c1.263-0.783,2.628-1.617,3.942-2.577c2.325-1.668,2.35-4.22,1.668-5.888c-0.682-1.718-2.501-3.588-5.356-3.158        c-4.245,0.581-8.642,2.299-12.028,3.765c-39.165,16.879-77.42,37.396-114.387,57.231        c-29.689,15.944-60.415,32.419-91.444,46.922c-9.804,4.599-21.124,9.172-31.458,5.407l-0.151-0.076l-0.051-0.151        c-1.895-6.57,3.108-12.811,7.656-17.536c34.616-35.754,77.395-67.844,138.695-104.027c1.642-0.985,3.285-1.946,4.952-2.931        c9.88-5.787,20.088-11.8,29.639-18.37c2.274-1.592,2.577-3.942,1.895-5.812c-0.126-0.328-0.278-0.657-0.455-0.96        c-0.151-0.253-0.328-0.506-0.556-0.733c0.278-0.025,0.531-0.05,0.783-0.076c0.101,0.151,0.202,0.328,0.303,0.48        c0.253,0.379,0.455,0.809,0.581,1.263c0.682,2.072,0.278,4.649-2.198,6.342c-9.576,6.595-19.785,12.609-29.664,18.42        c-1.668,0.96-3.31,1.946-4.952,2.906C135.242,97.855,92.515,129.894,57.923,165.597c-4.397,4.574-9.223,10.587-7.555,16.778        c10.082,3.588,21.2-0.91,30.827-5.407c31.029-14.504,61.729-30.978,91.419-46.922c36.992-19.835,75.247-40.378,114.438-57.257        c3.411-1.466,7.884-3.234,12.204-3.816c2.654-0.379,5.028,1.036,6.039,3.538C306.28,75.012,305.547,77.615,303.399,79.156z"/>
					</g>
				</g>
				<g>
					<g>
						<path style="fill:#FFE3BF;" d="M405.354,442.784c0,0,0,0,0,0.025c-0.202,0.177-0.404,0.354-0.606,0.48        c-1.036-3.007-2.072-5.988-3.083-8.945c-8.136-23.575-16.525-47.958-31.559-68.197c-0.809-1.112-1.643-2.072-2.426-2.906        c-1.516-1.541-3.689-1.996-5.685-1.187c-1.971,0.808-3.184,2.628-3.184,4.725c0.101,33.177,4.523,65.974,13.291,97.811        c-0.202,0.126-0.429,0.253-0.632,0.328c-8.818-31.938-13.291-64.837-13.341-98.14c-0.025-2.4,1.364-4.447,3.588-5.357        c2.274-0.935,4.725-0.404,6.443,1.314c0.859,0.884,1.693,1.87,2.501,3.007c15.085,20.315,23.524,44.724,31.66,68.374        C403.308,436.998,404.318,439.878,405.354,442.784z"/>
					</g>
					<g>
						<path style="fill:#FFE3BF;" d="M435.676,409.38c-0.152,0.228-0.328,0.455-0.48,0.682c-2.83-8.262-5.534-16.525-8.237-24.686        c-7.126-21.756-14.504-44.295-23.676-65.721c-3.234-7.504-7.252-16.222-12.634-23.777c-1.339-1.895-3.664-2.628-5.837-1.819        c-2.249,0.783-3.588,2.83-3.437,5.18c0.48,8.136,2.325,16.525,3.992,23.676c8.591,37.043,19.936,73.857,31.155,109.637        c-0.202,0.202-0.379,0.379-0.581,0.556c-11.244-35.88-22.64-72.872-31.256-110.016c-1.668-7.227-3.512-15.59-4.043-23.802        c-0.177-2.678,1.364-5.003,3.917-5.887c2.501-0.91,5.129-0.101,6.645,2.072c5.433,7.631,9.501,16.374,12.71,23.903        c9.198,21.452,16.576,43.991,23.726,65.797C430.268,393.184,432.922,401.269,435.676,409.38z"/>
					</g>
					<g>
						<path style="fill:#FFE3BF;" d="M475.927,309.295c-0.051,0.455-0.152,0.884-0.253,1.314c-0.126-0.354-0.253-0.682-0.379-1.036        c-4.852-12.861-10.815-27.542-20.619-39.19c-2.577-3.057-4.952-4.321-7.1-3.765c-2.021,0.531-3.462,2.552-4.371,6.191        c-4.7,18.951-0.228,38.786,4.119,57.964l0.025,0.152c3.083,13.695,6.089,27.441,8.97,41.262v0.025        c-0.152,0.354-0.303,0.708-0.48,1.061c-2.931-14.125-6.014-28.199-9.172-42.197l-0.025-0.126        c-4.371-19.279-8.869-39.19-4.119-58.318c0.986-3.891,2.603-6.089,4.877-6.671c2.451-0.657,5.054,0.707,7.783,3.967        C465.062,281.627,471.076,296.383,475.927,309.295z"/>
					</g>
				</g>
			</g>
			<g>
				<g>
					<g>
						<path style="fill:#411C36;" d="M440.697,151.078c0,45.651-22.372,86.087-56.747,110.916        c-22.513,16.271-50.162,25.856-80.025,25.856c-75.213,0-136.269-60.754-136.732-135.886c-0.02-0.302-0.02-0.584-0.02-0.886        c0-54.451,31.837-101.472,77.891-123.461c17.822-8.518,37.797-13.291,58.861-13.291c72.595,0,131.979,56.545,136.49,127.992        C440.597,145.219,440.697,148.138,440.697,151.078z"/>
					</g>
					<g>
						<g style="opacity:0.15;">
							<path style="fill:#FFE3BF;" d="M440.697,151.078c0,45.651-22.372,86.087-56.747,110.916l-52.417-81.435l8.739-29.3         l100.143-8.941C440.597,145.219,440.697,148.138,440.697,151.078z"/>
						</g>
						<g style="opacity:0.18;">
							<path style="fill:#FFE3BF;" d="M285.762,117.832l-15.928,27.769l-102.64,6.363c-0.02-0.302-0.02-0.584-0.02-0.886         c0-54.451,31.837-101.472,77.891-123.461L285.762,117.832z"/>
						</g>
					</g>
					<g>
						<g>
							<circle style="fill:#FFE3BF;" cx="303.934" cy="151.081" r="53.128"/>
						</g>
						<g>
							<path style="fill:#FFE3BF;" d="M303.934,211.304c-33.208,0-60.225-27.016-60.225-60.224s27.018-60.222,60.225-60.222         s60.225,27.014,60.225,60.222S337.142,211.304,303.934,211.304z M303.934,91.339c-32.942,0-59.742,26.8-59.742,59.741         s26.8,59.743,59.742,59.743s59.742-26.802,59.742-59.743S336.877,91.339,303.934,91.339z"/>
						</g>
						<g>
							<path style="fill:#7657AA;" d="M313.753,151.081c0,5.423-4.396,9.819-9.819,9.819c-5.423,0-9.819-4.396-9.819-9.819         c0-5.423,4.396-9.819,9.819-9.819C309.357,141.262,313.753,145.658,313.753,151.081z"/>
						</g>
					</g>
				</g>
				<g>
					<g>
						<path style="fill:#FFE3BF;" d="M351.83,29.71c-1.155,0.179-1.986,0.715-2.253,1.777c-0.108,0.43-0.011,0.886,0.133,1.306        c1.027,3,3.976,5.502,6.257,7.555c6.183,5.564,12.817,10.616,19.733,15.234c3.466,2.314,7.004,4.519,10.6,6.625        c1.837,1.076,3.69,2.126,5.556,3.151c1.5,0.824,3.319,2.186,5.007,2.508c2.7,0.515,3.281-1.98,2.439-3.997        c-2.829-6.777-8.542-11.83-13.921-16.592c-5.997-5.31-12.699-9.86-19.799-13.558C363.816,32.799,355.855,29.086,351.83,29.71z        "/>
					</g>
					<g>
						<path style="fill:#FFE3BF;" d="M406.651,82.333c1.267,1.454,2.534,2.908,3.8,4.362c1.421,1.631,3.259,3.421,5.389,3.045        c1.247-0.22,1.812-1.125,1.777-2.33c-0.13-4.385-2.913-8.186-5.578-11.67c-1.694-2.215-5.142-5.541-8.048-2.954        C400.91,75.529,404.752,80.154,406.651,82.333z"/>
					</g>
				</g>
			</g>
			<g>
				<polygon style="fill:#FFC151;" points="428.338,194.718 430.427,161.785 437.947,193.773 466.838,191.97 441.558,201.834       450.153,228.92 434.571,206.068 422.337,231.346 427.305,205.831 396.954,195.295     "/>
			</g>
			<g>
				<polygon style="fill:#FFC151;" points="163.152,95.443 150.627,56.763 173.734,90.007 206.021,74.854 181.523,97.609       203.643,124.75 175.436,105.625 172.87,140.131 167.004,108.645 127.454,110.322     "/>
			</g>
			<g>
				<polygon style="fill:#FFC151;" points="74.807,315.398 102.161,285.318 84.78,321.884 113.967,342.383 82.051,332.419       69.476,365.096 72.07,331.116 40.844,346.024 65.261,325.297 44.165,291.801     "/>
			</g>
			<g>
				<polygon style="fill:#FF6A6C;" points="263.121,434.361 324.103,428.993 295.174,479.259     "/>
			</g>
			<g>
				<polygon style="fill:#FFE3BF;" points="205.132,323.273 192.723,273.039 238.464,290.668     "/>
			</g>
			<g>
				<polygon style="fill:#FFE3BF;" points="308.576,50.68 280.996,71.778 279.582,38.912     "/>
			</g>
			<g>
				<g>
					<path style="fill:#411C36;" d="M282.547,443.155c0,0,99.768-26.441,131.98-34.37c44.681-10.998,83.803-19.688,83.803-19.688       l-78.991-22.931c0,0-148.146,12.449-150.208,13.824C267.068,381.366,282.547,443.155,282.547,443.155z"/>
				</g>
				<g>
					<g>
						<path style="fill:#FFC151;" d="M356.29,265.499c4.982-1.835,11.153-0.467,14.421,3.717c3.268,4.184,2.858,10.978-1.272,14.314        c-5.637,4.554-15.407,1.528-19.978-3.348C344.272,274.646,350.185,267.748,356.29,265.499z"/>
					</g>
					<g>
						<g>
							<path style="fill:#FFE3BF;" d="M498.293,388.942l-106.149-8.44L263.85,427.591c0,0-19.132-76.04,1.369-102.499         c19.512-25.224,75.085-56.542,134.041-50.319c2.618,0.281,5.253,0.636,7.905,1.065c0.401,0.061,0.802,0.123,1.203,0.185         c62.244,10.72,77.977,52.973,80.848,63.174C492.089,349.397,498.293,388.942,498.293,388.942z"/>
						</g>
						<g>
							<g>
								<path style="fill:#FFC151;" d="M471.388,376.83l-1.818,0.5c-4.591-17.266-9.327-35.156-17.084-51.57          c-8.693-18.44-19.982-32.41-33.611-41.465c-5.766-3.843-12.347-7.033-19.616-9.522c2.618,0.281,5.253,0.636,7.905,1.065          c4.6,1.987,8.847,4.288,12.779,6.894c13.872,9.27,25.405,23.454,34.256,42.244          C462.028,341.528,466.781,359.491,471.388,376.83z"/>
							</g>
						</g>
						<g>
							<path style="fill:#FFC151;" d="M282.547,443.155c0,0,20.164-65.074,215.783-54.057c0,0-34.003-40.816-128.968-35.873         s-170.751,44.271-169.219,73.539C201.674,456.031,282.547,443.155,282.547,443.155z"/>
						</g>
					</g>
				</g>
			</g>
			<g>
				<g>
					<g>
						<path style="fill:#411C36;" d="M193.476,411.535c-0.561-2.804-1.341-5.56-2.268-8.242c-1.878-5.487-4.414-10.705-7.608-15.558        c0,0,0-0.024-0.024-0.024c-0.366-0.634-0.805-1.244-1.292-1.878c-0.878-1.293-1.829-2.585-2.829-3.804        c-0.122-0.171-0.268-0.342-0.439-0.512c-0.098-0.146-0.22-0.293-0.342-0.439c-0.171-0.195-0.341-0.39-0.536-0.61l-0.024-0.024        c-0.634-0.756-1.244-1.463-1.926-2.194l-1.853,1.755c0.439,0.439,0.829,0.902,1.244,1.39l0.024,0.025        c0.195,0.195,0.366,0.39,0.561,0.61c0.512,0.61,1,1.219,1.512,1.829c0.122,0.171,0.268,0.341,0.415,0.536        c0.658,0.829,1.292,1.658,1.902,2.512c0.439,0.634,0.853,1.244,1.292,1.878c3.17,4.804,5.73,9.998,7.583,15.484        c0.878,2.536,1.585,5.145,2.146,7.754c2.39,11.388,1.293,26.263-8.998,33.944c-5.828,4.341-14.436,5.852-24.214,4.292        c-1.463-0.219-2.926-0.536-4.389-0.878c3.877-8.559,5.121-18.338,3.877-27.823v-0.024c-0.024-0.317-0.073-0.659-0.147-0.976        c-1.39-9.437-5.243-18.532-11.436-25.751c-0.147-0.171-0.293-0.341-0.439-0.512c-0.049-0.073-0.122-0.122-0.17-0.195        c-3.438-3.853-10.461-10.193-19.045-9.583c-0.317,0.024-0.634,0.049-0.926,0.122c-0.268,0-0.512,0.049-0.756,0.097        c-8.413,1.536-14.314,9.852-15.363,17.508c-0.512,3.975-0.049,7.852,0.951,11.437c0.073,0.293,0.146,0.585,0.268,0.878        c1.415,4.658,3.731,8.754,5.901,11.924c2.95,4.365,6.511,8.34,10.534,11.803c0.171,0.146,0.341,0.293,0.537,0.439        c3.682,3.121,7.754,5.828,12.095,8.022c0.195,0.122,0.39,0.22,0.585,0.317c3.194,1.585,6.511,2.902,9.925,3.926        c-0.39,0.683-0.732,1.317-1.146,1.975c-3.121,5.096-7.315,9.486-12.192,12.924c0.781,0.439,1.585,0.878,2.39,1.292        c4.755-3.511,8.852-7.852,11.949-12.899c0.536-0.829,1.024-1.732,1.463-2.585c1.707,0.439,3.414,0.78,5.145,1.073        c7.388,1.17,17.898,1.317,26.092-4.78c3.048-2.268,5.364-5.072,7.071-8.242v-0.024c0.439-0.804,0.829-1.634,1.17-2.487        l0.024-0.024c1.512-3.56,2.366-7.437,2.683-11.364c0-0.024,0-0.024,0-0.049c0.073-1,0.122-2,0.146-2.975v-0.024        C194.646,418.899,194.232,415.071,193.476,411.535z M150.924,448.722c-3.243-0.951-6.413-2.194-9.461-3.682        c-0.195-0.098-0.366-0.195-0.561-0.293c-4.633-2.316-8.974-5.218-12.851-8.657c-0.171-0.122-0.341-0.293-0.512-0.463        c-3.536-3.121-6.657-6.657-9.315-10.559c-2.463-3.585-5.121-8.462-6.267-13.875v-0.024c-0.073-0.341-0.146-0.683-0.195-1.024        c-0.439-2.439-0.561-4.975-0.219-7.535c0.78-6.145,5.121-12.754,11.339-14.851c0.268-0.122,0.537-0.219,0.829-0.268        c0.805-0.244,1.658-0.39,2.511-0.439c0.317-0.025,0.659-0.049,0.976-0.049c7.096,0,13.022,5.414,15.997,8.754        c0.293,0.317,0.585,0.658,0.853,1c0.146,0.171,0.293,0.341,0.439,0.537c6.12,7.559,9.705,17.045,10.583,26.726        c0.024,0.366,0.049,0.707,0.073,1.073C155.679,433.238,154.314,441.455,150.924,448.722z M93.083,304.461v-0.025        c-0.073-0.268-0.146-0.512-0.22-0.78c-0.073-0.268-0.146-0.561-0.244-0.829c-0.463-1.756-1.024-3.463-1.658-5.17v-0.024        c-3.536-9.754-9.071-18.63-16.241-25.678c-3.097-3.073-6.511-5.779-10.12-8.12c-0.195-0.122-0.39-0.244-0.585-0.366        c-13.339-8.462-29.506-11.778-44.576-8.73c-0.707,0.146-1.39,0.317-2.097,0.488c-0.049,0.878-0.073,1.731-0.073,2.634        c0.878-0.268,1.756-0.463,2.658-0.634c14.192-2.877,29.384,0.122,42.064,7.949c0.195,0.097,0.39,0.219,0.585,0.366        c3.707,2.292,7.218,5.048,10.388,8.193c7.194,7.121,12.68,16.119,16.069,26.019c0.683,1.975,1.293,3.975,1.78,5.998        c0.073,0.293,0.146,0.585,0.219,0.878c0.122,0.487,0.22,0.951,0.317,1.438c1.293,5.974,1.829,12.168,1.561,18.362        c-0.024,0.366-0.024,0.756-0.073,1.121c-0.122,2.634-0.415,5.292-0.853,7.974c-1.39,8.681-4.219,17.655-8.559,27.141v0.024        c-0.805,1.829-1.707,3.706-2.658,5.584c-0.024,0.049-0.049,0.073-0.073,0.122c-2.341,4.584-5.023,9.291-8.047,14.095        c-0.732,1.195-1.487,2.341-2.243,3.536c-2.926,4.633-5.926,9.339-8.34,14.29c0.049,0.073,0.098,0.122,0.146,0.195        c0.122,0.195,0.293,0.439,0.463,0.634c0.39,0.512,0.732,1,1.146,1.488c2.365-5.292,5.584-10.315,8.705-15.241        c0.756-1.195,1.512-2.366,2.268-3.56c6.73-10.729,11.778-20.898,15.216-30.603v-0.025c0.317-0.878,0.61-1.756,0.902-2.609        v-0.024c1.585-4.877,2.756-9.632,3.511-14.29c0.39-2.365,0.683-4.706,0.853-7.023c0.073-0.902,0.122-1.805,0.171-2.706        C95.765,319.067,94.936,311.605,93.083,304.461z"/>
					</g>
				</g>
				<g>
					<g>
						<g>
							<g>
								<g>
									<polygon style="fill:#FFE3BF;" points="166.46,393.286 178.428,408.61 196.229,401.187 193.036,380.766          "/>
								</g>
							</g>
							<g>
								<g>
									<path style="fill:#FF6A6C;" d="M198.51,380.806l-34.618,16.037l-5.505-9.465l-0.405-0.675c0,0,0,0-0.018-0.009           L70.44,236.416l63.564-29.561l61.468,165.768l0.28,0.752L198.51,380.806z"/>
								</g>
							</g>
							<g>
								<g>
									<g>
										<path style="fill:#FFE3BF;" d="M120.833,279.71l-7.218-11.656l-0.39-0.634l-9.51-15.338            c-1.854-2.95-5.779-3.853-8.754-2.048l-2.194,1.39c-1.439,0.902-2.438,2.292-2.829,3.95            c-0.39,1.634-0.097,3.365,0.78,4.779l13.997,22.507l0.366,0.61l2.78,4.462c1.17,1.951,3.243,3.024,5.389,3.024            c1.146,0,2.292-0.317,3.317-0.976l2.219-1.366C121.76,286.586,122.686,282.661,120.833,279.71z M118.37,287.757            l-2.195,1.366c-2.609,1.634-6.047,0.829-7.657-1.78l-3-4.828l-0.366-0.61l-13.778-22.166            c-0.756-1.268-1-2.756-0.683-4.194c0.366-1.439,1.219-2.683,2.487-3.463l2.195-1.366c0.902-0.536,1.926-0.829,2.926-0.829            c1.877,0,3.682,0.927,4.731,2.634l9.754,15.704l0.39,0.634l6.974,11.242C121.784,282.709,120.955,286.147,118.37,287.757z            "/>
									</g>
								</g>
								<g>
									<g>
										<g>
											<path style="fill:#FFE3BF;" d="M195.753,373.375c-11.781,6.186-24.448,10.943-37.365,14.003l-0.405-0.675             c12.979-3.099,25.691-7.857,37.49-14.08L195.753,373.375z"/>
										</g>
									</g>
								</g>
							</g>
							<g>
								<g>
									<path style="fill:#FFE3BF;" d="M52.73,220.374l17.705,16.048c0,0,35.637-0.798,63.567-29.577l-1.719-22.403L52.73,220.374z           "/>
								</g>
							</g>
							<g>
								<g>
									<g>
										<path style="fill:#411C36;" d="M136.997,184.78c-15.179,33.98-60.408,48.515-93.45,32.94            c-4.695-2.211-9.129-4.993-12.972-8.485c-5.662-5.17-9.781-11.863-12.26-19.123c-0.112-0.341-0.224-0.681-0.336-1.022            c-0.99-3.103-1.692-6.299-2.088-9.532c-1.348-11.2,0.813-22.669,5.272-33.022c5.387-12.581,14.087-22.803,24.963-29.737            c9.075-5.772,19.683-9.241,31.172-9.856c20.797-1.09,43.927,8.133,56.151,25.479c0.201,0.292,0.42,0.593,0.621,0.885            c0.277,0.417,0.537,0.825,0.796,1.233C144.352,149.634,144.182,168.652,136.997,184.78z"/>
									</g>
								</g>
								<g>
									<g>
										<g>
											<path style="fill:#FFE3BF;" d="M134.069,133.308c-23.825,31.393-60.613,52.477-100.047,56.467             c-5.839,0.588-11.015,0.698-15.708,0.338c-0.112-0.341-0.224-0.681-0.336-1.022c4.749,0.385,9.969,0.273,15.944-0.319             c39.271-3.975,75.888-25.026,99.525-56.349C133.649,132.715,133.868,133.016,134.069,133.308z"/>
										</g>
									</g>
								</g>
							</g>
						</g>
					</g>
				</g>
			</g>
		</g>
	</g>
</g>















</svg>
