<?xml version="1.0" encoding="UTF-8"?>
<!-- Generator: Adobe Illustrator 25.3.1, SVG Export Plug-In . SVG Version: 6.00 Build 0)  -->
<svg xmlns="http://www.w3.org/2000/svg" xmlns:xlink="http://www.w3.org/1999/xlink" version="1.1" id="Capa_1" x="0px" y="0px" viewBox="0 0 511.355 511.355" style="enable-background:new 0 0 511.355 511.355;" xml:space="preserve" width="512" height="512">
<g>
	<g>
		<path style="fill:#FFFFFF;" d="M510.803,178.372c-0.222,5.885-4.005,11.041-9.552,13.019l-28.109,10.024    c0.557,2.655,1.076,5.345,1.555,8.055c8.487,47.973,2.599,98.308-16.413,143.141c-17.924,42.268-51.032,88.383-93.762,108.022    c-4.092,1.881-8.229,3.696-12.351,5.513l-3.337,21.193c-1.114,7.08-7.224,12.161-14.207,12.161c-0.628,0-1.262-0.042-1.902-0.126    l-72.331-9.55c-21.196,1.842-42.659,0.958-63.604-2.787c-13.734-2.44-27.32-6.124-40.396-10.949c0,0-62.111-8.203-62.385-8.24    c-10.592-1.399-27.514-2.793-25.108-18.175c0,0,4.058-25.953,4.057-25.953c-37.373-36.113-61.8-83.972-69.932-135.257    c-6.547-41.29-2.516-84.244,12.543-123.304c-0.121-0.748-0.182-1.509-0.182-2.278v-28.137c0-6.114,3.862-11.563,9.632-13.586    c0,0,16.989-5.962,16.989-5.962c0,0,3.87-5.438,4.862-6.771c5.214-7.003,11.051-14.012,17.106-20.5    c15.914-17.049,34.394-31.82,54.523-43.595c31.635-20.4,71.98-30.433,109.219-32.199c13.479-0.639,27.011-0.15,40.407,1.476    c0,0,27.979,4.276,39.723,8.328c0,0,14.035-5.76,20.868-1.055l177.038,121.933c4.468,3.077,5.742,7.905,5.589,13.304    L510.803,178.372z"/>
	</g>
	<g>
		<g>
			<g>
				<path style="fill:#FFC151;" d="M462.336,259.759c-1.762,61.459-26.704,124.947-72.443,164.617      c-31.001,26.887-70.732,42.536-111.316,48.611c-46.659,6.984-95.565,1.552-138.284-18.471      c-40.124-18.807-74.089-50.28-96.475-88.523C8.09,304.953,2.613,229.409,29.87,164.125      C62.542,85.868,141.378,31.004,225.914,26.44c27.205-1.469,54.654,2.262,80.558,10.662      c78.766,25.543,138.703,95.342,152.72,176.868C461.746,228.826,462.782,244.227,462.336,259.759z"/>
			</g>
			<g>
				<g>
					<g>
						<path style="fill:#FFE3BF;" d="M16.721,293.901c3.34-3.267,6.411-6.269,9.678-9.511c25.445-25.052,51.749-50.963,84.759-65.7        c2.333-1.056,4.839-1.154,6.926-0.295c1.646,0.688,2.824,1.867,3.488,3.488c1.179,2.996,0.565,7.737-1.646,12.673        c-9.505,21.221-22.006,41.458-34.09,61.033c-14.663,23.726-29.743,48.09-39.567,74.492c0.147,0.221,0.295,0.442,0.418,0.663        c9.8-26.501,24.929-51.037,39.665-74.837c12.109-19.599,24.635-39.837,34.14-61.107c1.105-2.432,3.438-8.596,1.646-13.14        c-0.712-1.793-2.014-3.07-3.832-3.832c-2.21-0.933-4.912-0.81-7.393,0.295c-33.132,14.786-59.461,40.722-84.931,65.823        c-3.193,3.144-6.17,6.102-9.412,9.246L16.721,293.901z"/>
					</g>
					<g>
						<path style="fill:#FFE3BF;" d="M174.549,249.17c-11.47,20.14-24.684,39.788-37.455,58.774        c-21.736,32.396-44.184,65.823-58.7,102.516c-0.172-0.147-0.319-0.295-0.467-0.467        c14.515-36.694,36.939-70.047,58.675-102.393c12.747-18.985,25.936-38.609,37.43-58.724c2.235-3.93,0.614-7.712-1.989-9.701        c-2.604-1.989-6.681-2.554-9.874,0.639c-1.596,1.596-3.291,3.365-5.354,5.575c-25.641,27.729-49.44,59.756-72.748,97.874        c-1.007,1.646-2.014,3.291-2.996,4.937c-7.515,12.403-15.476,25.285-25.398,36.116c-0.123-0.172-0.245-0.372-0.368-0.544        c9.824-10.782,17.735-23.538,25.226-35.892c1.007-1.646,2.014-3.291,3.021-4.937c23.332-38.167,47.132-70.219,72.822-97.972        c2.039-2.21,3.758-3.979,5.354-5.6c3.463-3.463,7.859-2.825,10.684-0.688C175.237,240.844,176.981,244.921,174.549,249.17z"/>
					</g>
					<g>
						<path style="fill:#FFE3BF;" d="M222.884,417.091c-7.614,8.572-16.112,16.456-25.175,23.455        c-1.989,1.523-4.102,2.923-6.435,2.923c-1.228,0-2.481-0.368-3.832-1.302c-2.775-1.891-4.224-5.428-3.709-8.989        c2.825-18.887,7.835-37.48,14.908-55.237c1.621-4.102,3.414-8.277,5.133-12.305c6.435-15.056,13.115-30.603,13.754-47.033        c-7.859,0.491-14.172,6.557-18.789,11.814c-13.41,15.228-23.382,33.452-33.009,51.062        c-10.094,18.421-20.533,37.48-34.901,53.149c-1.155,1.252-2.432,2.505-4.102,2.775c-2.677,0.442-4.986-1.94-5.6-4.372        c-0.589-2.407,0.024-4.863,0.737-7.393c7.835-27.213,21.564-52.584,34.827-77.145c9.652-17.856,19.648-36.301,27.311-55.384        l0.098-0.27c1.646-4.077-0.393-7.564-3.168-9.21c-2.726-1.645-6.754-1.768-9.554,1.597        c-21.392,25.764-36.792,57.054-51.7,87.288c-8.4,17.07-17.045,34.631-26.82,51.234c-0.147-0.123-0.319-0.27-0.467-0.418        c9.726-16.554,18.371-34.066,26.747-51.086c14.908-30.284,30.332-61.574,51.774-87.411c3.021-3.66,7.368-3.512,10.34-1.744        c2.996,1.768,5.207,5.551,3.438,9.996l-0.123,0.246c-7.663,19.108-17.659,37.602-27.336,55.458        c-13.263,24.536-26.968,49.883-34.778,77.022c-0.688,2.432-1.277,4.814-0.712,7.073c0.54,2.186,2.604,4.274,4.888,3.905        c1.473-0.246,2.653-1.4,3.733-2.579c14.343-15.62,24.757-34.63,34.827-53.026c9.652-17.635,19.648-35.883,33.083-51.16        c4.765-5.428,11.322-11.691,19.575-12.059h0.319v0.319c-0.59,16.677-7.319,32.396-13.828,47.599        c-1.719,4.028-3.512,8.179-5.133,12.28c-7.049,17.733-12.059,36.276-14.859,55.114c-0.491,3.316,0.86,6.607,3.438,8.4        c3.635,2.481,6.582,0.663,9.529-1.621c9.063-6.975,17.512-14.834,25.101-23.382L222.884,417.091z"/>
					</g>
				</g>
				<g>
					<g>
						<path style="fill:#FFE3BF;" d="M94.369,78.15c9.503,1.08,19.398-2.002,27.534-5.242c7.583-3.048,15.095-6.408,22.51-9.983        c3.264-1.56,6.503-3.168,9.743-4.8c12.023-6.072,23.83-12.551,35.421-18.911c6.935-3.792,14.063-7.703,21.19-11.519        c0.576-0.072,1.104-0.12,1.68-0.192c-7.607,4.056-15.191,8.207-22.582,12.263c-11.519,6.312-23.278,12.767-35.277,18.791        c-3.408,1.752-6.839,3.432-10.319,5.112c-7.295,3.48-14.687,6.791-22.15,9.791c-8.279,3.312-18.58,6.455-28.371,5.231        L94.369,78.15z"/>
					</g>
					<g>
						<path style="fill:#FFE3BF;" d="M295.577,70.244c-1.296,0.936-2.616,1.776-3.864,2.568        c-9.527,5.808-19.415,11.375-29.254,16.799c-0.168,0.096-0.312,0.168-0.48,0.264c-3.936,2.16-7.847,4.32-11.735,6.432        c-14.519,7.943-29.206,15.983-43.389,24.766c-10.055,6.216-19.846,12.815-29.134,20.014c-1.464,1.128-2.904,2.256-4.32,3.432        c-10.079,8.183-19.51,17.135-27.91,27.214c-2.448,2.928-3.408,6.695-2.568,10.103c0.6,2.52,2.04,4.392,4.224,5.568        c4.584,2.496,11.591,1.464,16.607-0.288c12.695-4.512,24.79-11.279,36.477-17.831c3.912-2.208,7.871-4.416,11.855-6.527        c0.024-0.024,0.072-0.048,0.096-0.072c12.479-6.671,25.366-12.623,39.189-15.071c1.8-0.336,3.624-0.624,5.448-0.816        c1.008-0.12,2.232-0.168,3.336,0.12c0.288,0.072,0.552,0.168,0.816,0.312c0.48,0.216,0.888,0.552,1.2,0.984        c1.944,2.64-1.2,6-2.208,6.983c-1.488,1.44-3,2.832-4.56,4.176c-0.552,0.48-1.104,0.96-1.656,1.416        c-0.216,0.192-0.432,0.384-0.648,0.552c-2.712,2.28-5.496,4.464-8.207,6.599c-4.704,3.744-9.551,7.583-13.991,11.711        c-8.399,7.919-14.039,16.127-16.655,24.406c-0.552,1.68-0.168,3.504,1.056,4.824c1.176,1.32,2.88,1.872,4.608,1.512        c10.895-2.28,21.19-7.823,29.014-15.575l0.408,0.432c-7.871,7.847-18.287,13.439-29.302,15.743        c-0.36,0.072-0.768,0.144-1.128,0.144c-1.536,0-3-0.648-4.08-1.824c-1.32-1.512-1.752-3.552-1.176-5.448        c2.688-8.351,8.327-16.655,16.823-24.646c4.44-4.176,9.335-8.039,14.039-11.735c1.464-1.152,2.952-2.328,4.416-3.528        c1.464-1.176,2.928-2.376,4.392-3.6c1.656-1.392,3.288-2.832,4.872-4.32c0.456-0.408,0.912-0.84,1.368-1.272        c0.912-0.888,3.768-3.96,2.136-6.192c-0.216-0.288-0.456-0.504-0.744-0.672c-0.24-0.168-0.528-0.288-0.816-0.36        c-1.032-0.312-2.256-0.216-3.24-0.12c-1.92,0.216-3.84,0.504-5.736,0.864c-13.487,2.448-26.134,8.255-38.325,14.783        c-0.048,0-0.072,0.024-0.12,0.072c-4.08,2.16-8.135,4.44-12.143,6.671c-11.759,6.551-23.878,13.343-36.597,17.855        c-5.136,1.824-12.359,2.856-17.135,0.264c-2.352-1.248-3.864-3.264-4.536-5.952c-0.864-3.6,0.144-7.583,2.736-10.631        c8.279-9.911,17.519-18.767,27.43-26.83c1.44-1.2,2.88-2.352,4.344-3.48c9.407-7.367,19.367-14.087,29.59-20.398        c14.255-8.855,28.99-16.919,43.557-24.886c3.696-2.016,7.415-4.056,11.159-6.096c0.168-0.096,0.336-0.192,0.48-0.264        c10.007-5.52,20.086-11.207,29.782-17.135c1.224-0.768,2.568-1.584,3.84-2.496c2.256-1.632,2.28-4.104,1.608-5.736        c-0.648-1.656-2.424-3.48-5.184-3.072c-4.128,0.576-8.423,2.232-11.711,3.672c-15.071,6.479-29.998,13.535-44.757,20.878        c-0.336,0.168-0.648,0.312-0.984,0.48c-14.015,6.983-27.886,14.231-41.589,21.526c-8.015,4.248-15.959,8.519-23.854,12.743        c-11.687,6.288-23.566,12.647-35.565,18.935c-0.504,0.288-1.008,0.552-1.512,0.792c-0.384,0.216-0.768,0.432-1.176,0.624        c-16.703,8.735-33.621,17.303-50.636,25.246c-1.848,0.864-3.744,1.728-5.664,2.52c-8.063,3.384-16.799,5.688-24.91,2.736        l-0.144-0.072l-0.048-0.144c-1.728-5.952,2.4-11.615,6.527-16.079c0.312-0.336,0.6-0.648,0.912-0.96        c5.616-5.808,11.471-11.519,17.591-17.159c11.423-10.559,23.782-20.878,37.389-31.198        c9.023-6.863,18.599-13.703,28.846-20.638c7.751-5.256,15.887-10.583,24.43-15.959c8.447-5.304,17.279-10.703,26.566-16.175        c1.584-0.96,3.192-1.872,4.8-2.832c9.623-5.64,19.535-11.471,28.822-17.855c2.208-1.56,2.496-3.84,1.848-5.664        c0.216,0,0.408-0.024,0.624-0.024c0.672,2.016,0.288,4.512-2.136,6.168c-9.311,6.408-19.223,12.263-28.822,17.903        c-1.632,0.936-3.216,1.896-4.824,2.832c-9.239,5.448-18.023,10.823-26.422,16.103c-8.759,5.496-17.087,10.943-25.03,16.319        c-9.455,6.432-18.359,12.791-26.782,19.151c-14.039,10.559-26.734,21.118-38.445,31.918        c-6.264,5.736-12.239,11.591-17.999,17.519c-0.288,0.288-0.576,0.6-0.864,0.912c-4.032,4.32-7.991,9.791-6.479,15.407        c7.775,2.76,16.175,0.576,23.998-2.616c2.04-0.84,4.032-1.728,5.952-2.64c17.207-8.039,34.293-16.703,51.164-25.558        c0.408-0.192,0.792-0.408,1.176-0.624h0.024c0-0.024,0.024-0.024,0.024-0.024c12.311-6.432,24.478-12.959,36.477-19.414        c7.823-4.2,15.719-8.447,23.686-12.647c13.439-7.151,27.046-14.255,40.773-21.094c0.336-0.192,0.672-0.36,1.008-0.504        c15.095-7.535,30.358-14.759,45.764-21.406c3.312-1.416,7.655-3.144,11.855-3.696c2.592-0.384,4.896,1.008,5.88,3.432        C298.385,66.212,297.665,68.756,295.577,70.244z"/>
					</g>
				</g>
				<g>
					<g>
						<path style="fill:#FFE3BF;" d="M392.083,423.747c-0.197,0.147-0.393,0.319-0.565,0.467        c-2.112-5.723-4.102-11.495-6.042-17.168c-7.909-22.915-16.063-46.616-30.676-66.289c-0.786-1.081-1.596-2.014-2.358-2.825        c-1.474-1.498-3.586-1.94-5.526-1.154c-1.916,0.786-3.095,2.554-3.095,4.593c0.098,35.539,5.33,70.612,15.621,104.481        c-0.196,0.123-0.418,0.221-0.614,0.319c-10.34-33.967-15.62-69.163-15.67-104.8c-0.025-2.333,1.326-4.323,3.488-5.207        c2.21-0.909,4.593-0.393,6.263,1.277c0.835,0.86,1.646,1.818,2.431,2.923c14.663,19.747,22.866,43.472,30.774,66.461        C388.055,412.424,390.02,418.098,392.083,423.747z"/>
					</g>
					<g>
						<path style="fill:#FFE3BF;" d="M421.162,390.344c-0.147,0.246-0.319,0.467-0.467,0.688        c-3.733-10.561-7.196-21.147-10.635-31.585c-6.926-21.147-14.098-43.055-23.013-63.882        c-3.143-7.294-7.049-15.768-12.28-23.112c-1.301-1.842-3.561-2.554-5.673-1.768c-2.186,0.761-3.488,2.751-3.34,5.035        c0.467,7.908,2.26,16.063,3.881,23.013c8.965,38.609,20.999,76.998,32.641,114.133l0.27,0.835        c-0.196,0.197-0.368,0.393-0.565,0.565l-0.368-1.203c-11.642-37.136-23.677-75.549-32.641-114.158        c-1.621-7.024-3.414-15.154-3.929-23.136c-0.172-2.604,1.326-4.863,3.807-5.723c2.432-0.884,4.986-0.098,6.459,2.014        c5.281,7.417,9.235,15.915,12.354,23.234c8.94,20.852,16.112,42.76,23.062,63.956        C414.089,369.542,417.503,379.955,421.162,390.344z"/>
					</g>
					<g>
						<path style="fill:#FFE3BF;" d="M459.354,290.039c0,0,0,0,0,0.025c-0.074,0.467-0.147,0.884-0.221,1.326        c-0.688-1.867-1.375-3.758-2.088-5.625c-4.716-12.501-10.512-26.771-20.042-38.093c-2.505-2.972-4.814-4.2-6.901-3.659        c-1.965,0.516-3.365,2.48-4.249,6.017c-4.568,18.421-0.221,37.701,4.003,56.342l0.024,0.147        c3.611,15.989,7.098,32.052,10.414,48.188c-0.148,0.344-0.295,0.688-0.467,1.056c-3.389-16.456-6.926-32.838-10.61-49.097        l-0.024-0.123c-4.249-18.74-8.621-38.094-4.003-56.686c0.958-3.782,2.53-5.919,4.74-6.484        c2.383-0.639,4.912,0.688,7.565,3.856c9.628,11.396,15.473,25.764,20.189,38.315        C458.249,287.042,458.789,288.54,459.354,290.039z"/>
					</g>
				</g>
			</g>
			<g>
				<g>
					<g>
						<polygon style="fill:#411C36;" points="28.151,134.741 28.151,162.879 196.396,284.226 494.781,177.828 495.66,154.525               "/>
					</g>
					<g>
						<path style="fill:#FFE3BF;" d="M196.396,284.801c-0.007,0-0.016,0-0.023,0c-0.316-0.014-0.562-0.281-0.551-0.598l1.172-29.018        c0.014-0.316,0.239-0.516,0.598-0.551c0.316,0.014,0.562,0.281,0.551,0.598l-1.172,29.018        C196.956,284.56,196.703,284.801,196.396,284.801z"/>
					</g>
					<g>
						<polygon style="fill:#7657AA;" points="28.151,134.741 197.568,258.433 495.953,154.672 318.915,32.739       "/>
					</g>
					<g>
						<g>
							<ellipse style="fill:#411C36;" cx="228.052" cy="155.649" rx="99.852" ry="70.346"/>
						</g>
						<g>
							<g>
								<ellipse style="fill:#FFE3BF;" cx="230.787" cy="146.66" rx="29.401" ry="20.713"/>
							</g>
							<g>
								<path style="fill:#411C36;" d="M232.449,150.105c-0.635,0-1.148-0.513-1.148-1.148v-17c0-0.635,0.513-1.148,1.148-1.148          c0.635,0,1.148,0.513,1.148,1.148v17C233.597,149.591,233.084,150.105,232.449,150.105z"/>
							</g>
						</g>
					</g>
					<g>
						<g>
							<g>
								<path style="fill:#411C36;" d="M328.683,156.236c0,19.677-11.457,37.471-29.963,50.214          c-18.001,12.467-42.683,20.136-69.891,20.136c-55.151,0-99.854-31.501-99.854-70.35c0-4.087,0.505-8.082,1.447-11.985          c5.143-21.1,23.626-39.009,49.135-49.204c14.534-5.832,31.364-9.161,49.273-9.161c50.191,0,91.726,26.083,98.798,60.064          C328.316,149.302,328.683,152.746,328.683,156.236z"/>
							</g>
							<g>
								<g style="opacity:0.1;">
									<path style="fill:#FFE3BF;" d="M217.211,130.934l-11.136,13.776l-75.654-0.459c5.143-21.1,23.626-39.009,49.135-49.204           L217.211,130.934z"/>
								</g>
								<g style="opacity:0.1;">
									<path style="fill:#FFE3BF;" d="M328.683,156.236c0,19.677-11.457,37.471-29.963,50.214l-49.847-50.604l4.087-13.478           l74.667,3.582C328.316,149.302,328.683,152.746,328.683,156.236z"/>
								</g>
							</g>
							<g>
								<g>
									<ellipse style="fill:#FFE3BF;" cx="231.569" cy="147.246" rx="29.401" ry="20.713"/>
								</g>
								<g>
									<path style="fill:#411C36;" d="M233.23,150.69c-0.635,0-1.148-0.513-1.148-1.148v-17c0-0.635,0.513-1.148,1.148-1.148           c0.635,0,1.148,0.513,1.148,1.148v17C234.378,150.177,233.865,150.69,233.23,150.69z"/>
								</g>
							</g>
						</g>
						<g>
							<path style="fill:#FFE3BF;" d="M111.687,137.818c0,6.232-6.89,11.285-15.388,11.285c-8.499,0-15.388-5.052-15.388-11.285         c0-6.233,6.89-11.285,15.388-11.285C104.798,126.533,111.687,131.586,111.687,137.818z"/>
						</g>
						<g>
							<g>
								<path style="fill:#411C36;" d="M332.399,61.024c0,6.232-6.89,11.285-15.388,11.285c-8.499,0-15.388-5.052-15.388-11.285          c0-6.233,6.889-11.285,15.388-11.285C325.509,49.739,332.399,54.791,332.399,61.024z"/>
							</g>
							<g>
								<path style="fill:#411C36;" d="M345.294,168.424c-0.246,0-0.492-0.077-0.701-0.239c-0.502-0.387-0.595-1.109-0.209-1.61          l36.009-46.667l-63.152-60.546c-0.457-0.441-0.473-1.167-0.035-1.624c0.443-0.455,1.167-0.471,1.624-0.035l63.897,61.261          c0.424,0.408,0.473,1.066,0.115,1.53l-36.639,47.483C345.976,168.27,345.637,168.424,345.294,168.424z"/>
							</g>
							<g>
								<path style="fill:#411C36;" d="M341.778,159.166l12.506,8.207l-8.573,17.024c-2.688,5.338-9.494,7.036-14.375,3.588l0,0          c-4.682-3.308-5.527-9.917-1.827-14.296L341.778,159.166z"/>
							</g>
						</g>
						<g>
							<g>
								<g>
									<path style="fill:#411C36;" d="M390.727,167.569c0,3.723-3.937,6.742-8.793,6.742c-4.856,0-8.793-3.018-8.793-6.742           s3.937-6.742,8.793-6.742C386.79,160.827,390.727,163.845,390.727,167.569z"/>
								</g>
								<g>
									<path style="fill:#411C36;" d="M419.159,157.31c0,3.723-3.937,6.741-8.793,6.741c-4.856,0-8.793-3.018-8.793-6.741           c0-3.723,3.937-6.742,8.793-6.742C415.222,150.569,419.159,153.587,419.159,157.31z"/>
								</g>
							</g>
							<g>
								<g>
									<path style="fill:#411C36;" d="M462.147,149.177c-0.234,0-0.469-0.07-0.673-0.218l-73.862-53.347           c-0.513-0.37-0.63-1.087-0.258-1.603c0.373-0.513,1.087-0.63,1.603-0.258l73.862,53.347c0.513,0.37,0.63,1.087,0.258,1.603           C462.852,149.01,462.503,149.177,462.147,149.177z"/>
								</g>
								<g>
									<polygon style="fill:#FFE3BF;" points="422.676,131.419 440.263,123.993 449.642,129.66 432.495,139.284          "/>
								</g>
							</g>
						</g>
					</g>
				</g>
				<g>
					<g>
						<polygon style="fill:#FF6A6C;" points="358.784,321.159 332.976,485.095 94.259,453.571 103.891,354.634 118.299,292.069               "/>
					</g>
					<g>
						<polygon style="fill:#411C36;" points="118.299,292.069 94.259,453.571 81.493,451.895 106.704,290.668       "/>
					</g>
					<g>
						<g>
							<g>
								<path style="fill:#FFE3BF;" d="M316.304,469.732c-0.232,0-0.464-0.012-0.701-0.042l-202.391-24.692          c-1.556-0.19-2.934-0.98-3.879-2.229c-0.947-1.244-1.338-2.782-1.101-4.329l19.339-127.713          c0.464-3.082,3.246-5.226,6.349-4.842l204.952,24.31c1.575,0.185,2.967,0.989,3.918,2.262          c0.954,1.273,1.331,2.836,1.064,4.404l-21.898,128.099C321.481,467.747,319.067,469.732,316.304,469.732z M133.236,308.141          c-1.685,0-3.136,1.221-3.396,2.929l-19.339,127.715c-0.141,0.928,0.094,1.849,0.661,2.597          c0.567,0.748,1.394,1.223,2.327,1.338l202.391,24.692c1.861,0.227,3.504-1.024,3.813-2.838l21.898-128.099          c0.159-0.94-0.066-1.877-0.637-2.644c-0.572-0.762-1.406-1.244-2.353-1.357l-204.95-24.31          C133.513,308.148,133.375,308.141,133.236,308.141z"/>
							</g>
							<g>
								<polygon style="fill:#FFE3BF;" points="274.401,463.196 270.722,439.137 181.43,427.614 165.997,451.338 164.071,450.086           180.291,425.153 181.008,425.244 272.728,437.079 276.67,462.849         "/>
							</g>
							<g>
								<path style="fill:#FFE3BF;" d="M309.011,428.232l-1.071-0.122l-179.691-20.654l12.667-81.727l1.118,0.155l180.86,24.783          L309.011,428.232z M130.884,405.451l176.248,20.255l13.082-73.089l-177.375-24.305L130.884,405.451z"/>
							</g>
						</g>
						<g>
							<g>
								<path style="fill:#FFE3BF;" d="M165.747,367.087l-0.616,2.805c-2.532,11.523,7.155,22.574,21.327,24.332l77.266,9.58          c13.181,1.634,25.519-5.401,28.179-16.066l0.908-3.64c2.863-11.481-6.532-22.721-20.674-24.733l-74.354-10.575          C182.703,346.645,168.45,354.785,165.747,367.087z"/>
							</g>
							<g>
								<path style="fill:#411C36;" d="M207.241,370.84c0,7.042-5.708,12.75-12.75,12.75s-12.75-5.708-12.75-12.75          s5.709-12.75,12.75-12.75S207.241,363.798,207.241,370.84z"/>
							</g>
							<g>
								<path style="fill:#411C36;" d="M277.587,380.22c0,7.042-5.708,12.75-12.75,12.75s-12.75-5.708-12.75-12.75          c0-7.042,5.708-12.75,12.75-12.75S277.587,373.178,277.587,380.22z"/>
							</g>
						</g>
						<g>
							<g>
								<path style="fill:#411C36;" d="M141.585,316.322c0,2.186-1.772,3.957-3.957,3.957c-2.185,0-3.957-1.772-3.957-3.957          c0-2.185,1.772-3.957,3.957-3.957C139.813,312.365,141.585,314.136,141.585,316.322z"/>
							</g>
							<g>
								<path style="fill:#411C36;" d="M335.33,341.822c0,2.185-1.772,3.957-3.957,3.957s-3.957-1.772-3.957-3.957          c0-2.185,1.772-3.957,3.957-3.957S335.33,339.637,335.33,341.822z"/>
							</g>
							<g>
								<path style="fill:#411C36;" d="M315.691,457.014c0,2.185-1.772,3.957-3.957,3.957c-2.185,0-3.957-1.772-3.957-3.957          c0-2.186,1.772-3.957,3.957-3.957C313.92,453.057,315.691,454.829,315.691,457.014z"/>
							</g>
							<g>
								<path style="fill:#411C36;" d="M124.877,435.324c0,2.185-1.772,3.957-3.957,3.957c-2.186,0-3.957-1.772-3.957-3.957          c0-2.185,1.772-3.957,3.957-3.957C123.106,431.367,124.877,433.139,124.877,435.324z"/>
							</g>
						</g>
					</g>
				</g>
			</g>
			<g>
				<g>
					<g>
						
							<rect x="408.351" y="251.31" transform="matrix(0.8921 -0.4519 0.4519 0.8921 -82.1633 215.098)" style="fill:#411C36;" width="1.723" height="56.486"/>
					</g>
					<g>
						<path style="fill:#411C36;" d="M407.315,301.887c-3.144,0.403-6.362,1.158-8.873,3.093c-2.511,1.935-4.138,5.303-3.227,8.34        c1.038,3.461,5.047,5.364,8.647,5.046c3.6-0.317,6.812-2.353,9.643-4.6c1.936-1.536,3.77-3.199,5.49-4.973        c0.879-0.907,1.727-1.844,2.544-2.806c0.972-1.145,1.747-1.527,0.548-2.525c-1.597-1.328-5.091-1.595-7.07-1.78        C412.454,301.442,409.864,301.561,407.315,301.887z"/>
					</g>
					<g>
						<polygon style="fill:#411C36;" points="395.277,254.431 424.323,237.707 431.364,252.377 402.758,267.781       "/>
					</g>
				</g>
				<g>
					<g>
						
							<rect x="30.504" y="239.681" transform="matrix(0.5547 -0.8321 0.8321 0.5547 -173.9831 155.9954)" style="fill:#411C36;" width="56.488" height="1.724"/>
					</g>
					<g>
						<path style="fill:#411C36;" d="M38.368,249.874c-1.897-2.54-4.137-4.971-7.057-6.205c-2.92-1.235-6.652-0.995-8.848,1.292        c-2.503,2.606-2.188,7.032-0.142,10.011c2.047,2.978,5.399,4.774,8.747,6.134c2.289,0.93,4.639,1.71,7.03,2.335        c1.222,0.319,2.455,0.597,3.695,0.835c1.475,0.283,2.189,0.77,2.468-0.764c0.371-2.043-1.115-5.217-1.926-7.031        C41.283,254.13,39.906,251.933,38.368,249.874z"/>
					</g>
					<g>
						<polygon style="fill:#411C36;" points="73.769,216.054 102.614,233.121 93.304,246.466 65.824,229.133       "/>
					</g>
				</g>
				<g>
					<g>
						<g>
							<polygon style="fill:#7657AA;" points="294.078,264.688 353.353,259.47 325.234,308.33        "/>
						</g>
					</g>
					<g>
						<g>
							<polygon style="fill:#FFE3BF;" points="135.899,109.048 146.692,50.53 186.274,90.671        "/>
						</g>
					</g>
					<g>
						<g>
							<polygon style="fill:#FF6A6C;" points="42.006,345.921 52.799,287.404 92.381,327.545        "/>
						</g>
					</g>
				</g>
			</g>
		</g>
	</g>
</g>















</svg>
