<?xml version="1.0" encoding="UTF-8"?>
<!-- Generator: Adobe Illustrator 25.3.1, SVG Export Plug-In . SVG Version: 6.00 Build 0)  -->
<svg xmlns="http://www.w3.org/2000/svg" xmlns:xlink="http://www.w3.org/1999/xlink" version="1.1" id="Capa_1" x="0px" y="0px" viewBox="0 0 511.082 511.082" style="enable-background:new 0 0 511.082 511.082;" xml:space="preserve" width="512" height="512">
<g>
	<g>
		<g>
			<path style="fill:#FFFFFF;" d="M370.135,506.787c7.144-0.119,12.91-5.875,13.042-13.02l0.501-27.2     c14.879-9.939,28.544-21.545,40.689-34.571c40.065-42.872,62.13-98.83,62.13-157.57c0-95.282-58.216-180.187-146.052-214.849     c0.011-2.237-0.208-4.478-0.658-6.702c-3.603-17.798-22.534-24.751-33.362-27.301c-4.446-7.687-13.156-19.606-26.191-23.851     C276.721,0.579,272.747,0,268.423,0c-18.82,0-45.973,11.876-55.002,21.599c-5.626,6.059-8.968,15.117-9.563,25.354     c-1.299,0.926-2.507,1.993-3.609,3.191c-14.352,3.527-28.563,8.415-41.926,14.748c-14.477,6.711-28.313,14.981-41.118,24.578     c-58.861,44.1-92.619,111.513-92.619,184.957c0,67.271,28.913,130.437,79.569,174.396l-3.606,48     c-0.28,3.718,1.019,7.385,3.579,10.096c2.509,2.66,6.001,4.163,9.65,4.163L370.135,506.787z"/>
		</g>
		<g>
			<g>
				<g>
					<path style="fill:#FFC151;" d="M473.983,274.427c0,57.398-22.232,109.644-58.555,148.512       c-24.419,26.186-55.253,46.335-89.999,57.966c-0.379,0.126-0.757,0.252-1.157,0.358c-21.39,7.046-44.232,10.853-67.978,10.853       c-32.538,0-63.393-7.13-91.114-19.939c-0.336-0.147-0.673-0.294-1.009-0.484C89.988,437.01,38.605,361.713,38.605,274.427       c0-71.322,34.304-134.631,87.307-174.34c12.01-9.002,24.987-16.784,38.742-23.157c21.976-10.439,46.043-16.792,70.228-19.152       c7.115-0.694,14.263-1.039,21.412-1.039C376.517,56.738,473.983,154.204,473.983,274.427z"/>
				</g>
				<g>
					<g>
						<g>
							<path style="fill:#7657AA;" d="M298.359,37.428c0,0,26.134,3.043,29.177,18.079s-11.635,27.566-26.313,29.177l-37.544-48.207         l22.485-5.401L298.359,37.428z"/>
						</g>
						<g>
							<path style="fill:#FFE3BF;" d="M212.617,122.096c0,0-41.17,8.234-57.639,19.69c0,0,19.69,31.862,24.344,75.539         c4.654,43.676-13.604,159.312-13.604,159.312l146.066,6.444L284.218,151.81l-27.301-19.417L212.617,122.096z"/>
						</g>
						<g>
							<g>
								<g>
									<g>
										<rect x="125.622" y="340.836" style="fill:#411C36;" width="250.961" height="10.024"/>
									</g>
									<g>
										<path style="fill:#411C36;" d="M129.561,369.454c-0.005,0-0.011,0-0.016,0c-0.58-0.009-1.044-0.487-1.035-1.068            l0.357-23.986c0.009-0.58,0.476-0.977,1.068-1.035c0.58,0.009,1.044,0.487,1.035,1.068l-0.357,23.986            C130.603,368.993,130.135,369.454,129.561,369.454z"/>
									</g>
									<g>
										<path style="fill:#411C36;" d="M369.424,369.454c-0.005,0-0.011,0-0.016,0c-0.58-0.009-1.044-0.487-1.035-1.068            l0.357-23.986c0.009-0.58,0.47-1.099,1.068-1.035c0.58,0.009,1.044,0.487,1.035,1.068l-0.357,23.986            C370.466,368.993,369.997,369.454,369.424,369.454z"/>
									</g>
								</g>
								<g>
									<g>
										<polygon style="fill:#7657AA;" points="351.899,379.758 372.264,406.638 370.666,493.524 114.529,497.815             121.975,398.709 143.185,374.567           "/>
									</g>
									<g>
										<g>
											<g>
												<path style="fill:#FFE3BF;" d="M167.33,486.354c-22.3,0-40.443-18.143-40.443-40.443              c0-22.301,18.143-40.443,40.443-40.443s40.443,18.143,40.443,40.443C207.773,468.212,189.63,486.354,167.33,486.354z               M167.33,406.519c-21.721,0-39.392,17.671-39.392,39.392s17.671,39.392,39.392,39.392s39.392-17.671,39.392-39.392              S189.05,406.519,167.33,406.519z"/>
											</g>
											<g>
												<path style="fill:#FFE3BF;" d="M167.33,478.12c-17.761,0-32.209-14.448-32.209-32.209s14.448-32.209,32.209-32.209              s32.209,14.448,32.209,32.209S185.09,478.12,167.33,478.12z M167.33,414.753c-17.18,0-31.158,13.978-31.158,31.158              c0,17.18,13.978,31.158,31.158,31.158s31.158-13.978,31.158-31.158C198.487,428.731,184.51,414.753,167.33,414.753z"/>
											</g>
											<g>
												<path style="fill:#FFE3BF;" d="M167.33,457.713c-6.508,0-11.802-5.294-11.802-11.802              c0-6.509,5.294-11.803,11.802-11.803c6.509,0,11.803,5.294,11.803,11.803              C179.133,452.419,173.839,457.713,167.33,457.713z M167.33,435.159c-5.928,0-10.751,4.824-10.751,10.752              c0,5.928,4.823,10.751,10.751,10.751c5.928,0,10.752-4.823,10.752-10.751              C178.082,439.983,173.258,435.159,167.33,435.159z"/>
											</g>
										</g>
										<g>
											<g>
												<path style="fill:#FFE3BF;" d="M325.926,489.576c-22.3,0-40.443-18.143-40.443-40.443s18.143-40.443,40.443-40.443              s40.443,18.143,40.443,40.443S348.226,489.576,325.926,489.576z M325.926,409.741              c-21.721,0-39.392,17.671-39.392,39.392s17.671,39.392,39.392,39.392s39.392-17.671,39.392-39.392              S347.647,409.741,325.926,409.741z"/>
											</g>
											<g>
												<path style="fill:#FFE3BF;" d="M325.926,481.342c-17.761,0-32.209-14.448-32.209-32.209s14.448-32.209,32.209-32.209              s32.209,14.448,32.209,32.209S343.687,481.342,325.926,481.342z M325.926,417.975c-17.18,0-31.158,13.978-31.158,31.158              s13.978,31.158,31.158,31.158s31.158-13.978,31.158-31.158S343.106,417.975,325.926,417.975z"/>
											</g>
											<g>
												<path style="fill:#FFE3BF;" d="M325.926,460.936c-6.508,0-11.803-5.294-11.803-11.803              c0-6.508,5.296-11.802,11.803-11.802s11.802,5.294,11.802,11.802C337.728,455.642,332.434,460.936,325.926,460.936z               M325.926,438.382c-5.928,0-10.752,4.823-10.752,10.751s4.824,10.752,10.752,10.752s10.751-4.824,10.751-10.752              S331.854,438.382,325.926,438.382z"/>
											</g>
										</g>
									</g>
									<g>
										<g>
											
												<rect x="161.945" y="444.49" transform="matrix(0.0246 -0.9997 0.9997 0.0246 -236.2786 647.8588)" style="fill:#FFE3BF;" width="103.851" height="1.052"/>
										</g>
										<g>
											
												<rect x="225.123" y="443.101" transform="matrix(0.0308 -0.9995 0.9995 0.0308 -174.7146 707.0749)" style="fill:#FFE3BF;" width="104.228" height="1.052"/>
										</g>
										<g>
											
												<rect x="214.676" y="424.665" transform="matrix(1 -0.0041 0.0041 1 -1.7441 1.0159)" style="fill:#FFE3BF;" width="63.635" height="1.052"/>
										</g>
										<g>
											<g>
												<polygon style="fill:#FFE3BF;" points="264.225,435.52 231.707,435.336 229.468,425.442 230.494,425.208               232.549,434.289 263.398,434.464 265.627,425.202 266.651,425.448             "/>
											</g>
											<g>
												<g>
													<path style="fill:#FFE3BF;" d="M234.277,449.759c0,2.323-1.883,4.207-4.207,4.207c-2.323,0-4.207-1.883-4.207-4.207               s1.883-4.207,4.207-4.207C232.393,445.553,234.277,447.436,234.277,449.759z"/>
												</g>
												<g>
													<circle style="fill:#FFE3BF;" cx="263.185" cy="449.759" r="4.207"/>
												</g>
											</g>
										</g>
									</g>
									<g>
										<g>
											<polygon style="fill:#FFFFFF;" points="373.001,366.255 372.264,406.638 121.975,398.709 124.73,361.965            "/>
										</g>
										<g>
											<g>
												<path style="fill:#411C36;" d="M241.392,389.335c-4.362,0-7.91-3.548-7.91-7.909s3.549-7.91,7.91-7.91              s7.909,3.549,7.909,7.91S245.754,389.335,241.392,389.335z M241.392,374.567c-3.782,0-6.859,3.077-6.859,6.859              c0,3.781,3.077,6.858,6.859,6.858c3.781,0,6.858-3.077,6.858-6.858C248.25,377.644,245.173,374.567,241.392,374.567z"/>
											</g>
											<g>
												<path style="fill:#411C36;" d="M267.706,389.335c-4.362,0-7.91-3.548-7.91-7.909s3.549-7.91,7.91-7.91              s7.909,3.549,7.909,7.91S272.067,389.335,267.706,389.335z M267.706,374.567c-3.782,0-6.859,3.077-6.859,6.859              c0,3.781,3.077,6.858,6.859,6.858c3.781,0,6.858-3.077,6.858-6.858C274.563,377.644,271.486,374.567,267.706,374.567z"/>
											</g>
											<g>
												<path style="fill:#411C36;" d="M292.676,389.335c-4.362,0-7.909-3.548-7.909-7.909s3.548-7.91,7.909-7.91              s7.909,3.549,7.909,7.91S297.038,389.335,292.676,389.335z M292.676,374.567c-3.781,0-6.858,3.077-6.858,6.859              c0,3.781,3.077,6.858,6.858,6.858c3.781,0,6.858-3.077,6.858-6.858C299.534,377.644,296.457,374.567,292.676,374.567z"/>
											</g>
											<g>
												<path style="fill:#411C36;" d="M344.497,397.39c-7.175,0-13.012-5.836-13.012-13.011c0-7.174,5.836-13.01,13.012-13.01              c7.174,0,13.01,5.836,13.01,13.01C357.508,391.554,351.671,397.39,344.497,397.39z M344.497,372.42              c-6.594,0-11.96,5.365-11.96,11.959c0,6.594,5.366,11.96,11.96,11.96s11.959-5.366,11.959-11.96              C356.456,377.784,351.092,372.42,344.497,372.42z"/>
											</g>
										</g>
									</g>
								</g>
							</g>
							<g>
								
									<rect x="213.602" y="464.672" transform="matrix(1 -0.0041 0.0041 1 -1.9084 1.0118)" style="fill:#FFE3BF;" width="63.636" height="1.052"/>
							</g>
						</g>
						<g>
							<g>
								<path style="fill:#FFA073;" d="M214.024,327.336l-0.556-0.685c0,0-18.124-33.339-26.179-44.169          c-5.91-7.945-5.46-39.738-5.46-39.738l-48.689-3.222c0,0,0.716,37.59,10.024,50.478          c6.951,9.624,23.055,30.098,32.399,39.918c1.512,1.775,3.453,4.151,4.117,5.728c1.432,3.401,5.37,18.974,7.16,20.227          c1.79,1.253,6.802,0.895,6.802,0.895s0.84,3.699,3.704,3.699s7.395-0.298,7.395-0.298s3.222,1.969,5.728,1.611          c2.506-0.358,4.296-3.58,4.296-3.58s5.012,0.358,7.697-1.074C225.063,355.739,219.27,335.751,214.024,327.336z"/>
							</g>
							<g>
								<path style="fill:#411C36;" d="M199.718,361.268c-1.904,0-3.924-0.387-5.169-1.778c-2.344-2.62-5.362-15.135-5.49-15.667          c-0.067-0.282,0.107-0.566,0.39-0.634c0.287-0.065,0.566,0.107,0.634,0.39c1.057,4.412,3.515,13.271,5.25,15.21          c1.335,1.493,4.193,1.807,8.5,0.937l0.134-0.028c0.301-0.05,0.562,0.13,0.62,0.412c0.056,0.285-0.128,0.562-0.412,0.62          l-0.133,0.026C203.193,360.927,201.506,361.268,199.718,361.268z"/>
							</g>
							<g>
								<path style="fill:#411C36;" d="M209.533,362.177c-1.864,0-3.752-0.812-4.669-1.27c-1.978-0.989-5.568-13.644-6.267-16.172          c-0.078-0.28,0.086-0.57,0.366-0.647c0.288-0.077,0.571,0.085,0.647,0.366c1.998,7.217,4.687,14.993,5.725,15.511          c1.167,0.585,4.097,1.823,6.039,0.729c1.916-1.082,2.931-2.749,2.941-2.766c0.152-0.249,0.474-0.328,0.722-0.18          c0.248,0.15,0.329,0.473,0.18,0.722c-0.048,0.078-1.17,1.923-3.325,3.139C211.165,362.021,210.351,362.177,209.533,362.177z          "/>
							</g>
							<g>
								<path style="fill:#411C36;" d="M217.009,359.014c-1.302,0-2.267-0.244-2.331-0.261c-0.166-0.042-0.3-0.163-0.361-0.324          l-5.996-15.976c-0.103-0.272,0.036-0.574,0.308-0.677c0.269-0.102,0.575,0.036,0.677,0.308l5.896,15.707          c0.657,0.124,2.468,0.381,4.189-0.18l0.566-0.179c2.005-0.623,3.214-0.999,2.482-4.77          c-0.878-4.522-3.978-13.623-4.01-13.714c-0.094-0.274,0.053-0.573,0.328-0.667c0.274-0.096,0.573,0.053,0.667,0.328          c0.128,0.376,3.155,9.26,4.046,13.853c0.912,4.696-1.086,5.317-3.202,5.975l-0.552,0.175          C218.774,358.918,217.825,359.014,217.009,359.014z"/>
							</g>
						</g>
						<g>
							<path style="fill:#FFA073;" d="M227.653,83.431c0,0-1.79,13.067-5.191,20.048c-3.401,6.981-11.456,19.69-11.456,19.69         s15.394,16.468,28.461,17.363c13.067,0.895,17.363-7.876,17.363-7.876l8.055-30.43L227.653,83.431z"/>
						</g>
						<g>
							<path style="fill:#FFA073;" d="M307.126,69.82c0,2.503-0.231,4.943-0.694,7.298c-0.61,3.281-1.641,6.415-2.987,9.36         c-2.272,6.731-6.121,16.995-10.895,25.197c-3.975,6.878-8.624,12.325-13.524,13.103c-14.492,2.335-33.821-1.43-42.591-10.558         c-8.792-9.128-11.295-16.279-11.295-16.279l2.671-24.903c-0.084-1.073-0.168-2.124-0.168-3.218         c0-1.809,0.126-3.575,0.379-5.3c0.105-0.989,0.273-1.977,0.463-2.923c3.807-18.004,19.771-31.507,38.91-31.507         c13.882,0,26.081,7.109,33.19,17.899c3.933,5.973,6.31,13.082,6.52,20.717C307.126,69.062,307.126,69.441,307.126,69.82z"/>
						</g>
						<g>
							<g>
								<g>
									<path style="fill:#411C36;" d="M260.118,38.313c-0.505,0.883-0.316,1.998-0.189,3.029           c1.094,9.086-4.901,18.509-13.587,21.39c-2.608,0.863-5.553,1.262-7.572,3.134c-2.082,1.956-2.65,5.027-2.839,7.887           c-0.168,3.008,0,6.184,1.514,8.792c2.419,4.143,7.677,5.826,12.473,5.721c4.796-0.084,9.444-1.556,14.218-2.166           c3.786-0.484,7.635-0.379,11.4,0.253c2.566,0.442,5.132,1.157,7.298,2.566c4.228,2.734,6.457,7.635,7.908,12.43           c1.052,3.344,1.788,6.857,1.809,10.327c-3.975,6.878-9.876,13.223-14.776,14.001c-14.492,2.335-32.568-2.328-41.339-11.456           c-8.792-9.128-11.757-16.716-11.757-16.716c0.613-5.712,1.046-11.657,1.636-17.372c0.531-5.15,1.577-9.626,2.039-14.782           c0.241-2.685,0.562-5.378,1.126-8.017c0.497-2.328,1.83-4.381,2.963-6.463c1.821-3.347,4.126-6.428,6.818-9.123           c5.446-5.451,12.451-9.258,19.997-10.826c2.675-0.556,5.406-0.832,8.138-0.832c13.882,0,26.081,7.109,33.19,17.899           c-6.079,0.358-12.283-0.757-17.857-3.218c-6.205-2.734-11.884-7.13-18.635-7.803           C262.621,36.819,260.854,37.009,260.118,38.313z"/>
								</g>
								<g>
									<path style="fill:#FFA073;" d="M284.713,89.752c-0.392,1.315-0.845,2.651-1.717,3.711           c-1.317,1.601-3.495,2.369-5.562,2.206c-2.067-0.163-4.009-1.18-5.524-2.597c-1.23-1.151-2.235-2.638-2.433-4.311           c-0.207-1.75,0.494-3.507,1.537-4.927c1.043-1.42,2.41-2.563,3.738-3.721c3.491-3.045,6.801-6.296,9.908-9.731           c0.691-0.764,1.655-1.615,2.616-1.243C287.089,76.2,286.749,82.919,284.713,89.752z"/>
								</g>
								<g>
									<g>
										<path style="fill:#411C36;" d="M270.768,73.876c0,2.038-1.597,3.691-3.568,3.691c-1.97,0-3.567-1.653-3.567-3.691            c0-2.039,1.597-3.691,3.567-3.691C269.171,70.185,270.768,71.838,270.768,73.876z"/>
									</g>
									<g>
										<path style="fill:#411C36;" d="M297.106,80.814c0,2.039-1.597,3.691-3.567,3.691c-1.97,0-3.568-1.653-3.568-3.691            c0-2.038,1.597-3.691,3.568-3.691C295.509,77.124,297.106,78.776,297.106,80.814z"/>
									</g>
									<g>
										<g>
											<path style="fill:#411C36;" d="M259.858,64.453c0.008,0.912,0.073,1.896,0.651,2.602             c0.453,0.553,1.148,0.841,1.821,1.081c3.29,1.17,6.807,1.696,10.296,1.538c0.89-0.04,1.802-0.131,2.6-0.528             c1.693-0.844,2.476-2.916,2.374-4.806c-0.21-3.902-4.465-8.24-8.444-8.354C263.659,55.827,259.809,58.922,259.858,64.453             z"/>
										</g>
										<g>
											<path style="fill:#411C36;" d="M307.126,69.82c0,2.503-0.231,4.943-0.694,7.298c-0.084,0.147-0.21,0.295-0.316,0.442             c-0.547,0.715-1.199,1.472-2.082,1.683c-0.694,0.168-1.43-0.042-2.103-0.252c-3.323-1.073-6.457-2.776-9.128-5.027             c-0.673-0.568-1.346-1.199-1.746-1.998c-0.82-1.704-0.189-3.828,1.031-5.258c2.545-2.987,8.56-3.849,11.799-1.514             c1.43,1.031,2.524,2.23,3.218,3.512C307.126,69.062,307.126,69.441,307.126,69.82z"/>
										</g>
									</g>
									<g>
										<path style="fill:#411C36;" d="M279.34,96.414c-0.286,0.024-0.281-0.074-0.309-0.361c-0.029-0.289,0.12-0.335,0.409-0.363            c1.482-0.146,2.603-1.523,3.608-2.799c4.83-6.13,2.547-23.021,2.523-23.191c-0.041-0.288,0.16-0.553,0.448-0.593            c0.307-0.061,0.552,0.161,0.593,0.448c0.1,0.712,2.368,17.504-2.737,23.986c-1.175,1.492-2.51,2.658-4.268,2.831            C279.605,96.372,279.342,96.414,279.34,96.414z"/>
									</g>
								</g>
							</g>
							<g>
								<path style="fill:#411C36;" d="M228.728,60.877l-3.587,37.063c0,0,4.124,3.928,8.241,4.465          c4.117,0.537,1.969-24.344,1.969-24.344l0.358-20.943L228.728,60.877z"/>
							</g>
							<g>
								<path style="fill:#FFA073;" d="M278.352,101.673c-0.002,0-0.003,0-0.005,0c-1.843-0.019-4.009-0.112-6.103-0.659          c-1.546-0.404-4.339-1.442-5.673-3.864c-0.139-0.255-0.047-0.574,0.207-0.715c0.25-0.138,0.574-0.048,0.715,0.207          c1.144,2.077,3.634,2.993,5.017,3.354c1.983,0.517,4.069,0.606,5.848,0.624c0.29,0.003,0.524,0.241,0.52,0.531          C278.874,101.441,278.64,101.673,278.352,101.673z"/>
							</g>
						</g>
						<g>
							<path style="fill:#FFE3BF;" d="M220.673,66.247c0,0,19.69-13.604,33.652-20.048c13.962-6.444,37.59-10.561,44.035-8.771         c0,0-7.952-18.687-21.48-23.091c-15.394-5.012-46.003,8.771-52.985,16.289C216.913,38.144,216.018,54.791,220.673,66.247z"/>
						</g>
						<g>
							<g>
								<path style="fill:#FFA073;" d="M222.207,57.116c-2.186-0.974-4.54-1.374-6.911-0.755          c-6.529,1.703-9.117,10.014-7.852,15.966c1.008,4.744,4.281,8.497,8.353,10.963c1.64,0.993,3.414,1.814,5.305,2.132          c8.141,1.37,14.769-6.832,12.935-14.516c-0.663-2.777-2.167-5.296-3.991-7.492          C228.043,61.004,225.291,58.489,222.207,57.116z"/>
							</g>
						</g>
						<g>
							<g>
								<path style="fill:#FFA073;" d="M298.726,239.163c0,0,4.249,30.43,1.961,41.886c-1.057,5.292-6.109,20.159-13.963,34.011          c-9.149,16.135-21.111,31.203-19.704,32.936c2.615,3.222,14.055-11.456,14.055-11.456s-7.845,25.418-5.557,27.208          c0,0,1.634,1.79,3.595-0.716c1.961-2.506,6.537-11.277,6.537-11.277s2.087,3.252,6.663,2.536c0,0,4.244,4.564,8.167,1.52          c0,0,5.599,2.745,8.868-1.193c3.269-3.938,24.025-51.015,27.293-60.145c3.269-9.129,6.023-26.718,4.23-36.964          c-1.88-10.74-5.102-22.286-5.102-22.286L298.726,239.163z"/>
							</g>
							<g>
								<g>
									<path style="fill:#411C36;" d="M276.451,365.036c-0.167,0-0.334-0.019-0.5-0.059c-0.458-0.11-0.833-0.392-1.086-0.814           c-1.021-1.706,0.025-5.706,0.789-8.627l0.179-0.689c0.796-3.092,4.967-20.667,5.009-20.844           c0.067-0.282,0.353-0.455,0.633-0.391c0.283,0.067,0.458,0.351,0.391,0.633c-0.042,0.178-4.217,17.763-5.014,20.864           l-0.181,0.694c-0.635,2.428-1.698,6.493-0.904,7.82c0.108,0.182,0.245,0.287,0.43,0.331           c2.124,0.543,5.494-5.88,7.108-8.952c2.73-5.196,8.335-19.143,8.391-19.283c0.108-0.271,0.417-0.403,0.683-0.293           c0.27,0.108,0.401,0.415,0.293,0.683c-0.056,0.141-5.681,14.139-8.436,19.382           C281.155,361.353,278.74,365.035,276.451,365.036z"/>
								</g>
								<g>
									<path style="fill:#411C36;" d="M290.817,354.895c-0.08,0-0.161-0.001-0.243-0.004c-1.884-0.072-3.705-0.9-4.999-2.271           c-0.2-0.211-0.19-0.544,0.022-0.743c0.209-0.199,0.542-0.191,0.743,0.022c1.107,1.171,2.664,1.88,4.274,1.941           c0.621,0.028,1.115-0.058,1.507-0.248c0.622-0.302,1.075-0.912,1.486-1.511c2.309-3.373,3.918-7.22,5.244-10.563           c0.108-0.269,0.415-0.401,0.683-0.295c0.27,0.107,0.402,0.414,0.295,0.683c-1.347,3.394-2.983,7.307-5.354,10.769           c-0.47,0.684-1.042,1.448-1.894,1.862C292.086,354.778,291.507,354.895,290.817,354.895z"/>
								</g>
								<g>
									<path style="fill:#411C36;" d="M297.348,357.323c-2.107,0-4.091-0.924-5.15-2.467c-0.164-0.24-0.103-0.567,0.136-0.732           c0.243-0.163,0.567-0.104,0.732,0.136c1.017,1.482,3.111,2.261,5.209,1.941c0.647-0.098,1.155-0.273,1.554-0.532           c0.597-0.389,1.031-1.035,1.343-1.555c0.661-1.104,1.163-2.292,1.621-3.415c0.805-1.975,1.568-4.004,2.267-6.033           c0.094-0.274,0.395-0.422,0.668-0.325c0.274,0.094,0.42,0.393,0.325,0.668c-0.705,2.047-1.474,4.095-2.287,6.087           c-0.473,1.16-0.993,2.389-1.692,3.557c-0.37,0.618-0.895,1.391-1.671,1.896c-0.528,0.343-1.172,0.569-1.97,0.691           C298.07,357.296,297.707,357.323,297.348,357.323z"/>
								</g>
							</g>
						</g>
						<g>
							<path style="fill:#FFE3BF;" d="M157.127,141.07c0-0.119,0-0.239,0-0.358c-12.785,7.132-21.139,19.808-25.973,33.627         c-4.834,13.819-6.127,28.597-6.986,43.211c-0.767,13.034-1.22,26.087-1.36,39.142c23.969-1.07,48.643,0.501,72.612-0.57         c0.747-12.935-1.392-25.843-3.523-38.623c-1.926-11.549-3.857-23.118-6.864-34.434c-2.323-8.743-5.315-17.381-9.904-25.177         C170.97,150.825,163.513,146.209,157.127,141.07z"/>
						</g>
						<g>
							<path style="fill:#FFE3BF;" d="M284.218,151.81c0.358,0.716,29.356,22.196,42.96,46.899s22.554,65.157,22.554,65.157         l-65.873,7.518L284.218,151.81z"/>
						</g>
						<g>
							<g>
								<path style="fill:#411C36;" d="M194.002,257.231L194.002,257.231l-71.194-0.013c-0.29,0-0.526-0.235-0.526-0.526          s0.235-0.526,0.526-0.526l0,0l70.646,0.013l-2.931-69.8c-0.012-0.289,0.214-0.534,0.504-0.547          c0.289,0.004,0.535,0.214,0.547,0.504l2.954,70.348c0.005,0.143-0.048,0.282-0.146,0.385          C194.282,257.173,194.145,257.231,194.002,257.231z"/>
							</g>
							<g>
								<path style="fill:#411C36;" d="M300.327,284.081c-0.257,0-0.482-0.189-0.519-0.451c-0.103-0.715-10.234-71.592-12.886-86.98          c-0.05-0.286,0.142-0.558,0.429-0.608c0.282-0.049,0.557,0.141,0.608,0.429c2.656,15.403,12.789,86.296,12.891,87.01          c0.041,0.287-0.159,0.554-0.446,0.595C300.378,284.079,300.352,284.081,300.327,284.081z"/>
							</g>
							<g>
								<g>
									<path style="fill:#411C36;" d="M256.636,235.672c-0.229,0-0.435-0.149-0.503-0.372           c-11.903-39.164-24.21-79.66-46.842-114.726c-0.158-0.244-0.087-0.569,0.157-0.727c0.245-0.155,0.57-0.089,0.727,0.157           c22.197,34.39,34.476,73.918,46.152,112.316c2.382-31.838,2.513-65.526,0.39-100.182c-0.018-0.29,0.203-0.54,0.492-0.557           c0.269-0.028,0.539,0.203,0.557,0.492c2.188,35.718,1.985,70.41-0.605,103.114c-0.021,0.253-0.217,0.455-0.469,0.482           C256.673,235.671,256.654,235.672,256.636,235.672z"/>
								</g>
								<g>
									<path style="fill:#411C36;" d="M256.473,261.886c-7.496,0-13.593-6.098-13.593-13.593c0-7.495,6.098-13.592,13.593-13.592           c7.495,0,13.592,6.098,13.592,13.592C270.066,255.788,263.968,261.886,256.473,261.886z M256.473,235.751           c-6.916,0-12.542,5.626-12.542,12.541c0,6.916,5.626,12.542,12.542,12.542c6.915,0,12.541-5.626,12.541-12.542           C269.014,241.377,263.388,235.751,256.473,235.751z"/>
								</g>
							</g>
						</g>
					</g>
					<g>
						<g>
							<g>
								<path style="fill:#2B0705;" d="M305.491,106.326c12.308-4.771,24.142-10.719,36.552-15.54l0.015-0.006          c0.755-0.293,1.604,0.081,1.897,0.836s-0.081,1.604-0.836,1.897c-0.019,0.007-0.042,0.016-0.061,0.022          c-12.468,4.222-24.58,9.657-37.157,13.911c-0.312,0.108-0.652-0.056-0.76-0.368          C305.038,106.775,305.197,106.443,305.491,106.326z"/>
							</g>
							<g>
								<path style="fill:#2B0705;" d="M304.681,121.635c15.963-0.27,31.915-1.243,47.938-1.515          c0.809-0.015,1.478,0.628,1.493,1.438c0.015,0.809-0.628,1.478-1.438,1.493c-0.013,0-0.036,0-0.05,0          c-15.943-0.239-31.937,0.223-47.941-0.016c-0.387-0.005-0.696-0.323-0.691-0.709          C303.998,121.947,304.305,121.642,304.681,121.635z"/>
							</g>
							<g>
								<path style="fill:#2B0705;" d="M301.837,135.574l31.223,10.227c0.769,0.252,1.189,1.08,0.937,1.85          c-0.252,0.769-1.08,1.189-1.849,0.937c-0.024-0.008-0.052-0.018-0.076-0.027l-30.618-11.918          c-0.292-0.114-0.437-0.443-0.323-0.735C301.241,135.625,301.553,135.481,301.837,135.574z"/>
							</g>
						</g>
						<g>
							<g>
								<path style="fill:#2B0705;" d="M201.075,106.701c-10.254-8.434-19.655-17.808-29.818-26.173          c-0.625-0.514-0.715-1.438-0.2-2.063c0.515-0.625,1.438-0.715,2.063-0.2c0.015,0.013,0.03,0.025,0.045,0.038l0.016,0.014          c9.898,8.905,18.856,18.661,28.676,27.483c0.245,0.22,0.265,0.598,0.045,0.843          C201.688,106.88,201.32,106.902,201.075,106.701z"/>
							</g>
							<g>
								<path style="fill:#2B0705;" d="M196.692,121.71c-15.05-5.446-29.843-11.545-44.837-16.97          c-0.761-0.275-1.155-1.116-0.88-1.877c0.275-0.761,1.116-1.155,1.877-0.88c0.013,0.005,0.034,0.013,0.046,0.018          c14.887,5.931,29.46,12.492,44.291,18.401c0.359,0.143,0.534,0.55,0.391,0.909          C197.442,121.663,197.046,121.838,196.692,121.71z"/>
							</g>
							<g>
								<path style="fill:#2B0705;" d="M194.891,135.579l-32.854,0.297c-0.81,0.007-1.472-0.643-1.479-1.453          c-0.007-0.81,0.643-1.472,1.453-1.479c0.025,0,0.055,0,0.08,0.002l32.821,1.498c0.313,0.014,0.556,0.28,0.541,0.593          C195.439,135.34,195.19,135.576,194.891,135.579z"/>
							</g>
						</g>
					</g>
					<g>
						<g>
							<g>
								<polygon style="fill:#FF6A6C;" points="368.764,157.596 373.683,118.654 380.242,157.186 414.675,157.186 383.931,167.024           392.129,199.817 375.323,171.533 358.926,200.637 366.715,170.713 331.462,155.956         "/>
							</g>
							<g>
								<polygon style="fill:#FF6A6C;" points="77.212,290.38 81.571,255.867 87.384,290.017 117.901,290.017 90.654,298.736           97.92,327.8 83.024,302.732 68.493,328.526 75.395,302.006 44.152,288.927         "/>
							</g>
							<g>
								<polygon style="fill:#FF6A6C;" points="387.856,299.015 402.515,277.173 396.107,302.635 420.504,314.236 395.898,309.814           392.298,332.365 388.505,309.635 368.536,321.674 382.64,306.24 361.896,285.458         "/>
							</g>
						</g>
						<g>
							<g>
								<g>
									<path style="fill:#FFE3BF;" d="M455.863,254.896c-0.212,0-0.425-0.067-0.607-0.205l-51.67-39.358           c-0.44-0.336-0.526-0.965-0.19-1.406c0.336-0.442,0.964-0.526,1.406-0.19l51.67,39.358c0.44,0.336,0.526,0.965,0.19,1.406           C456.464,254.76,456.165,254.896,455.863,254.896z"/>
								</g>
								<g>
									<path style="fill:#FFE3BF;" d="M436.423,259.485c-2.825,2.301-5.537,4.9-7.097,8.193c-1.56,3.293-1.779,7.418,0.244,10.449           c2.579,3.864,8.171,4.85,12.497,3.159c4.327-1.691,7.512-5.481,9.776-9.537c1.844-3.305,8.796-16.821,4.044-19.141           C450.421,249.939,440.276,256.347,436.423,259.485z"/>
								</g>
							</g>
							<g>
								<g>
									<path style="fill:#FFE3BF;" d="M93.505,395.816c-0.288,0-0.53-0.225-0.548-0.517l-2.181-35.569           c-0.018-0.303,0.213-0.565,0.516-0.583c0.271-0.015,0.565,0.213,0.583,0.516l2.181,35.569           c0.018,0.303-0.213,0.565-0.516,0.583C93.529,395.816,93.517,395.816,93.505,395.816z"/>
								</g>
								<g>
									<path style="fill:#FFE3BF;" d="M100.618,365.765c1.969,0.348,4.02,0.543,5.947,0.01c1.927-0.533,3.718-1.921,4.252-3.848           c0.68-2.456-0.915-5.132-3.168-6.322c-2.254-1.191-4.97-1.154-7.466-0.64c-2.034,0.419-10.129,2.248-9.389,5.053           C91.644,363.245,97.933,365.29,100.618,365.765z"/>
								</g>
							</g>
							<g>
								<g>
									<path style="fill:#FFE3BF;" d="M90.492,216.939c-0.105,0-0.212-0.017-0.315-0.055c-0.484-0.175-0.734-0.708-0.56-1.191           l20.428-56.658c0.174-0.483,0.709-0.738,1.191-0.56c0.484,0.175,0.734,0.708,0.56,1.191l-20.428,56.658           C91.23,216.703,90.873,216.939,90.492,216.939z"/>
								</g>
								<g>
									<path style="fill:#FFE3BF;" d="M80.133,200.37c-2.822-1.859-5.875-3.534-9.223-3.996c-3.347-0.463-7.057,0.492-9.174,3.125           c-2.7,3.356-2.016,8.577,0.684,11.933c2.7,3.356,6.939,5.119,11.157,5.992c3.436,0.711,17.122,3.441,17.852-1.408           C92.269,210.437,83.981,202.904,80.133,200.37z"/>
								</g>
							</g>
						</g>
					</g>
				</g>
			</g>
		</g>
	</g>
	<g>
		<path style="fill:#411C36;" d="M214.685,64.738c-0.09-0.174-0.092-0.391,0.013-0.573c0.166-0.286,0.53-0.384,0.816-0.219    c9.357,5.396,16.392,14.903,18.813,25.437c0.073,0.321-0.127,0.643-0.448,0.716c-0.322,0.071-0.647-0.127-0.716-0.448    c-2.351-10.214-9.169-19.435-18.247-24.672C214.815,64.921,214.736,64.837,214.685,64.738z"/>
	</g>
</g>















</svg>
