<?xml version="1.0" encoding="UTF-8"?>
<!-- Generator: Adobe Illustrator 25.3.1, SVG Export Plug-In . SVG Version: 6.00 Build 0)  -->
<svg xmlns="http://www.w3.org/2000/svg" xmlns:xlink="http://www.w3.org/1999/xlink" version="1.1" id="Capa_1" x="0px" y="0px" viewBox="0 0 512 512" style="enable-background:new 0 0 512 512;" xml:space="preserve" width="512" height="512">
<g>
	<g>
		<path style="fill:#FFFFFF;" d="M227.645,502.34c-65.079,0.35-128.663-29.571-170.441-79.375    c-7.708-9.188-15.181-19.763-21.403-30.343c-5.437-1.882-10.86-4.101-16.189-6.627c-14.695-6.984-22.378-22.913-18.697-38.745    l7.217-30.998c-0.234-1.411-0.455-2.825-0.656-4.245c-0.018-0.116-0.031-0.232-0.045-0.348    c-3.492-30.07-2.598-59.729,5.456-89.051c5.387-19.611,13.641-38.692,24.228-56.179c10.129-16.731,22.427-32.14,36.469-45.754    c19.879-19.274,43.579-35.114,69.07-45.932c10.609-4.502,21.569-8.176,32.754-10.954c21.424-5.32,44.063-7.318,66.091-5.952    l4.261-26.485c0.678-4.219,3.286-7.88,7.052-9.901c0,0,19.037-10.215,19.058-10.226c4.7-2.522,10.914-1.978,15.121,1.439    c4.29,3.483,6.068,9.203,4.511,14.505l-4.04,13.737c1.357,0.511,2.646,1.241,3.813,2.188c4.29,3.485,6.066,9.205,4.506,14.506    l-2.811,9.557c23.69,7.222,45.795,18.299,65.94,33.047c0,0,20.58-5.757,20.58-5.757c7.084-1.979,14.658,2.176,16.803,9.2    l13.091,42.912c0,0,25.135-6.994,25.155-6.999c7.227-2.011,15.061,2.543,16.937,9.745l60.079,230.381    c1.876,7.191-2.32,14.566-9.461,16.628c-36.026,10.4-71.911,20.763-107.894,31.152c-19.944,22.577-45.38,40.711-72.568,53.538    C292.248,494.867,259.998,502.167,227.645,502.34z"/>
	</g>
	<g>
		<g>
			<g>
				<path style="fill:#FF6A6C;" d="M435.393,279.908c0,2.81-0.046,5.597-0.183,8.384c-0.411,10.668-1.622,21.108-3.587,31.296      c-1.828,9.526-4.295,18.823-7.379,27.824c-2.627,7.698-5.688,15.191-9.16,22.433c-2.17,4.546-4.5,9.001-6.99,13.341      c-0.937,1.668-1.919,3.312-2.901,4.957c-0.183,0.274-0.343,0.548-0.525,0.8c0,0,0,0,0,0.023      c-0.982,1.599-1.987,3.175-3.015,4.752c-4.911,7.607-10.348,14.849-16.219,21.702c-3.746,4.409-7.676,8.658-11.788,12.724      c-0.206,0.206-0.411,0.388-0.617,0.594c-6.602,6.511-13.638,12.564-21.062,18.161c-0.183,0.137-0.366,0.274-0.548,0.411      c-6.351,4.729-12.975,9.138-19.851,13.135c-0.183,0.114-0.366,0.206-0.548,0.32c-3.198,1.85-6.465,3.632-9.777,5.323      c-0.183,0.091-0.366,0.183-0.548,0.251c-9.823,4.98-20.103,9.206-30.748,12.587c-0.183,0.069-0.365,0.114-0.548,0.183      c-19.829,6.259-40.936,9.617-62.821,9.617c-46.625,0-89.686-15.283-124.431-41.119c-0.16-0.114-0.32-0.228-0.48-0.343      c-4.432-3.335-8.726-6.83-12.884-10.508c-0.16-0.091-0.297-0.228-0.457-0.388c-8.384-7.379-16.151-15.465-23.255-24.123      c-0.114-0.137-0.228-0.274-0.343-0.434c-2.239-2.741-4.409-5.528-6.488-8.384c-0.16-0.183-0.297-0.366-0.411-0.571      c-5.163-7.082-9.891-14.46-14.14-22.182v-0.023c-8.384-15.146-14.917-31.433-19.326-48.589c-0.069-0.206-0.114-0.411-0.16-0.64      c-1.782-6.99-3.198-14.118-4.226-21.336v-0.046c-1.462-9.869-2.193-19.897-2.193-30.131c0-75.956,40.548-142.432,101.176-178.96      c0.023-0.023,0.046-0.023,0.069-0.046c0.548-0.274,1.028-0.617,1.576-0.914c30.131-17.818,65.128-28.235,102.524-28.829      c0.822-0.023,1.622-0.046,2.444-0.023c0.023-0.023,0.046-0.023,0.046,0c0.32-0.023,0.64-0.023,0.959-0.023      c8.589,0,17.042,0.525,25.357,1.531c7.767,0.937,15.397,2.307,22.867,4.089c29.674,6.99,56.904,20.331,80.182,38.492      c16.745,13.09,31.433,28.669,43.541,46.191l0.023,0.023c0.411,0.571,0.8,1.142,1.188,1.736      c4.592,6.785,8.795,13.889,12.564,21.222c4.592,8.863,8.544,18.092,11.81,27.641c2.079,6.008,3.883,12.153,5.368,18.412      c2.467,10.097,4.203,20.491,5.094,31.114C435.119,267.618,435.393,273.717,435.393,279.908z"/>
			</g>
			<g>
				<g>
					<g>
						<path style="fill:#FFA073;" d="M129.786,268.554c-3.975,8.932-8.544,17.636-13.387,26.202        c-5.894,10.44-12.176,20.628-18.367,30.634c-11.788,19.052-23.872,38.584-32.827,59.394        c-2.627,6.099-4.98,12.313-6.967,18.641c-0.16-0.183-0.297-0.366-0.411-0.571c1.942-6.168,4.249-12.199,6.808-18.115        c8.955-20.902,21.085-40.502,32.918-59.646c6.465-10.485,13.09-21.176,19.189-32.142c4.523-8.064,8.772-16.265,12.519-24.626        c2.056-4.592,2.627-9.001,1.531-11.788c-0.617-1.508-1.713-2.604-3.244-3.244c-0.937-0.388-1.965-0.571-3.015-0.548        c-1.028,0.023-2.124,0.274-3.152,0.708c-0.091,0.023-0.183,0.069-0.274,0.114c-2.193,0.982-4.363,2.01-6.488,3.107        c-8.566,4.34-16.653,9.48-24.375,15.123c-7.493,5.505-14.666,11.491-21.61,17.704c-9.069,8.155-17.773,16.722-26.362,25.174        c-5.848,5.78-11.81,11.628-17.91,17.384c-0.228,0.206-0.48,0.434-0.708,0.662c-0.046-0.206-0.114-0.434-0.16-0.64        c0.228-0.228,0.48-0.457,0.708-0.662c6.008-5.665,11.902-11.445,17.681-17.156c8.749-8.612,17.613-17.339,26.842-25.608        c6.99-6.259,14.209-12.244,21.747-17.727c7.63-5.551,15.602-10.6,24.055-14.871c2.079-1.051,4.203-2.056,6.351-3.015        c0.206-0.091,0.388-0.16,0.594-0.228c1.051-0.411,2.124-0.594,3.152-0.617c1.097-0.023,2.17,0.16,3.13,0.571        c1.69,0.708,2.901,1.896,3.564,3.564C132.984,260.559,130.814,266.293,129.786,268.554z"/>
					</g>
					<g>
						<path style="fill:#FFA073;" d="M180.317,281.393c-0.069,0.183-0.16,0.343-0.251,0.525c-3.861,6.785-7.95,13.501-12.153,20.171        c-4.295,6.853-8.726,13.615-13.181,20.308c-3.175,4.774-6.351,9.503-9.503,14.186c-11.559,17.247-23.347,34.791-33.832,53.021        c-3.427,5.962-6.716,11.993-9.823,18.115c-4.774,9.457-9.115,19.12-12.793,29.035c-0.16-0.091-0.297-0.228-0.457-0.388        c3.701-9.983,8.064-19.692,12.884-29.172c2.993-5.917,6.168-11.765,9.503-17.521c10.531-18.389,22.41-36.048,34.06-53.409        c3.244-4.82,6.511-9.686,9.754-14.597c4.34-6.533,8.658-13.112,12.861-19.783c4.203-6.693,8.315-13.432,12.199-20.24        c0.228-0.411,0.411-0.8,0.548-1.211c0.982-2.673,0.16-5.163-1.393-6.876c-0.297-0.343-0.64-0.662-1.005-0.937        c-2.421-1.85-6.214-2.376-9.183,0.594c-1.485,1.485-3.061,3.13-4.98,5.186c-2.924,3.152-5.802,6.373-8.658,9.64        c-2.513,2.855-4.98,5.734-7.424,8.681c-14.757,17.658-28.943,37.099-42.855,58.755v0.023        c-2.924,4.546-5.825,9.183-8.726,13.935c-0.937,1.531-1.873,3.061-2.787,4.592c-2.033,3.335-4.066,6.716-6.168,10.051        c-6.328,10.074-13.227,19.92-21.885,28.167c-0.114-0.137-0.228-0.274-0.343-0.434c8.429-8.064,15.191-17.681,21.382-27.527        c2.239-3.495,4.386-7.036,6.511-10.554c0.937-1.531,1.873-3.061,2.81-4.592c3.152-5.14,6.305-10.166,9.48-15.077l0.023-0.023        c13.752-21.359,27.778-40.548,42.376-58.001c2.467-2.947,4.957-5.848,7.447-8.704c2.787-3.175,5.574-6.282,8.407-9.32        c1.896-2.056,3.495-3.701,4.98-5.208c3.221-3.221,7.31-2.627,9.937-0.64c0.16,0.114,0.32,0.251,0.457,0.388        C180.774,274.539,182.076,277.875,180.317,281.393z"/>
					</g>
					<g>
						<path style="fill:#FFA073;" d="M225.023,438.103c-1.713,1.919-3.472,3.815-5.277,5.665        c-5.665,5.802-11.742,11.216-18.138,16.151c-1.85,1.416-3.815,2.718-5.985,2.718c-0.503,0-1.005-0.069-1.508-0.206        c-0.662-0.183-1.348-0.503-2.056-1.005c-2.581-1.759-3.929-5.049-3.449-8.361c0.32-2.147,0.685-4.318,1.051-6.465        c2.399-13.409,5.985-26.636,10.714-39.429c0.069-0.16,0.114-0.343,0.183-0.503c0.617-1.668,1.256-3.335,1.919-4.98        c1.508-3.815,3.175-7.698,4.774-11.445c5.985-14.003,12.199-28.464,12.793-43.746c-7.31,0.457-13.181,6.099-17.476,10.988        c-10.622,12.062-18.915,26.134-26.682,40.16c-1.348,2.444-2.696,4.889-4.021,7.333c-9.389,17.133-19.098,34.86-32.461,49.434        c-1.074,1.165-2.262,2.33-3.815,2.581c-2.49,0.411-4.637-1.805-5.208-4.066c-0.548-2.239,0.023-4.523,0.685-6.876        c7.287-25.311,20.057-48.909,32.393-71.753c1.279-2.376,2.581-4.752,3.861-7.15c7.721-14.369,15.443-29.149,21.542-44.363        l0.091-0.251c1.531-3.792-0.366-7.036-2.947-8.566c-2.536-1.531-6.282-1.645-8.886,1.485        c-6.351,7.63-12.13,15.808-17.499,24.306c-9.709,15.305-18.092,31.662-26.156,47.904c-1.485,2.993-2.947,5.985-4.432,8.978        c-4.729,9.617-9.549,19.395-14.643,29.035c-3.883,7.447-7.95,14.803-12.244,21.93c-0.16-0.114-0.32-0.228-0.48-0.343        c4.34-7.196,8.429-14.597,12.359-22.09c5.049-9.572,9.823-19.258,14.506-28.783c1.416-2.878,2.833-5.757,4.272-8.658        c8.178-16.516,16.722-33.169,26.613-48.703c5.323-8.361,11.034-16.402,17.27-23.941c2.81-3.404,6.853-3.267,9.617-1.622        c2.787,1.645,4.843,5.163,3.198,9.298l-0.114,0.228c-6.191,15.42-14.003,30.405-21.839,44.957        c-1.211,2.216-2.399,4.432-3.587,6.625c-12.336,22.821-25.083,46.396-32.347,71.639c-0.64,2.262-1.188,4.477-0.662,6.579        c0.503,2.033,2.421,3.975,4.546,3.632c1.371-0.228,2.467-1.302,3.472-2.399c13.341-14.529,23.027-32.21,32.393-49.32        c1.416-2.604,2.855-5.208,4.318-7.813c7.676-13.889,15.945-27.801,26.453-39.771c4.432-5.049,10.531-10.874,18.207-11.216        h0.297v0.297c-0.548,15.511-6.808,30.131-12.861,44.272c-1.599,3.746-3.267,7.607-4.774,11.422        c-0.685,1.69-1.325,3.381-1.965,5.094c-0.091,0.251-0.183,0.48-0.274,0.731c-4.774,13.044-8.384,26.499-10.737,40.16        c-0.297,1.759-0.594,3.518-0.845,5.277c-0.457,3.084,0.8,6.145,3.198,7.813c0.525,0.366,1.051,0.617,1.553,0.8        c2.696,0.959,5.003-0.525,7.31-2.307c5.871-4.523,11.491-9.457,16.722-14.734c2.284-2.262,4.5-4.615,6.625-7.013        L225.023,438.103z"/>
					</g>
				</g>
				<g>
					<g>
						<path style="fill:#FFA073;" d="M292.641,115.5c-1.211,0.868-2.444,1.645-3.609,2.376        c-12.541,7.653-25.768,14.871-38.561,21.862c-5.802,3.175-11.65,6.351-17.453,9.617        c-14.849,8.315-29.583,17.042-43.312,27.002c-3.609,2.604-7.127,5.3-10.577,8.087c-9.435,7.653-18.23,16.036-26.088,25.448        c-2.284,2.718-3.175,6.236-2.399,9.389c0.571,2.353,1.896,4.089,3.929,5.186c4.272,2.33,10.782,1.371,15.465-0.274        c6.259-2.216,12.381-5.049,18.367-8.132c4.158-2.124,8.247-4.363,12.267-6.625c1.097-0.594,2.193-1.211,3.29-1.828        c2.855-1.599,5.734-3.221,8.635-4.774c13.866-7.561,28.281-14.415,43.998-16.128c1.599-0.183,3.861-0.228,4.98,1.325        c1.805,2.444-1.119,5.574-2.056,6.488c-4.249,4.112-8.909,7.835-13.478,11.422l-0.023,0.023        c-0.183,0.137-0.343,0.274-0.525,0.411c-4.363,3.472-8.886,7.036-13.021,10.897c-7.813,7.356-13.044,14.986-15.488,22.684        c-0.32,1.005-0.297,2.033,0.046,2.993c0.206,0.548,0.525,1.051,0.937,1.508c1.097,1.211,2.696,1.736,4.295,1.393        c6.899-1.439,13.524-4.272,19.349-8.224c2.741-1.85,5.3-3.952,7.63-6.259l0.388,0.411c-2.307,2.284-4.866,4.386-7.584,6.236        c-5.917,4.021-12.656,6.945-19.669,8.407c-0.343,0.069-0.708,0.114-1.051,0.114c-1.439,0-2.787-0.594-3.792-1.69        c-0.32-0.365-0.594-0.777-0.777-1.211c-0.617-1.188-0.731-2.559-0.32-3.861c2.49-7.767,7.744-15.488,15.648-22.913        c3.975-3.746,8.338-7.196,12.541-10.508l0.023-0.023c0.16-0.137,0.32-0.251,0.48-0.388c4.729-3.724,9.617-7.584,14.003-11.833        c0.845-0.822,3.518-3.678,1.987-5.757c-0.959-1.302-2.993-1.234-4.455-1.074c-15.671,1.713-30.063,8.567-43.906,16.128        c-2.855,1.553-5.688,3.13-8.498,4.706c-1.119,0.64-2.262,1.256-3.404,1.896c-4.043,2.239-8.132,4.5-12.29,6.625        c-5.985,3.061-12.084,5.871-18.344,8.087c-4.774,1.69-11.491,2.65-15.922,0.251c-2.193-1.165-3.609-3.038-4.226-5.551        c-0.8-3.335,0.137-7.036,2.536-9.891c7.927-9.503,16.836-17.955,26.362-25.654c3.427-2.787,6.967-5.483,10.554-8.064        c13.09-9.503,27.07-17.864,41.211-25.814c6.465-3.655,12.998-7.219,19.463-10.76c12.793-6.967,25.996-14.209,38.538-21.862        c1.142-0.708,2.376-1.462,3.564-2.33c2.102-1.508,2.125-3.815,1.508-5.323c-0.617-1.553-2.262-3.244-4.843-2.856        c-3.838,0.525-7.813,2.079-10.874,3.404c-9.229,3.975-18.412,8.178-27.527,12.541c-0.297,0.137-0.594,0.274-0.868,0.411        h-0.023c-25.54,12.244-50.577,25.677-74.997,38.789c-11.97,6.419-24.123,12.953-36.413,19.349v0.023        c-2.627,1.371-5.231,2.741-7.881,4.089c-2.855,1.485-5.734,2.947-8.612,4.409c-9.869,5.003-19.806,9.891-29.766,14.552        c-8.863,4.158-19.098,8.292-28.441,4.889l-0.137-0.069l-0.046-0.137c-1.713-5.939,2.81-11.582,6.922-15.854        c8.11-8.384,16.745-16.539,26.019-24.603c2.604-2.262,5.231-4.523,7.95-6.739c0.503-0.434,1.005-0.845,1.508-1.279        c3.312-2.718,6.693-5.414,10.166-8.132c0,0,0,0,0-0.023c1.965-1.508,3.952-3.015,5.962-4.546        c0.662-0.503,1.325-1.005,2.01-1.508c5.231-3.952,10.691-7.904,16.356-11.856h0.023c7.127-4.98,14.552-9.983,22.41-15.031        c7.424-4.797,15.214-9.663,23.369-14.574c3.152-1.919,6.351-3.838,9.617-5.757c1.119-0.662,2.239-1.325,3.381-2.01        c0.366-0.206,0.731-0.411,1.097-0.64c2.102-1.234,4.249-2.49,6.373-3.769c1.393-0.8,2.787-1.645,4.18-2.49        c5.505-3.312,10.988-6.739,16.242-10.348c2.421-1.69,2.376-4.363,1.302-6.122c-1.074-1.782-3.404-3.061-5.985-1.713        l-0.228,0.114c-9.32,4.82-18.686,9.937-27.733,14.917c-1.508,0.822-3.015,1.645-4.523,2.49        c-3.952,2.147-7.904,4.295-11.902,6.442c-15.123,8.132-30.634,16.014-46.602,22.41c-7.698,3.084-16.676,6.282-25.768,5.163        l-0.251-0.023v-0.274c0.32-6.373,4.477-11.742,8.726-16.699c1.645-1.919,3.29-3.815,4.957-5.711        c0.023-0.023,0.046-0.023,0.069-0.046c0.548-0.274,1.028-0.617,1.576-0.914c-2.102,2.33-4.158,4.66-6.168,7.036        c-4.112,4.82-8.155,10.029-8.567,16.105c8.841,1.005,17.658-2.147,25.22-5.163c16.014-6.442,31.593-14.346,46.762-22.501        c3.861-2.079,7.676-4.158,11.468-6.236c1.576-0.868,3.152-1.713,4.729-2.581c9.046-4.98,18.412-10.097,27.733-14.917        l0.228-0.137c0.366-0.183,0.754-0.343,1.119-0.434c0.822-0.023,1.622-0.046,2.444-0.023c0.023-0.023,0.046-0.023,0.046,0        c1.371,0.343,2.467,1.279,3.13,2.399c1.211,1.987,1.256,5.003-1.462,6.876c-5.231,3.587-10.645,6.99-16.105,10.28        c-1.508,0.937-3.038,1.85-4.569,2.741c-2.056,1.234-4.112,2.444-6.145,3.632c-0.297,0.183-0.617,0.366-0.914,0.525        c-1.211,0.708-2.376,1.416-3.564,2.102c-3.175,1.873-6.305,3.746-9.366,5.597h-0.023c-7.698,4.66-15.054,9.252-22.09,13.752        l-0.023,0.023c-8.361,5.368-16.288,10.668-23.826,15.945c-5.688,3.975-11.171,7.927-16.448,11.902        c-0.685,0.525-1.371,1.028-2.056,1.553c-2.033,1.531-4.043,3.084-6.008,4.615c-3.29,2.559-6.511,5.14-9.64,7.698        c-0.503,0.434-1.005,0.845-1.508,1.256c-2.718,2.239-5.368,4.5-7.973,6.762c-9.389,8.132-18.092,16.379-26.316,24.854        c-3.975,4.135-8.338,9.572-6.83,15.168c9.115,3.244,19.166-0.822,27.87-4.889c10.12-4.729,20.217-9.709,30.245-14.803h0.023        c2.696-1.371,5.368-2.741,8.064-4.135c2.741-1.416,5.483-2.833,8.201-4.272c12.176-6.351,24.237-12.838,36.116-19.212        c24.329-13.044,49.229-26.408,74.654-38.629c0.343-0.137,0.662-0.297,1.005-0.48c9.206-4.386,18.481-8.635,27.801-12.656        c3.084-1.325,7.127-2.924,11.034-3.449c2.399-0.343,4.546,0.937,5.46,3.198C295.245,111.753,294.583,114.106,292.641,115.5z"/>
					</g>
				</g>
				<g>
					<g>
						<path style="fill:#FFA073;" d="M321.243,466.08c-0.183,0.092-0.366,0.183-0.548,0.251c-0.777-6.922-1.302-13.889-1.828-20.72        c-1.553-20.24-3.152-41.165-10.828-60.194c-0.411-1.028-0.868-1.965-1.325-2.787c-0.868-1.531-2.49-2.33-4.226-2.102        c-1.713,0.228-3.038,1.416-3.472,3.061c-8.064,31.205-11.102,63.255-9.069,95.328c-0.183,0.069-0.366,0.114-0.548,0.183        c-2.079-32.187,0.959-64.351,9.069-95.648c0.48-1.896,1.987-3.221,3.929-3.472c1.987-0.274,3.815,0.64,4.797,2.353        c0.503,0.868,0.959,1.827,1.371,2.878c7.698,19.098,9.32,40.068,10.874,60.354        C319.964,452.328,320.489,459.204,321.243,466.08z"/>
					</g>
					<g>
						<path style="fill:#FFA073;" d="M349.432,412.237c0.708,11.422,1.416,23.049,2.536,34.654        c-0.183,0.137-0.365,0.274-0.548,0.411c-1.119-11.742-1.828-23.506-2.559-35.043c-1.142-18.618-2.33-37.875-5.14-56.63        c-1.005-6.579-2.376-14.278-5.071-21.337c-0.662-1.759-2.33-2.81-4.226-2.627c-1.919,0.16-3.404,1.485-3.769,3.381        c-1.279,6.511-1.553,13.478-1.713,19.463c-0.891,33.169,0.731,66.819,2.307,99.371l0.32,6.556        c-0.183,0.114-0.366,0.205-0.548,0.32l-0.343-6.853c-1.576-32.553-3.198-66.225-2.307-99.394        c0.16-6.031,0.434-12.998,1.713-19.577c0.411-2.147,2.102-3.655,4.295-3.838c2.147-0.206,4.043,0.982,4.797,2.993        c2.718,7.127,4.112,14.849,5.094,21.451C347.102,374.316,348.29,393.596,349.432,412.237z"/>
					</g>
					<g>
						<path style="fill:#FFA073;" d="M405.194,388.136c-0.183,0.274-0.343,0.548-0.525,0.8c-0.548-8.772-1.234-17.636-2.17-26.453        c-1.165-11.125-2.855-23.918-8.178-35.111c-1.393-2.924-3.015-4.409-4.82-4.409c-1.69,0-3.244,1.302-4.706,3.975        c-7.607,13.957-8.155,30.497-8.681,46.487v0.137c-0.594,18.138-1.416,36.368-2.467,54.574        c-0.206,0.206-0.411,0.388-0.617,0.594c1.074-18.435,1.919-36.87,2.513-55.191v-0.114c0.525-16.082,1.074-32.69,8.749-46.761        c1.576-2.878,3.29-4.272,5.208-4.272c2.056,0,3.838,1.599,5.323,4.729c5.391,11.285,7.082,24.146,8.247,35.317        C403.961,371.003,404.646,379.616,405.194,388.136z"/>
					</g>
				</g>
			</g>
			<g>
				<g>
					<g>
						<polygon style="fill:#FFC151;" points="400.386,167.545 367.353,177.254 371.273,156.413 352.961,134.49 204.43,174.535         217.634,220.406 204.909,222.256 187.551,188.705 185.172,162.748 382.11,107.648       "/>
					</g>
					<g>
						<polygon style="fill:#411C36;" points="382.499,171.817 366.942,175.86 353.258,135.7 352.961,134.49 369.295,129.807               "/>
					</g>
					<g>
						<polygon style="fill:#411C36;" points="204.909,222.256 190.815,224.312 173.705,165.969 185.172,162.748       "/>
					</g>
				</g>
				<g>
					<g>
						<polygon style="fill:#FFC151;" points="497.221,383.147 251.625,454.055 176.234,349.315 187.457,222.256 303.698,249.968         455.485,223.102       "/>
					</g>
					<g>
						<g>
							<g>
								<g>
									
										<rect x="336.843" y="241.744" transform="matrix(0.9655 -0.2604 0.2604 0.9655 -75.2058 99.5281)" style="fill:#411C36;" width="2.283" height="183.645"/>
								</g>
								<g>
									
										<rect x="399.447" y="224.247" transform="matrix(0.9655 -0.2604 0.2604 0.9655 -68.4915 115.2331)" style="fill:#411C36;" width="2.283" height="183.646"/>
								</g>
							</g>
							<g>
								<g>
									
										<rect x="330.324" y="297.817" transform="matrix(0.962 -0.2732 0.2732 0.962 -67.8591 110.5512)" style="fill:#411C36;" width="65.482" height="2.287"/>
								</g>
								<g>
									
										<rect x="348.032" y="364.309" transform="matrix(0.9683 -0.2499 0.2499 0.9683 -79.2397 106.7359)" style="fill:#411C36;" width="65.449" height="2.286"/>
								</g>
								<g>
									<g>
										<polygon style="fill:#411C36;" points="358.903,371.244 356.726,370.548 361.879,354.488 394.981,345.986             405.064,358.211 403.302,359.666 394.142,348.561 363.668,356.389           "/>
									</g>
									<g>
										<path style="fill:#411C36;" d="M361.607,332.984c0,2.738-2.22,4.958-4.958,4.958c-2.738,0-4.958-2.22-4.958-4.958            c0-2.738,2.22-4.958,4.958-4.958C359.387,328.026,361.607,330.246,361.607,332.984z"/>
									</g>
									<g>
										<circle style="fill:#411C36;" cx="385.812" cy="325.11" r="4.958"/>
									</g>
								</g>
							</g>
							<g>
								<g>
									<path style="fill:#411C36;" d="M362.482,387.201c-0.509,0-0.973-0.341-1.107-0.854c-0.158-0.611,0.21-1.234,0.819-1.394           l43.745-11.373c0.616-0.161,1.236,0.21,1.394,0.819c0.158,0.611-0.207,1.234-0.819,1.394l-43.745,11.373           C362.673,387.19,362.575,387.201,362.482,387.201z"/>
								</g>
								<g>
									<path style="fill:#411C36;" d="M364.523,395.658c-0.509,0-0.973-0.341-1.107-0.854c-0.158-0.611,0.207-1.234,0.819-1.394           l43.745-11.373c0.618-0.156,1.236,0.212,1.394,0.819c0.158,0.611-0.21,1.234-0.819,1.394l-43.745,11.373           C364.715,395.647,364.617,395.658,364.523,395.658z"/>
								</g>
								<g>
									<path style="fill:#411C36;" d="M367.149,403.823c-0.509,0-0.973-0.341-1.107-0.854c-0.158-0.611,0.207-1.234,0.819-1.394           l43.743-11.373c0.618-0.161,1.236,0.21,1.394,0.819c0.158,0.611-0.207,1.234-0.819,1.394l-43.743,11.373           C367.34,403.812,367.242,403.823,367.149,403.823z"/>
								</g>
							</g>
						</g>
						<g>
							<g>
								<g>
									<path style="fill:#411C36;" d="M283.159,404.31c-28.394,0-51.495-23.799-51.495-53.05           c0-29.253,23.101-53.052,51.495-53.052c28.397,0,51.497,23.799,51.497,53.052           C334.656,380.511,311.556,404.31,283.159,404.31z M283.159,300.492c-27.134,0-49.211,22.775-49.211,50.768           s22.077,50.765,49.211,50.765c27.136,0,49.213-22.773,49.213-50.765S310.295,300.492,283.159,300.492z"/>
								</g>
								<g>
									<ellipse style="fill:#411C36;" cx="284.715" cy="349.315" rx="19.425" ry="20.025"/>
									<path style="fill:#411C36;" d="M284.714,369.78c-10.954,0-19.866-9.182-19.866-20.466c0-11.284,8.912-20.466,19.866-20.466           c10.956,0,19.868,9.182,19.868,20.466C304.582,360.598,295.67,369.78,284.714,369.78z M284.714,329.732           c-10.467,0-18.982,8.785-18.982,19.582c0,10.797,8.515,19.582,18.982,19.582c10.469,0,18.985-8.785,18.985-19.582           C303.698,338.517,295.183,329.732,284.714,329.732z"/>
								</g>
							</g>
							<g>
								<g>
									<path style="fill:#411C36;" d="M442.63,355.226c-7.435,0-14.953-3.233-21.613-9.387           c-8.129-7.511-14.021-18.496-16.591-30.935c-2.57-12.437-1.517-24.861,2.965-34.978           c4.529-10.22,12.011-16.879,21.068-18.75c18.594-3.835,38.034,14.014,43.363,39.796l0,0           c5.327,25.784-5.452,49.886-24.033,53.728C446.083,355.052,444.359,355.226,442.63,355.226z M433.577,262.425           c-1.588,0-3.177,0.158-4.761,0.486c-8.482,1.753-15.516,8.051-19.806,17.733c-4.335,9.782-5.347,21.822-2.849,33.902           c2.496,12.078,8.198,22.73,16.056,29.992c7.779,7.188,16.736,10.184,25.215,8.426           c17.622-3.643,27.785-26.806,22.654-51.635C465.416,278.732,449.657,262.425,433.577,262.425z"/>
								</g>
								<g>
									<path style="fill:#411C36;" d="M451.447,303.391c2.021,9.778-2.01,18.876-9.005,20.322           c-6.995,1.446-14.303-5.309-16.325-15.086c-2.021-9.778,2.011-18.876,9.005-20.322           C442.117,286.859,449.426,293.614,451.447,303.391z"/>
									<path style="fill:#411C36;" d="M440.546,324.249c-6.527,0-12.894-6.512-14.764-15.551           c-0.993-4.799-0.585-9.59,1.144-13.494c1.747-3.942,4.633-6.51,8.127-7.232c7.161-1.463,14.672,5.403,16.729,15.353           c0.993,4.799,0.584,9.59-1.144,13.492c-1.747,3.942-4.633,6.51-8.127,7.232           C441.858,324.182,441.202,324.249,440.546,324.249z M437.028,288.452c-0.611,0-1.225,0.06-1.836,0.187           c-3.273,0.676-5.985,3.105-7.641,6.84c-1.673,3.775-2.064,8.419-1.1,13.08c1.981,9.575,9.104,16.243,15.922,14.82           c3.273-0.676,5.985-3.105,7.641-6.84c1.673-3.772,2.064-8.417,1.1-13.077C449.311,294.743,443.232,288.452,437.028,288.452           z"/>
								</g>
							</g>
							<g>
								<polygon style="fill:#411C36;" points="329.236,274.659 333.027,288.365 381.437,276.408 378.521,261.244         "/>
							</g>
						</g>
					</g>
					<g>
						<g>
							<polygon style="fill:#FFE3BF;" points="455.485,223.102 184.007,299.743 169.41,243.538 187.457,222.256 437.142,152.765                 "/>
						</g>
						<g>
							<g>
								<circle style="fill:#FFC151;" cx="231.25" cy="249.19" r="15.553"/>
							</g>
							<g>
								<circle style="fill:#FFC151;" cx="421.779" cy="196.697" r="15.553"/>
							</g>
							<g>
								<g>
									<polygon style="fill:#FFC151;" points="251.469,232.081 256.913,249.968 400.004,212.251 395.727,190.865          "/>
								</g>
								<g>
									<g>
										<path style="fill:#FFE3BF;" d="M263.425,252.596c-0.225,0-0.433-0.152-0.493-0.379l-7.406-27.975            c-0.074-0.274,0.089-0.553,0.361-0.625c0.281-0.069,0.555,0.091,0.625,0.361l7.406,27.975            c0.074,0.274-0.089,0.553-0.361,0.625C263.512,252.589,263.467,252.596,263.425,252.596z"/>
									</g>
									<g>
										<path style="fill:#FFE3BF;" d="M273.564,249.912c-0.225,0-0.433-0.152-0.493-0.379l-7.404-27.977            c-0.074-0.274,0.089-0.553,0.361-0.625c0.286-0.067,0.553,0.091,0.625,0.361l7.404,27.977            c0.074,0.274-0.089,0.553-0.361,0.625C273.651,249.905,273.606,249.912,273.564,249.912z"/>
									</g>
									<g>
										<path style="fill:#FFE3BF;" d="M273.564,249.912c-0.225,0-0.433-0.152-0.493-0.379l-7.404-27.977            c-0.074-0.274,0.089-0.553,0.361-0.625c0.286-0.067,0.553,0.091,0.625,0.361l7.404,27.977            c0.074,0.274-0.089,0.553-0.361,0.625C273.651,249.905,273.606,249.912,273.564,249.912z"/>
									</g>
									<g>
										<path style="fill:#FFE3BF;" d="M283.705,247.226c-0.225,0-0.433-0.152-0.493-0.379l-7.404-27.975            c-0.074-0.274,0.089-0.553,0.361-0.625c0.288-0.067,0.553,0.091,0.625,0.361l7.404,27.975            c0.074,0.274-0.089,0.553-0.361,0.625C283.792,247.219,283.748,247.226,283.705,247.226z"/>
									</g>
									<g>
										<path style="fill:#FFE3BF;" d="M283.705,247.226c-0.225,0-0.433-0.152-0.493-0.379l-7.404-27.975            c-0.074-0.274,0.089-0.553,0.361-0.625c0.288-0.067,0.553,0.091,0.625,0.361l7.404,27.975            c0.074,0.274-0.089,0.553-0.361,0.625C283.792,247.219,283.748,247.226,283.705,247.226z"/>
									</g>
									<g>
										<path style="fill:#FFE3BF;" d="M293.847,244.542c-0.225,0-0.433-0.152-0.493-0.379l-7.404-27.975            c-0.074-0.274,0.089-0.553,0.361-0.625c0.283-0.069,0.553,0.091,0.625,0.361l7.404,27.975            c0.074,0.274-0.089,0.553-0.361,0.625C293.934,244.536,293.889,244.542,293.847,244.542z"/>
									</g>
									<g>
										<path style="fill:#FFE3BF;" d="M293.847,244.542c-0.225,0-0.433-0.152-0.493-0.379l-7.404-27.975            c-0.074-0.274,0.089-0.553,0.361-0.625c0.283-0.069,0.553,0.091,0.625,0.361l7.404,27.975            c0.074,0.274-0.089,0.553-0.361,0.625C293.934,244.536,293.889,244.542,293.847,244.542z"/>
									</g>
									<g>
										<path style="fill:#FFE3BF;" d="M303.988,241.859c-0.225,0-0.433-0.152-0.493-0.379l-7.406-27.977            c-0.074-0.274,0.089-0.553,0.361-0.625c0.283-0.067,0.555,0.091,0.625,0.361l7.406,27.977            c0.074,0.274-0.089,0.553-0.361,0.625C304.075,241.852,304.031,241.859,303.988,241.859z"/>
									</g>
									<g>
										<path style="fill:#FFE3BF;" d="M303.988,241.859c-0.225,0-0.433-0.152-0.493-0.379l-7.406-27.977            c-0.074-0.274,0.089-0.553,0.361-0.625c0.283-0.067,0.555,0.091,0.625,0.361l7.406,27.977            c0.074,0.274-0.089,0.553-0.361,0.625C304.075,241.852,304.031,241.859,303.988,241.859z"/>
									</g>
									<g>
										<path style="fill:#FFE3BF;" d="M314.13,239.173c-0.225,0-0.433-0.152-0.493-0.379l-7.406-27.975            c-0.074-0.274,0.089-0.553,0.361-0.625c0.286-0.067,0.553,0.091,0.625,0.361l7.406,27.975            c0.074,0.274-0.089,0.553-0.361,0.625C314.217,239.166,314.172,239.173,314.13,239.173z"/>
									</g>
									<g>
										<path style="fill:#FFE3BF;" d="M324.271,236.489c-0.225,0-0.433-0.152-0.493-0.379l-7.406-27.975            c-0.074-0.274,0.089-0.553,0.361-0.625c0.288-0.067,0.553,0.091,0.625,0.361l7.406,27.975            c0.074,0.274-0.089,0.553-0.361,0.625C324.358,236.482,324.314,236.489,324.271,236.489z"/>
									</g>
									<g>
										<path style="fill:#FFE3BF;" d="M334.411,233.805c-0.225,0-0.433-0.152-0.493-0.379l-7.404-27.975            c-0.074-0.274,0.089-0.553,0.361-0.625c0.286-0.067,0.553,0.091,0.625,0.361l7.404,27.975            c0.074,0.274-0.089,0.553-0.361,0.625C334.498,233.798,334.453,233.805,334.411,233.805z"/>
									</g>
									<g>
										<path style="fill:#FFE3BF;" d="M344.552,231.121c-0.225,0-0.433-0.152-0.493-0.379l-7.404-27.977            c-0.074-0.274,0.089-0.553,0.361-0.625c0.288-0.065,0.553,0.091,0.625,0.361l7.404,27.977            c0.074,0.274-0.089,0.553-0.361,0.625C344.639,231.115,344.595,231.121,344.552,231.121z"/>
									</g>
									<g>
										<path style="fill:#FFE3BF;" d="M354.694,228.435c-0.225,0-0.433-0.152-0.493-0.379l-7.404-27.975            c-0.074-0.274,0.089-0.553,0.361-0.625c0.283-0.067,0.553,0.091,0.625,0.361l7.404,27.975            c0.074,0.274-0.089,0.553-0.361,0.625C354.781,228.429,354.736,228.435,354.694,228.435z"/>
									</g>
									<g>
										<path style="fill:#FFE3BF;" d="M364.835,225.752c-0.225,0-0.433-0.152-0.493-0.379l-7.406-27.975            c-0.074-0.274,0.089-0.553,0.361-0.625c0.29-0.067,0.553,0.091,0.625,0.361l7.406,27.975            c0.074,0.274-0.089,0.553-0.361,0.625C364.922,225.745,364.878,225.752,364.835,225.752z"/>
									</g>
									<g>
										<path style="fill:#FFE3BF;" d="M374.977,223.068c-0.225,0-0.433-0.152-0.493-0.379l-7.406-27.975            c-0.074-0.274,0.089-0.553,0.361-0.625c0.286-0.067,0.553,0.091,0.625,0.361l7.406,27.975            c0.074,0.274-0.089,0.553-0.361,0.625C375.064,223.061,375.019,223.068,374.977,223.068z"/>
									</g>
									<g>
										<path style="fill:#FFE3BF;" d="M385.118,220.384c-0.225,0-0.433-0.152-0.493-0.379l-7.406-27.977            c-0.074-0.274,0.089-0.553,0.361-0.625c0.288-0.065,0.553,0.091,0.625,0.361l7.406,27.977            c0.074,0.274-0.089,0.553-0.361,0.625C385.205,220.378,385.161,220.384,385.118,220.384z"/>
									</g>
									<g>
										<path style="fill:#FFE3BF;" d="M395.257,217.698c-0.225,0-0.433-0.152-0.493-0.379l-7.404-27.975            c-0.074-0.274,0.089-0.553,0.361-0.625c0.283-0.065,0.553,0.091,0.625,0.361l7.404,27.975            c0.074,0.274-0.089,0.553-0.361,0.625C395.344,217.692,395.3,217.698,395.257,217.698z"/>
									</g>
								</g>
							</g>
						</g>
					</g>
					<g>
						<polygon style="fill:#411C36;" points="251.625,454.055 196.252,470.045 130.941,237.905 131.215,237.905 187.457,222.256               "/>
					</g>
					<g>
						<path style="fill:#FFE3BF;" d="M174.674,304.381c-11.886,0-21.557-9.671-21.557-21.557c0-11.886,9.671-21.555,21.557-21.555        c11.886,0,21.557,9.669,21.557,21.555C196.231,294.71,186.56,304.381,174.674,304.381z M174.674,263.554        c-10.628,0-19.272,8.645-19.272,19.27c0,10.628,8.645,19.272,19.272,19.272c10.628,0,19.272-8.645,19.272-19.272        C193.947,272.198,185.302,263.554,174.674,263.554z"/>
					</g>
				</g>
			</g>
			<g>
				<g>
					<polygon style="fill:#FFE3BF;" points="96.227,136.137 98.706,124.763 118.537,129.283 116.204,140.365      "/>
				</g>
				<g>
					<path style="fill:#411C36;" d="M116.058,133.366c0,1.047-0.849,1.895-1.896,1.895c-1.047,0-1.895-0.849-1.895-1.895       c0-1.047,0.849-1.896,1.895-1.896C115.209,131.471,116.058,132.319,116.058,133.366z"/>
				</g>
				<g>
					<g>
						<g>
							<path style="fill:#FFE3BF;" d="M69.679,156.357c0,0,2.883-24.131,33.838-20.966s27.457,32.118,27.457,32.118L69.679,156.357z         "/>
						</g>
						<g>
							<path style="fill:#7657AA;" d="M140.367,184.05l-8.498,43.975l-11.631,45.277c-1.713,8.749-46.643,82.782-46.643,82.782         l-20.331,2.461l-9.278-35.475l-11.786-54.36l23.484-100.879c1.576-6.853,7.424-11.696,14.14-12.29         c1.393-0.137,2.81-0.069,4.249,0.183l53.409,9.549c1.256,0.229,2.444,0.594,3.564,1.074         C137.763,169.247,141.806,176.534,140.367,184.05z"/>
						</g>
					</g>
					<g>
						<path style="fill:#FFC151;" d="M131.869,228.025L104.547,369.2c-1.713,8.749-8.863,15.443-17.727,16.516        c-24.557,2.993-47.95-5.254-62.41-12.107c-8.749-4.158-13.409-13.82-11.216-23.255l19.006-81.644        c4.797,0.822,10.074-1.759,13.958-5.072c4.683-3.998,8.544-9.092,14.095-11.719c2.444-1.142,5.254-1.759,7.835-0.983        c5.825,1.691,7.698,9.092,7.264,15.146c-0.685,9.983-4.843,19.623-4.614,29.629c0.091,3.632,1.416,7.995,4.957,8.795        c3.975,0.891,7.082-3.312,8.772-7.013c7.242-15.968,9.914-33.535,14.232-50.508c1.097-4.272,3.015-9.229,7.333-10.143        c4.386-0.936,8.384,3.221,9.572,7.539c1.188,4.341,0.594,8.955,1.325,13.387c0.343,2.033,2.056,4.569,3.883,3.586        c0.548-0.297,0.891-0.822,1.188-1.371c4.135-7.653,0.183-17.384,2.718-25.722c0.594-2.01,1.668-3.998,3.427-5.14        C129.242,228.39,130.567,228.047,131.869,228.025z"/>
					</g>
					<g>
						<path style="fill:#411C36;" d="M140.263,178.799c-0.038,0-0.076-0.004-0.114-0.011l-81.85-16.526        c-0.308-0.062-0.509-0.364-0.446-0.674c0.065-0.308,0.37-0.495,0.674-0.446l81.85,16.526c0.308,0.062,0.509,0.364,0.446,0.674        C140.768,178.611,140.531,178.799,140.263,178.799z"/>
					</g>
					<g>
						<path style="fill:#FFFFFF;" d="M117.377,149.394c0.186,1.933,0.569,3.878,1.469,5.599c1.089,2.081,5.75,6.51,6.729,1.99        c0.47-2.166,0.095-4.453-0.733-6.509c-0.72-1.785-2.143-5.073-4.145-5.75C117.856,143.764,117.186,147.408,117.377,149.394z"/>
					</g>
					<g>
						<g>
							<path style="fill:#FFE3BF;" d="M126.046,187.007c-1.082,1.312-1.678,2.955-2.11,4.6c-0.879,3.345-1.795,8.291-0.267,11.626         c1.289,2.813,4.631,3.246,6.681,0.973c1.965-2.179,2.859-5.821,3.372-8.636c0.548-3.009,0.48-6.235-1.021-8.975         C131.135,183.739,127.725,184.972,126.046,187.007z"/>
						</g>
						<g>
							<path style="fill:#FFE3BF;" d="M129.181,217.111c0,2.47-2.002,4.472-4.472,4.472c-2.47,0-4.472-2.002-4.472-4.472         c0-2.469,2.002-4.471,4.472-4.471C127.179,212.64,129.181,214.642,129.181,217.111z"/>
						</g>
					</g>
				</g>
			</g>
			<g>
				<g>
					<polygon style="fill:#411C36;" points="178.272,100.102 176.234,78.569 207.624,104.163 205.945,86.419 253.903,125.531        220.601,107.36 222.525,127.697      "/>
				</g>
				<g>
					<polygon style="fill:#411C36;" points="258.221,33.53 277.28,23.304 265.856,62.161 281.562,53.734 264.099,113.104        267.939,75.361 249.939,85.02      "/>
				</g>
			</g>
			<g>
				<g>
					<polygon style="fill:#FFE3BF;" points="298.811,143.281 299.29,106.526 309.448,141.691 341.489,138.067 313.916,150.457        324.997,180.109 306.381,155.559 294.187,184.367 298.285,155.702 263.928,145.681      "/>
				</g>
				<g>
					<polygon style="fill:#FFE3BF;" points="228.304,425.693 251.511,397.187 237.628,431.055 264.988,448.118 235.684,440.7        225.948,470.82 226.609,440.017 199.158,455.018 220.176,435.1 199.477,405.905      "/>
				</g>
			</g>
			<g>
				<g>
					<g>
						<polygon style="fill:#7657AA;" points="103.997,394.609 159.129,389.756 132.975,435.201       "/>
					</g>
				</g>
				<g>
					<g>
						<polygon style="fill:#FFE3BF;" points="172.555,116.841 161.009,159.38 134.243,127.326       "/>
					</g>
				</g>
			</g>
		</g>
	</g>
</g>















</svg>
