<?xml version="1.0" encoding="UTF-8"?>
<!-- Generator: Adobe Illustrator 25.3.1, SVG Export Plug-In . SVG Version: 6.00 Build 0)  -->
<svg xmlns="http://www.w3.org/2000/svg" xmlns:xlink="http://www.w3.org/1999/xlink" version="1.1" id="Capa_1" x="0px" y="0px" viewBox="0 0 512 512" style="enable-background:new 0 0 512 512;" xml:space="preserve" width="512" height="512">
<g>
	<g>
		<path style="fill:#FFFFFF;" d="M258.816,512c-7.829,0-13.807-5.458-22.1-15.531c-4.179-5.076-8.544-11.011-10.845-14.484    c-3.381-0.415-6.778-0.93-10.323-1.562c-8.867-1.434-17.674-3.527-26.299-6.026c-51.732-14.99-97.646-48.362-129.282-93.97    c-31.609-45.566-46.816-100.232-42.819-153.926c3.733-50.136,24.551-99.557,58.622-139.161    c34.17-39.718,79.68-67.081,128.289-77.174c2.308-1.687,4.746-3.232,7.291-4.537C221.235,0.579,232.911,0,243.817,0    c11.139,0,22.747,1.364,33.186,5.439c71.658,6.282,138.215,45.995,178.278,106.41c0.876,1.319,1.741,2.653,2.592,3.996    c29.868,47.077,42.864,105.168,35.656,159.376c-10.477,78.836-60.726,149.347-131.137,184.019    c-15.702,7.732-32.18,13.713-48.976,17.775c-7.867,1.902-16.33,3.782-24.92,4.644c-4.027,0.404-8.062,0.032-12.094,0.261    c-1.005,0.057-2.043,0.185-2.899,0.761c-0.873,0.588-1.58,1.587-2.372,2.324c3.834,9.885,2.687,13.789,1.976,16.21    C271.283,507.435,265.311,512,258.816,512z"/>
	</g>
	<g>
		<g>
			<g>
				<g>
					<path style="fill:#FF6A6C;" d="M484.999,244.196c0,38.042-9.407,73.904-26.019,105.383c-0.069,0.138-0.138,0.252-0.229,0.39       c-6.929,13.078-14.844,26.29-24.136,37.67c-0.092,0.138-0.438-0.684-0.552-0.546c0,0-22.353-10.783-25.726-7.158       c-15.533,16.658-29.921,20.815-49.859,32.173c-0.161,0.115-23.488,45.677-23.488,45.677       c-11.343,3.843-37.934,10.545-62.012,11.874c-13.057,0.721-26.149,0.446-39.127-0.999c0,0-11.216-8.775-16.74-9.819       c-5.592-1.057-16.599,3.532-16.599,3.532c-9.46-2.527-18.792-5.712-27.763-9.407l-3.556-3.564l-4.176,0.191       c-4.347-1.988-8.589-4.168-12.802-6.427l-19.492-52.76l-36.699,10.049c-22.013-23-39.158-50.57-49.858-80.613       c-0.138-0.367-0.23-0.734-0.367-1.101c-8.168-23.334-12.596-48.436-12.596-74.546c0-71.839,33.545-135.808,85.812-177.199       c2.872-2.27,4.753-3.676,5.849-4.465c12.413-8.938,25.307-16.748,39.144-23.298c33.941-16.075,72.544-22.922,109.952-20.447       c29.69,1.965,58.948,9.727,85.58,23.04c0.046,0.023,0.092,0.023,0.115,0.069c29.621,14.73,55.525,35.77,75.992,61.353       c0.367,0.459,0.734,0.918,1.078,1.377c3.052,3.878,5.988,7.847,8.765,11.931c0.298,0.39,0.551,0.803,0.803,1.193       c1.032,1.491,2.019,2.983,2.983,4.497c0.161,0.252,0.321,0.482,0.482,0.734C472.081,157.994,484.999,199.569,484.999,244.196z"/>
				</g>
			</g>
			<g>
				<g>
					<g>
						<polygon style="fill:#FFC151;" points="349.786,94.836 354.891,54.425 361.697,94.411 397.429,94.411 365.525,104.619         374.033,138.649 356.592,109.299 339.578,139.5 347.66,108.448 311.077,93.134       "/>
					</g>
				</g>
				<g>
					<g>
						<polygon style="fill:#FFC151;" points="123.254,248.717 127.778,212.903 133.81,248.34 165.477,248.34 137.203,257.388         144.743,287.548 129.286,261.535 114.206,288.302 121.369,260.781 88.947,247.21       "/>
					</g>
				</g>
				<g>
					<g>
						<polygon style="fill:#FFC151;" points="403.22,209.087 418.432,186.422 411.781,212.843 437.099,224.882 411.565,220.294         407.829,243.695 403.892,220.108 383.17,232.6 397.807,216.585 376.28,195.019       "/>
					</g>
				</g>
			</g>
			<g>
				<g>
					<g>
						<path style="fill:#411C36;" d="M198.427,285.602c-3.502,8.374-2.609,17.873-1.252,26.847        c2.505,16.572,6.385,32.925,11.308,48.947c0.628,2.044,1.315,4.158,2.776,5.719c1.541,1.648,3.756,2.476,5.932,3.075        c11.265,3.1,23.434,1.392,34.357-2.755c7.576-2.876,15.082-7.266,18.949-14.388c2.626-4.837,3.322-10.512,3.116-16.012        c-0.444-11.838-4.813-23.198-10.221-33.739c-4.937-9.622-10.89-18.901-18.965-26.095c-3.552-3.164-7.591-5.946-12.19-7.163        c-6.233-1.648-13.783,1.276-19.79,3.013C206.15,274.873,200.963,279.537,198.427,285.602z"/>
					</g>
				</g>
				<g>
					<g>
						<path style="fill:#411C36;" d="M191.573,68.26c-1.497,7.534-3.725,15.202-8.668,21.083        c-5.632,6.701-14.057,10.26-22.132,13.639c-8.075,3.379-16.472,7.069-21.924,13.918c-5.451,6.849-6.731,17.86-0.405,23.911        c2.46,2.354,5.835,3.789,7.697,6.64c2.013,3.083,1.778,7.11,0.979,10.704c-0.799,3.595-2.094,7.153-1.959,10.833        c0.27,7.401,6.399,13.51,13.27,16.275c2.503,1.007,5.219,1.684,7.892,1.318c4.561-0.626,8.395-4.18,12.991-4.455        c4.668-0.279,8.753,2.845,13.103,4.561c9.482,3.741,20.234,0.698,29.577-3.377c9.132-3.984,18.042-9.11,24.394-16.786        c10.594-12.801,12.511-30.586,12.464-47.203c-0.042-14.705-1.399-29.876-8.235-42.895        c-4.374-8.33-10.834-15.431-18.071-21.443c-5.158-4.285-10.855-8.117-17.289-10.009c-5.227-1.537-15.375-2.541-19.696,1.933        C191.626,50.978,192.655,62.815,191.573,68.26z"/>
					</g>
				</g>
				<g>
					<g>
						<g>
							<g>
								<path style="fill:#FFA073;" d="M357.35,316.643l-7.421,11.131c0,0-49.414,33.809-71.327,38.654          c-21.913,4.824-37.89-3.732-37.89-3.732l6.417-24.162c-0.851-1.375-2.183-2.335-3.492-3.296          c-7.705-5.675-15.104-11.808-22.11-18.355c0,0,4.951-12.703,1.939-15.824c-4.649-4.824-20.316-3.208-24.048-8.796          c-2.968-4.453-4.409-9.669-6.81-14.296c0.698-25.755,9.276-92.608,10.586-99.527c1.048-5.544,11.109-9.582,16.85-12.659          c0.655-0.349,1.244-0.698,1.768-1.026c0.371-0.218,0.698-0.436,0.982-0.655c0.764-0.589,1.2-1.113,1.2-1.637          c0-1.048,0.153-4.671,0.349-9.167l12.29-14.636l29.245-22.578l17.548-5.631l-2.619,29.225l-0.349,3.841          c0,0,7.77-2.837,16.959-4.824c5.696-1.244,11.961-2.161,17.221-1.877c13.75,0.764,23.397,15.977,23.397,15.977          l14.602,146.409L357.35,316.643z"/>
							</g>
						</g>
						<g>
							<g>
								<path style="fill:#7657AA;" d="M315.815,274.344c-17.788,14.449-37.934,26.802-59.454,34.747          c-11.197,4.125-22.983,7.312-34.834,7.792c-3.165-2.947-6.264-5.98-9.276-9.101c-4.649-4.824-9.101-9.931-12.834-15.518          c-2.968-4.453-4.409-9.669-6.81-14.296c0.698-25.755,8.88-92.695,10.586-99.527c1.376-5.509,9.486-9.564,16.85-12.659          c-2.423,12.484-4.06,25.122-4.605,37.824c-0.349,8.01-0.065,16.675,4.802,23.048c3.339,4.365,8.49,7.093,13.86,8.25          c5.369,1.157,10.957,0.829,16.369-0.044c6.635-1.091,13.467-3.187,18.159-8.032c2.947-3.034,4.845-6.984,6.111-11.044          c3.711-11.982,2.117-24.991-1.179-37.082c-3.296-12.092-8.228-23.703-11.306-35.86c6.22-0.873,12.397-1.942,18.552-3.165          c5.26-1.048,10.498-2.226,15.693-3.536c0.327,0.851,0.633,1.702,0.917,2.553c3.754,11.24,4.671,23.267,5.675,35.096          C305.95,207.469,309.966,241.059,315.815,274.344z"/>
							</g>
						</g>
						<g>
							<g>
								<g>
									<g>
										<path style="fill:#FFC151;" d="M258.478,294.62c0.022,0.262-0.175,0.524-0.436,0.568c-0.044,0-0.087,0.022-0.109,0.022            c-0.24,0-0.458-0.153-0.524-0.393c-0.895-2.838-1.79-5.697-2.706-8.556c-12.397-39.549-24.882-80.232-32.892-121.505            c0.371-0.218,0.698-0.436,0.982-0.655c8.01,41.404,20.538,82.284,33.001,121.964c0.415,1.31,0.808,2.597,1.222,3.907            c-0.109-1.353-0.196-2.685-0.284-4.038c-3.208-45.158-4.256-90.905-3.165-136.085c0-0.305,0.306-0.546,0.546-0.546            c0.306,0.022,0.546,0.262,0.546,0.568c-1.113,45.158-0.044,90.84,3.187,135.954            C258.042,288.771,258.26,291.696,258.478,294.62z"/>
									</g>
								</g>
							</g>
							<g>
								<g>
									<g>
										
											<ellipse transform="matrix(0.7071 -0.7071 0.7071 0.7071 -139.9198 272.4458)" style="fill:#FFC151;" cx="258.911" cy="305.121" rx="19.318" ry="19.318"/>
									</g>
								</g>
							</g>
						</g>
					</g>
					<g>
						<g>
							<path style="fill:#411C36;" d="M265.877,116.084c-0.851,7.29-3.143,14.449-7.552,20.255         c-7.857,10.346-20.997,14.798-33.983,16.959c0.437-9.974,1.135-24.27,1.135-24.27L265.877,116.084z"/>
						</g>
					</g>
				</g>
				<g>
					<g>
						<path style="fill:#FFE3BF;" d="M370.736,441.517c-7.319,4.107-14.868,7.847-22.646,11.174        c-4.291,1.813-8.65,3.533-13.101,5.094h-0.023c-0.551-0.046-1.124-0.115-1.698-0.161c0,0-0.023,0-0.046,0        c-17.277-1.583-37.422-2.96-53.942-2.685h-0.023c-4.933,0.023-9.568,0.252-13.652,0.642        c-7.572,0.711-16.566,0.987-25.996,0.918c-2.318,0-4.658-0.023-7.021-0.069h-0.505c-0.092,0-0.161-0.023-0.252-0.023h-0.849        c-10.99-0.229-22.187-0.803-32.122-1.445c-0.207-0.023-0.413-0.023-0.62-0.046c-0.183-0.023-0.39-0.023-0.574-0.046        c-10.233-0.665-19.067-1.4-24.918-1.904c-0.023-0.023-0.023-0.023-0.046-0.023c-0.528-0.207-1.055-0.413-1.583-0.642h-0.023        c-2.042-0.872-4.061-1.767-6.057-2.707h-0.023l-2.248-22.921l-1.423-14.73l-0.092-1.033v-0.046c0-0.023,0-0.023,0-0.023        l-0.092-0.964l-5.988-60.894L154.898,346l50.593,9.797c0.321,0.069,0.665,0.115,0.987,0.184        c0.137,0.023,0.275,0.046,0.413,0.092c0.826,0.138,1.629,0.298,2.432,0.459l0.023,0.023l0.642,0.115l0.642,0.138l9.178,1.79        h0.023l2.684,0.505c0.344,0.046,0.665,0.115,1.01,0.207l15.694,3.029l2.616-14.111c0,0,0.964,0.069,2.685,0.161        c5.231,0.344,17.231,0.987,27.625,0.803h0.023c4.887-0.115,9.43-0.367,12.734-0.964c4.956-0.895,18.333-4.336,32.719-8.214        c0.505-0.138,1.01-0.275,1.514-0.413c0.505-0.115,1.01-0.275,1.492-0.39c0.344-0.092,0.688-0.184,1.01-0.275h0.023        c6.699-1.836,13.445-3.694,19.571-5.392h0.023c13.079-3.625,23.174-6.493,23.174-6.493l1.515,27.717l1.766,31.686v0.229        l0.023,0.642l0.023,0.597l2.937,52.726L370.736,441.517z"/>
					</g>
				</g>
				<g>
					<g>
						<g>
							<path style="fill:#FFA073;" d="M434.614,387.639c-3.143,3.841-6.439,7.596-9.822,11.219         c-15.671,16.806-33.896,31.233-54.063,42.648c-7.312,4.125-14.864,7.857-22.634,11.175         c-3.972-5.653-6.744-13.86-5.958-25.711c0.633-9.735,2.183-19.403,4.256-28.352c0.044-0.218,0.109-0.436,0.153-0.655v-0.022         c5.064-21.411,13.161-38.632,19.403-43.172c0.109-0.087,0.218-0.175,0.327-0.24c8.272-5.522,33.874-20.647,50.876-4.627         c1.288,1.244,2.554,2.641,3.732,4.256C426.888,362.277,431.34,374.849,434.614,387.639z"/>
						</g>
					</g>
					<g>
						<g>
							<path style="fill:#FFA073;" d="M236.259,446.657c-1.01-0.046-3.12-0.459-6.057-1.124h-0.023         c-0.046,0-0.069-0.023-0.115-0.023c-0.321-0.092-0.665-0.161-1.032-0.252c-8.765-2.134-23.587-6.241-37.767-10.279v-0.023         c-0.229-0.046-0.459-0.115-0.688-0.184c-0.207-0.069-0.413-0.115-0.62-0.184c-10.417-3.006-20.352-5.919-27.189-7.916         c-5.53-1.652-8.994-2.662-8.994-2.662l-1.881,19.021c-0.183-0.092-0.39-0.184-0.574-0.298         c-18.218-9.889-34.898-22.233-49.651-36.573c-1.928-1.858-3.809-3.763-5.645-5.713c2.684-16.933,7.342-32.558,12.803-43.686         c2.042-4.176,8.007-6.539,16.244-7.64c0.161-0.023,0.344-0.046,0.528-0.069l0.413-0.069h0.023c0.023,0,0.069,0,0.092-0.023         c8.1-0.964,18.264-0.803,29.048,0.023c17.116,1.285,35.816,4.199,50.317,6.814c0.321,0.069,0.665,0.115,0.987,0.184         c0.137,0.023,0.275,0.046,0.413,0.092c0.826,0.138,1.629,0.298,2.432,0.459c0.229,0.023,0.436,0.069,0.665,0.115         c0.206,0.046,0.436,0.069,0.642,0.115c3.419,0.619,6.493,1.239,9.178,1.79c0.964,0.184,1.858,0.367,2.707,0.551         c0.344,0.046,0.665,0.115,1.01,0.207c4.497,0.941,7.159,1.537,7.159,1.537c1.767,0.597,3.35,4.612,4.727,10.577         C240.664,394.481,242.454,446.955,236.259,446.657z"/>
						</g>
					</g>
				</g>
				<g>
					<g>
						<path style="fill:#FFA073;" d="M255.382,403.57c0,0-11.703,31.95-14.303,45.324c-2.601,13.374-4.272,19.69-1.115,24.705        c3.158,5.015,18.947,26.377,22.476,24.52c3.529-1.858-7.616-21.548-7.616-21.548s5.201,2.043,8.73-0.557        c3.529-2.601,4.087-5.201,4.087-5.201s5.758,0,8.173-5.201c0,0,5.387-3.158,3.715-9.659        c-1.672-6.502-3.158-9.102-2.043-15.603c1.114-6.501,5.758-23.776,5.758-23.776L255.382,403.57z"/>
					</g>
				</g>
				<g>
					<g>
						<path style="fill:#FFE3BF;" d="M282.688,140.915c0,0,31.206,141.172,34.179,160.119c2.972,18.947,4.83,38.265,4.83,38.265        s-65.385,34.55-66.5,40.866c-1.115,6.316,1.486,13.374,1.486,13.374l-4.18,9.009l30.556,13.932l5.665-5.991        c0,0,17.801,0.839,29.863-2.263c13.63-3.505,26.64-7.333,62.106-28.507c19.953-11.912,36.199-24.077,42.719-41.234        c12.901-33.951-10.698-96.521-38.932-135.157s-59.07-65.385-67.614-69.843C308.322,129.027,282.688,140.915,282.688,140.915z"/>
					</g>
				</g>
				<g>
					<g>
						<path style="fill:#411C36;" d="M283.245,417.118c-0.076,0-0.152-0.016-0.226-0.049l-31.02-14.116        c-0.141-0.064-0.249-0.186-0.294-0.334c-0.047-0.149-0.029-0.309,0.052-0.443c0.045-0.073,4.365-7.346,4.009-12.312        c-0.347-4.879,2.075-6.694,11.084-13.445c1.206-0.903,2.534-1.898,3.993-3.004c6.384-4.838,20.144-14.566,33.449-23.975        c12.288-8.688,24.992-17.673,31.941-22.838c14.044-10.445,17.634-15.63,16.126-32.205        c-1.461-16.079-27.56-80.187-27.822-80.832c-0.114-0.279,0.018-0.597,0.298-0.712c0.276-0.117,0.598,0.018,0.71,0.299        c1.08,2.643,26.426,64.904,27.903,81.146c1.542,16.976-2.357,22.613-16.565,33.18c-6.957,5.173-19.669,14.161-31.961,22.854        c-13.298,9.403-27.049,19.126-33.419,23.953c-1.461,1.107-2.79,2.103-3.997,3.008c-8.851,6.632-10.955,8.207-10.65,12.493        c0.325,4.56-2.837,10.606-3.856,12.423l30.088,13.692c4.394-5.456,5.021-6.232,5.113-6.348        c0.002-0.003,0.007-0.005,0.009-0.009l0,0c0.007-0.01,0.009-0.011,0.009-0.012c0.193-0.225,0.531-0.256,0.764-0.064        c0.038,0.031,0.07,0.066,0.096,0.104c0.372,0.267,2.041,1.162,2.279,1.272c2.182,0.952,4.685,1.396,7.466,1.311        c4.903-0.149,9.601-1.407,13.146-2.487c2.158-0.656,4.369-1.236,6.511-1.797c2.409-0.631,4.903-1.284,7.316-2.047        c10.995-3.475,20.415-7.35,28.801-11.848c7.43-3.985,14.652-8.072,21.468-12.149l2.595-1.548        c11.94-7.116,24.289-14.476,33.276-24.622c12.165-13.734,13.98-26.617,13.98-33.073c0-0.301,0.246-0.545,0.547-0.545        c0.3,0,0.547,0.244,0.547,0.545c0,6.611-1.853,19.794-14.257,33.797c-9.097,10.274-21.519,17.677-33.534,24.835l-2.592,1.547        c-6.83,4.085-14.067,8.181-21.513,12.173c-8.445,4.531-17.928,8.432-28.99,11.927c-2.438,0.772-4.943,1.428-7.367,2.064        c-2.131,0.558-4.333,1.135-6.469,1.785c-3.61,1.099-8.4,2.381-13.433,2.534c-2.917,0.087-5.6-0.384-7.941-1.405        c-0.02-0.008-1.362-0.635-2.187-1.201c-1.172,1.454-5.055,6.276-5.055,6.276C283.563,417.046,283.406,417.118,283.245,417.118        z"/>
					</g>
				</g>
				<g>
					<g>
						<g>
							<path style="fill:#FFA073;" d="M291.232,66.057c0-27.186-22.039-49.225-49.225-49.225c-26.676,0-48.38,21.222-49.186,47.702         c-3.206,15.651-6.533,54.085,3.398,64.678c12.538,13.374,65.757,9.752,75.509,3.622c14.589-9.17,11.957-29.905,14.522-45.188         C289.438,81.127,291.232,73.802,291.232,66.057z"/>
						</g>
					</g>
					<g>
						<g>
							<path style="fill:#411C36;" d="M253.911,43.972c8.857,12.048,12.627,27.131,14.125,42.009         c0.828,8.226,0.849,17.151-3.813,23.98c-3.655,5.354-9.619,8.568-14.542,12.784c-4.722,4.044-8.621,9.243-10.285,15.233         c-1.665,5.99-0.882,12.806,2.847,17.782c2.209,2.948,5.397,5.265,6.702,8.71c1.301,3.437,0.457,7.294,1.004,10.928         c1.026,6.806,8.318,12.438,14.91,10.459c3.626-1.089,6.341-4.013,9.365-6.292c5.885-4.435,13.456-6.571,20.792-5.866         c7.271,0.699,15.136,3.94,21.45,0.267c7.741-4.502,7.663-16.341,14.496-22.128c4.463-3.78,11.17-4.314,15.178-8.573         c5.02-5.334,2.562-15.567-4.333-18.039c-2.681-0.961-5.688-0.877-8.258-2.104c-6.235-2.977-6.778-11.512-10.418-17.384         c-2.872-4.633-8.09-7.725-13.533-8.018c-1.305-0.07-2.683-0.006-3.835-0.623c-1.647-0.882-2.327-2.872-2.669-4.709         c-1.02-5.483-0.31-11.119-0.317-16.696c-0.028-20.83-11.122-41.626-29.112-52.124c-15.408-8.992-39.585-10.862-54.546,0.361         c1.845,1.719,6.305,1.381,8.901,2.034c3.397,0.855,6.668,2.181,9.746,3.848C244.105,33.246,249.645,38.17,253.911,43.972z"/>
						</g>
					</g>
					<g>
						<g>
							<g>
								<path style="fill:#FFE3BF;" d="M304.881,95.218c0,0-4.758-4.562-12.048-10.717c-0.131-0.131-0.284-0.262-0.437-0.371          c-1.615-1.375-3.361-2.816-5.195-4.278c-0.153-0.131-0.284-0.24-0.436-0.349c-2.226-1.79-4.583-3.645-7.05-5.478          c-0.153-0.131-0.305-0.24-0.48-0.371c-1.441-1.069-2.925-2.161-4.431-3.23c-0.262-0.175-0.524-0.371-0.786-0.546          c-9.8-6.897-20.517-13.227-29.88-15.889c-25.34-7.246-50.702-3.077-50.702-3.077c3.732-11.633,14.492-25.995,26.453-32.564          c0.284-0.153,0.567-0.305,0.851-0.458c2.947-1.506,5.937-2.532,8.905-2.925c15.475-2.052,31.037-1.681,44.067,2.794          c0.306,0.109,0.589,0.218,0.873,0.305c9.385,3.383,17.395,8.927,23.048,17.243c3.23,4.736,5.326,10.564,6.657,16.719          c0.087,0.371,0.175,0.742,0.24,1.113c0.917,4.584,1.441,9.342,1.681,13.903c0.022,0.349,0.022,0.677,0.044,1.004          C306.91,82.646,304.881,95.218,304.881,95.218z"/>
							</g>
						</g>
						<g>
							<g>
								<g>
									<g>
										<path style="fill:#D26A49;" d="M274.804,70.424c-0.262-0.175-0.524-0.371-0.786-0.546            c-5.653-15.387-15.693-29.378-28.461-39.636c-6.33-5.086-15.475-10.782-25.667-11.895            c0.284-0.153,0.567-0.305,0.851-0.458c9.996,1.331,18.923,6.919,25.165,11.939            C258.959,40.304,269.151,54.665,274.804,70.424z"/>
									</g>
								</g>
							</g>
							<g>
								<g>
									<g>
										<path style="fill:#D26A49;" d="M281.701,46.415c0.218,9.232-0.458,18.487-1.986,27.61c-0.153-0.131-0.305-0.24-0.48-0.371            c1.484-8.992,2.117-18.116,1.921-27.239c-0.109-5.675-0.589-13.096-3.056-20.102c-1.135-3.165-2.597-6.046-4.387-8.556            c0.306,0.109,0.589,0.218,0.873,0.305c1.615,2.401,2.968,5.129,4.016,8.054C281.112,33.21,281.592,40.697,281.701,46.415z            "/>
									</g>
								</g>
							</g>
							<g>
								<g>
									<g>
										<path style="fill:#D26A49;" d="M304.531,53.137c-3.012,10.324-9.123,19.818-17.33,26.715            c-0.153-0.131-0.284-0.24-0.436-0.349c8.425-7.05,14.623-16.849,17.526-27.479            C304.378,52.395,304.466,52.766,304.531,53.137z"/>
									</g>
								</g>
							</g>
							<g>
								<g>
									<g>
										<path style="fill:#D26A49;" d="M306.256,68.045c-3.82,6.701-8.316,12.201-13.423,16.457            c-0.131-0.131-0.284-0.262-0.437-0.371c5.304-4.365,9.931-10.084,13.816-17.09            C306.234,67.39,306.234,67.717,306.256,68.045z"/>
									</g>
								</g>
							</g>
						</g>
					</g>
					<g>
						<g>
							<g>
								<g>
									<circle style="fill:#7657AA;" cx="243.447" cy="80.035" r="22.708"/>
								</g>
							</g>
							<g>
								<g>
									<ellipse style="fill:#7657AA;" cx="191.204" cy="76.691" rx="20.061" ry="22.708"/>
								</g>
							</g>
						</g>
						<g>
							<g style="opacity:0.46;">
								<g>
									<g>
										<circle style="fill:#411C36;" cx="243.447" cy="80.035" r="22.708"/>
									</g>
								</g>
								<g>
									<g>
										<ellipse style="fill:#411C36;" cx="191.204" cy="76.691" rx="20.061" ry="22.708"/>
									</g>
								</g>
							</g>
							<g>
								<g>
									<path style="fill:#FFA073;" d="M202.978,91.049c-0.559,0.543-1.159,1.081-1.476,1.793c-0.317,0.712-0.262,1.661,0.354,2.14           c0.417,0.325,0.986,0.366,1.462,0.597c0.956,0.464,1.377,1.588,2.16,2.307c1.217,1.118,3.099,1.086,4.705,0.697           c1.606-0.389,3.18-1.068,4.831-1.018c1.206,0.037,2.365,0.464,3.56,0.63c1.195,0.166,2.554,0.007,3.357-0.894           c0.835-0.937,0.795-2.389,0.349-3.561c-0.447-1.172-1.231-2.183-1.796-3.304c-0.589-1.168-0.932-2.444-1.215-3.721           c-1.299-5.867-1.4-12.004-3.334-17.694c-0.486-1.43-1.102-2.848-2.101-3.981c-0.296-0.335-0.638-0.652-1.061-0.795           c-2.952-0.999-2.936,3.135-2.58,4.753c0.562,2.555,0.439,5.344,0.028,7.913C209.37,82.223,206.847,87.29,202.978,91.049z"/>
								</g>
							</g>
							<g>
								<g>
									<path style="fill:#411C36;" d="M210.065,98.792c-0.139,0-0.278-0.009-0.421-0.027c-1.046-0.138-1.839-0.77-2.606-1.381           c-0.585-0.466-1.136-0.906-1.764-1.102c-0.34-0.108-0.717-0.143-1.116-0.181c-0.276-0.026-0.551-0.053-0.822-0.102           c-0.583-0.104-1.62-0.422-2.041-1.375c-0.616-1.404,0.636-2.758,1.237-3.409c5.868-6.345,8.528-15.565,6.937-24.058           c-0.056-0.297,0.139-0.581,0.435-0.637c0.298-0.046,0.58,0.14,0.636,0.436c1.654,8.827-1.107,18.406-7.206,25           c-0.677,0.732-1.329,1.57-1.04,2.228c0.224,0.509,0.939,0.688,1.235,0.742c0.242,0.042,0.488,0.066,0.733,0.089           c0.437,0.042,0.887,0.084,1.34,0.225c0.82,0.257,1.479,0.783,2.118,1.291c0.679,0.542,1.32,1.055,2.068,1.153           c0.731,0.108,1.492-0.23,2.285-0.578c0.637-0.279,1.295-0.567,2.017-0.668c1.046-0.149,2.05,0.12,3.023,0.378           c1.024,0.273,1.994,0.53,2.891,0.271c1.122-0.323,1.925-1.571,1.752-2.725c-0.045-0.298,0.162-0.576,0.459-0.621           c0.289-0.039,0.576,0.16,0.621,0.459c0.253,1.696-0.883,3.461-2.532,3.935c-1.192,0.344-2.35,0.033-3.471-0.264           c-0.907-0.24-1.766-0.468-2.59-0.353c-0.574,0.081-1.136,0.327-1.73,0.588C211.736,98.444,210.941,98.792,210.065,98.792z"/>
								</g>
							</g>
							<g>
								<g>
									<path style="fill:#411C36;" d="M212.491,104.371c-1.822,0-3.641-0.174-5.42-0.522c-0.296-0.058-0.488-0.345-0.43-0.641           c0.058-0.295,0.332-0.486,0.641-0.43c3.773,0.739,7.744,0.661,11.488-0.229c0.307-0.068,0.587,0.113,0.656,0.405           c0.07,0.293-0.112,0.588-0.406,0.658C216.892,104.118,214.692,104.371,212.491,104.371z"/>
								</g>
							</g>
						</g>
						<g>
							<g>
								<g>
									<path style="fill:#7657AA;" d="M223.302,74.419c-0.126,0-0.254-0.044-0.356-0.132c-1.607-1.38-3.824-2.234-6.241-2.401           c-2.078-0.148-4.367,0.197-6.818,1.011c-0.284,0.096-0.595-0.059-0.691-0.346c-0.096-0.286,0.06-0.595,0.345-0.69           c2.594-0.861,5.032-1.217,7.24-1.065c2.649,0.184,5.092,1.13,6.876,2.663c0.228,0.196,0.254,0.54,0.058,0.769           C223.609,74.355,223.455,74.419,223.302,74.419z"/>
								</g>
							</g>
						</g>
						<g style="opacity:0.4;">
							<g>
								<g>
									<path style="fill:#411C36;" d="M223.302,74.419c-0.126,0-0.254-0.044-0.356-0.132c-1.607-1.38-3.824-2.234-6.241-2.401           c-2.078-0.148-4.367,0.197-6.818,1.011c-0.284,0.096-0.595-0.059-0.691-0.346c-0.096-0.286,0.06-0.595,0.345-0.69           c2.594-0.861,5.032-1.217,7.24-1.065c2.649,0.184,5.092,1.13,6.876,2.663c0.228,0.196,0.254,0.54,0.058,0.769           C223.609,74.355,223.455,74.419,223.302,74.419z"/>
								</g>
							</g>
						</g>
					</g>
				</g>
				<g>
					<g>
						<path style="fill:#FFE3BF;" d="M212.101,169.521c0,0-4.458,18.947-4.83,49.41c-0.371,30.463,12.631,140.429,12.631,140.429        l-9.659-1.858c0,0,11.517,24.566,10.774,30.138c-0.743,5.573-7.802,11.842-7.802,11.842l5.572,13.003l-32.321,17.089        c0,0-4.83-8.544-6.687-8.544c-1.858,0-10.774,1.114-15.975-6.687c-5.201-7.802-43.838-52.754-37.894-78.016        c5.944-25.262,30.463-74.301,33.807-86.561C163.063,237.507,166.035,181.038,212.101,169.521z"/>
					</g>
				</g>
				<g>
					<g>
						<g>
							<path style="fill:#FFA073;" d="M233.299,468.614c-0.161,0-0.344-0.023-0.505-0.046c-0.023,0-0.023,0-0.046,0         c-3.924-0.436-7.801-1.01-11.656-1.698c-6.516-1.055-12.987-2.455-19.296-4.176c-0.206-0.046-0.413-0.115-0.619-0.161h-0.023         c-0.597-1.606-1.239-3.258-1.858-4.91c-0.298-0.78-0.665-1.698-1.055-2.707c-2.157-5.621-5.484-14.409-7.663-20.145         c-1.102-2.937-1.905-5.071-2.111-5.621c-0.023-0.092-0.046-0.138-0.046-0.138l0.459-0.252l27.533-15.005l0.252-0.138         l0.114-0.069l0.482-0.252c0,0,0.069,0.184,0.206,0.505c0.252,0.574,0.688,1.629,1.262,3.006c0,0.023,0.023,0.023,0.023,0.046         c2.157,5.208,6.195,14.983,8.719,21.201c0,0.023,0,0.023,0.023,0.046c0.849,2.134,1.515,3.855,1.881,4.841         c0.23,0.62,0.459,1.491,0.688,2.57c0.619,2.776,1.239,6.814,1.767,10.899C232.473,461.135,233.024,465.861,233.299,468.614z"/>
						</g>
					</g>
					<g>
						<g>
							<path style="fill:#411C36;" d="M186.468,430.121c-0.164,0-0.323-0.073-0.43-0.21l-6.469-8.264         c-1.831,0.42-9.98,1.682-16.207-6.985c-0.818-1.138-2.023-2.738-3.511-4.709c-11.21-14.858-37.459-49.653-35.225-68.767         c1.869-15.97,11.725-37.788,18.248-52.224c2.245-4.966,4.183-9.255,5.187-11.985c0.105-0.282,0.419-0.421,0.701-0.324         c0.282,0.104,0.428,0.418,0.325,0.7c-1.019,2.767-2.872,6.867-5.218,12.058c-6.496,14.375-16.31,36.1-18.158,51.903         c-2.182,18.678,23.881,53.228,35.012,67.982c1.492,1.98,2.704,3.586,3.527,4.73c6.543,9.112,15.008,6.597,15.367,6.485         c0.211-0.065,0.453,0.005,0.594,0.185l6.406,8.184l31.459-16.634c-0.905-1.965-4.389-9.527-5.357-11.704         c-0.69-1.552,0.923-3.164,2.969-5.205c1.992-1.991,4.253-4.248,4.797-6.832c1.091-5.176-9.018-27.327-14.452-39.227         c-5.765-12.634-25.396-43.09-25.595-43.396c-0.164-0.253-0.089-0.59,0.164-0.754c0.253-0.166,0.592-0.091,0.755,0.162         c0.197,0.307,19.87,30.829,25.671,43.535c7.591,16.633,15.599,34.804,14.524,39.904c-0.61,2.902-3.097,5.386-5.093,7.38         c-1.609,1.607-3.128,3.123-2.743,3.989c1.114,2.506,5.568,12.16,5.568,12.16c0.121,0.263,0.016,0.576-0.24,0.712         l-32.319,17.088C186.643,430.101,186.556,430.121,186.468,430.121z"/>
						</g>
					</g>
				</g>
				<g>
					<g>
						<g>
							<path style="fill:#411C36;" d="M233.849,468.66c-0.184,0-0.367-0.023-0.55-0.046c-0.161,0-0.344-0.023-0.505-0.046         c-0.023,0-0.023,0-0.046,0c-0.207-1.652-0.849-6.424-1.767-12.161c-0.55-3.533-1.216-7.411-1.95-11.151         c-0.482-2.524-1.01-4.956-1.538-7.159c-0.023-0.023-0.023-0.023-0.023-0.046c-0.39-1.606-0.803-3.098-1.216-4.405         c-2.226-6.998-5.438-13.193-7.503-16.795c0-0.023-0.023-0.023-0.023-0.046c-0.734-1.308-1.331-2.249-1.652-2.776         c-0.184-0.275-0.275-0.413-0.275-0.436s-0.023-0.023-0.023-0.046c-0.161-0.252-0.069-0.551,0.161-0.711         c0.069-0.046,0.115-0.069,0.184-0.092c0.229-0.046,0.459,0.023,0.574,0.229c0,0,0.023,0.023,0.046,0.069         c0.046,0.069,0.138,0.229,0.298,0.459c1.308,2.088,6.218,10.233,9.247,19.801c1.032,3.258,2.019,7.64,2.891,12.229h0.023         c0.711,3.671,1.354,7.457,1.881,10.899C233.024,462.397,233.666,467.307,233.849,468.66z"/>
						</g>
					</g>
					<g>
						<g>
							<path style="fill:#411C36;" d="M201.796,462.695c-0.206-0.046-0.413-0.115-0.619-0.161h-0.023         c-0.138-0.023-0.229-0.046-0.367-0.092c-0.092-0.023-0.183-0.046-0.275-0.069l-2.845-7.503l-7.709-20.283l-1.973-5.185         l-0.069-0.184c-0.046-0.138-0.046-0.275,0-0.39c0.046-0.138,0.161-0.252,0.298-0.321c0.115-0.023,0.207-0.046,0.298,0         c0.161,0.023,0.298,0.115,0.367,0.252c0.023,0.023,0.023,0.046,0.046,0.069l0.023,0.069l2.317,6.057v0.023l7.595,19.984         L201.796,462.695z"/>
						</g>
					</g>
				</g>
			</g>
			<g>
				<g>
					<g>
						<g>
							<g>
								<path style="fill:#411C36;" d="M457.466,148.174c-2.249-1.239-4.727-1.239-6.998,0c-2.57,1.422-4.061,3.877-4.841,5.736          c-2.455,5.736-2.317,11.656-1.124,16.933c-3.556-0.229-7.067-1.308-9.935-3.212c-6.195-4.084-9.705-11.449-8.535-17.851          c1.216-6.723,6.378-11.633,11.38-16.382c0.826-0.78,1.606-1.514,2.363-2.271c1.033-1.01,1.996-2.134,2.822-3.327          c0-0.023,0.023-0.023,0.046,0c2.501-0.872,4.887-2.501,7.113-4.818c-0.161-0.252-0.321-0.482-0.482-0.734          c-1.858,1.95-3.855,3.396-5.897,4.291c1.629-2.684,2.73-5.782,2.914-8.788c-0.252-0.39-0.505-0.803-0.803-1.193          c0.046,3.625-1.331,7.342-3.442,10.486c-3.258,1.078-7.205,0.987-11.725-0.184c-3.992-1.078-7.044-2.593-9.338-4.681          c-2.776-2.501-4.267-5.943-4.061-9.155c0.275-3.946,3.35-7.778,7.48-9.27c2.134-0.734,4.497-0.941,6.952-0.642          c1.766,0.229,3.625,0.734,5.369,1.514c-0.344-0.459-0.711-0.918-1.078-1.377c-3.947-1.423-8.1-1.537-11.541-0.298          c-4.451,1.629-7.778,5.713-8.053,10.027c-0.229,3.465,1.4,7.159,4.336,9.866c2.409,2.157,5.575,3.74,9.728,4.841          c4.199,1.101,7.916,1.262,11.105,0.528c-0.642,0.803-1.308,1.583-2.042,2.294c-0.757,0.734-1.56,1.491-2.34,2.249          c-4.864,4.612-10.394,9.866-11.655,16.841c-1.239,6.769,2.409,14.478,8.902,18.746c3.074,2.042,6.837,3.166,10.623,3.373          c0.665,2.593,1.56,5.002,2.501,7.136c0.092,0.252,0.207,0.505,0.321,0.734c0.069,0.161,0.184,0.229,0.344,0.252          c0.069,0,0.161,0,0.229-0.023c0.207-0.092,0.321-0.367,0.229-0.574c-0.069-0.115-0.115-0.207-0.161-0.321v-0.023          c-0.964-2.134-1.881-4.52-2.57-7.159c3.488,0.023,6.929-0.734,9.797-2.317c4.75-2.639,7.709-7.709,7.411-12.619          C462.559,153.336,460.379,149.779,457.466,148.174z M454.964,168.663c-2.799,1.56-6.172,2.294-9.568,2.203          c-1.216-5.162-1.377-11.013,1.01-16.589c0.757-1.744,2.134-4.038,4.474-5.346c1.423-0.78,2.708-0.918,3.832-0.78          c0.918,0.115,1.698,0.436,2.34,0.78c2.662,1.468,4.658,4.727,4.887,7.939C462.238,161.435,459.416,166.185,454.964,168.663z          "/>
							</g>
						</g>
					</g>
					<g>
						<g>
							<g>
								<polygon style="fill:#7657AA;" points="430.343,255.494 443.794,178.63 452.948,179.211 450.153,256.551         "/>
							</g>
						</g>
					</g>
					<g>
						<g>
							<g>
								<path style="fill:#411C36;" d="M465.122,283.71l-0.047,0.361c-0.026,0.206-0.051,0.396-0.095,0.6          c-2.28,15.29-16.408,26.015-31.807,24.036c-15.605-2.006-26.624-16.294-24.619-31.9c0.035-0.275,0.069-0.533,0.121-0.807          c0.04-0.31,0.095-0.6,0.152-0.907c2.174-11.474,11.078-20.194,22.029-22.529c3.058-0.656,6.296-0.817,9.583-0.395          c3.527,0.453,6.801,1.521,9.762,3.109C460.253,260.627,466.499,271.766,465.122,283.71z"/>
							</g>
						</g>
					</g>
					<g>
						<g>
							<g>
								<path style="fill:#FFE3BF;" d="M465.122,283.71l-0.047,0.361c-0.026,0.206-0.051,0.396-0.095,0.6          c-5.847-4.04-12.918-6.995-20.699-8.642c-8.157-1.713-17.219-2.108-27.742-1.204c-2.6,0.226-5.282,0.545-7.864,1.176          c0.04-0.31,0.095-0.6,0.152-0.907c2.526-0.603,5.117-0.899,7.646-1.116c10.596-0.929,19.745-0.541,27.985,1.218          C452.208,276.821,459.231,279.735,465.122,283.71z"/>
							</g>
						</g>
					</g>
					<g>
						<g>
							<g>
								<path style="fill:#FFE3BF;" d="M442.85,231.806c-1.583-0.206-3.028,0.895-3.235,2.478l-1.078,8.489          c-0.207,1.56,0.918,3.006,2.478,3.212c1.583,0.184,3.029-0.895,3.212-2.478l1.101-8.512          C445.511,233.458,444.41,232.012,442.85,231.806z M443.378,243.415c-0.161,1.078-1.147,1.836-2.249,1.721          c-1.101-0.161-1.881-1.147-1.743-2.249l1.101-8.489c0.138-1.101,1.147-1.858,2.249-1.744          c1.079,0.138,1.858,1.17,1.744,2.249L443.378,243.415z"/>
							</g>
						</g>
					</g>
				</g>
				<g>
					<g>
						<g>
							<g>
								<path style="fill:#411C36;" d="M85.124,312.57c-1.927-2.616-4.727-4.772-8.581-6.654c-3.901-1.905-7.526-2.776-10.807-2.662          c0.803-0.688,1.629-1.308,2.455-1.858c0.895-0.597,1.836-1.17,2.753-1.744c5.667-3.602,12.092-7.663,14.707-14.271          c2.501-6.401,0.413-14.661-5.117-20.122c-2.616-2.593-6.103-4.428-9.774-5.346c-0.138-2.684-0.551-5.254-1.055-7.503          c-0.046-0.275-0.115-0.528-0.184-0.78c-0.023-0.161-0.137-0.275-0.275-0.321c-0.069-0.023-0.161-0.046-0.252,0          c-0.207,0.046-0.367,0.252-0.321,0.505c0.046,0.115,0.069,0.206,0.092,0.344c0.528,2.271,0.964,4.818,1.124,7.549          c-3.396-0.711-6.929-0.642-10.05,0.367c-5.162,1.675-9.063,6.08-9.728,10.944c-0.436,3.442,1.032,7.342,3.579,9.499          c1.973,1.652,4.383,2.134,6.838,1.354c2.845-0.872,4.749-3.052,5.896-4.681c3.51-5.14,4.52-10.99,4.382-16.382          c3.419,0.895,6.677,2.639,9.132,5.071c5.277,5.208,7.273,13.079,4.91,19.159c-2.524,6.356-8.535,10.187-14.363,13.881          c-0.94,0.574-1.858,1.147-2.753,1.767c-1.193,0.757-2.363,1.698-3.396,2.707c0,0-0.023,0-0.046,0          c-3.258,0.459-6.562,2.042-9.797,4.749c-3.648,3.006-6.47,6.723-8.696,10.6c0.138,0.367,0.23,0.734,0.367,1.101          c2.248-4.061,5.139-7.916,8.879-11.059c2.753-2.249,5.529-3.694,8.283-4.337c-3.923,4.337-6.287,10.141-4.474,15.602          c1.216,3.694,4.015,6.287,6.126,7.847c3.946,2.822,8.558,4.084,12.665,3.442c4.658-0.711,8.719-4.107,9.843-8.237          C88.382,319.728,87.51,315.805,85.124,312.57z M65.69,276.685c-1.033,1.56-2.822,3.533-5.392,4.359          c-1.56,0.482-2.845,0.39-3.923,0c-0.872-0.275-1.56-0.734-2.134-1.193c-2.317-1.973-3.671-5.553-3.258-8.719          c0.597-4.543,4.268-8.673,9.132-10.256c3.029-0.964,6.493-1.033,9.82-0.298C70.119,265.878,69.155,271.637,65.69,276.685z           M86.638,322.849c-1.032,3.832-4.795,6.975-9.132,7.64c-2.225,0.321-4.612,0.092-6.929-0.688          c-1.766-0.597-3.487-1.468-5.071-2.639c-2.042-1.423-4.703-3.901-5.828-7.388c-1.813-5.484,0.872-11.403,5.048-15.556          c3.396-0.39,7.227,0.436,11.449,2.478c3.717,1.813,6.425,3.901,8.26,6.379C86.661,316.08,87.487,319.751,86.638,322.849z"/>
							</g>
						</g>
					</g>
					<g>
						<g>
							<g>
								<polygon style="fill:#7657AA;" points="101.107,180.49 73.005,253.286 64.138,250.941 81.878,175.611         "/>
							</g>
						</g>
					</g>
					<g>
						<g>
							<g>
								<path style="fill:#411C36;" d="M72.46,146.065l0.116-0.346c0.066-0.197,0.127-0.378,0.209-0.57          c5.202-14.558,21.142-22.339,35.865-17.411c14.92,4.994,22.959,21.148,17.965,36.068c-0.088,0.263-0.171,0.51-0.275,0.768          c-0.099,0.296-0.209,0.57-0.325,0.861c-4.358,10.834-14.784,17.662-25.98,17.829c-3.127,0.051-6.335-0.419-9.477-1.471          c-3.372-1.129-6.376-2.811-8.974-4.943C72.76,169.653,68.793,157.514,72.46,146.065z"/>
							</g>
						</g>
					</g>
					<g>
						<g>
							<g>
								<path style="fill:#FFE3BF;" d="M72.46,146.065l0.116-0.346c0.066-0.197,0.127-0.378,0.209-0.57          c4.953,5.097,11.316,9.367,18.63,12.492c7.671,3.262,16.483,5.407,26.981,6.561c2.594,0.283,5.288,0.489,7.943,0.372          c-0.099,0.296-0.209,0.57-0.325,0.861c-2.595,0.101-5.195-0.111-7.718-0.388c-10.575-1.143-19.475-3.299-27.217-6.622          C83.793,155.327,77.468,151.107,72.46,146.065z"/>
							</g>
						</g>
					</g>
					<g>
						<g>
							<g>
								<path style="fill:#FFE3BF;" d="M88.795,187.753c-1.514-0.505-3.12,0.298-3.625,1.812l-2.73,8.122          c-0.505,1.491,0.298,3.12,1.812,3.625c1.515,0.482,3.12-0.321,3.625-1.79l2.731-8.145          C91.112,189.886,90.309,188.257,88.795,187.753z M89.782,191.102l-2.708,8.123c-0.344,1.032-1.491,1.629-2.57,1.239          c-1.01-0.321-1.583-1.468-1.239-2.501l2.707-8.145c0.344-1.032,1.492-1.583,2.547-1.239          C89.552,188.923,90.149,190.047,89.782,191.102z"/>
							</g>
						</g>
					</g>
				</g>
			</g>
			<g>
				<g>
					<g>
						<polygon style="fill:#7657AA;" points="117.547,81.492 150.136,66.43 146.746,93.533       "/>
					</g>
				</g>
				<g>
					<g>
						<polygon style="fill:#7657AA;" points="413.7,332.521 446.289,317.459 442.899,344.563       "/>
					</g>
				</g>
			</g>
		</g>
	</g>
</g>















</svg>
