<?xml version="1.0" encoding="UTF-8"?>
<!-- Generator: Adobe Illustrator 25.3.1, SVG Export Plug-In . SVG Version: 6.00 Build 0)  -->
<svg xmlns="http://www.w3.org/2000/svg" xmlns:xlink="http://www.w3.org/1999/xlink" version="1.1" id="Capa_1" x="0px" y="0px" viewBox="0 0 511.68 511.68" style="enable-background:new 0 0 511.68 511.68;" xml:space="preserve" width="512" height="512">
<g>
	<g>
		<path style="fill:#FFFFFF;" d="M255.686,511.667c-31.683,0.309-63.388-5.04-92.586-16.443    C88.813,466.213,31.382,399.753,11.24,322.848c-21.399-81.706,1.688-171.856,58.785-233.913c4.243-4.612,8.971-9.366,13.68-13.746    l0.652-50.146c0.089-6.837,4.939-12.684,11.643-14.035c0,0,53.244-10.722,53.249-10.723c1.751-0.353,3.817-0.392,5.654-0.04    c11.089,2.121,22.174,4.266,33.261,6.399c8.033,1.545,16.066,3.091,24.102,4.637c14.184-2.483,28.779-3.741,43.43-3.741    c139.294,0,252.617,113.323,252.617,252.617c0,89.081-48.163,172.819-125.463,217.056    C344.289,499.28,300.11,511.233,255.686,511.667z"/>
	</g>
	<g>
		<g>
			<g>
				<path style="fill:#7657AA;" d="M493.803,260.157c0,62.779-24.328,119.924-64.061,162.438c-0.411,0.459-0.846,0.895-1.281,1.354      L154.828,475.87C73.766,437.903,17.613,355.583,17.613,260.157c0-71.074,31.148-134.869,80.53-178.472      c3.362-3.023,6.82-5.901,10.375-8.706c17.826-14.056,37.775-25.499,58.837-34.001c14.317-5.707,29.31-10.084,44.836-12.938      c14.099-2.636,28.657-3.99,43.505-3.99C387.204,22.05,493.803,128.649,493.803,260.157z"/>
			</g>
			<g>
				<g>
					<g>
						<path style="fill:#D26A49;" d="M117.899,294.741c0,0-50.011-52.451-43.099-75.22c6.912-22.769,53.264-80.1,53.264-80.1        l43.099,20.33l-27.649,50.824c0,0,32.528,23.989,37.407,26.022L117.899,294.741z"/>
					</g>
					<g>
						<g>
							<path style="fill:#FFE3BF;" d="M428.46,423.949c-26.481,27.98-59.757,49.503-97.144,62.03         c-0.242,0.097-0.483,0.169-0.75,0.242c-0.169,0.048-0.338,0.096-0.508,0.145c-0.242,0.072-0.508,0.169-0.75,0.242         c-23.192,7.569-47.907,11.632-73.613,11.632c-35.574,0-69.333-7.787-99.659-21.789c-0.024-0.024-0.072-0.024-0.096-0.048         c-0.339-0.145-0.653-0.314-0.992-0.484c-0.048-0.024-0.072-0.049-0.121-0.049l26.021-86.745l0.048-0.169l-0.073,0.145         l-0.121,0.242l-0.194-0.194l-0.508-0.459l-26.215-23.724l-55.307-49.454l-0.919-0.822l-9.335-8.368l22.925-19.032         l56.468-46.819l7.497-6.264l0.75-0.629l25.852-21.426l1.161-0.967l3.797,1.427h0.024l4.885,1.79l1.209,0.459l32.574,12.067         l0.242,0.097l0.967,0.338l0.363,0.145l26.384,9.794l12.479,4.643h0.024l1.209,0.435l0.048,0.049l1.04,0.363l1.959,0.702         l1.161,0.29l2.805,0.653l51.244,12.164v0.024c0,0,2.152,1.596,5.707,4.377c0.169,0.145,0.363,0.29,0.556,0.435         c0.193,0.145,0.411,0.29,0.605,0.459c1.91,1.499,4.111,3.264,6.602,5.296c0.29,0.242,0.605,0.508,0.943,0.774         c15.429,12.575,39.491,33.566,52.236,51.582c2.612,3.676,4.74,7.231,6.239,10.568c1.088,2.418,2.031,4.958,2.854,7.545         c9.069,28.077,4.667,64.69,6.892,80.892C428.17,420.201,428.315,422.015,428.46,423.949z"/>
						</g>
						<g>
							<g>
								<path style="fill:#FF6A6C;" d="M352.152,261.902l-84.036,26.491c-0.072,0.024-0.119,0.024-0.191,0.024          c-0.167,0-0.31-0.072-0.43-0.191c-0.167-0.167-0.191-0.43-0.119-0.645l19.612-45.1l0.048-0.096l0.048,0.024l1.051,0.382          l-19.134,44.072l82.006-25.846C351.364,261.28,351.746,261.591,352.152,261.902z"/>
							</g>
						</g>
						<g>
							<g>
								<g>
									<path style="fill:#411C36;" d="M346.6,367.603l-16.033,118.618c-0.169,0.048-0.338,0.096-0.508,0.145           c-0.242,0.072-0.508,0.169-0.75,0.242l16.106-119.15c0.049-0.363,0.339-0.581,0.677-0.532           C346.407,366.974,346.624,367.264,346.6,367.603z"/>
								</g>
							</g>
							<g>
								<g>
									<path style="fill:#411C36;" d="M203.049,317.277l-47.109,159.125c-0.339-0.145-0.653-0.314-0.992-0.484           c-0.048-0.024-0.072-0.049-0.121-0.049l25.682-86.721l0.073-0.266l12.309-41.547l7.4-25.03l1.596-5.368           c0.096-0.339,0.435-0.484,0.774-0.387C202.953,316.625,203.146,316.963,203.049,317.277z"/>
								</g>
							</g>
							<g>
								<g>
									<path style="fill:#FF6A6C;" d="M212.792,214.867c-30.361,40.752-72.546,72.212-114.302,100.638l-0.932-0.812           c41.683-28.354,83.773-59.695,114.039-100.28L212.792,214.867z"/>
								</g>
							</g>
						</g>
					</g>
					<g>
						<polygon style="fill:#411C36;" points="200.857,321.809 192.736,347.873 181.085,389.348 153.79,364.965 200.305,322.315               "/>
					</g>
					<g>
						<g>
							<polygon style="fill:#FF6A6C;" points="156.204,233.613 245.671,236.428 246.986,236.481 306.482,238.349 307.798,238.402          355.411,239.77 346.663,98.228 346.637,96.912 346.295,86.202 226.837,47.731 146.562,59.285 142.31,214.413        "/>
						</g>
						<g>
							<g>
								<g>
									<g>
										<g>
											<g>
												<path style="fill:#FFE3BF;" d="M255.551,202.915v17.944h15.864v-17.218L255.551,202.915z M270.738,220.206h-14.534              v-16.614l14.534,0.653V220.206z"/>
											</g>
										</g>
										<g>
											<g>
												<path style="fill:#FFE3BF;" d="M291.85,203.399h-0.024l-10.979-0.484v17.944h15.888v-17.218L291.85,203.399z               M296.058,220.206H281.5v-16.614l11.39,0.508c0,0,0,0,0.024,0l3.144,0.145V220.206z"/>
											</g>
										</g>
									</g>
									<g>
										<g>
											<polygon style="fill:#411C36;" points="246.004,132.505 310.949,133.624 310.949,184.46 246.004,184.908            "/>
										</g>
									</g>
									<g>
										<g>
											<g>
												<path style="fill:#FFE3BF;" d="M262.25,150.776c-3.845,0-6.964,3.434-6.964,7.714c0,4.256,3.12,7.714,6.964,7.714              c3.821,0,6.941-3.458,6.941-7.714C269.19,154.21,266.07,150.776,262.25,150.776z M262.25,165.552              c-3.482,0-6.287-3.168-6.287-7.061c0-3.893,2.805-7.085,6.287-7.085c3.458,0,6.264,3.192,6.264,7.085              C268.513,162.384,265.708,165.552,262.25,165.552z"/>
											</g>
										</g>
										<g>
											<g>
												<path style="fill:#FFE3BF;" d="M304.618,156.871c-0.29-1.548-0.991-2.926-1.983-3.966              c-0.508-0.532-1.064-0.991-1.693-1.33c-0.943-0.532-1.983-0.798-3.095-0.798c-1.741,0-3.313,0.725-4.546,1.887              c-1.451,1.402-2.394,3.482-2.394,5.828c0,3.41,2.007,6.312,4.788,7.328c0.677,0.242,1.403,0.387,2.153,0.387              c0.484,0,0.919-0.048,1.354-0.169c2.176-0.459,3.99-2.055,4.885-4.256c0.435-0.967,0.701-2.104,0.701-3.289              C304.788,157.935,304.739,157.378,304.618,156.871z M303.385,161.756c-0.919,1.983-2.66,3.434-4.74,3.724              c-0.242,0.024-0.532,0.072-0.798,0.072c-0.58,0-1.113-0.097-1.644-0.266h-0.024c-2.66-0.822-4.619-3.555-4.619-6.795              c0-1.789,0.58-3.434,1.547-4.667c1.161-1.475,2.854-2.418,4.74-2.418c0.919,0,1.814,0.218,2.612,0.653              c0.895,0.459,1.693,1.161,2.297,2.031c0.677,0.943,1.137,2.08,1.306,3.313c0.048,0.363,0.072,0.725,0.072,1.088              C304.135,159.652,303.869,160.788,303.385,161.756z"/>
											</g>
										</g>
									</g>
									<g>
										<g>
											
												<rect x="276.867" y="96.167" transform="matrix(0.0105 -0.9999 0.9999 0.0105 146.376 404.4159)" style="fill:#411C36;" width="1.316" height="64.165"/>
										</g>
									</g>
									<g>
										<g>
											<g>
												<polygon style="fill:#411C36;" points="346.663,98.228 311.14,94.57 309.85,94.438 246.223,87.886 244.908,87.755               152.448,78.447 152.448,76.923 346.637,96.912             "/>
											</g>
										</g>
										<g>
											<g>
												<polygon style="fill:#411C36;" points="246.986,236.481 245.671,236.428 244.908,87.755 244.908,87.044 246.223,87.044               246.223,87.886 246.302,104.438 246.329,105.753 246.434,127.252 246.434,128.567 246.46,132.514 246.723,184.906                           "/>
											</g>
										</g>
										<g>
											<g>
												<polygon style="fill:#411C36;" points="311.166,93.991 311.14,94.57 310.245,133.62 309.061,184.458 307.798,238.402               306.482,238.349 307.745,184.485 308.929,133.594 309.035,129.252 309.061,127.936 309.482,109.7 309.508,108.385               309.85,94.438 309.85,93.965             "/>
											</g>
										</g>
									</g>
									<g>
										<g>
											
												<rect x="277.371" y="74.775" transform="matrix(0.0624 -0.9981 0.9981 0.0624 153.8103 377.8954)" style="fill:#411C36;" width="1.316" height="64.623"/>
										</g>
									</g>
								</g>
								<g>
									<g>
										<g>
											<polygon style="fill:#FFE3BF;" points="346.295,86.202 142.31,65.098 145.625,15.812 151.283,14.681 152.177,14.497              161.124,16.207 162.44,16.47 335.296,49.731 336.585,49.994 345.216,51.652            "/>
										</g>
									</g>
									<g>
										<g>
											<polygon style="fill:#411C36;" points="336.585,49.994 334.401,79.255 333.717,79.176 160.808,60.309 161.124,16.207              162.44,16.47 162.124,59.125 333.191,77.808 335.296,49.731            "/>
										</g>
									</g>
								</g>
							</g>
							<g>
								<g>
									<g>
										<ellipse style="fill:#411C36;" cx="202.782" cy="152.436" rx="37.623" ry="50.612"/>
									</g>
								</g>
								<g>
									<g>
										<path style="fill:#FFE3BF;" d="M202.783,105.119c-19.467,0-35.283,21.209-35.283,47.326c0,1.935,0.097,3.845,0.266,5.707            c0.193,2.128,0.483,4.208,0.871,6.215c3.942,20.338,17.75,35.404,34.147,35.404c19.443,0,35.259-21.233,35.259-47.327            C238.042,126.327,222.226,105.119,202.783,105.119z M202.783,199.118c-16.275,0-29.963-15.26-33.639-35.694            c-0.29-1.62-0.508-3.265-0.677-4.933c-0.194-1.983-0.29-3.99-0.29-6.046c0-25.755,15.525-46.649,34.606-46.649            c19.08,0,34.582,20.894,34.582,46.649C237.365,178.152,221.864,199.118,202.783,199.118z"/>
									</g>
								</g>
								<g>
									<g>
										<path style="fill:#FFE3BF;" d="M205.008,124.489c-10.907,0-19.806,11.898-19.806,26.601            c0,14.679,8.899,26.626,19.806,26.626c10.955,0,19.855-11.946,19.855-26.626            C224.863,136.387,215.963,124.489,205.008,124.489z M205.008,177.329c-10.737,0-19.419-11.753-19.419-26.239            c0-14.461,8.682-26.215,19.419-26.215c10.762,0,19.467,11.753,19.467,26.215            C224.475,165.576,215.77,177.329,205.008,177.329z"/>
									</g>
								</g>
							</g>
						</g>
						<g>
							<polygon style="fill:#411C36;" points="156.204,233.613 96.181,231.718 98.865,25.233 151.283,14.681        "/>
						</g>
						<g>
							<path style="fill:#FFE3BF;" d="M124.624,89.468c-9.116,0-16.531-8.824-16.531-19.67c0-10.845,7.416-19.668,16.531-19.668         s16.531,8.823,16.531,19.668C141.156,80.644,133.74,89.468,124.624,89.468z M124.624,50.501         c-8.913,0-16.163,8.657-16.163,19.297c0,10.642,7.25,19.299,16.163,19.299s16.163-8.658,16.163-19.299         C140.787,59.158,133.537,50.501,124.624,50.501z"/>
						</g>
						<g>
							<path style="fill:#FFE3BF;" d="M133.832,122.651c0,6.061-4.122,10.974-9.207,10.974c-5.085,0-9.208-4.913-9.208-10.974         c0-6.06,4.122-10.973,9.208-10.973C129.71,111.677,133.832,116.59,133.832,122.651z"/>
						</g>
					</g>
					<g>
						<g>
							<g>
								<path style="fill:#FFC151;" d="M359.7,267.969c-44.646,37.48-83.009,71.161-118.649,104.197          c-6.664,6.187-13.257,12.35-19.755,18.513c-0.119,0.096-0.263,0.167-0.43,0.167c-0.096,0-0.191-0.024-0.287-0.072          c-0.215-0.143-0.334-0.382-0.287-0.645c1.815-9.818,4.156-19.755,7.047-29.764c9.34-32.32,24.222-65.523,44.455-99.061          c4.037-6.713,8.432-13.64,14.046-19.373l1.194,0.454l0.048,0.024c-0.024,0-0.072,0.048-0.096,0.072          c-5.661,5.709-10.081,12.66-14.165,19.421c-20.495,33.992-35.473,67.602-44.741,100.304          c-2.532,8.838-4.61,17.629-6.282,26.324c6.426-6.068,12.947-12.159,19.54-18.25          c35.306-32.702,73.287-66.025,117.431-103.075C359.055,267.444,359.366,267.706,359.7,267.969z"/>
							</g>
						</g>
						<g>
							<g>
								<polygon style="fill:#FFC151;" points="259.801,390.291 246.087,395.773 255.226,407.376 240.606,405.251 242.731,419.871           231.128,410.732 225.647,424.445 220.165,410.732 208.562,419.87 210.686,405.251 196.067,407.375 205.206,395.773           191.493,390.291 205.206,384.809 196.068,373.207 210.687,375.331 208.562,360.712 220.165,369.851 225.647,356.137           231.128,369.851 242.732,360.712 240.607,375.332 255.226,373.207 246.087,384.81         "/>
							</g>
						</g>
					</g>
					<g>
						<g>
							<g>
								<path style="fill:#D26A49;" d="M355.042,212.717c0,0-8.528,37.814-9.746,43.905c-1.218,6.091-61.916,22.86-64.664,19.827          c-2.747-3.057,5.494-16.482,8.552-25.321c1.099-3.153,2.532-9.053,3.918-15.36c0,0,14.791-3.499,15.722-8.229          c0.669-3.392-10.801-15.754-10.801-15.754L355.042,212.717z"/>
							</g>
							<g>
								<path style="fill:#411C36;" d="M337.257,227.653c-13.042,8.122-29.608,12.965-44.155,8.116          c1.457-6.617,2.89-13.664,3.822-18.393c2.532,1.839,6.044,3.607,8.026,4.419          C315.198,225.784,326.412,225.814,337.257,227.653z"/>
							</g>
						</g>
						<g>
							<g>
								<path style="fill:#411C36;" d="M326.915,89.692c3.269-5.682,7.305-11.728,13.637-13.422          c5.572-1.49,11.441,0.849,16.41,3.778c6.549,3.86,12.399,8.795,17.967,13.97c12.873,11.964,24.422,25.351,34.369,39.839          c1.737,2.53,3.448,5.14,4.342,8.076c2.586,8.486-2.109,17.363-7.108,24.692c-7.235,10.608-15.483,20.525-24.595,29.572          c-0.755,0.75-1.579,1.528-2.624,1.732c-0.97,0.189-1.956-0.151-2.881-0.498c-20.847-7.813-39.469-21.471-53.185-39.007          c-4.157-5.315-7.904-11.04-10.206-17.382c-2.884-7.947-4.043-15.383-0.577-23.11          C316.793,108.283,321.643,98.858,326.915,89.692z"/>
							</g>
							<g>
								<g>
									<path style="fill:#D26A49;" d="M378.834,196.283c-0.884,1.147-1.815,2.245-2.771,3.296l0.024,0.024           c0,0-0.072,0.048-0.167,0.143c-2.723,2.962-5.781,5.614-9.149,7.859c-10.988,9.125-28.713,22.789-36.429,22.789           c-11.585,0-47.871-15.861-55.491-29.262c-6.975-12.278,14.882-50.068,18.656-56.422l1.998,0.017l8.033-0.975l-3.222-9.552           c9.149-11.275,23.123-18.465,38.769-18.465c13.52,0,25.799,5.351,34.804,14.046c9.436,9.125,15.312,21.905,15.312,36.07           C389.201,177.34,385.332,187.85,378.834,196.283z"/>
								</g>
								<g>
									<g>
										<g>
											<path style="fill:#411C36;" d="M302.748,154.005c0,2.665-2.161,4.826-4.826,4.826c-2.665,0-4.826-2.161-4.826-4.826             c0-2.665,2.16-4.826,4.826-4.826C300.588,149.18,302.748,151.34,302.748,154.005z"/>
										</g>
										<g>
											<path style="fill:#411C36;" d="M332.829,167.225c0,2.721-2.206,4.927-4.927,4.927c-2.721,0-4.927-2.206-4.927-4.927             c0-2.721,2.206-4.927,4.927-4.927C330.623,162.298,332.829,164.504,332.829,167.225z"/>
										</g>
									</g>
									<g>
										<path style="fill:#411C36;" d="M328.356,152.693c-0.267,1.099-0.381,2.277-0.011,3.345            c0.594,1.713,2.269,2.772,3.83,3.696c2.013,1.191,4.026,2.383,6.04,3.574c1.669,0.988,3.384,1.993,5.292,2.337            s4.083-0.107,5.303-1.614c0.757-0.935,1.067-2.167,1.102-3.37c0.1-3.475-1.948-6.732-4.633-8.941            C340.026,147.399,330.698,143.059,328.356,152.693z"/>
									</g>
									<g>
										<path style="fill:#411C36;" d="M310.516,145.426c-0.525,0.86-1.194,1.696-2.102,2.15            c-1.433,0.717-3.177,0.358-4.753-0.024c-2.054-0.502-4.085-1.003-6.115-1.505c-1.386-0.334-2.795-0.669-4.037-1.338            c0.358-0.597,0.549-0.908,0.549-0.908l0.072,0.024c1.696-3.44,3.775-6.689,6.187-9.627            C306.383,134.748,315.031,137.806,310.516,145.426z"/>
									</g>
									<g>
										<path style="fill:#411C36;" d="M304.723,177.28c-0.576,0-1.178-0.148-1.684-0.435c-0.298-0.17-0.588-0.368-0.876-0.568            c-0.673-0.464-1.292-0.906-1.977-0.871c-0.234,0.012-0.486,0.083-0.753,0.158c-0.316,0.09-0.645,0.182-1.011,0.201            c-1.093,0.05-2.166-0.563-3.108-1.788c-0.18-0.231-0.347-0.472-0.517-0.713c-0.43-0.612-0.836-1.189-1.377-1.581            l-0.22-0.15c-0.3-0.201-0.64-0.427-0.871-0.808c-0.368-0.602-0.517-1.638,0.874-3.141            c5.321-5.753,10.979-11.319,16.815-16.546c0.248-0.218,0.621-0.201,0.843,0.047c0.222,0.246,0.201,0.623-0.045,0.843            c-5.81,5.2-11.44,10.741-16.735,16.465c-0.399,0.432-1.027,1.228-0.732,1.709c0.094,0.156,0.298,0.292,0.512,0.436            l0.257,0.177c0.704,0.509,1.188,1.197,1.656,1.862c0.158,0.226,0.316,0.452,0.484,0.67            c0.397,0.515,1.204,1.389,2.104,1.325c0.231-0.012,0.479-0.083,0.746-0.158c0.319-0.09,0.649-0.183,1.02-0.201            c1.049-0.04,1.941,0.551,2.711,1.08c0.26,0.179,0.522,0.36,0.789,0.514c0.529,0.3,1.304,0.371,1.752,0.15            c0.255-0.122,0.307-0.289,0.326-0.405c0.052-0.325,0.368-0.548,0.682-0.497c0.326,0.052,0.55,0.358,0.498,0.684            c-0.092,0.573-0.442,1.033-0.987,1.295C305.556,177.2,305.148,177.28,304.723,177.28z"/>
									</g>
									<g>
										<path style="fill:#411C36;" d="M306.791,183.381c-0.002,0-0.007,0-0.009,0c-2.362-0.04-5.132-0.19-7.784-0.995            c-1.984-0.602-4.745-1.849-6.643-4.37c-0.198-0.263-0.146-0.638,0.118-0.836c0.26-0.196,0.638-0.145,0.836,0.118            c1.705,2.262,4.223,3.395,6.036,3.945c2.51,0.763,5.179,0.906,7.456,0.943c0.331,0.006,0.593,0.277,0.588,0.608            C307.382,183.12,307.117,183.381,306.791,183.381z"/>
									</g>
								</g>
							</g>
							<g>
								<path style="fill:#411C36;" d="M390.369,165.05c0,12.114-4.08,23.195-10.93,32.086c-2.519,1.713-5.314,2.871-8.362,3.173          c-8.261-11.359-12.265-25.739-11.056-39.717c1.058-12.315,6.145-24.228,14.204-33.572          C384.174,136.641,390.369,150.115,390.369,165.05z"/>
							</g>
							<g>
								<g>
									<path style="fill:#D26A49;" d="M386.494,200.76c3.386,3.909,3.499,10.01,0.999,14.537c-2.5,4.527-7.199,7.552-12.184,8.93           c-5.884,1.627-12.33,1.135-17.9-1.364c-3.887-1.744-7.563-4.783-8.449-8.95           C345.538,197.824,377.979,190.929,386.494,200.76z"/>
								</g>
								<g>
									<path style="fill:#411C36;" d="M352.994,210.39c-0.196,0-0.39-0.098-0.503-0.275c-0.177-0.279-0.097-0.647,0.182-0.825           c9.097-5.823,20.775-7.692,31.242-4.992c0.319,0.083,0.512,0.409,0.43,0.727c-0.085,0.319-0.411,0.516-0.727,0.43           c-10.15-2.614-21.474-0.807-30.302,4.841C353.216,210.359,353.105,210.39,352.994,210.39z"/>
								</g>
							</g>
						</g>
					</g>
				</g>
				<g>
					<path style="fill:#FFE3BF;" d="M419.042,275.816c-0.102,0-0.203-0.031-0.29-0.09c-0.177-0.122-0.262-0.341-0.21-0.55       l4.7-19.019l-23.631-16.775c-0.187-0.131-0.264-0.368-0.191-0.585c0.071-0.215,0.229-0.345,0.503-0.352l27.504,0.782       l6.213-25.142c0.057-0.228,0.26-0.39,0.496-0.392c0.279,0.007,0.444,0.156,0.503,0.384l6.759,25.548l26.462,0.751       c0.222,0.007,0.416,0.155,0.479,0.367c0.064,0.213-0.014,0.443-0.196,0.57l-22.166,15.627l4.636,17.525       c0.057,0.21-0.026,0.432-0.205,0.556c-0.177,0.124-0.418,0.123-0.59-0.004l-14.692-10.427l-15.785,11.13       C419.25,275.784,419.146,275.816,419.042,275.816z M424.146,256.797l-4.272,17.285l14.361-10.124L424.146,256.797z        M436.02,263.96l13.232,9.392l-4.175-15.778L436.02,263.96z M424.413,255.722l10.715,7.606l9.669-6.817l-4.199-15.877       l-12.37-0.352L424.413,255.722z M441.671,240.664l4.024,15.214l20.586-14.515L441.671,240.664z M401.594,239.524l21.914,15.555       l3.665-14.828L401.594,239.524z M428.482,239.257l11.839,0.337l-6.164-23.305L428.482,239.257z"/>
				</g>
				<g>
					<path style="fill:#FFE3BF;" d="M55.875,312.141c-0.007,0-0.017,0-0.024-0.001c-0.191-0.011-0.35-0.152-0.383-0.341       l-3.71-21.211l-24.169-5.475c-0.163-0.037-0.288-0.169-0.316-0.334c-0.026-0.165,0.05-0.332,0.191-0.42l20.941-12.95       l-2.333-13.352c-0.033-0.182,0.061-0.363,0.227-0.443c0.161-0.083,0.366-0.043,0.489,0.098l8.415,9.494l16.902-10.453       c0.144-0.091,0.331-0.081,0.47,0.024c0.135,0.105,0.191,0.283,0.144,0.448l-6.686,22.201l15.114,17.052       c0.118,0.135,0.137,0.329,0.047,0.484c-0.092,0.155-0.274,0.237-0.449,0.192l-18.77-4.252l-5.703,18.946       C56.217,312.022,56.057,312.141,55.875,312.141z M52.632,290.785l3.349,19.155l5.186-17.222L52.632,290.785z M62.213,292.108       l17.464,3.956l-13.924-15.71L62.213,292.108z M52.479,289.903l8.927,2.023l3.703-12.298l-10.063-11.354l-5.729,3.542       L52.479,289.903z M28.759,284.53l22.846,5.174l-3.047-17.419L28.759,284.53z M55.759,267.833l9.628,10.865l6.223-20.669       L55.759,267.833z M47.137,259.35l2.026,11.59l5.325-3.293L47.137,259.35z"/>
				</g>
				<g>
					<g>
						<path style="fill:#FFE3BF;" d="M125.604,406.808c-0.383,0-0.734-0.257-0.834-0.646l-14.097-54.037        c-0.12-0.461,0.156-0.932,0.616-1.052c0.468-0.118,0.933,0.156,1.051,0.618l14.097,54.037c0.12,0.461-0.156,0.932-0.616,1.052        C125.748,406.799,125.675,406.808,125.604,406.808z"/>
					</g>
					<g>
						<path style="fill:#FFE3BF;" d="M109.481,399.42c-3.132,0.059-6.346,0.38-9.148,1.782c-2.802,1.401-5.137,4.077-5.376,7.201        c-0.304,3.982,2.957,7.615,6.782,8.765c3.825,1.15,7.99,0.274,11.673-1.27c3-1.259,14.678-7.323,12.693-11.414        C123.822,399.778,113.753,399.339,109.481,399.42z"/>
					</g>
				</g>
				<g>
					<g>
						<path style="fill:#FFE3BF;" d="M424.71,130.548c-0.165,0-0.328-0.065-0.449-0.195l-27.308-29.097        c-0.234-0.248-0.222-0.638,0.026-0.871c0.253-0.231,0.642-0.22,0.871,0.028l27.308,29.097        c0.234,0.248,0.222,0.638-0.026,0.871C425.012,130.492,424.861,130.548,424.71,130.548z"/>
					</g>
					<g>
						<path style="fill:#FFE3BF;" d="M412.362,131.344c-1.946,1.107-3.852,2.406-5.132,4.243c-1.28,1.837-1.831,4.314-0.914,6.356        c1.17,2.603,4.458,3.769,7.251,3.184c2.793-0.585,5.108-2.557,6.892-4.785c1.453-1.815,6.71-9.61,4.066-11.499        C421.484,126.67,415.016,129.835,412.362,131.344z"/>
					</g>
				</g>
				<g>
					<g>
						<polygon style="fill:#FF6A6C;" points="394.445,334.666 435.699,299.077 442.076,340.036       "/>
					</g>
					<g>
						<polygon style="fill:#FFC151;" points="92.169,174.454 53.326,212.661 44.29,172.205       "/>
					</g>
					<g>
						<polygon style="fill:#7657AA;" points="271.63,461.914 301.508,475.894 280.457,489.56       "/>
					</g>
				</g>
			</g>
		</g>
	</g>
</g>















</svg>
