<?xml version="1.0" encoding="UTF-8"?>
<!-- Generator: Adobe Illustrator 25.3.1, SVG Export Plug-In . SVG Version: 6.00 Build 0)  -->
<svg xmlns="http://www.w3.org/2000/svg" xmlns:xlink="http://www.w3.org/1999/xlink" version="1.1" id="Capa_1" x="0px" y="0px" viewBox="0 0 511.797 511.797" style="enable-background:new 0 0 511.797 511.797;" xml:space="preserve" width="512" height="512">
<g>
	<g>
		<path style="fill:#FFFFFF;" d="M499.523,454.585c6.661,0,12.306-5.691,12.273-12.333c-0.324-67.776-6.334-135.29-4.421-203.191    c0.998-35.424,1.995-70.848,2.993-106.273c0.182-6.479-4.704-11.984-11.161-12.569c0,0-110.983-10.074-110.983-10.074    c-17.237-8.636-36.123-13.956-55.232-16.279c-0.529-2.791-2.023-5.374-4.321-7.242c-0.441-0.358-0.901-0.681-1.378-0.971    l2.333-7.937c1.396-4.748-0.196-9.87-4.037-12.989c-3.805-3.091-9.223-3.603-13.54-1.288c-6.998,3.756-18.581,7.221-20.028,16.225    l-2.243,13.943c-9.908,1.029-19.794,2.787-29.499,5.246c-28.437,7.206-55.531,20.27-78.991,37.855    c0.028-0.901,0.14-3.722,0.14-3.722c0.725-19.082-2.421-34.617-9.619-47.492c-13.904-24.871-56.29-42.917-74.084-11.734    c-7.337,12.858-4.852,28.288,1.264,41.027c-4.744-0.969-9.607-2.427-14.649-3.941c-10.491-3.147-21.141-6.121-32.182-6.121    c-23.087,0-41.969,15.267-49.158,36.872c-8.854,26.608,2.194,58.894,29.038,70.221c6.784,2.863,14.469,4.313,22.843,4.313    c14.7,0,29.477-4.015,42.39-10.955c0,0,1.556-0.849,1.638-0.893c-0.056,1.948-0.008,4.129,0.408,6.44    c1.306,7.283,6.037,13.644,12.613,17.545c-0.871,2.353-1.706,4.74-2.503,7.15c-0.076,0.228-0.144,0.461-0.206,0.693    c-0.034,0.102-0.07,0.224-0.106,0.346c-2.391,7.381-4.433,15.036-6.059,22.709c-12.827,59.307-9.109,123.537-6.223,183.731    c0.314,6.542,5.709,11.686,12.259,11.686C109.093,454.585,499.277,454.585,499.523,454.585z"/>
	</g>
	<g>
		<g>
			<g>
				<path style="fill:#FF6A6C;" d="M501.09,442.312c-0.001,0-390.429,0-390.429,0c-1.136-23.673-2.04-47.346-2.11-71.042      c-0.232-79.09,6.391-160.152,70.282-215.579c24.642-21.377,54.38-36.951,86.014-44.938c36.088-9.112,74.969-7.411,109.54,6.762      c36.169,14.828,62.378,41.971,81.706,75.407c40.108,69.383,43.264,153.531,44.777,231.616      C500.899,426.024,501.125,442.312,501.09,442.312z"/>
			</g>
			<g>
				<g>
					<g>
						<polygon style="fill:#FFC151;" points="499.666,132.443 493.03,368.087 341.511,351.486 334.233,231.82 365.849,120.295               "/>
					</g>
					<g>
						<polygon style="fill:#411C36;" points="365.849,120.295 341.511,351.486 301.546,347.12 335.762,117.55       "/>
					</g>
					<g>
						<g>
							<g>
								
									<ellipse transform="matrix(0.1505 -0.9886 0.9886 0.1505 192.2857 582.4962)" style="fill:#411C36;" cx="435.095" cy="179.358" rx="33.112" ry="33.112"/>
							</g>
							<g>
								<path style="fill:#FFE3BF;" d="M435.095,209.429c-16.581,0-30.072-13.49-30.072-30.071s13.491-30.071,30.072-30.071          c16.581,0,30.071,13.49,30.071,30.071S451.677,209.429,435.095,209.429z M435.095,149.827          c-16.284,0-29.532,13.248-29.532,29.531s13.248,29.531,29.532,29.531c16.283,0,29.531-13.248,29.531-29.531          S451.378,149.827,435.095,149.827z"/>
							</g>
							<g>
								<path style="fill:#FFE3BF;" d="M435.095,192.874c-7.452,0-13.516-6.064-13.516-13.516s6.064-13.515,13.516-13.515          s13.515,6.063,13.515,13.515S442.547,192.874,435.095,192.874z M435.095,166.383c-7.155,0-12.976,5.821-12.976,12.975          c0,7.155,5.821,12.976,12.976,12.976c7.154,0,12.975-5.821,12.975-12.976C448.07,172.204,442.249,166.383,435.095,166.383z"/>
							</g>
						</g>
						<g>
							<g>
								
									<ellipse transform="matrix(0.9217 -0.388 0.388 0.9217 -75.7089 188.3138)" style="fill:#411C36;" cx="428.472" cy="281.637" rx="46.173" ry="46.173"/>
							</g>
							<g>
								<path style="fill:#FFE3BF;" d="M428.472,323.569c-23.122,0-41.931-18.811-41.931-41.932s18.81-41.931,41.931-41.931          s41.932,18.81,41.932,41.931S451.594,323.569,428.472,323.569z M428.472,240.458c-22.706,0-41.178,18.472-41.178,41.178          c0,22.706,18.472,41.179,41.178,41.179c22.706,0,41.179-18.473,41.179-41.179          C469.651,258.93,451.178,240.458,428.472,240.458z"/>
							</g>
							<g>
								<path style="fill:#FFE3BF;" d="M428.472,301.236c-10.807,0-19.6-8.793-19.6-19.6c0-10.807,8.793-19.6,19.6-19.6          c10.807,0,19.6,8.793,19.6,19.6C448.072,292.444,439.279,301.236,428.472,301.236z M428.472,262.79          c-10.392,0-18.847,8.455-18.847,18.847c0,10.392,8.455,18.847,18.847,18.847s18.847-8.455,18.847-18.847          C447.319,271.245,438.864,262.79,428.472,262.79z"/>
							</g>
						</g>
					</g>
					<g>
						<g>
							<circle style="fill:#FFE3BF;" cx="375.861" cy="129.69" r="3.863"/>
						</g>
						<g>
							<circle style="fill:#FFE3BF;" cx="492.029" cy="139.9" r="3.863"/>
						</g>
						<g>
							<circle style="fill:#FFE3BF;" cx="485.682" cy="357.059" r="3.863"/>
						</g>
						<g>
							<circle style="fill:#FFE3BF;" cx="352.131" cy="342.986" r="3.863"/>
						</g>
					</g>
				</g>
				<g>
					<g>
						<g>
							<g>
								<g>
									<g>
										<polygon style="fill:#FFE3BF;" points="234.21,139.353 241.912,166.509 244.936,177.074 245.468,178.964 230.133,182.156             210.084,175.66 198.154,174.654 193.079,149.44           "/>
									</g>
									<g>
										<path style="fill:#411C36;" d="M241.912,166.509l3.024,10.565c-4.577,1.555-9.142,3.249-13.736,4.763            c-0.353,0.129-0.695,0.23-1.066,0.318l-29.219,6.116l-2.76-13.619C211.273,167.195,226.941,164.436,241.912,166.509z"/>
									</g>
								</g>
								<g>
									<path style="fill:#411C36;" d="M206.609,155.628c2.819,1.111,4.203,4.297,3.091,7.116           c-1.111,2.819-4.297,4.203-7.116,3.091c-2.819-1.111-4.203-4.297-3.091-7.116           C200.605,155.901,203.791,154.517,206.609,155.628z"/>
								</g>
							</g>
							<g>
								<g>
									<path style="fill:#FFC151;" d="M180.474,223.364l49.797-28.945l30.368,25.359l36.405,8.957l10.444,65.947l-21.485,19.695           c0,0,7.46,42.075,7.162,41.851c-0.298-0.224-52.818,56.026-52.818,56.026l-59.874-74.992l-6.201-21.593L180.474,223.364z"/>
								</g>
								<g>
									<path style="fill:#411C36;" d="M228.041,170.948c4.112,3.032,7.706,6.7,10.24,11.092           c3.506,6.018,4.774,13.539,2.258,20.005c-2.939,7.71-10.673,12.757-18.708,14.561c-7.055,1.619-15.77,1.912-19.221,8.278           c-2.186,4.009-1.109,9.204,1.561,12.911c2.7,3.718,6.722,6.211,10.743,8.368c5.342,2.811,10.884,5.198,16.581,7.108           c3.959,1.292,8.015,2.421,11.508,4.638c3.493,2.217,6.425,5.859,6.578,9.984c0.197,4.613-3.148,8.837-7.346,10.709           c-4.227,1.861-9.097,1.687-13.594,0.654c-5.99-1.421-12.597-4.261-17.904-1.113c-5.746,3.412-5.877,12.094-2.668,17.928           c2.091,3.814,5.176,6.979,7.076,10.852c1.911,3.844,2.325,9.013-0.7,12.086c-1.467,1.505-3.546,2.263-5.575,2.807           c-11.644,3.035-23.825-0.323-34.596-6.149l-23.079-80.688c0,0,0.034-0.087,0.103-0.261l71.781-30.228L228.041,170.948z"/>
								</g>
								<g>
									<path style="fill:#7657AA;" d="M309.335,175.386l56.604,219.748c0,0-55.504,61.026-156.049,44.832l-29.415-102.704           c2.015-1.02,4.217-1.663,6.497-1.738c7.92-0.237,14.33,6.086,20.137,11.466c6.711,6.24,13.981,11.828,21.736,16.699           c7.859,4.946,18.819,8.931,25.792,2.745c4.253-3.799,5.155-10.263,4.002-15.858c-1.154-5.595-3.999-10.647-6.289-15.917           c-2.976-6.851-5.016-14.373-4.229-21.823c0.77-7.49,4.732-14.898,11.382-18.39c6.031-3.199,13.317-2.846,19.641-5.425           c6.313-2.55,11.49-10.822,7.036-15.971c-1.593-1.838-3.989-2.749-6.273-3.515c-8.656-3.01-17.642-5.78-24.89-11.426           c-16.347-12.727-18.948-38.511-8.194-56.242c10.753-17.731,32.19-27.285,52.921-27.207           C302.93,174.675,306.175,174.879,309.335,175.386z"/>
								</g>
								<g>
									<path style="fill:#FFE3BF;" d="M309.24,174.945l0.006,0.07c-9.309,6.912-26.413,19.619-28.815,21.024           c-22.77,13.362-47.749,22.696-73.34,29.067c-12.659,3.139-25.496,5.535-38.4,7.334c-4.628,0.661-11.462,2.401-17.393,2.28           c1.583-3.676,20.428-45.763,65.691-60.705C264.308,158.373,309.24,174.945,309.24,174.945z"/>
								</g>
								<g>
									<g>
										<g>
											<path style="fill:#FFFFFF;" d="M258.365,177.804c1.098,1,2.484,1.627,3.885,2.119c4.382,1.54,9.092,1.908,13.737,1.882             c3.314-0.019,7.016-0.414,9.166-2.935c0.403-0.472,0.746-1.047,0.726-1.667c-0.029-0.887-0.772-1.571-1.5-2.076             c-3.642-2.526-8.197-3.293-12.607-3.737C268.595,171.07,251.043,171.134,258.365,177.804z"/>
										</g>
										<g>
											<path style="fill:#FFFFFF;" d="M249.785,170.936c1.947,0.768,2.904,2.969,2.136,4.916             c-0.768,1.947-2.969,2.904-4.916,2.136c-1.947-0.768-2.904-2.969-2.136-4.916             C245.637,171.124,247.838,170.168,249.785,170.936z"/>
										</g>
									</g>
									<g>
										<path style="fill:#FFFFFF;" d="M207.706,417.006c1.12,4.276,2.446,8.645,5.257,12.056            c2.014,2.444,5.795,4.283,8.221,2.246c1.461-1.228,1.742-3.341,1.822-5.248c0.365-8.642-1.257-17.286-3.949-25.506            c-1.319-4.026-3.09-8.219-6.62-10.562c-5.25-3.484-9.022,1.693-9.03,6.612            C203.397,403.126,206.062,410.726,207.706,417.006z"/>
									</g>
									<g>
										<path style="fill:#FFFFFF;" d="M211.849,375.825c0.372,3.352-2.043,6.371-5.395,6.744            c-3.352,0.372-6.371-2.043-6.744-5.395s2.043-6.371,5.395-6.744S211.476,372.473,211.849,375.825z"/>
									</g>
								</g>
							</g>
						</g>
						<g>
							<path style="fill:#FFC151;" d="M179.46,165.251c-1.29,1.041-2.064,2.578-2.759,4.083         c-8.671,18.783-14.51,38.583-34.895,47.721c-9.468,4.244-26.427,4.949-28.841-8.493c-0.97-5.398,1.715-12.782-3.171-16.899         c-4.905-4.133-12.131,0.212-16.769,2.705c-15.615,8.392-37.547,13.359-54.648,6.143         c-21.019-8.87-29.107-34.176-22.165-55.035c3.479-10.453,11.513-18.778,20.85-24.363         c17.077-10.215,40.219-0.075,57.477,4.815c5.425,1.537,11.494,3.908,17.118,1.989c7.191-2.453,4.404-10.029,1.679-15.078         c-8.545-15.834-9.081-43.896,15.503-43.528c31.883,0.477,42.879,37.268,41.891,63.208         c-0.339,8.896-1.029,19.139,5.445,25.251c3.518,3.322,8.194,4.297,12.778,5.143         C185.933,163.922,182.131,163.097,179.46,165.251z"/>
						</g>
					</g>
				</g>
			</g>
			<g>
				<g>
					<polygon style="fill:#411C36;" points="248.182,129.513 246.715,114.02 269.301,132.435 268.092,119.667 302.598,147.809        278.637,134.735 280.022,149.367      "/>
				</g>
				<g>
					<polygon style="fill:#411C36;" points="305.705,81.613 319.418,74.255 311.199,102.214 322.499,96.15 309.934,138.868        312.697,111.712 299.746,118.661      "/>
				</g>
			</g>
			<g>
				<g>
					<polygon style="fill:#411C36;" points="452.044,379.56 452.078,395.19 431.193,374.684 431.221,387.565 399.312,356.228        422.068,371.52 422.036,356.758      "/>
				</g>
				<g>
					<polygon style="fill:#411C36;" points="390.083,422.146 375.688,428.236 386.494,401.035 374.631,406.054 391.148,364.493        385.874,391.397 399.469,385.645      "/>
				</g>
			</g>
			<g>
				<g>
					<g>
						<g>
							<path style="fill:#FFE3BF;" d="M179.59,262.089c-3.256,0-5.036-1.422-6.335-2.461c-1.128-0.901-1.808-1.446-3.439-1.446         c-1.631,0-2.313,0.545-3.44,1.446c-1.3,1.039-3.079,2.461-6.335,2.461c-3.255,0-5.033-1.423-6.332-2.461         c-1.128-0.901-1.807-1.446-3.436-1.446c-1.627,0-2.306,0.543-3.431,1.445c-1.297,1.039-3.075,2.462-6.329,2.462         s-5.031-1.423-6.329-2.462c-1.125-0.901-1.805-1.445-3.43-1.445c-1.281,0-2.319-1.038-2.319-2.319         c0-1.281,1.038-2.319,2.319-2.319c3.254,0,5.031,1.423,6.329,2.462c1.125,0.901,1.805,1.445,3.43,1.445         c1.626,0,2.305-0.544,3.43-1.445c1.297-1.039,3.076-2.462,6.33-2.462c3.255,0,5.034,1.423,6.332,2.461         c1.128,0.901,1.807,1.446,3.436,1.446c1.63,0,2.312-0.545,3.439-1.446c1.3-1.039,3.079-2.461,6.336-2.461         c3.256,0,5.036,1.422,6.336,2.461c1.128,0.901,1.808,1.446,3.439,1.446c1.281,0,2.319,1.038,2.319,2.318         C181.908,261.051,180.87,262.089,179.59,262.089z"/>
						</g>
					</g>
					<g>
						<g>
							<path style="fill:#FFE3BF;" d="M402.746,387.048c-3.256,0-5.036-1.422-6.335-2.461c-1.128-0.901-1.808-1.446-3.439-1.446         c-1.631,0-2.313,0.545-3.44,1.446c-1.3,1.039-3.079,2.461-6.335,2.461c-3.255,0-5.033-1.423-6.332-2.461         c-1.128-0.901-1.807-1.446-3.436-1.446c-1.627,0-2.306,0.544-3.431,1.445c-1.297,1.039-3.075,2.462-6.329,2.462         s-5.031-1.423-6.329-2.462c-1.125-0.901-1.805-1.445-3.43-1.445c-1.281,0-2.319-1.038-2.319-2.318         c0-1.281,1.038-2.319,2.319-2.319c3.254,0,5.031,1.423,6.329,2.462c1.125,0.901,1.805,1.445,3.43,1.445         c1.626,0,2.305-0.544,3.43-1.445c1.297-1.039,3.076-2.462,6.33-2.462c3.255,0,5.034,1.423,6.332,2.461         c1.128,0.901,1.807,1.446,3.436,1.446c1.63,0,2.312-0.545,3.439-1.446c1.3-1.039,3.079-2.461,6.336-2.461         c3.256,0,5.036,1.422,6.336,2.461c1.128,0.901,1.808,1.446,3.439,1.446c1.281,0,2.319,1.038,2.319,2.318         C405.064,386.01,404.026,387.048,402.746,387.048z"/>
						</g>
					</g>
					<g>
						<g>
							<path style="fill:#FFE3BF;" d="M342.019,159.477c-3.256,0-5.036-1.422-6.335-2.461c-1.128-0.901-1.808-1.446-3.439-1.446         s-2.313,0.545-3.44,1.446c-1.3,1.039-3.079,2.461-6.335,2.461c-3.255,0-5.034-1.423-6.332-2.461         c-1.128-0.901-1.807-1.446-3.436-1.446c-1.627,0-2.306,0.543-3.431,1.445c-1.298,1.039-3.075,2.462-6.329,2.462         s-5.031-1.423-6.329-2.462c-1.125-0.901-1.805-1.445-3.43-1.445c-1.28,0-2.318-1.038-2.318-2.319         c0-1.28,1.038-2.319,2.318-2.319c3.254,0,5.031,1.423,6.329,2.462c1.125,0.901,1.805,1.445,3.43,1.445         c1.626,0,2.305-0.544,3.43-1.445c1.298-1.039,3.076-2.462,6.33-2.462c3.255,0,5.033,1.423,6.332,2.461         c1.128,0.901,1.807,1.446,3.436,1.446c1.63,0,2.312-0.545,3.439-1.446c1.3-1.039,3.079-2.461,6.336-2.461         c3.256,0,5.036,1.422,6.335,2.461c1.128,0.901,1.808,1.446,3.439,1.446c1.281,0,2.319,1.038,2.319,2.319         C344.338,158.439,343.3,159.477,342.019,159.477z"/>
						</g>
					</g>
					<g>
						<g>
							<path style="fill:#FFE3BF;" d="M204.808,428.642c-3.256,0-5.036-1.422-6.335-2.461c-1.128-0.901-1.808-1.446-3.439-1.446         s-2.313,0.545-3.44,1.446c-1.3,1.039-3.079,2.461-6.335,2.461c-3.255,0-5.034-1.423-6.332-2.461         c-1.128-0.901-1.807-1.446-3.436-1.446c-1.627,0-2.306,0.543-3.431,1.445c-1.298,1.039-3.075,2.462-6.329,2.462         c-3.254,0-5.031-1.423-6.329-2.462c-1.125-0.901-1.805-1.445-3.43-1.445c-1.28,0-2.318-1.038-2.318-2.319         c0-1.28,1.038-2.318,2.318-2.318c3.254,0,5.031,1.423,6.329,2.462c1.125,0.901,1.805,1.445,3.43,1.445         c1.626,0,2.305-0.543,3.43-1.445c1.298-1.039,3.076-2.462,6.33-2.462c3.255,0,5.033,1.423,6.332,2.461         c1.128,0.901,1.807,1.446,3.436,1.446c1.63,0,2.312-0.545,3.439-1.446c1.3-1.039,3.079-2.461,6.336-2.461         c3.256,0,5.036,1.422,6.335,2.461c1.128,0.901,1.808,1.446,3.439,1.446c1.281,0,2.319,1.038,2.319,2.319         C207.127,427.604,206.089,428.642,204.808,428.642z"/>
						</g>
					</g>
				</g>
				<g>
					<g>
						<g>
							<polygon style="fill:#7657AA;" points="470.386,432.793 439.1,402.366 481.152,392.664        "/>
						</g>
						<g>
							<polygon style="fill:#FFC151;" points="158.526,398.109 114.209,355.009 173.776,341.266        "/>
						</g>
					</g>
				</g>
			</g>
		</g>
	</g>
</g>















</svg>
