<?xml version="1.0" encoding="UTF-8"?>
<!-- Generator: Adobe Illustrator 25.3.1, SVG Export Plug-In . SVG Version: 6.00 Build 0)  -->
<svg xmlns="http://www.w3.org/2000/svg" xmlns:xlink="http://www.w3.org/1999/xlink" version="1.1" id="Capa_1" x="0px" y="0px" viewBox="0 0 512 512" style="enable-background:new 0 0 512 512;" xml:space="preserve" width="512" height="512">
<g>
	<g>
		<path style="fill:#FFFFFF;" d="M25.351,512c-7.793,0-14.213-6.118-14.588-13.903C4.8,374.138-2.648,225.734,103.693,139.641    c2.373-10.839,5.742-21.417,10.042-31.521c0.057-0.136,0.115-0.266,0.176-0.399c10.418-24.338,25.822-45.605,45.789-63.209    C192.228,15.81,234.006,0,277.333,0c98.436,0,180.31,83.911,177.798,182.31c-0.158,6.297-0.655,12.629-1.48,18.885    c1.341,2.571,2.587,5.186,3.883,7.779c29.895,62.827,41.476,133.424,45.336,202.392c0.5,8.932,0.866,17.871,1.117,26.813    c0.438,15.604,0.561,61.569-3.715,69.518c-1.841,3.422-6.467,4.302-10.352,4.302H25.351z"/>
	</g>
	<g>
		<g>
			<g>
				<path style="fill:#FFC151;" d="M489.351,497.395c0,0-464.571,0-464.571,0c-2.099-0.01-2.442-79.299-2.503-87.152      c-0.452-58.313,0.568-119.603,24.188-173.978c29.051-66.875,92.285-115.846,161.782-133.392      c43.122-10.925,88.643-9.712,129.889,6.787c12.222,4.883,23.671,11.174,34.348,18.623c14.346,9.987,27.258,22.071,38.597,35.618      c25.829,30.857,42.468,68.19,53.357,106.686c18.831,66.572,23.25,135.382,24.623,204.173      C489.099,476.647,489.402,497.395,489.351,497.395z"/>
			</g>
			<g>
				<g>
					<g>
						<polygon style="fill:#FFE3BF;" points="75.3,243.95 84.321,197.434 118.151,229.854       "/>
					</g>
					<g>
						<polygon style="fill:#FF6A6C;" points="444.826,468.266 401.434,426.065 459.759,412.608       "/>
					</g>
					<g>
						<polygon style="fill:#FF6A6C;" points="86.863,407.38 34.131,356.096 105.01,339.743       "/>
					</g>
					<g>
						<polygon style="fill:#7657AA;" points="430.771,305.007 380.299,255.921 448.139,240.269       "/>
					</g>
				</g>
				<g>
					<g>
						<path style="fill:#FFE3BF;" d="M118.293,286.208c-3.874,0-5.992-1.692-7.538-2.929c-1.342-1.072-2.151-1.72-4.093-1.72        c-1.941,0-2.752,0.648-4.094,1.72c-1.546,1.236-3.664,2.929-7.538,2.929c-3.873,0-5.989-1.693-7.534-2.929        c-1.342-1.072-2.15-1.72-4.089-1.72c-1.936,0-2.744,0.647-4.083,1.719c-1.544,1.237-3.659,2.93-7.53,2.93        c-3.872,0-5.987-1.693-7.53-2.93c-1.339-1.072-2.147-1.719-4.082-1.719c-1.524,0-2.759-1.235-2.759-2.759        c0-1.523,1.235-2.759,2.759-2.759c3.872,0,5.986,1.693,7.53,2.93c1.339,1.072,2.147,1.719,4.082,1.719        c1.935,0,2.743-0.646,4.082-1.719c1.544-1.236,3.66-2.93,7.532-2.93c3.873,0,5.989,1.693,7.535,2.929        c1.342,1.072,2.15,1.72,4.088,1.72c1.94,0,2.751-0.648,4.093-1.72c1.547-1.237,3.664-2.929,7.54-2.929        c3.874,0,5.992,1.692,7.538,2.929c1.342,1.072,2.151,1.72,4.093,1.72c1.523,0,2.759,1.235,2.759,2.759        S119.816,286.208,118.293,286.208z"/>
					</g>
				</g>
				<g>
					<g>
						<path style="fill:#FFE3BF;" d="M376.459,474.723c-3.874,0-5.992-1.692-7.538-2.929c-1.342-1.072-2.151-1.72-4.093-1.72        c-1.941,0-2.752,0.648-4.094,1.72c-1.547,1.237-3.664,2.929-7.538,2.929c-3.873,0-5.989-1.693-7.535-2.929        c-1.342-1.072-2.15-1.72-4.088-1.72c-1.936,0-2.744,0.646-4.083,1.719c-1.544,1.237-3.659,2.93-7.53,2.93        c-3.872,0-5.986-1.693-7.53-2.93c-1.339-1.072-2.147-1.719-4.082-1.719c-1.523,0-2.759-1.235-2.759-2.759        c0-1.523,1.235-2.759,2.759-2.759c3.872,0,5.987,1.693,7.53,2.93c1.339,1.072,2.147,1.719,4.082,1.719        s2.743-0.647,4.082-1.719c1.544-1.237,3.66-2.93,7.532-2.93c3.873,0,5.989,1.693,7.535,2.929        c1.342,1.072,2.15,1.72,4.088,1.72c1.94,0,2.751-0.648,4.093-1.72c1.546-1.237,3.664-2.929,7.54-2.929        c3.874,0,5.992,1.692,7.538,2.929c1.342,1.072,2.151,1.72,4.093,1.72c1.524,0,2.759,1.235,2.759,2.759        C379.218,473.487,377.983,474.723,376.459,474.723z"/>
					</g>
				</g>
				<g>
					<g>
						<path style="fill:#FFE3BF;" d="M468.232,350.402c-3.874,0-5.992-1.692-7.538-2.929c-1.342-1.072-2.151-1.72-4.093-1.72        s-2.752,0.648-4.094,1.72c-1.546,1.237-3.664,2.929-7.538,2.929c-3.873,0-5.989-1.693-7.534-2.929        c-1.342-1.072-2.15-1.72-4.089-1.72c-1.936,0-2.744,0.647-4.083,1.719c-1.544,1.237-3.659,2.93-7.53,2.93        c-3.872,0-5.987-1.693-7.53-2.93c-1.339-1.072-2.147-1.719-4.082-1.719c-1.524,0-2.759-1.235-2.759-2.759        c0-1.523,1.235-2.759,2.759-2.759c3.872,0,5.986,1.693,7.53,2.93c1.339,1.072,2.147,1.719,4.082,1.719        c1.935,0,2.743-0.646,4.082-1.719c1.544-1.236,3.66-2.93,7.532-2.93c3.873,0,5.989,1.693,7.535,2.929        c1.342,1.072,2.15,1.72,4.088,1.72c1.94,0,2.751-0.648,4.093-1.72c1.547-1.237,3.664-2.929,7.54-2.929        c3.874,0,5.992,1.692,7.538,2.929c1.342,1.072,2.151,1.72,4.093,1.72c1.523,0,2.759,1.236,2.759,2.759        C470.991,349.167,469.756,350.402,468.232,350.402z"/>
					</g>
				</g>
				<g>
					<g>
						<path style="fill:#FFE3BF;" d="M190.138,487.248c-3.874,0-5.992-1.692-7.538-2.929c-1.342-1.072-2.151-1.72-4.093-1.72        c-1.941,0-2.752,0.648-4.094,1.72c-1.546,1.237-3.664,2.929-7.538,2.929c-3.873,0-5.989-1.693-7.534-2.929        c-1.342-1.072-2.15-1.72-4.089-1.72c-1.936,0-2.744,0.646-4.083,1.719c-1.544,1.237-3.659,2.93-7.53,2.93        c-3.872,0-5.986-1.693-7.53-2.93c-1.339-1.072-2.147-1.719-4.082-1.719c-1.524,0-2.759-1.235-2.759-2.759        c0-1.523,1.235-2.759,2.759-2.759c3.872,0,5.986,1.693,7.53,2.93c1.339,1.072,2.147,1.719,4.082,1.719        c1.935,0,2.743-0.646,4.082-1.719c1.544-1.237,3.66-2.93,7.532-2.93c3.873,0,5.989,1.693,7.535,2.929        c1.342,1.072,2.15,1.72,4.088,1.72c1.94,0,2.751-0.648,4.093-1.72c1.547-1.237,3.664-2.929,7.54-2.929        c3.874,0,5.992,1.692,7.538,2.929c1.342,1.072,2.151,1.72,4.093,1.72c1.523,0,2.759,1.235,2.759,2.759        C192.897,486.013,191.661,487.248,190.138,487.248z"/>
					</g>
				</g>
			</g>
			<g>
				<g>
					<g>
						<path style="fill:#411C36;" d="M436.008,213.887c-7.313,32.356-24.491,62.758-51.213,86.352        c-67.311,59.4-169.922,53.237-229.667-13.614c-0.253-0.276-0.483-0.506-0.713-0.782        c-43.027-48.73-51.65-115.949-27.803-172.014c9.222-21.686,23.319-41.739,42.176-58.365        C225.06,5.814,305.939,1.928,365.868,40.999c6.692,4.346,13.108,9.245,19.179,14.672c2.369,2.093,4.691,4.277,6.968,6.531        c2.437,2.461,4.852,4.99,7.175,7.612C435.226,110.679,447.138,164.537,436.008,213.887z"/>
					</g>
					<g style="opacity:0.15;">
						<path style="fill:#FFF0DE;" d="M385.047,55.671l-74.049,81.638l-2.943-1.748l57.813-94.562        C372.56,45.346,378.976,50.244,385.047,55.671z"/>
					</g>
					<g>
						<g style="opacity:0.15;">
							<path style="fill:#FFE3BF;" d="M399.182,69.818c36.054,40.854,47.967,94.708,36.815,144.076l-111.223-31.479l-15.319-33.123         l82.557-87.091C394.464,64.653,396.86,67.186,399.182,69.818z"/>
						</g>
						<g style="opacity:0.18;">
							<path style="fill:#FFE3BF;" d="M234.272,162.428l7.677,37.431l-86.827,86.756c-0.257-0.254-0.479-0.507-0.718-0.777         c-43.004-48.729-51.648-115.951-27.801-172.002L234.272,162.428z"/>
						</g>
					</g>
					<g>
						<g>
							
								<ellipse transform="matrix(0.3437 -0.9391 0.9391 0.3437 14.6555 376.6318)" style="fill:#FFE3BF;" cx="276.794" cy="177.83" rx="63.412" ry="63.412"/>
						</g>
						<g>
							<path style="fill:#FFE3BF;" d="M276.835,249.68c-19.921,0-39.75-8.21-53.937-24.287         c-12.705-14.395-19.042-32.877-17.846-52.04c1.196-19.163,9.784-36.714,24.18-49.419         c14.395-12.704,32.892-19.031,52.039-17.846c19.163,1.196,36.714,9.784,49.419,24.18l0,0         c12.705,14.395,19.042,32.877,17.846,52.04c-1.196,19.163-9.782,36.713-24.179,49.417         C310.715,243.765,293.74,249.679,276.835,249.68z M276.695,106.52c-17.372,0-33.942,6.249-47.083,17.846         c-14.281,12.603-22.799,30.013-23.985,49.022c-1.187,19.01,5.101,37.344,17.704,51.625         c26.015,29.477,71.163,32.298,100.646,6.28c14.28-12.602,22.798-30.012,23.984-49.021         c1.187-19.01-5.101-37.344-17.704-51.625l0,0c-12.603-14.281-30.012-22.799-49.022-23.985         C279.717,106.568,278.202,106.52,276.695,106.52z"/>
						</g>
						<g>
							<path style="fill:#FFC151;" d="M285.581,170.076c4.283,4.853,3.82,12.259-1.032,16.542         c-4.853,4.283-12.259,3.821-16.542-1.032c-4.283-4.853-3.82-12.259,1.033-16.542         C273.892,164.761,281.298,165.223,285.581,170.076z"/>
						</g>
					</g>
				</g>
				<g>
					<g>
						<path style="fill:#FFE3BF;" d="M223.801,31.388c-4.963,5.964,9.518,6.228,12.104,6.253c9.927,0.097,19.855-0.622,29.69-1.952        c7.364-0.996,14.862-2.37,22.179-4.011c2.255-0.506,8.818-0.833,8.046-4.684c-0.244-1.221-1.439-1.985-2.559-2.529        c-7.884-3.83-16.987-3.841-25.562-3.854c-9.56-0.015-19.152,1.205-28.426,3.504C236.967,24.687,226.911,27.651,223.801,31.388        z"/>
					</g>
					<g>
						<path style="fill:#FFE3BF;" d="M314.391,35.408c2.775,0.377,5.426,0.489,6.876,0.68c2.56,0.337,5.618,0.488,7.228-1.531        c0.915-1.149,0.743-2.426-0.25-3.488c-3.579-3.821-9.071-5.025-14.208-6.038c-3.265-0.644-8.978-0.897-9.535,3.713        C303.965,33.182,309.379,34.727,314.391,35.408z"/>
					</g>
				</g>
			</g>
			<g>
				<g>
					<g>
						<path style="fill:#7657AA;" d="M329.387,402.318l-22.554,7.183L83.446,480.54l-2.286,0.724l-9.461,3.02        c-5.774,1.814-11.978-1.124-14.18-6.759l-8.553-21.744c-2.189-5.541,0.252-11.85,5.593-14.504l8.489-4.201l2.142-1.065        l217.711-107.819L306.144,329L329.387,402.318z"/>
					</g>
					<g>
						<g>
							<path style="fill:#FFE3BF;" d="M329.387,402.318l-22.554,7.183c-11.633-19.401-19.279-41.177-22.291-63.559         c-0.782-5.883-1.28-11.824-1.64-17.749l17.3-8.572L329.387,402.318z"/>
						</g>
						<g>
							<g>
								<g>
									<path style="fill:#7657AA;" d="M400.82,391.71c-5.059,3.984-10.089,7.137-14.989,9.588c-0.742,0.398-1.502,0.747-2.238,1.1           c-30.917,14.409-56.882,2.566-56.882,2.566s-3.124-3.521-15.698-27.087c-10.376-19.46-13.238-47.962-13.91-57.305           c-0.164-2.127,0.429-4.187,1.633-5.943c3.948-5.737,14.494-19.049,32.527-28.53c0.717-0.378,1.433-0.756,2.17-1.108           c0.569-0.303,1.132-0.56,1.721-0.837c26.304-12.225,76.405-6.659,88.891,14.928           C448.581,341.417,438.663,361.913,400.82,391.71z"/>
								</g>
								<g style="opacity:0.56;">
									<path style="fill:#411C36;" d="M400.82,391.71c-5.059,3.984-10.089,7.137-14.989,9.588c-0.742,0.398-1.502,0.747-2.238,1.1           c-30.917,14.409-56.882,2.566-56.882,2.566s-3.124-3.521-15.698-27.087c-10.376-19.46-13.238-47.962-13.91-57.305           c-0.164-2.127,0.429-4.187,1.633-5.943c3.948-5.737,14.494-19.049,32.527-28.53c0.717-0.378,1.433-0.756,2.17-1.108           c0.569-0.303,1.132-0.56,1.721-0.837c26.304-12.225,76.405-6.659,88.891,14.928           C448.581,341.417,438.663,361.913,400.82,391.71z"/>
								</g>
							</g>
							<g>
								<g>
									<path style="fill:#FFE3BF;" d="M385.83,401.298c-0.742,0.398-1.502,0.747-2.238,1.1c-2.265-1.983-4.21-4.322-6.018-6.645           c-24.691-31.307-41.038-70.074-46.311-109.654c0.717-0.378,1.433-0.756,2.17-1.108           c5.124,39.47,21.345,78.129,45.93,109.354C381.317,396.8,383.38,399.315,385.83,401.298z"/>
								</g>
							</g>
						</g>
					</g>
					<g>
						<g>
							<path style="fill:#FFE3BF;" d="M83.446,480.54l-2.286,0.724c-9.012-13.207-15.279-28.473-18.111-44.187l2.142-1.065         C67.935,451.877,74.276,467.291,83.446,480.54z"/>
						</g>
					</g>
				</g>
				<g>
					<g>
						<path style="fill:#D26A49;" d="M83.556,427.183c0,0-20.964-28.806-14.191-41.009c6.773-12.203,11.104-18.783,15.642-27.112        c4.539-8.329,6.745-16.936,16.184-21.726c9.439-4.79,17.198-10.371,22.112-16.882c4.914-6.511,11.715-13.98,19.641-15.993        c7.926-2.014,15.783-3.444,22.238-7.998c6.455-4.554,16.379-13.425,26.36-12.829c9.981,0.596,17.144,4.996,25.584,3.635        c8.44-1.361,21.169-3.986,32.344,1.483c11.175,5.469,40.023,31.369,47.369,54.121c7.345,22.751,3.615,69.019-3.839,77.002        c-7.454,7.983-32.843,12.649-32.843,12.649s-2.872,19.171-20.543,23.573c-17.671,4.402-22.78,2.612-22.78,2.612        s-10.757,15.868-34.661,13.024c0,0-16.657,15.757-33.552,3.695c-16.895-12.062-45.717-58.063-45.717-58.063L83.556,427.183z"/>
					</g>
					<g>
						<path style="fill:#411C36;" d="M161.823,480.586c-11.878,0-20.983-10.801-28.318-19.503l-1.147-1.358        c-7.453-8.801-38.078-55.001-38.386-55.467c-0.176-0.265-0.103-0.622,0.162-0.796c0.261-0.175,0.62-0.105,0.796,0.162        c0.309,0.465,30.896,46.608,38.305,55.358l1.149,1.362c7.272,8.626,16.329,19.408,27.873,19.088        c12.048-0.283,19.425-8.015,19.498-8.092c0.216-0.232,0.579-0.244,0.812-0.027c0.232,0.216,0.245,0.58,0.029,0.812        c-0.311,0.333-7.764,8.164-20.313,8.458C162.13,480.585,161.976,480.586,161.823,480.586z"/>
					</g>
					<g>
						<path style="fill:#411C36;" d="M188.573,472.764c-1.229,0-2.497-0.051-3.815-0.147c-13.077-0.957-55.056-87.03-56.836-90.694        c-0.139-0.285-0.02-0.629,0.266-0.768c0.28-0.14,0.626-0.021,0.768,0.266c14.983,30.827,45.946,89.322,55.885,90.05        c12.369,0.894,20.34-2.422,31.598-13.179c0.231-0.217,0.593-0.213,0.813,0.019c0.219,0.229,0.21,0.593-0.019,0.813        C206.891,469.005,199.234,472.764,188.573,472.764z"/>
					</g>
					<g>
						<path style="fill:#411C36;" d="M221.268,459.632c-0.656,0-1.269-0.013-1.834-0.039c-12.303-0.557-43.626-90.251-44.954-94.068        c-0.105-0.299,0.055-0.628,0.354-0.732c0.301-0.099,0.628,0.053,0.732,0.354c8.971,25.803,34.349,92.864,43.92,93.298        c8.882,0.402,25.172-2.189,33.58-10.985c4.294-4.492,6.166-10.135,5.562-16.772c-1.766-19.428-28.189-92.68-28.455-93.418        c-0.108-0.298,0.046-0.628,0.346-0.736c0.296-0.111,0.628,0.046,0.736,0.346c0.267,0.738,26.739,74.13,28.519,93.703        c0.635,6.982-1.343,12.928-5.877,17.672C245.221,457.332,229.715,459.632,221.268,459.632z"/>
					</g>
					<g>
						<g>
							<g>
								<path style="fill:#D26A49;" d="M326.344,451.814c-0.324,0.193-0.671,0.383-0.995,0.576          c-10.999,6.612-23.937,11.997-33.033,13.509c-0.379,0.071-0.781,0.139-1.134,0.189c-3.836,0.516-7.479,1.166-9.098-0.279          c-8.304-7.409-8.697-19.75-2.028-36.431c7.252-18.138,43.685-28.854,43.685-28.854s23.168,13.532,23.259,29.314          C347.035,436.35,337.866,444.708,326.344,451.814z"/>
							</g>
							<g>
								<g>
									<path style="fill:#411C36;" d="M326.344,451.814c-0.324,0.193-0.671,0.383-0.995,0.576           c-0.684-1.448-1.15-2.985-1.621-4.477c-0.413-1.392-0.867-2.836-1.451-4.156c-2.429-5.477-7.807-9.521-13.73-10.341           c-2.895-0.391-5.668-0.049-8.086,1.006c-6.08,2.635-8.976,9.261-9.654,14.576c-0.768,5.675,0.429,11.865,1.623,17.403           c-0.379,0.071-0.816,0.213-1.17,0.263c-1.162-5.418-2.379-11.99-1.592-17.825c0.717-5.635,3.821-12.653,10.316-15.47           c2.615-1.148,5.602-1.533,8.722-1.093c6.312,0.867,12.051,5.185,14.624,11.003c0.621,1.394,1.072,2.86,1.506,4.278           C325.284,449.047,325.738,450.491,326.344,451.814z"/>
								</g>
							</g>
						</g>
						<g>
							<path style="fill:#411C36;" d="M286.975,467.247c-1.758,0-3.813-0.304-5.713-1.342c-2.503-1.367-4.224-3.728-5.115-7.022         c-3.4-12.553-0.663-25.936,7.509-36.718c8.948-11.804,38.442-21.702,39.693-22.118c0.301-0.107,0.626,0.064,0.726,0.364         c0.1,0.302-0.063,0.628-0.364,0.727c-0.303,0.101-30.408,10.202-39.138,21.721c-7.957,10.497-10.624,23.518-7.316,35.725         c0.806,2.975,2.337,5.097,4.55,6.309c4.062,2.222,9.153,0.663,9.203,0.648c0.304-0.097,0.626,0.071,0.721,0.374         c0.095,0.303-0.071,0.626-0.374,0.721C291.225,466.677,289.378,467.247,286.975,467.247z"/>
						</g>
					</g>
				</g>
			</g>
		</g>
	</g>
</g>















</svg>
