<?xml version="1.0" encoding="UTF-8"?>
<!-- Generator: Adobe Illustrator 25.3.1, SVG Export Plug-In . SVG Version: 6.00 Build 0)  -->
<svg xmlns="http://www.w3.org/2000/svg" xmlns:xlink="http://www.w3.org/1999/xlink" version="1.1" id="Capa_1" x="0px" y="0px" viewBox="0 0 512 512" style="enable-background:new 0 0 512 512;" xml:space="preserve" width="512" height="512">
<g>
	<g>
		<path style="fill:#FFFFFF;" d="M292.554,490.865c-4.116,0.122-7.977-1.676-11.57-3.592    c-23.522-12.541-43.707-31.273-57.969-53.793c-6.405-0.201-35.659,0.03-42.41,0.036c-15.109,0.013-30.219-0.007-45.328,0.04    c-22.545,0.071-45.089-0.192-67.636-0.192c-32.916,0-30.484-3.933-30.699-30.21c-0.461-56.41-1.73-113.303-18.246-167.243    c-4.24-13.848-9.198-27.479-13.131-41.421c-4.048-14.349-11.337-27.69,2.533-36.839c21.096-13.914,48.587-14.058,68.771-30.008    c6.428-5.079,11.699-11.439,17.164-17.541C169.867,25.436,303.5-13.68,400.875,59.99c74.34,56.242,96.626,155.114,105.348,242.826    c3.722,37.427,5.65,75.032,5.776,112.643c0.017,5.031-0.208,10.607-3.707,14.221c-3.677,3.797-9.588,4.028-14.873,4.01    c-32.4-0.112-64.799-0.224-97.199-0.336c-6.117-0.021-12.536,0.376-18.597,1.917c-6.225,1.582-11.268,5.183-16.384,8.938    c-18.701,13.724-37.401,27.449-56.101,41.173c-3.246,2.382-7.037,4.802-11.212,5.37    C293.466,490.815,293.008,490.851,292.554,490.865z"/>
	</g>
	<g>
		<g>
			<g>
				<path style="fill:#7657AA;" d="M498.584,420.061c0,0-446.174,0-446.174,0c-1.761,0-2.19-81.354-2.208-89.621      c-0.069-30.886,0.456-61.892,4.913-92.509c11.63-79.89,56.483-146.695,130.343-181.411      c28.217-13.263,59.091-21.041,90.291-21.957c38.914-1.143,78.437,8.593,110.596,31.001c20.97,14.611,38.573,33.729,52.52,55.082      c3.202,4.903,6.228,9.938,9.055,15.085c21.829,39.155,32.133,83.424,39.547,127.261      C496.25,314.917,498.262,367.526,498.584,420.061z"/>
			</g>
			<g>
				<g>
					<g>
						<g>
							<path style="fill:#411C36;" d="M447.919,135.73c-2.827-5.146-5.853-10.182-9.055-15.085         c2.385,15.062,3.887,29.352-1.171,42.669c-4.66,12.236-15.239,22.505-28.247,27.717c-3.622-21.6-12.236-41.477-25.332-57.246         c-9.408-11.374-19.347-17.359-29.506-17.823c-8.127-0.353-15.946,3.092-22.086,9.717         c-7.156,7.774-10.844,18.817-9.585,28.822c2.054,16.388,14.334,31.406,32.841,40.174c15.305,7.266,32.532,9.298,47.749,5.72         c1.391,13.384,0.817,27.342-1.878,41.256c-3.401,17.668-11.595,42.095-31.229,58.085         c-18.265,14.864-43.354,17.889-60.979,7.377c-6.228-3.71-11.418-8.856-16.895-14.311c-3.975-3.931-8.039-7.973-12.589-11.462         c-1.878-1.48-3.865-2.849-5.941-4.064c-1.281-0.751-2.606-1.458-3.975-2.076c-2.142-0.994-4.351-1.833-6.603-2.496         c-2.121-0.618-4.285-1.104-6.472-1.458c-6.074-0.95-12.324-0.795-18.375,0.42c-2.54,0.486-5.013,1.193-7.443,2.054         c-5.742,2.076-11.109,5.168-15.703,9.254c-5.389,4.77-9.563,10.513-13.295,16.52c-1.789,2.871-3.49,5.787-5.168,8.68         c-0.685,1.193-1.369,2.385-2.076,3.578c-4.837,8.26-9.74,15.879-16.874,21.401c-9.85,7.598-23.366,10.027-35.249,6.317         c-3.798-1.193-7.377-2.982-10.601-5.279c-2.805-1.988-5.345-4.329-7.531-6.957c-3.225-3.821-5.698-8.26-7.222-13.053         l-6.825,2.164c1.524,4.837,3.909,9.364,6.957,13.406c1.943,2.65,4.219,5.102,6.714,7.266         c4.748,4.174,10.336,7.377,16.365,9.276c4.373,1.369,8.923,2.032,13.472,2.032c10.115,0,20.23-3.291,28.292-9.519         c9.276-7.156,15.107-17.271,20.76-27.055c0.729-1.259,1.458-2.496,2.164-3.732c2.628-4.483,5.278-8.768,8.304-12.633         c1.966-2.562,4.108-4.925,6.538-7.068c10.535-9.32,25.663-12.633,39.202-9.298c3.843,0.928,7.575,2.407,11.021,4.439         c0.442,0.265,0.883,0.53,1.303,0.817c5.742,3.622,10.645,8.459,15.813,13.605c5.543,5.521,11.286,11.22,18.265,15.372         c20.164,12.015,48.61,8.746,69.15-7.973c21.313-17.337,30.103-43.442,33.747-62.259c2.915-15.084,3.468-30.213,1.811-44.723         c15.548-5.72,28.336-17.845,33.879-32.422C448.096,156.093,448.67,145.934,447.919,135.73z M358.848,188.228         c-12.588-5.963-26.746-18.176-28.822-34.63c-0.994-7.973,1.966-16.807,7.752-23.057c4.461-4.815,10.005-7.443,15.659-7.443         c0.287,0,0.574,0,0.839,0.022c8.083,0.353,16.255,5.477,24.338,15.217c12.501,15.062,20.65,34.166,23.963,54.927         C388.774,196.709,372.938,194.898,358.848,188.228z"/>
						</g>
					</g>
					<g>
						<g>
							<polygon style="fill:#411C36;" points="270.166,70.07 288.022,78.593 75.391,176.716 79.834,352.93 61.977,344.408          12.872,169.497        "/>
						</g>
						<g>
							<polygon style="fill:#FF6A6C;" points="30.729,178.02 79.834,352.93 339.562,259.996 288.022,78.593        "/>
						</g>
						<g>
							<g>
								<g>
									<path style="fill:#FFE3BF;" d="M93.286,338.742c-0.851,0-1.698-0.2-2.466-0.596c-1.318-0.681-2.303-1.89-2.703-3.316           L46.341,186.024c-0.75-2.676,0.638-5.45,3.231-6.453l223.353-86.312c1.401-0.542,2.976-0.47,4.327,0.203           c1.348,0.671,2.356,1.886,2.77,3.335l43.88,154.445c0.766,2.707-0.706,5.57-3.355,6.517L95.09,338.43           C94.507,338.639,93.896,338.742,93.286,338.742z M47.49,185.703l41.775,148.805c0.317,1.126,1.062,2.042,2.103,2.579           c1.038,0.536,2.215,0.616,3.322,0.221l225.458-80.671c2.059-0.737,3.205-2.964,2.607-5.069l-43.88-154.445           c-0.319-1.126-1.104-2.071-2.151-2.593c-1.062-0.529-2.259-0.583-3.366-0.158L50.004,180.682           C47.987,181.463,46.905,183.621,47.49,185.703L47.49,185.703z"/>
								</g>
								<g>
									<g>
										<circle style="fill:#FFE3BF;" cx="59.339" cy="189.18" r="4.261"/>
									</g>
									<g>
										<circle style="fill:#FFE3BF;" cx="270.369" cy="105.174" r="4.261"/>
									</g>
									<g>
										<path style="fill:#FFE3BF;" d="M316.024,248.836c0,2.353-1.908,4.261-4.261,4.261c-2.353,0-4.261-1.908-4.261-4.261            s1.908-4.261,4.261-4.261C314.116,244.575,316.024,246.483,316.024,248.836z"/>
									</g>
									<g>
										<circle style="fill:#FFE3BF;" cx="98.096" cy="327.769" r="4.261"/>
									</g>
								</g>
							</g>
							<g>
								<g>
									<polygon style="fill:#FFE3BF;" points="160.783,313.585 159.591,313.545 160.416,288.399 160.781,288.255 258.623,249.934            274.312,273.055 273.326,273.723 258.17,251.391 161.582,289.222          "/>
								</g>
								<g>
									<g>
										<g>
											<path style="fill:#491634;" d="M175.609,299.564c0,2.353-1.908,4.261-4.261,4.261c-2.353,0-4.261-1.908-4.261-4.261             s1.908-4.261,4.261-4.261C173.701,295.303,175.609,297.211,175.609,299.564z"/>
										</g>
										<g>
											<circle style="fill:#491634;" cx="193.566" cy="285.259" r="4.261"/>
										</g>
									</g>
									<g>
										<g>
											<path style="fill:#491634;" d="M257.344,271.91c1.392,1.898,4.059,2.307,5.956,0.916             c1.898-1.392,2.308-4.059,0.916-5.956c-1.392-1.898-4.059-2.308-5.956-0.916             C256.362,267.346,255.952,270.012,257.344,271.91z"/>
										</g>
										<g>
											<path style="fill:#491634;" d="M230.967,273.516c1.392,1.898,4.059,2.307,5.956,0.916             c1.898-1.392,2.307-4.059,0.916-5.956c-1.392-1.898-4.059-2.308-5.956-0.916             C229.985,268.952,229.575,271.618,230.967,273.516z"/>
										</g>
									</g>
								</g>
							</g>
							<g>
								<g>
									<path style="fill:#411C36;" d="M258.765,155.087c3.719-1.359,7.82,0.572,9.155,4.292l9.108,25.13           c2.694,7.415-1.168,15.617-8.583,18.311l-151.422,54.837c-7.439,2.67-15.641-1.168-18.335-8.583l-8.273-22.889           c-1.812-4.959,0.763-10.443,5.722-12.231L258.765,155.087z"/>
								</g>
								<g>
									<g>
										<circle style="fill:#FFE3BF;" cx="128.938" cy="226.313" r="14.61"/>
									</g>
									<g>
										<path style="fill:#FFE3BF;" d="M255.962,187.354c0,8.069-6.541,14.61-14.61,14.61c-8.069,0-14.61-6.541-14.61-14.61            c0-8.069,6.541-14.61,14.61-14.61C249.421,172.744,255.962,179.285,255.962,187.354z"/>
									</g>
									<g>
										<polygon style="fill:#FFE3BF;" points="148.012,205.21 157.346,232.806 223.496,208.457 213.756,181.266           "/>
									</g>
								</g>
							</g>
						</g>
					</g>
				</g>
				<g>
					<g>
						<g>
							<polygon style="fill:#FFE3BF;" points="175.135,112.354 183.798,67.68 216.288,98.816        "/>
						</g>
						<g>
							<polygon style="fill:#FFC151;" points="478.603,365.622 447.616,335.487 489.266,325.877        "/>
						</g>
						<g>
							<polygon style="fill:#FFE3BF;" points="102.297,405.548 71.311,375.413 112.961,365.804        "/>
						</g>
						<g>
							<polygon style="fill:#FFA073;" points="388.931,129.826 357.945,99.691 399.594,90.082        "/>
						</g>
					</g>
					<g>
						<g>
							<path style="fill:#FFC151;" d="M351.506,72.729c-3.721,0-5.755-1.625-7.24-2.813c-1.289-1.03-2.066-1.652-3.93-1.652         c-1.864,0-2.643,0.622-3.932,1.652c-1.485,1.188-3.519,2.813-7.24,2.813c-3.72,0-5.752-1.626-7.236-2.813         c-1.288-1.03-2.065-1.652-3.926-1.652c-1.859,0-2.635,0.621-3.921,1.651c-1.483,1.188-3.514,2.814-7.232,2.814         c-3.718,0-5.749-1.626-7.232-2.814c-1.286-1.03-2.062-1.651-3.92-1.651c-1.463,0-2.65-1.186-2.65-2.65s1.186-2.65,2.65-2.65         c3.718,0,5.749,1.626,7.232,2.814c1.286,1.03,2.063,1.651,3.92,1.651c1.858,0,2.634-0.621,3.92-1.651         c1.483-1.188,3.515-2.814,7.233-2.814c3.719,0,5.752,1.626,7.236,2.813c1.289,1.03,2.065,1.652,3.927,1.652         c1.863,0,2.642-0.622,3.93-1.652c1.485-1.188,3.519-2.813,7.241-2.813c3.721,0,5.755,1.625,7.24,2.813         c1.288,1.03,2.066,1.652,3.93,1.652c1.463,0,2.65,1.186,2.65,2.65C354.156,71.543,352.969,72.729,351.506,72.729z"/>
						</g>
					</g>
					<g>
						<g>
							<path style="fill:#FFC151;" d="M196.625,390.762c-3.721,0-5.755-1.625-7.24-2.813c-1.289-1.03-2.066-1.652-3.93-1.652         s-2.643,0.622-3.932,1.652c-1.485,1.188-3.519,2.813-7.24,2.813c-3.72,0-5.752-1.626-7.236-2.813         c-1.288-1.03-2.065-1.652-3.926-1.652c-1.859,0-2.635,0.621-3.921,1.651c-1.483,1.188-3.514,2.814-7.232,2.814         s-5.75-1.626-7.232-2.814c-1.286-1.03-2.062-1.651-3.92-1.651c-1.463,0-2.65-1.186-2.65-2.65c0-1.463,1.186-2.649,2.65-2.649         c3.718,0,5.749,1.626,7.232,2.814c1.286,1.03,2.062,1.651,3.92,1.651c1.858,0,2.634-0.621,3.92-1.651         c1.483-1.188,3.515-2.814,7.233-2.814c3.719,0,5.752,1.626,7.236,2.813c1.289,1.03,2.065,1.652,3.927,1.652         c1.863,0,2.642-0.622,3.931-1.652c1.485-1.188,3.519-2.813,7.241-2.813c3.721,0,5.755,1.625,7.24,2.813         c1.288,1.03,2.066,1.652,3.93,1.652c1.463,0,2.649,1.186,2.649,2.649C199.274,389.576,198.088,390.762,196.625,390.762z"/>
						</g>
					</g>
				</g>
				<g>
					<g>
						<g>
							<g>
								<g>
									<g>
										<polygon style="fill:#FFE3BF;" points="443.706,305.184 425.823,318.833 418.873,324.163 417.628,325.11 410.778,314.674             404.629,297.346 406.992,288.77 424.203,277.636           "/>
									</g>
									<g>
										<path style="fill:#411C36;" d="M425.823,318.833l-6.949,5.33c-2.491-2.939-5.081-5.828-7.547-8.792            c-0.199-0.224-0.373-0.448-0.548-0.697l-13.077-19.876l9.291-6.028C416.358,296.317,422.983,307.127,425.823,318.833z"/>
									</g>
								</g>
								<g>
									<path style="fill:#411C36;" d="M423.57,289.477c0,2.415-1.957,4.372-4.372,4.372c-2.415,0-4.372-1.957-4.372-4.372           c0-2.414,1.957-4.372,4.372-4.372C421.613,285.105,423.57,287.063,423.57,289.477z"/>
								</g>
							</g>
							<g>
								<g>
									<path style="fill:#FFC151;" d="M302.708,424.887l-63.054-39.007l41.607-62.684l14.198-10.909l86.909-22.767           c0,0,41.222,57.428,21.445,76.101C368.99,398.5,302.708,424.887,302.708,424.887z"/>
								</g>
								<g>
									<path style="fill:#FFA073;" d="M371.052,306.757c-3.612-0.448-7.149,1.868-9.116,4.932c-1.968,3.089-2.64,6.8-3.064,10.411           c-0.523,4.782-0.673,9.589-0.423,14.372c0.2,3.313,0.548,6.65-0.075,9.888c-0.623,3.238-2.466,6.476-5.479,7.796           c-3.363,1.495-7.472,0.249-10.088-2.316c-2.615-2.59-3.91-6.252-4.458-9.888c-0.698-4.857-0.523-10.586-4.409-13.6           c-4.209-3.263-10.685-0.822-14.073,3.263c-2.217,2.665-3.661,5.878-5.978,8.419c-2.292,2.541-6.003,4.359-9.166,3.014           c-1.544-0.648-2.715-1.968-3.711-3.313c-5.654-7.746-6.725-17.759-5.554-27.448l53.078-40.699c0,0,0.075,0,0.224,0           c1.543,0.048,17.289,10.81,32.843,22.261C398.183,306.057,376.781,307.455,371.052,306.757z"/>
								</g>
								<g>
									<path style="fill:#FF6A6C;" d="M438.95,371.418L292.568,477.624c0,0-61.472-23.314-78.858-102.595l67.549-51.833           c1.345,1.196,2.466,2.64,3.188,4.309c2.491,5.803-0.324,12.404-2.615,18.282c-2.665,6.8-4.683,13.824-6.028,20.997           c-1.37,7.273-1.121,16.564,5.505,19.926c4.06,2.042,9.116,0.822,12.927-1.669c3.811-2.491,6.725-6.077,9.963-9.315           c4.209-4.209,9.191-7.921,14.944-9.515c5.779-1.619,12.429-0.847,16.962,3.063c4.135,3.537,6.003,9.042,9.764,12.977           c3.736,3.935,11.383,5.355,13.898,0.548c0.897-1.718,0.872-3.761,0.772-5.679c-0.299-7.298-0.872-14.77,1.195-21.794           c4.658-15.841,23.015-25.306,39.304-22.517c16.289,2.79,29.64,15.891,35.643,31.284           C437.605,366.461,438.402,368.927,438.95,371.418z"/>
								</g>
								<g>
									<path style="fill:#FFE3BF;" d="M439.249,371.219l-0.05,0.025c-7.846-4.882-22.267-13.849-24.011-15.219           c-16.564-12.977-30.786-28.768-42.991-45.88c-6.028-8.469-11.557-17.286-16.663-26.328           c-1.843-3.238-5.131-7.796-6.775-12.229c3.188,0.1,39.902,1.768,64.212,30.96           C438.402,333.06,439.249,371.219,439.249,371.219z"/>
								</g>
								<g>
									<g>
										<g>
											<path style="fill:#FFFFFF;" d="M422.258,334.334c-0.421,1.106-0.48,2.317-0.436,3.5             c0.139,3.699,1.243,7.299,2.621,10.735c0.983,2.452,2.358,5.081,4.856,5.938c0.468,0.16,0.994,0.247,1.448,0.051             c0.649-0.28,0.939-1.031,1.101-1.719c0.808-3.439,0.045-7.04-0.915-10.44             C430.241,339.95,425.063,326.955,422.258,334.334z"/>
										</g>
										<g>
											<circle style="fill:#FFFFFF;" cx="421.821" cy="325.964" r="3.021"/>
										</g>
									</g>
									<g>
										<path style="fill:#FFFFFF;" d="M230.096,366.698c-2.843,2.08-5.695,4.341-7.402,7.422            c-1.224,2.208-1.482,5.549,0.738,6.751c1.338,0.725,2.986,0.315,4.424-0.183c6.514-2.256,12.449-5.985,17.757-10.384            c2.6-2.155,5.191-4.694,5.895-7.996c1.048-4.911-3.892-6.195-7.542-4.762            C239.127,359.446,234.271,363.644,230.096,366.698z"/>
									</g>
								</g>
							</g>
						</g>
						<g>
							<path style="fill:#FFFFFF;" d="M408.499,272.161c-1.149-0.652-2.515-0.777-3.834-0.852         c-8.522-0.487-17.179,0.47-25.538-1.259c-7.513-1.554-14.558-5.302-20.045-10.663c-3.3-3.225-6.115-7.189-6.904-11.735         c-0.789-4.546,0.846-9.709,4.772-12.133c3.69-2.278,9.16-2.247,11.177-6.086c1.213-2.31,0.549-5.231-0.907-7.396         c-1.456-2.165-3.586-3.766-5.577-5.45c-6.167-5.217-11.331-11.615-15.13-18.744c-3.28-6.156-5.566-13.005-5.4-19.978         c0.206-8.662,4.32-17.068,10.721-22.909c6.4-5.84,14.953-9.143,23.605-9.613c9.655-0.525,19.796,2.663,26.267,9.848         c6.165,6.845,8.37,16.352,9.383,25.508c1.014,9.156,1.086,18.53,3.919,27.296c0.573,1.773,1.368,3.645,2.986,4.569         c3.509,2.006,7.43-1.661,10.036-4.751c3.874-4.596,8.435-8.835,14.036-11.016c5.601-2.181,12.408-1.977,17.155,1.71         c2.622,2.037,4.442,4.97,5.614,8.077c3.97,10.529,0.57,22.849-6.553,31.56c-7.123,8.711-17.449,14.252-28.066,17.977         c-6.695,2.349-14.491,4.832-17.131,11.418c-1.435,3.58-0.791,7.332-0.077,10.977         C411.376,276.571,410.877,273.511,408.499,272.161z"/>
						</g>
					</g>
					<g>
						<g>
							<polygon style="fill:#FFE3BF;" points="381.563,186.433 381.837,165.407 387.648,185.524 405.977,183.451 390.204,190.539          396.543,207.502 385.893,193.457 378.917,209.937 381.262,193.539 361.607,187.806        "/>
						</g>
						<g>
							<polygon style="fill:#FFE3BF;" points="437.841,209.649 446.789,190.62 443.757,211.339 461.303,217.034 444.01,216.962          442.763,235.027 438.878,217.835 425.709,229.953 434.627,215.994 419.105,202.644        "/>
						</g>
						<g>
							<polygon style="fill:#FFE3BF;" points="375.496,242.045 370.383,221.648 381.147,239.609 398.336,232.916 384.901,243.803          395.367,258.58 381.479,247.728 378.951,265.443 377.023,248.991 356.556,248.477        "/>
						</g>
					</g>
				</g>
			</g>
		</g>
	</g>
</g>















</svg>
