<?xml version="1.0" encoding="UTF-8"?>
<!-- Generator: Adobe Illustrator 25.3.1, SVG Export Plug-In . SVG Version: 6.00 Build 0)  -->
<svg xmlns="http://www.w3.org/2000/svg" xmlns:xlink="http://www.w3.org/1999/xlink" version="1.1" id="Capa_1" x="0px" y="0px" viewBox="0 0 512 512" style="enable-background:new 0 0 512 512;" xml:space="preserve" width="512" height="512">
<g>
	<g>
		<path style="fill:#FFFFFF;" d="M83.713,500.741c-6.411,0-12.286-4.229-14.114-10.682l-9.942-35.11H17.281    c-7.833,0-14.285-6.151-14.66-13.975c-1.159-24.177-2.502-56.026-2.61-87.987C-0.119,310.65,0.806,267.6,8.652,225.889    C26.542,130.781,98.499,46.402,193.332,21.116C247.987,6.543,305.061,6.608,356.579,31.655    c44.446,21.608,79.643,60.119,102.484,103.466C507.924,227.85,511.561,337.679,512,440.21c0.017,3.903-1.523,7.653-4.277,10.419    c-2.754,2.765-6.496,4.32-10.4,4.32H259.113L87.465,500.253C86.212,500.582,84.952,500.741,83.713,500.741z"/>
	</g>
	<g>
		<g>
			<g>
				<path style="fill:#FF6A6C;" d="M497.323,440.271c0,0-480.042,0-480.042,0c0,0-2.179-127.895-1.698-140.007      c1.842-46.377,8.852-93.833,28.004-136.878c29.01-65.202,95.124-113.55,163.274-130.75c5.694-1.437,11.499-2.756,17.417-3.743      l161.905,37.152c0.071,0.051,0.139,0.102,0.202,0.152c56.771,45.093,85.562,121.193,97.872,192.333      c5.291,30.576,7.91,61.541,9.52,92.508C494.126,357.743,497.56,440.271,497.323,440.271z"/>
			</g>
			<g>
				<g>
					<path style="fill:#411C36;" d="M385.847,179.846c-4.003,0-6.192-1.748-7.789-3.026c-1.386-1.108-2.223-1.777-4.229-1.777       s-2.844,0.67-4.23,1.777c-1.598,1.278-3.786,3.026-7.789,3.026c-4.002,0-6.189-1.75-7.785-3.026       c-1.387-1.108-2.222-1.777-4.225-1.777c-2,0-2.835,0.668-4.219,1.776c-1.595,1.278-3.781,3.028-7.781,3.028       s-6.186-1.75-7.781-3.028c-1.384-1.108-2.219-1.776-4.218-1.776c-1.574,0-2.851-1.276-2.851-2.851s1.276-2.851,2.851-2.851       c4,0,6.186,1.75,7.781,3.028c1.384,1.108,2.219,1.776,4.217,1.776c1.999,0,2.834-0.668,4.218-1.776       c1.595-1.278,3.782-3.028,7.782-3.028c4.002,0,6.188,1.75,7.785,3.026c1.387,1.108,2.222,1.777,4.225,1.777       c2.004,0,2.842-0.67,4.229-1.777c1.598-1.278,3.786-3.026,7.791-3.026c4.003,0,6.191,1.748,7.789,3.026       c1.386,1.108,2.223,1.777,4.229,1.777c1.574,0,2.851,1.276,2.851,2.851S387.422,179.846,385.847,179.846z"/>
				</g>
			</g>
			<g>
				<g>
					<g>
						<polygon style="fill:#FFE3BF;" points="421.814,156.196 410.886,159.41 385.071,126.035 71.585,202.787 85.368,246.781         74.517,249.275 58.185,215.272 56.133,188.876 406.387,102.354       "/>
					</g>
					<g>
						<polygon style="fill:#411C36;" points="74.517,249.275 61.069,252.36 43.662,191.962 56.133,188.876       "/>
					</g>
					<g>
						<polygon style="fill:#411C36;" points="410.886,159.41 396.204,163.73 385.071,126.035 400.267,122.05       "/>
					</g>
				</g>
				<g>
					<g>
						<g>
							<path style="fill:#D26A49;" d="M240.129,50.964c0,0-19.817,39.556-30.53,59.335c-10.712,19.778-31.682,48.494-31.682,48.494         l40.966-9.314l-14.501,39.383c0,0-0.326,17.174,10.573,18.068c9.145,0.75,15.533-5.651,15.533-5.651s13.39,9.607,26.781-4.52         c0,0,13.39,5.651,24.102-6.781c0,0,25.709,0,36.421-22.039c10.712-22.039,31.601-91.544,31.601-91.544L240.129,50.964z"/>
						</g>
						<g>
							<g>
								<path style="fill:#411C36;" d="M216.561,207.915c-0.982,0-2.009-0.062-3.082-0.199c-3.378-0.432-6.077-2.888-8.027-7.298          c-2.594-5.865-2.578-12.878,0.048-19.246c3.38-8.191,9.481-23.244,12.358-32.029c4.078-12.439,2.205-31.199,2.183-31.386          c-0.06-0.592,0.37-1.122,0.963-1.182c0.542-0.07,1.12,0.367,1.182,0.96c0.081,0.786,1.94,19.4-2.279,32.28          c-2.9,8.851-9.023,23.96-12.415,32.179c-2.401,5.825-2.427,12.224-0.072,17.552c1.624,3.673,3.755,5.702,6.33,6.032          c9.486,1.22,14.954-3.985,15.955-5.041c1.988-2.097,12.109-24.574,15.009-34.869c0.16-0.571,0.752-0.905,1.328-0.744          c0.573,0.161,0.908,0.756,0.745,1.329c-2.893,10.271-13.055,33.165-15.52,35.766          C230.259,203.085,225.199,207.915,216.561,207.915z"/>
							</g>
							<g>
								<path style="fill:#411C36;" d="M240.825,205.485c-6.02,0-9.952-2.891-10.181-3.065c-0.475-0.357-0.569-1.03-0.213-1.505          c0.354-0.477,1.027-0.576,1.505-0.217c0.291,0.215,7.145,5.196,16.581,0.872c10.186-4.667,17.866-23.566,21.144-31.637          c0.225-0.551,0.855-0.812,1.405-0.592c0.552,0.225,0.817,0.853,0.592,1.405c-3.375,8.307-11.28,27.761-22.243,32.784          C246.262,204.973,243.36,205.485,240.825,205.485z"/>
							</g>
							<g>
								<path style="fill:#411C36;" d="M265.067,199.456c-4.761,0-8.222-1.706-8.285-1.738c-0.53-0.269-0.741-0.915-0.473-1.445          c0.268-0.53,0.913-0.744,1.445-0.477c0.406,0.204,10.05,4.91,18.874-3.086c9.211-8.349,14.529-21.917,14.582-22.052          c0.217-0.555,0.831-0.837,1.395-0.616c0.554,0.214,0.829,0.838,0.616,1.393c-0.222,0.576-5.559,14.183-15.145,22.871          C273.629,198.338,268.923,199.456,265.067,199.456z"/>
							</g>
						</g>
					</g>
					<g>
						<path style="fill:#FFC151;" d="M386.167,66.052c-2.495,5.651-4.77,9.907-6.507,11.742c-8.464,8.953-25.392,0-25.392,0        l-4.55,9.589l-3.914,8.293l-2.128-0.734h-0.024l-16.561-5.822l-90.216-31.703l-5.455-1.932l4.256-17.882        c0,0-5.92-2.642-11.399-8.708c39.237-6.972,79.697-4.11,116.806,10.739c12.622,5.064,24.438,11.546,35.47,19.252        C379.832,61.159,383.036,63.557,386.167,66.052z"/>
					</g>
				</g>
				<g>
					<g>
						<polygon style="fill:#411C36;" points="122.419,475.853 83.722,486.061 20.701,263.52 57.007,253.466 201.147,317.771               "/>
					</g>
					<g>
						<polygon style="fill:#7657AA;" points="494.015,377.76 122.419,475.853 76.651,320.267 74.234,312.039 57.007,253.466         442.821,146.657 455.06,201.964 456.783,209.729       "/>
					</g>
				</g>
				<g>
					<g>
						<g>
							<g>
								<g>
									
										<ellipse transform="matrix(0.9682 -0.2503 0.2503 0.9682 -88.8693 55.0329)" style="fill:#411C36;" cx="171.908" cy="376.875" rx="61.71" ry="63.898"/>
								</g>
								<g>
									<path style="fill:#FFE3BF;" d="M172.886,436.594c-25.953,0.001-49.927-18.143-56.936-45.251           c-4.001-15.471-1.942-31.522,5.795-45.196c7.74-13.677,20.234-23.338,35.183-27.203c14.954-3.864,30.566-1.47,43.962,6.739           c13.394,8.209,22.976,21.251,26.975,36.724l0,0c4.001,15.473,1.942,31.523-5.795,45.197           c-7.74,13.677-20.234,23.338-35.183,27.203C182.214,436.014,177.518,436.592,172.886,436.594z M171.037,317.771           c-4.658,0-9.336,0.59-13.951,1.783c-14.78,3.822-27.138,13.376-34.791,26.902c-7.656,13.531-9.694,29.415-5.733,44.728           c8.172,31.608,39.653,50.9,70.168,43.01c14.78-3.822,27.138-13.376,34.791-26.902c7.656-13.531,9.694-29.415,5.733-44.729           l0,0c-3.958-15.313-13.44-28.22-26.693-36.343C191.445,320.636,181.294,317.771,171.037,317.771z"/>
								</g>
							</g>
							<g>
								<path style="fill:#FFE3BF;" d="M172.188,400.299c-11.151,0-21.45-7.791-24.46-19.433c-1.718-6.645-0.834-13.538,2.489-19.41          c3.328-5.877,8.695-10.027,15.119-11.688c6.421-1.657,13.134-0.633,18.886,2.895c5.755,3.525,9.868,9.125,11.586,15.77          c3.547,13.719-4.35,27.67-17.606,31.098C176.197,400.051,174.178,400.299,172.188,400.299z M171.397,349.626          c-1.971,0-3.949,0.25-5.903,0.755c-6.256,1.617-11.486,5.662-14.725,11.387c-3.244,5.73-4.106,12.457-2.429,18.941          c3.459,13.38,16.765,21.549,29.706,18.213c12.917-3.341,20.611-16.947,17.152-30.329c-1.677-6.485-5.69-11.95-11.304-15.389          C180.035,350.838,175.74,349.626,171.397,349.626z"/>
							</g>
						</g>
						<g>
							<g>
								<g>
									
										<ellipse transform="matrix(0.9788 -0.2046 0.2046 0.9788 -53.4577 92.2598)" style="fill:#411C36;" cx="419.378" cy="304.615" rx="52.956" ry="60.815"/>
								</g>
								<g>
									<path style="fill:#FFE3BF;" d="M422.114,361.269c-23.619,0-45.592-19.189-51.301-46.5           c-6.424-30.729,10.136-60.284,36.915-65.884c26.762-5.602,53.79,14.847,60.214,45.577           c6.424,30.73-10.136,60.285-36.915,65.884C428.05,360.968,425.069,361.269,422.114,361.269z M416.643,248.532           c-2.919,0-5.86,0.296-8.801,0.911c-26.469,5.535-42.83,34.787-36.471,65.208c6.357,30.422,33.067,50.67,59.54,45.135           c26.469-5.534,42.83-34.787,36.471-65.208C461.731,267.537,439.994,248.532,416.643,248.532z"/>
								</g>
							</g>
							<g>
								<path style="fill:#FFE3BF;" d="M420.437,326.831c-4.319,0-8.602-1.483-12.367-4.335c-4.878-3.696-8.299-9.246-9.634-15.63          c-2.759-13.194,4.36-25.885,15.869-28.291c5.58-1.165,11.349,0.229,16.24,3.934c4.878,3.694,8.299,9.245,9.634,15.629          c1.335,6.384,0.423,12.841-2.566,18.182c-2.996,5.352-7.721,8.943-13.304,10.11          C423.024,326.699,421.729,326.831,420.437,326.831z M418.174,278.744c-1.254,0-2.508,0.129-3.755,0.389          c-11.199,2.342-18.12,14.731-15.425,27.615c1.307,6.249,4.651,11.68,9.419,15.292c4.759,3.602,10.361,4.958,15.781,3.829          c5.416-1.132,10.005-4.624,12.919-9.83c2.922-5.22,3.813-11.536,2.506-17.785l0,0c-1.307-6.249-4.651-11.68-9.419-15.291          C426.535,280.19,422.369,278.744,418.174,278.744z"/>
							</g>
						</g>
					</g>
					<g>
						<path style="fill:#FFE3BF;" d="M97.068,329.608c0,3.384-2.743,6.127-6.127,6.127c-3.384,0-6.127-2.743-6.127-6.127        c0-3.384,2.743-6.127,6.127-6.127C94.325,323.48,97.068,326.224,97.068,329.608z"/>
					</g>
					<g>
						<path style="fill:#FFE3BF;" d="M453.759,221.506c0,3.384-2.743,6.127-6.127,6.127c-3.384,0-6.127-2.743-6.127-6.127        c0-3.384,2.743-6.127,6.127-6.127C451.016,215.379,453.759,218.122,453.759,221.506z"/>
					</g>
					<g>
						<g>
							<polygon style="fill:#411C36;" points="456.783,209.729 76.651,320.267 68.629,322.607 66.443,314.302 74.234,312.039          455.06,201.964        "/>
						</g>
						<g>
							<g>
								<g>
									<g>
										<polygon style="fill:#FFA073;" points="256.704,401.712 235.04,324.575 352.551,291.422 371.48,367.465           "/>
									</g>
									<g>
										<polygon style="fill:#FFE3BF;" points="242.808,327.638 262.065,393.506 364.696,362.651 346.752,298.315           "/>
									</g>
									<g>
										<g>
											<path style="fill:#411C36;" d="M278.915,354.445c0,4.894-3.968,8.862-8.863,8.862s-8.863-3.968-8.863-8.862             c0-4.895,3.968-8.863,8.863-8.863S278.915,349.55,278.915,354.445z"/>
										</g>
										<g>
											<circle style="fill:#411C36;" cx="341.391" cy="334.969" r="8.863"/>
										</g>
										<g>
											<path style="fill:#411C36;" d="M294.89,384.52c-0.038,0-0.076-0.004-0.115-0.011c-0.349-0.063-0.58-0.398-0.518-0.747             l0.776-4.27c0.917-5.03,4.527-9.061,9.424-10.522l19.632-5.853c5.134-1.529,10.676,0.118,14.142,4.194l2.009,2.363             c0.229,0.271,0.198,0.676-0.074,0.907c-0.265,0.229-0.676,0.199-0.905-0.073l-2.009-2.363             c-3.137-3.691-8.168-5.179-12.795-3.795l-19.632,5.853c-4.431,1.321-7.697,4.968-8.526,9.518l-0.776,4.27             C295.465,384.302,295.196,384.52,294.89,384.52z"/>
										</g>
									</g>
									<g>
										<path style="fill:#411C36;" d="M292.446,354.651c-1.111,0-2.212-0.291-3.206-0.862c-1.495-0.859-2.566-2.243-3.015-3.897            c-0.447-1.655-0.222-3.391,0.638-4.886c0.858-1.497,2.243-2.567,3.899-3.015l28.306-7.658            c1.653-0.448,3.39-0.223,4.885,0.637c1.498,0.859,2.568,2.243,3.015,3.899c0.927,3.428-1.106,6.972-4.536,7.9            c0,0,0,0,0,0.001l-28.306,7.658C293.571,354.575,293.007,354.651,292.446,354.651z M320.747,335.393            c-0.449,0-0.901,0.06-1.345,0.179l-28.306,7.659c-1.323,0.358-2.429,1.215-3.117,2.414            c-0.688,1.198-0.87,2.586-0.511,3.909s1.216,2.432,2.413,3.12c1.202,0.687,2.587,0.868,3.911,0.511l28.306-7.659            c2.745-0.743,4.372-3.58,3.629-6.323c-0.356-1.323-1.214-2.431-2.413-3.119            C322.517,335.627,321.636,335.393,320.747,335.393z M322.264,346.147h0.017H322.264z"/>
									</g>
								</g>
								<g>
									<g>
										
											<rect x="241.961" y="269.831" transform="matrix(0.9613 -0.2754 0.2754 0.9613 -88.5399 80.744)" style="fill:#411C36;" width="2.569" height="171.634"/>
									</g>
									<g>
										
											<rect x="359.473" y="237.023" transform="matrix(0.9669 -0.255 0.255 0.9669 -70.6153 102.6911)" style="fill:#411C36;" width="2.569" height="173.353"/>
									</g>
									<g>
										
											<rect x="231.132" y="302.28" transform="matrix(0.9593 -0.2823 0.2823 0.9593 -73.8042 94.9217)" style="fill:#411C36;" width="122.703" height="2.572"/>
									</g>
								</g>
							</g>
							<g>
								<g>
									<polygon style="fill:#FFE3BF;" points="234.493,286.936 240.401,306.193 338.436,276.651 333.622,257.832          "/>
								</g>
								<g>
									<g>
										<path style="fill:#7657AA;" d="M242.937,306.353c-0.208,0-0.399-0.136-0.461-0.345l-4.03-13.854            c-0.072-0.254,0.074-0.52,0.327-0.594c0.26-0.076,0.518,0.073,0.595,0.326l4.03,13.854            c0.072,0.254-0.074,0.52-0.327,0.594C243.025,306.347,242.98,306.353,242.937,306.353z"/>
									</g>
									<g>
										<path style="fill:#7657AA;" d="M251.09,303.98c-0.208,0-0.399-0.136-0.461-0.345l-2.879-9.896            c-0.072-0.254,0.074-0.52,0.327-0.594c0.265-0.081,0.521,0.074,0.595,0.326l2.879,9.896            c0.072,0.254-0.074,0.52-0.327,0.594C251.178,303.974,251.133,303.98,251.09,303.98z"/>
									</g>
									<g>
										<path style="fill:#7657AA;" d="M259.245,301.608c-0.208,0-0.399-0.136-0.461-0.345l-2.974-10.226            c-0.072-0.254,0.074-0.52,0.327-0.594c0.26-0.075,0.521,0.073,0.595,0.326l2.974,10.226            c0.072,0.254-0.074,0.52-0.327,0.594C259.334,301.602,259.288,301.608,259.245,301.608z"/>
									</g>
									<g>
										<path style="fill:#7657AA;" d="M267.399,299.237c-0.208,0-0.399-0.136-0.461-0.345l-4.03-13.855            c-0.072-0.254,0.074-0.52,0.327-0.594c0.263-0.081,0.518,0.073,0.595,0.326l4.03,13.855            c0.072,0.254-0.074,0.52-0.327,0.594C267.487,299.231,267.442,299.237,267.399,299.237z"/>
									</g>
									<g>
										<path style="fill:#7657AA;" d="M290.857,292.414c-0.208,0-0.399-0.136-0.461-0.345l-4.03-13.854            c-0.072-0.254,0.074-0.52,0.327-0.594c0.263-0.079,0.521,0.074,0.595,0.326l4.03,13.854            c0.072,0.254-0.074,0.52-0.327,0.594C290.946,292.408,290.9,292.414,290.857,292.414z"/>
									</g>
									<g>
										<path style="fill:#7657AA;" d="M275.552,296.865c-0.208,0-0.399-0.136-0.461-0.345l-2.814-9.676            c-0.072-0.254,0.074-0.52,0.327-0.594c0.265-0.076,0.521,0.073,0.595,0.326l2.814,9.676            c0.072,0.254-0.074,0.52-0.327,0.594C275.64,296.859,275.595,296.865,275.552,296.865z"/>
									</g>
									<g>
										<path style="fill:#7657AA;" d="M283.707,294.493c-0.208,0-0.399-0.136-0.461-0.345l-2.752-9.456            c-0.072-0.254,0.074-0.52,0.327-0.594c0.26-0.076,0.518,0.073,0.595,0.326l2.752,9.456            c0.072,0.254-0.074,0.52-0.327,0.594C283.796,294.487,283.75,294.493,283.707,294.493z"/>
									</g>
									<g>
										<path style="fill:#7657AA;" d="M313.186,285.918c-0.208,0-0.399-0.136-0.461-0.345l-4.03-13.854            c-0.072-0.254,0.074-0.52,0.327-0.594c0.265-0.078,0.521,0.073,0.595,0.326l4.03,13.854            c0.072,0.254-0.074,0.52-0.327,0.594C313.274,285.912,313.229,285.918,313.186,285.918z"/>
									</g>
									<g>
										<path style="fill:#7657AA;" d="M297.883,290.37c-0.208,0-0.399-0.136-0.461-0.345l-2.816-9.676            c-0.074-0.254,0.074-0.52,0.327-0.594c0.26-0.081,0.521,0.073,0.595,0.326l2.816,9.676            c0.072,0.254-0.074,0.52-0.327,0.594C297.971,290.364,297.926,290.37,297.883,290.37z"/>
									</g>
									<g>
										<path style="fill:#7657AA;" d="M306.036,287.998c-0.208,0-0.399-0.136-0.461-0.345l-2.75-9.455            c-0.072-0.254,0.074-0.52,0.327-0.594c0.26-0.076,0.518,0.073,0.595,0.326l2.75,9.455c0.072,0.254-0.074,0.52-0.327,0.594            C306.125,287.992,306.079,287.998,306.036,287.998z"/>
									</g>
									<g>
										<path style="fill:#7657AA;" d="M336.394,279.167c-0.208,0-0.399-0.136-0.461-0.345l-4.03-13.854            c-0.072-0.254,0.074-0.52,0.327-0.594c0.26-0.079,0.521,0.074,0.595,0.326l4.03,13.854            c0.072,0.254-0.074,0.52-0.327,0.594C336.482,279.161,336.437,279.167,336.394,279.167z"/>
									</g>
									<g>
										<path style="fill:#7657AA;" d="M321.088,283.619c-0.208,0-0.399-0.136-0.461-0.345l-2.814-9.676            c-0.072-0.254,0.074-0.52,0.327-0.594c0.26-0.075,0.518,0.074,0.595,0.326l2.814,9.676            c0.072,0.254-0.074,0.52-0.327,0.594C321.177,283.613,321.131,283.619,321.088,283.619z"/>
									</g>
									<g>
										<path style="fill:#7657AA;" d="M329.244,281.248c-0.208,0-0.399-0.136-0.461-0.345l-2.752-9.456            c-0.072-0.254,0.074-0.52,0.327-0.594c0.265-0.078,0.518,0.073,0.595,0.326l2.752,9.456            c0.072,0.254-0.074,0.52-0.327,0.594C329.332,281.242,329.287,281.248,329.244,281.248z"/>
									</g>
								</g>
							</g>
						</g>
					</g>
					<g>
						<g>
							
								<rect x="137.579" y="232.102" transform="matrix(0.9517 -0.307 0.307 0.9517 -74.4021 55.3942)" style="fill:#411C36;" width="2.57" height="64.152"/>
						</g>
						<g>
							<path style="fill:#411C36;" d="M101.774,288.44c-9.035,0-16.385-7.349-16.385-16.384c0-9.035,7.351-16.384,16.385-16.384         s16.383,7.349,16.383,16.384C118.157,281.09,110.808,288.44,101.774,288.44z M101.774,258.242         c-7.618,0-13.815,6.197-13.815,13.814c0,7.617,6.197,13.814,13.815,13.814c7.616,0,13.812-6.197,13.812-13.814         C115.586,264.439,109.389,258.242,101.774,258.242z"/>
						</g>
						<g>
							<path style="fill:#411C36;" d="M424.108,184.087c0,8.339-6.76,15.099-15.099,15.099c-8.339,0-15.099-6.76-15.099-15.099         c0-8.339,6.76-15.099,15.099-15.099C417.348,168.987,424.108,175.747,424.108,184.087z"/>
						</g>
						<g>
							<polygon style="fill:#FFE3BF;" points="145.429,241.857 154.292,272.712 370.933,211.003 362.398,179.819        "/>
						</g>
					</g>
				</g>
			</g>
			<g>
				<g>
					<g>
						<g>
							<path style="fill:#411C36;" d="M389.972,97.114c-4.003,0-6.191-1.748-7.789-3.026c-1.387-1.108-2.223-1.778-4.229-1.778         c-2.006,0-2.844,0.67-4.23,1.778c-1.598,1.278-3.786,3.026-7.789,3.026c-4.002,0-6.188-1.75-7.785-3.026         c-1.386-1.108-2.222-1.778-4.225-1.778c-2,0-2.835,0.668-4.219,1.776c-1.595,1.278-3.781,3.027-7.781,3.027         c-4.001,0-6.186-1.75-7.781-3.027c-1.384-1.108-2.219-1.776-4.217-1.776c-1.574,0-2.851-1.276-2.851-2.851         c0-1.574,1.276-2.851,2.851-2.851c4.001,0,6.186,1.75,7.781,3.028c1.384,1.108,2.219,1.776,4.218,1.776         s2.834-0.668,4.217-1.776c1.595-1.278,3.782-3.028,7.782-3.028c4.002,0,6.189,1.75,7.785,3.026         c1.386,1.108,2.221,1.777,4.224,1.777c2.004,0,2.842-0.67,4.229-1.777c1.598-1.278,3.786-3.026,7.791-3.026         c4.003,0,6.191,1.748,7.789,3.026c1.387,1.108,2.223,1.777,4.229,1.777c1.574,0,2.851,1.276,2.851,2.851         S391.546,97.114,389.972,97.114z"/>
						</g>
					</g>
					<g>
						<g>
							<path style="fill:#411C36;" d="M128.816,207.424c-4.003,0-6.191-1.748-7.789-3.026c-1.387-1.108-2.223-1.778-4.229-1.778         c-2.006,0-2.844,0.67-4.23,1.778c-1.598,1.278-3.786,3.026-7.789,3.026c-4.002,0-6.189-1.75-7.785-3.026         c-1.386-1.108-2.221-1.778-4.225-1.778c-2,0-2.835,0.668-4.219,1.776c-1.595,1.278-3.78,3.027-7.781,3.027         c-4.001,0-6.186-1.75-7.781-3.027c-1.384-1.108-2.219-1.776-4.218-1.776c-1.574,0-2.851-1.276-2.851-2.851         c0-1.574,1.276-2.851,2.851-2.851c4.001,0,6.186,1.75,7.781,3.027c1.384,1.108,2.219,1.776,4.217,1.776         s2.834-0.668,4.217-1.776c1.595-1.278,3.782-3.027,7.782-3.027c4.002,0,6.189,1.75,7.785,3.026         c1.386,1.108,2.221,1.777,4.225,1.777c2.004,0,2.842-0.67,4.229-1.777c1.598-1.278,3.786-3.026,7.791-3.026         c4.003,0,6.191,1.748,7.789,3.026c1.387,1.108,2.223,1.777,4.229,1.777c1.574,0,2.851,1.276,2.851,2.851         C131.667,206.148,130.39,207.424,128.816,207.424z"/>
						</g>
					</g>
					<g>
						<g>
							<path style="fill:#411C36;" d="M483.273,415.586c-4.003,0-6.191-1.748-7.789-3.026c-1.386-1.108-2.223-1.778-4.229-1.778         c-2.006,0-2.844,0.67-4.23,1.778c-1.598,1.278-3.786,3.026-7.789,3.026c-4.002,0-6.189-1.75-7.785-3.026         c-1.387-1.108-2.222-1.778-4.225-1.778c-2,0-2.835,0.668-4.219,1.776c-1.595,1.278-3.781,3.027-7.781,3.027         c-4,0-6.186-1.75-7.781-3.027c-1.384-1.108-2.219-1.776-4.217-1.776c-1.574,0-2.851-1.276-2.851-2.851         c0-1.574,1.276-2.851,2.851-2.851c4,0,6.186,1.75,7.781,3.027c1.384,1.108,2.219,1.776,4.217,1.776         c1.999,0,2.834-0.668,4.218-1.776c1.595-1.278,3.782-3.027,7.782-3.027c4.002,0,6.189,1.75,7.785,3.026         c1.387,1.108,2.222,1.777,4.225,1.777c2.004,0,2.842-0.67,4.229-1.777c1.598-1.278,3.786-3.026,7.791-3.026         c4.003,0,6.191,1.748,7.789,3.026c1.386,1.108,2.223,1.777,4.229,1.777c1.574,0,2.851,1.276,2.851,2.851         C486.124,414.309,484.848,415.586,483.273,415.586z"/>
						</g>
					</g>
				</g>
				<g>
					<g>
						<polygon style="fill:#FFFFFF;" points="114.388,138.784 123.709,90.721 158.665,124.22       "/>
					</g>
					<g>
						<polygon style="fill:#FFC151;" points="364.297,433.863 330.96,401.441 375.77,391.102       "/>
					</g>
					<g>
						<polygon style="fill:#FFE3BF;" points="55.694,418.578 22.356,386.157 67.166,375.818       "/>
					</g>
					<g>
						<polygon style="fill:#FFA073;" points="381.752,173.612 348.415,141.19 393.225,130.851       "/>
					</g>
				</g>
			</g>
		</g>
	</g>
</g>















</svg>
