<?xml version="1.0" encoding="UTF-8"?>
<!-- Generator: Adobe Illustrator 25.3.1, SVG Export Plug-In . SVG Version: 6.00 Build 0)  -->
<svg xmlns="http://www.w3.org/2000/svg" xmlns:xlink="http://www.w3.org/1999/xlink" version="1.1" id="Capa_1" x="0px" y="0px" viewBox="0 0 511.877 511.877" style="enable-background:new 0 0 511.877 511.877;" xml:space="preserve" width="512" height="512">
<g>
	<g>
		<path style="fill:#FFFFFF;" d="M259.126,467.268c-13.133-0.043-26.266-1.306-39.182-3.822    C122.883,444.541,49.231,355.04,49.231,256.232c0-20.799,3.062-41.633,9.123-61.527c-0.106,0.349-14.909-7.493-16.058-8.219    C19.203,171.897,5.54,147.507,1.199,120.829c-2.423-14.892-1.839-32.236,8.065-44.501c17.682-21.935,33.966-31.72,52.792-31.72    c13.943,0,29.041,5.442,50.483,18.201c9.549,5.679,18.166,12.968,25.011,21.742c2.888-2.065,5.843-4.068,8.851-5.999    c33.938-21.833,73.324-33.378,113.887-33.378c20.068,0,39.955,2.837,59.154,8.44c5.825-0.685,11.632-1.032,17.299-1.032    c25.502,0,43.411,6.942,51.819,11.081c2.536,1.246,4.808,2.941,6.727,4.984c5.065,0.472,9.652,2.878,12.925,6.784    c6.854,8.178,5.525,20.957-2.876,27.507c16.399,15.495,30.091,33.352,40.817,53.262c1.307,1.161,2.58,2.363,3.813,3.596    c2.379,0.422,4.662,1.307,6.721,2.623c0,0,45.564,29.051,45.618,29.085c9.549,6.088,12.477,19.547,6.397,29.039    c0,0-7.062,11.03-7.062,11.03c-0.058,18.914-4.086,49.964-28.913,49.964c-0.967,0-1.928-0.057-2.878-0.168    c-0.762,6.354-1.749,12.388-2.946,18.028C446.673,395.689,357.401,467.593,259.126,467.268z"/>
	</g>
	<g>
		<g>
			<g>
				<path style="fill:#FFC151;" d="M460.926,256.232c0.201,53.96-22.841,107.287-62.262,144.496      c-56.939,53.743-142.708,68.491-214.66,37.912c-14.309-6.081-29.167-14.67-41.809-24.296L129.666,299.38l-61.546-1.763      c-7.785-36.774-5-75.661,8.198-110.873c11.938-31.849,33.68-62.406,60.252-84.141C195.891,54.08,280.093,44.22,348.938,77.726      C416.839,110.773,460.646,180.769,460.926,256.232z"/>
			</g>
			<g>
				<g>
					<g>
						<path style="fill:#411C36;" d="M399.494,366.648c-0.498-1.017-1.141-1.972-1.868-2.843c-2.138-2.532-4.96-4.006-7.928-4.172        l-0.104,2.013c2.408,0.125,4.712,1.349,6.496,3.466c0.851,0.996,1.536,2.159,2.034,3.383c0.851,1.993,1.204,4.213,0.955,6.289        c-0.83,7.285-6.87,12.64-10.378,15.193c-3.466,2.511-7.14,4.4-10.855,5.604v-0.415c0.166-11.125-9.464-19.842-19.053-22.706        c-2.221-0.664-5.5-1.411-8.53-0.166c-3.591,1.453-5.936,5.645-5.583,9.942c0.27,3.528,2.2,7.119,5.396,10.087        c5.106,4.732,12.39,7.181,20.008,6.766c1.785-0.104,3.611-0.374,5.417-0.789c-1.079,5.147-4.462,10.066-9.361,13.304        c-6.455,4.275-14.113,5.023-19.302,4.94c-8.489-0.166-19.883-3.611-24.034-12.827c-1.598-3.508-1.972-7.534-2.221-11.374        c-0.083-1.308-0.166-2.615-0.228-3.902c-0.332-5.728-0.685-11.664-1.993-17.372c-1.307-5.666-4.234-13.491-10.73-18.638        c-6.538-5.21-15.961-6.912-25.176-4.566c-7.575,1.93-14.985,6.434-22.062,13.408c-16.189,15.94-23.764,38.978-19.26,58.674        c1.764,7.721,5.417,15.67,10.896,23.64c2.864,4.151,5.936,7.928,9.215,11.27h1.162c0.54,0,1.1,0,1.639-0.021        c-3.694-3.591-7.16-7.742-10.357-12.391c-5.334-7.741-8.883-15.462-10.606-22.934c-4.338-19.053,3.01-41.344,18.721-56.807        c6.808-6.704,13.927-11.042,21.149-12.889c8.614-2.179,17.372-0.622,23.433,4.193c6.039,4.794,8.779,12.162,10.004,17.517        c1.287,5.542,1.619,11.374,1.951,17.019c0.083,1.308,0.145,2.615,0.228,3.923c0.27,4.026,0.664,8.26,2.387,12.079        c4.545,10.045,16.335,13.823,25.84,14.009c7.949,0.166,15.006-1.66,20.465-5.272c5.624-3.736,9.444-9.526,10.377-15.545        c4.192-1.245,8.343-3.3,12.245-6.123c6.538-4.753,10.523-10.647,11.208-16.604        C401.403,372.169,400.823,369.222,399.494,366.648z M375.792,396.162c-1.93,0.498-3.881,0.81-5.832,0.913        c-7.078,0.415-13.802-1.868-18.514-6.227c-2.843-2.636-4.525-5.749-4.774-8.759c-0.27-3.466,1.557-6.808,4.359-7.949        c0.83-0.332,1.764-0.498,2.823-0.498c1.245,0,2.698,0.249,4.358,0.747c8.883,2.636,17.787,10.627,17.621,20.755        C375.833,395.477,375.813,395.83,375.792,396.162z"/>
					</g>
				</g>
				<g>
					<g>
						<g>
							<path style="fill:#7657AA;" d="M341.127,331.27c-17.735-7.432-33.746-19.419-44.697-33.943         c-11.527-15.284-18.136-33.759-18.611-52.021c-0.48-18.434,5.264-37.426,16.177-53.479         c10.3-15.149,25.009-27.656,42.539-36.173c19.657-9.548,41.338-13.077,61.057-9.944c21.683,3.45,41.038,14.938,53.097,31.52         l-4.885,3.551c-11.125-15.299-29.045-25.907-49.161-29.108c-18.505-2.941-38.916,0.399-57.47,9.413         c-16.581,8.057-30.478,19.861-40.184,34.138c-10.207,15.013-15.58,32.744-15.135,49.924         c0.442,17.015,6.62,34.256,17.395,48.543c10.31,13.671,25.46,24.988,42.212,32.009L341.127,331.27z"/>
						</g>
					</g>
					<g>
						<g>
							<g>
								<path style="fill:#7657AA;" d="M347.483,317.394l-9.284,16.8c-1.474,2.667-0.73,6.014,1.734,7.805l43.772,31.821          c3.825,2.781,9.181,1.929,11.955-1.901l9.865-13.623l-26.567-29.53L347.483,317.394z"/>
							</g>
						</g>
						<g>
							<g>
								<path style="fill:#411C36;" d="M347.483,317.394c0,0-4.978-14.723,3.69-33.611c3.116-6.79,11.59-9.169,17.775-4.977          l64.355,43.626c6.388,4.331,7.119,13.427,1.543,18.763c-5.692,5.447-14.849,11.853-29.32,17.102L347.483,317.394z"/>
							</g>
						</g>
					</g>
					<g>
						<g>
							<g>
								<path style="fill:#7657AA;" d="M431.962,188.937L444.2,174.15c1.943-2.347,5.33-2.88,7.899-1.241l45.629,29.095          c3.987,2.543,5.154,7.839,2.604,11.822l-9.069,14.165l-34.542-11.469L431.962,188.937z"/>
							</g>
						</g>
						<g>
							<g>
								<path style="fill:#411C36;" d="M431.962,188.937c0,0-15.524,0.753-29.931,15.731c-5.18,5.384-4.293,14.142,1.871,18.363          l64.146,43.932c6.368,4.361,15.1,1.713,18.026-5.429c2.987-7.29,5.598-18.156,5.19-33.544L431.962,188.937z"/>
							</g>
						</g>
					</g>
				</g>
			</g>
			<g>
				<g>
					<path style="fill:#D26A49;" d="M273.479,287.009c-0.375,2.684-0.982,5.241-1.856,7.556       c-2.013,5.334-5.832,10.233-12.246,17.372c-2.802,3.093-10.087,9.838-20.091,18.721c-25.28,22.519-67.703,58.757-97.092,83.684       c-5.791-4.4-11.311-9.111-16.563-14.093l-1.743-1.681l-0.623-0.623c-25.321-24.844-44-56.433-53.154-91.861       c-0.726-2.802-1.39-5.625-1.992-8.468c0,0,0.041-0.041,0.062-0.041l5.998-5.562c0,0-0.041-0.122-0.122-0.365       c-5.403-16.223-6.859-34.9-2.983-51.591c4.855-20.905,18.821-37.326,38.015-46.546c2.553-1.204,5.251-2.366,8.115-3.424       l13.636-17.413l0.103-0.125c0.021,0,0.021,0,0.021-0.021l9.402-12.059c0,0,11.81-15.13,11.81-15.151       c0,0,0.963-1.209,0.975-1.224c1.066-1.339,8.87-0.404,10.388-0.431c4.873-0.088,9.772-0.166,14.598,0.628       c7.233,1.191,14.559,4.731,18.047,11.178c3.507,6.483,2.471,14.379,1.269,21.651c8.144-2.259,16.845,3.26,20.961,10.64       c4.117,7.381,4.698,16.156,5.015,24.601c6.814-0.127,13.633,2.713,18.342,7.64c3.187,3.333,5.217,7.6,6.328,12.043       c0.555,2.221,0.439,4.636,1.008,6.808c0.675,2.578,1.817,2.472,4.428,3.48c8.647,3.341,14.695,10.026,17.571,18.882       C273.512,268.613,274.674,278.455,273.479,287.009z"/>
				</g>
				<g>
					<g>
						<g>
							<path style="fill:#7657AA;" d="M132.191,135.843l22.413,12.508l134.774,168.384l1.377,1.725l5.717,7.127         c3.465,4.36,2.99,10.658-1.122,14.409l-15.85,14.525c-4.035,3.71-10.26,3.697-14.302-0.014l-6.411-5.903l-1.622-1.488         L92.679,195.751l-8.318-20.509L132.191,135.843z"/>
						</g>
						<g>
							<g>
								<path style="fill:#FFE3BF;" d="M140.988,131.353l13.616,16.998c-12.82,16.397-28.996,30.154-47.223,40.131          c-4.794,2.615-9.732,5.004-14.701,7.27l-13.074-12.027L140.988,131.353z"/>
							</g>
							<g>
								<g>
									<g>
										<path style="fill:#411C36;" d="M108.289,73.51c5.092,3.029,9.461,6.308,13.184,9.706c0.293,0.253-0.498,2.36-0.218,2.622            c0.279,0.262,1.629-1.322,1.902-1.063c22.584,21.793,20.987,48.002,20.987,48.002s-1.992,3.846-18.079,22.426            c-13.286,15.337-36.818,27.207-44.62,30.869c-1.773,0.843-3.738,1.014-5.643,0.56c-6.23-1.496-21.145-6.157-35.242-18.513            c-0.215-0.188,0.717-1.418,0.503-1.607c-0.345-0.305-1.835,0.428-2.172,0.109c-0.448-0.388-0.855-0.787-1.287-1.201            C18.42,146.868,6.656,102.003,21.072,84.153C49.326,49.1,70.204,50.85,108.289,73.51z"/>
									</g>
								</g>
								<g>
									<g>
										<path style="fill:#FFE3BF;" d="M121.473,83.216c0.587,0.506,1.138,1.043,1.684,1.559c-0.955,2.6-2.322,5.043-3.719,7.363            c-18.733,31.543-46.627,58.383-78.877,75.981c-0.561-0.491-1.122-0.981-1.668-1.498            c32.205-17.434,60.049-44.13,78.745-75.555C119.101,88.578,120.58,85.976,121.473,83.216z"/>
									</g>
								</g>
							</g>
						</g>
						<g>
							<g>
								<path style="fill:#FFE3BF;" d="M289.378,316.734l1.377,1.725c-8.366,12.101-19.407,22.523-31.968,30.145l-1.622-1.488          C269.884,339.52,281.027,328.984,289.378,316.734z"/>
							</g>
						</g>
					</g>
					<g>
						<path style="fill:#FFE3BF;" d="M196.555,239.607c-0.099,0-0.198-0.002-0.299-0.008c-1.578-0.077-3.027-0.761-4.08-1.924        l-28.409-31.358c-1.054-1.162-1.592-2.671-1.514-4.248c0.078-1.577,0.761-3.026,1.925-4.08s2.658-1.596,4.249-1.513        c1.577,0.078,3.026,0.761,4.079,1.925l28.409,31.355c1.054,1.164,1.592,2.673,1.514,4.25c-0.078,1.577-0.761,3.027-1.925,4.08        C199.416,239.073,198.023,239.607,196.555,239.607z M168.128,197.589c-1.19,0-2.317,0.431-3.198,1.23        c-0.942,0.852-1.494,2.027-1.557,3.305c-0.063,1.279,0.372,2.501,1.225,3.442l28.409,31.356        c0.853,0.942,2.026,1.496,3.305,1.559c1.267,0.065,2.501-0.373,3.442-1.225l0,0c0.942-0.853,1.494-2.025,1.557-3.305        c0.063-1.278-0.372-2.501-1.225-3.442l-28.409-31.357c-0.853-0.942-2.026-1.494-3.305-1.557        C168.291,197.591,168.209,197.589,168.128,197.589z"/>
					</g>
				</g>
				<g>
					<g>
						<path style="fill:#D26A49;" d="M230.029,321.398c-13.102,2.853-16.009-11.354-16.009-11.354s-17.059,13.031-30.028,4.316        c-12.997-8.722-8.674-25.673-8.674-25.673c-8.079-0.152-14.248-3.225-18.839-7.137c-8.416-7.145-11.583-17.116-11.583-17.116        l-47.296-64.27c5.493-3.84,11.966-7.247,19.596-10.087l35.962-45.989c0,0,25.104-3.412,37.419,4.894        c12.316,8.306,6.787,28.024,6.787,28.024s25.826-6.302,25.994,35.497c0,0,23.883-2.663,25.797,28.253        c0,0,21.189,3.859,23.51,27.124c0.889,9.102-3.221,17.775-3.979,23.004C259.841,304.728,242.051,318.8,230.029,321.398z"/>
					</g>
					<g>
						<path style="fill:#D26A49;" d="M148.857,336.857l-80.689-39.284l6.021-5.553c0,0-21.986-60.178,23.412-91.856        c5.493-3.84,11.966-7.247,19.596-10.087c0,0,74.973-5.885,78.698-0.299c3.736,5.602,7.773,24.156-1.357,31.627        c-9.13,7.471-48.741,18.239-48.741,18.239s8.069,18.067,10.682,41.907C158.329,298.531,157.43,318.445,148.857,336.857z"/>
					</g>
				</g>
				<g>
					<g>
						<path style="fill:#411C36;" d="M147.667,345.577c-0.105,0-0.214-0.016-0.319-0.051c-0.546-0.176-0.844-0.761-0.668-1.308        c7.779-24.052,12.345-44.423,9.349-65.665c-0.52-3.694-7.386-33.914-9.738-36.672c-0.224-0.053-0.428-0.176-0.577-0.362        c-0.254-0.316-0.301-0.751-0.119-1.114c0.132-0.261,0.394-0.464,0.676-0.543l0,0c0.008-0.006,0.016-0.008,0.026-0.006        c1.271-0.324,31.259-7.982,42.969-16.116c5.777-4.011,7.637-10.443,8.181-15.131c0.868-7.479-1.115-14.725-3.533-17.409        c-3.263-3.627-48.746-1.978-76.647-0.087c-0.566,0.028-1.066-0.394-1.106-0.966c-0.038-0.571,0.394-1.066,0.966-1.106        c12.218-0.827,73.419-4.684,78.33,0.769c3.161,3.511,4.902,11.695,4.051,19.037c-0.592,5.114-2.646,12.145-9.058,16.597        c-10.69,7.424-35.129,14.19-42.071,16.014c3.567,6.915,9.519,35.491,9.705,36.801c3.232,22.912-2.622,45.547-9.43,66.596        C148.512,345.297,148.105,345.577,147.667,345.577z"/>
					</g>
					<g>
						<path style="fill:#411C36;" d="M193.434,190.129c-0.162,0-0.327-0.038-0.482-0.119c-0.507-0.266-0.702-0.894-0.435-1.401        c0.098-0.188,9.795-18.984,2.605-33.581c-7.105-14.421-41.474-9.958-41.824-9.91c-0.577,0.075-1.09-0.322-1.167-0.89        c-0.076-0.568,0.322-1.09,0.89-1.167c1.475-0.2,36.205-4.697,43.963,11.05c7.661,15.555-2.205,34.658-2.629,35.464        C194.169,189.927,193.808,190.129,193.434,190.129z"/>
					</g>
					<g>
						<path style="fill:#411C36;" d="M173.817,288.034c-0.033,0-0.066,0-0.099,0c-5.964-0.038-11.701-3.542-17.052-10.412        c-0.351-0.452-0.27-1.104,0.181-1.456c0.452-0.354,0.407-0.779,0.759-0.328c4.94,6.344,10.827,10.086,16.125,10.12        c0.027,0,0.055,0,0.082,0c7.317,0,13.771-6.15,17.903-11.319c9.232-11.55,26.281-44.296,28.291-49.871        c4.057-11.243,3.342-23.324-2.067-34.935c-7.36-15.794-18.42-12.292-18.887-12.137c-0.543,0.18-1.13-0.108-1.314-0.651        c-0.183-0.541,0.103-1.128,0.645-1.314c0.129-0.043,13.266-4.314,21.437,13.226c5.647,12.118,6.386,24.746,2.138,36.517        c-2.035,5.643-19.285,38.781-28.622,50.463C186.92,283.964,180.352,288.034,173.817,288.034z"/>
					</g>
					<g>
						<path style="fill:#411C36;" d="M153.064,261.234c-0.156,0-0.315-0.036-0.465-0.111c-0.512-0.257-0.719-0.881-0.462-1.393        l12.569-25.022c0.257-0.512,0.879-0.717,1.393-0.462c0.512,0.257,0.719,0.881,0.462,1.393l-12.569,25.022        C153.81,261.023,153.444,261.234,153.064,261.234z"/>
					</g>
					<g>
						<path style="fill:#411C36;" d="M195.472,316.492c-0.103,0-0.205-0.002-0.307-0.004c-4.779-0.089-8.986-2.276-12.504-6.5        c-13.324-16.003-5.837-23.945-5.512-24.275c0.4-0.407,1.059-0.413,1.467-0.01c0.409,0.403,0.413,1.059,0.011,1.468        c-0.261,0.273-6.408,7.033,5.629,21.489c3.158,3.795,6.739,5.676,10.947,5.753c8.392,0.221,18.691-6.782,31.634-21.203        c12.468-13.893,20.139-34.793,20.842-38.223c0.036-0.178,3.41-18.178-5.074-31.895c-7.208-11.656-18.937-9.592-19.054-9.569        c-0.562,0.104-0.63-0.115-0.736-0.678c-0.106-0.563-0.211-1.255,0.352-1.361c0.135-0.023,13.253-2.339,21.204,10.517        c7.509,12.142,6.402,28.23,5.341,33.403c-0.723,3.527-8.585,24.99-21.33,39.191        C215.164,309.324,204.393,316.49,195.472,316.492z"/>
					</g>
					<g>
						<path style="fill:#411C36;" d="M229.367,322.622c-10.747,0-16.479-13.306-16.54-13.451c-0.222-0.529-0.263-1.095,0.265-1.318        c0.532-0.219,1.148-0.345,1.37,0.183c0.261,0.618,7.152,16.218,19.706,11.599c13.403-4.933,29.132-20.97,32.555-27.78        c0.257-0.514,0.882-0.719,1.393-0.462c0.512,0.257,0.719,0.881,0.462,1.393c-3.473,6.909-19.297,23.497-33.693,28.797        C232.911,322.308,231.07,322.622,229.367,322.622z"/>
					</g>
					<g>
						<path style="fill:#411C36;" d="M177.497,204.065c-0.093,0-0.187,0-0.281-0.001c-4.959-0.053-9.408-1.576-12.528-4.289        c-3.713-3.229-5.336-8.132-4.156-12.404c0.153-0.552,0.343,0.243,0.887,0.391c0.553,0.153,1.189-0.526,1.036,0.027        c-0.971,3.517,0.474,7.704,3.595,10.419c2.749,2.389,6.722,3.732,11.189,3.78c2.601,0.035,4.7-0.372,6.433-1.227        c4.031-1.987,6.225-6.41,7.995-10.894c0.212-0.535,0.818-0.797,1.346-0.584c0.534,0.21,0.795,0.813,0.584,1.346        c-1.831,4.638-4.332,9.69-9.008,11.994C182.621,203.592,180.299,204.065,177.497,204.065z"/>
					</g>
					<g>
						<path style="fill:#411C36;" d="M176.557,281.637c-1.074,0-2.156-0.308-3.107-0.946c-2.56-1.715-5.108-3.523-7.574-5.376        c-0.379-0.286-0.791-0.579-1.217-0.883c-2.251-1.602-5.051-3.596-5.914-6.435c-2.002-6.587,6.731-14.539,11.851-17.334        c2.491-1.359,4.813-1.871,6.909-1.537c1.652,0.269,3.326,1.104,4.974,2.481c2.76,2.306,4.649,5.479,5.319,8.94        c1.492,7.701-2.863,14.195-6.825,18.99C179.836,280.912,178.204,281.637,176.557,281.637z M176.229,251.101        c-1.397,0-2.953,0.464-4.639,1.385c-4.737,2.584-12.418,9.776-10.859,14.908c0.656,2.163,3.033,3.855,5.131,5.348        c0.441,0.316,0.868,0.62,1.261,0.913c2.436,1.833,4.954,3.619,7.481,5.311c1.525,1.023,3.573,0.697,4.769-0.749l0,0        c3.671-4.445,7.715-10.426,6.388-17.277c-0.579-2.991-2.217-5.741-4.612-7.741c-1.359-1.134-2.697-1.814-3.977-2.023        C176.866,251.125,176.551,251.101,176.229,251.101z"/>
					</g>
					<g>
						<path style="fill:#411C36;" d="M201.122,312.116c-0.074,0-0.149-0.002-0.224-0.008c-1.205-0.089-2.125-0.889-2.734-1.417        l-9.225-7.996c-0.393-0.34-0.859-0.697-1.351-1.073c-1.967-1.507-4.414-3.384-4.712-5.978        c-0.658-5.739,8.169-11.674,11.994-13.958c3.734-2.227,6.988-3.058,9.951-2.543c4.46,0.782,8.158,4.884,8.994,9.973        c0.655,3.979-0.266,8.416-2.739,13.19c-2.094,4.044-4.53,6.952-7.445,8.887C202.934,311.655,202.098,312.116,201.122,312.116z         M203.09,281.07c-2.111,0-4.466,0.792-7.154,2.398c-5.595,3.341-11.422,8.233-10.997,11.941        c0.197,1.717,2.258,3.297,3.913,4.566c0.527,0.403,1.027,0.788,1.448,1.152l9.226,7.996c0.001,0,0.001,0,0.002,0        c0.531,0.462,1.047,0.881,1.523,0.915c0.457,0.053,0.978-0.273,1.435-0.575c2.613-1.735,4.82-4.388,6.749-8.114        c2.262-4.368,3.114-8.371,2.534-11.899c-0.587-3.574-3.284-7.559-7.305-8.264C204.017,281.109,203.559,281.07,203.09,281.07z"/>
					</g>
					<g>
						<path style="fill:#411C36;" d="M230.339,319.414c-0.081,0-0.164-0.006-0.249-0.018c-0.592-0.077-1.008-0.45-1.257-0.674        c0,0-0.001,0-0.002-0.002c-0.46-0.415-1.077-0.911-1.771-1.468c-3.349-2.693-7.936-6.381-7.145-10.062        c0.881-4.1,7.262-8.772,10.96-9.649c2.819-0.66,5.751,0.105,7.481,1.964c2.137,2.294,2.47,6.038,0.893,10.015        c-1.494,3.768-4.163,7.099-7.516,9.38C231.477,319.074,230.975,319.414,230.339,319.414z M230.22,317.179        c0.039,0.034,0.11,0.099,0.165,0.142c0.012-0.026,0.08-0.069,0.182-0.138c3.012-2.049,5.41-5.042,6.752-8.428        c0.984-2.481,1.375-5.842-0.482-7.837c-1.229-1.32-3.382-1.851-5.484-1.357c-3.042,0.721-8.729,4.894-9.41,8.065        c-0.521,2.428,3.822,5.921,6.417,8.007C229.089,316.219,229.737,316.741,230.22,317.179L230.22,317.179z"/>
					</g>
				</g>
			</g>
			<g>
				<path style="fill:#FF6A6C;" d="M396.203,81.04l-5.682-0.5c-1.032-2.431-2.878-4.494-5.342-5.707v0.001      c-11.316-5.57-42.598-17.041-88.566-3.33c-3.548,1.058-6.273,3.776-7.442,7.158c-5.941-1.443-12.323-1.017-18.019,1.201      c-1.447-3.414-4.5-5.991-8.26-6.71c-47.137-9.016-77.086,5.555-87.782,12.235l0,0.002c-3.561,2.223-5.537,6.254-5.233,10.377      l-5.542,1.892c-3.53,1.205-5.414,5.044-4.209,8.574c1.205,3.53,5.044,5.414,8.574,4.209l4.19-1.431      c2.06,7.929,4.866,17.413,8.299,25.856c3.889,9.564,12.081,13.696,22.855,14.643c12.757,1.122,29.136-2.224,46.253-6.306      c25.536-6.086,24.322-40.686,22.026-57.985c5.039-2.176,10.827-2.588,16.133-1.158c-0.585,17.309,1.529,52.361,27.744,55.871      c6.142,0.823,12.183,1.565,17.981,2.075c24.576,2.161,44.802,0.174,49.935-17.336c3.007-10.258,5.015-21.846,6.248-30.584      l4.656,0.409c3.716,0.327,6.993-2.42,7.319-6.136C402.666,84.643,399.918,81.366,396.203,81.04z M266.631,116.634      l-81.743,12.816c-0.776-2.065-1.517-4.169-2.218-6.282l84.915-12.542C267.362,112.658,267.051,114.671,266.631,116.634z       M175.916,98.576c9.835-3.156,49.964-15.015,90.991-13.042c0.223,1.64,0.438,3.451,0.622,5.395l-90.149,13.786      C176.82,102.469,176.331,100.401,175.916,98.576z M267.919,96.342c0.14,2.811,0.182,5.764,0.068,8.755l-86.975,12.846      c-0.827-2.728-1.585-5.407-2.272-7.963L267.919,96.342z M177.977,89.977l0,0.002c10.155-6.344,38.65-20.157,83.899-11.513      c1.149,0.22,2.169,0.778,2.974,1.553c-39.398-1.411-77.456,9.302-89.264,12.988C176.014,91.778,176.83,90.693,177.977,89.977z       M187.043,134.59l77.976-12.225c-0.732,2.033-1.628,3.95-2.702,5.715l-0.079-0.417l-68.64,13.071l0.081,0.427      C190.861,139.631,188.61,137.484,187.043,134.59z M249.04,137.941c-16.657,3.971-32.521,7.246-44.357,6.189l52.283-9.956      C254.754,135.892,252.145,137.201,249.04,137.941z M379.89,119.657l-82.616-4.513c-0.616-1.911-1.128-3.883-1.555-5.883      l85.745,3.921C380.98,115.355,380.454,117.523,379.89,119.657z M382.586,107.816L294.76,103.8      c-0.414-2.964-0.67-5.906-0.815-8.717l90.1,4.581C383.619,102.276,383.135,105.019,382.586,107.816z M384.869,94.289      l-91.081-4.631c-0.013-1.953,0.018-3.776,0.075-5.43c40.594-6.089,81.74,1.664,91.844,3.809      C385.478,89.893,385.199,91.999,384.869,94.289z M298.158,76.689c20.211-6.028,37.4-7.015,51.133-5.807      c16.261,1.43,27.675,5.94,33.498,8.807c1.213,0.596,2.134,1.593,2.683,2.773c-12.119-2.478-51.063-9.303-90.118-3.927      C296.078,77.682,297.036,77.024,298.158,76.689z M316.919,134.57c-3.163-0.424-5.891-1.464-8.265-2.951l53.027,4.637      C350.013,138.502,333.899,136.842,316.919,134.57z M372.324,132.193l0.038-0.434l-69.609-6.086l-0.037,0.422      c-1.245-1.647-2.33-3.463-3.263-5.412l78.81,4.305C376.997,128.024,374.974,130.387,372.324,132.193z"/>
			</g>
			<g>
				<g>
					<polygon style="fill:#FFE3BF;" points="257.12,433.768 203.007,411.336 250.644,378.377      "/>
				</g>
				<g>
					<polygon style="fill:#FF6A6C;" points="447.934,265.666 414.96,300.472 403.696,254.417      "/>
				</g>
				<g>
					<polygon style="fill:#FFE3BF;" points="289.131,167.688 256.157,202.494 244.894,156.438      "/>
				</g>
			</g>
			<g>
				<g>
					<path style="fill:#FFA073;" d="M371.221,193.216c0,4.632-3.755,8.386-8.386,8.386c-4.631,0-8.386-3.755-8.386-8.386       c0-4.631,3.755-8.386,8.386-8.386C367.466,184.829,371.221,188.584,371.221,193.216z"/>
				</g>
				<g>
					<path style="fill:#7657AA;" d="M165.165,123.144c0,4.632-3.755,8.386-8.386,8.386c-4.632,0-8.386-3.755-8.386-8.386       s3.755-8.386,8.386-8.386C161.411,114.758,165.165,118.513,165.165,123.144z"/>
				</g>
				<g>
					<path style="fill:#FFE3BF;" d="M201.906,393.754c0,4.632-3.755,8.386-8.386,8.386c-4.632,0-8.386-3.755-8.386-8.386       c0-4.632,3.755-8.386,8.386-8.386C198.152,385.368,201.906,389.122,201.906,393.754z"/>
				</g>
				<g>
					<path style="fill:#FFE3BF;" d="M335.723,284.083c0,4.631-3.755,8.386-8.386,8.386c-4.632,0-8.386-3.755-8.386-8.386       c0-4.632,3.755-8.386,8.386-8.386C331.969,275.696,335.723,279.451,335.723,284.083z"/>
				</g>
				<g>
					<path style="fill:#FFA073;" d="M310.301,383.89c0.868,5.667-3.943,10.478-9.609,9.611c-3.531-0.54-6.418-3.426-6.959-6.958       c-0.869-5.668,3.942-10.48,9.61-9.612C306.874,377.472,309.761,380.359,310.301,383.89z"/>
				</g>
			</g>
		</g>
	</g>
</g>















</svg>
